G04 #@! TF.GenerationSoftware,KiCad,Pcbnew,(5.1.9-0-10_14)*
G04 #@! TF.CreationDate,2021-04-12T02:05:24-07:00*
G04 #@! TF.ProjectId,LED_array,4c45445f-6172-4726-9179-2e6b69636164,rev?*
G04 #@! TF.SameCoordinates,Original*
G04 #@! TF.FileFunction,Paste,Top*
G04 #@! TF.FilePolarity,Positive*
%FSLAX46Y46*%
G04 Gerber Fmt 4.6, Leading zero omitted, Abs format (unit mm)*
G04 Created by KiCad (PCBNEW (5.1.9-0-10_14)) date 2021-04-12 02:05:24*
%MOMM*%
%LPD*%
G01*
G04 APERTURE LIST*
%ADD10R,1.250000X1.800000*%
%ADD11R,0.600000X1.600000*%
%ADD12R,0.450000X0.850000*%
%ADD13R,0.450000X0.650000*%
G04 APERTURE END LIST*
D10*
X66715000Y-24550000D03*
D11*
X56610000Y-30040000D03*
X58110000Y-30040000D03*
X59610000Y-30040000D03*
X61110000Y-30040000D03*
X62610000Y-30040000D03*
D10*
X54005000Y-24550000D03*
D11*
X64110000Y-30040000D03*
D12*
X69100000Y-63700000D03*
D13*
X68300000Y-63600000D03*
X69900000Y-63600000D03*
X69100000Y-65000000D03*
X68300000Y-65000000D03*
X69900000Y-65000000D03*
D12*
X50900000Y-36300000D03*
D13*
X51700000Y-36400000D03*
X50100000Y-36400000D03*
X50900000Y-35000000D03*
X51700000Y-35000000D03*
X50100000Y-35000000D03*
D12*
X53500000Y-36300000D03*
D13*
X54300000Y-36400000D03*
X52700000Y-36400000D03*
X53500000Y-35000000D03*
X54300000Y-35000000D03*
X52700000Y-35000000D03*
D12*
X56100000Y-36300000D03*
D13*
X56900000Y-36400000D03*
X55300000Y-36400000D03*
X56100000Y-35000000D03*
X56900000Y-35000000D03*
X55300000Y-35000000D03*
D12*
X58700000Y-36300000D03*
D13*
X59500000Y-36400000D03*
X57900000Y-36400000D03*
X58700000Y-35000000D03*
X59500000Y-35000000D03*
X57900000Y-35000000D03*
D12*
X61300000Y-36300000D03*
D13*
X62100000Y-36400000D03*
X60500000Y-36400000D03*
X61300000Y-35000000D03*
X62100000Y-35000000D03*
X60500000Y-35000000D03*
D12*
X63900000Y-36300000D03*
D13*
X64700000Y-36400000D03*
X63100000Y-36400000D03*
X63900000Y-35000000D03*
X64700000Y-35000000D03*
X63100000Y-35000000D03*
D12*
X66500000Y-36300000D03*
D13*
X67300000Y-36400000D03*
X65700000Y-36400000D03*
X66500000Y-35000000D03*
X67300000Y-35000000D03*
X65700000Y-35000000D03*
D12*
X69100000Y-36300000D03*
D13*
X69900000Y-36400000D03*
X68300000Y-36400000D03*
X69100000Y-35000000D03*
X69900000Y-35000000D03*
X68300000Y-35000000D03*
D12*
X69100000Y-37700000D03*
D13*
X68300000Y-37600000D03*
X69900000Y-37600000D03*
X69100000Y-39000000D03*
X68300000Y-39000000D03*
X69900000Y-39000000D03*
D12*
X66500000Y-37700000D03*
D13*
X65700000Y-37600000D03*
X67300000Y-37600000D03*
X66500000Y-39000000D03*
X65700000Y-39000000D03*
X67300000Y-39000000D03*
D12*
X63900000Y-37700000D03*
D13*
X63100000Y-37600000D03*
X64700000Y-37600000D03*
X63900000Y-39000000D03*
X63100000Y-39000000D03*
X64700000Y-39000000D03*
D12*
X61300000Y-37700000D03*
D13*
X60500000Y-37600000D03*
X62100000Y-37600000D03*
X61300000Y-39000000D03*
X60500000Y-39000000D03*
X62100000Y-39000000D03*
D12*
X58700000Y-37700000D03*
D13*
X57900000Y-37600000D03*
X59500000Y-37600000D03*
X58700000Y-39000000D03*
X57900000Y-39000000D03*
X59500000Y-39000000D03*
D12*
X56100000Y-37700000D03*
D13*
X55300000Y-37600000D03*
X56900000Y-37600000D03*
X56100000Y-39000000D03*
X55300000Y-39000000D03*
X56900000Y-39000000D03*
D12*
X53500000Y-37700000D03*
D13*
X52700000Y-37600000D03*
X54300000Y-37600000D03*
X53500000Y-39000000D03*
X52700000Y-39000000D03*
X54300000Y-39000000D03*
D12*
X50900000Y-37700000D03*
D13*
X50100000Y-37600000D03*
X51700000Y-37600000D03*
X50900000Y-39000000D03*
X50100000Y-39000000D03*
X51700000Y-39000000D03*
D12*
X45700000Y-41500000D03*
D13*
X46500000Y-41600000D03*
X44900000Y-41600000D03*
X45700000Y-40200000D03*
X46500000Y-40200000D03*
X44900000Y-40200000D03*
D12*
X48300000Y-41500000D03*
D13*
X49100000Y-41600000D03*
X47500000Y-41600000D03*
X48300000Y-40200000D03*
X49100000Y-40200000D03*
X47500000Y-40200000D03*
D12*
X50900000Y-41500000D03*
D13*
X51700000Y-41600000D03*
X50100000Y-41600000D03*
X50900000Y-40200000D03*
X51700000Y-40200000D03*
X50100000Y-40200000D03*
D12*
X53500000Y-41500000D03*
D13*
X54300000Y-41600000D03*
X52700000Y-41600000D03*
X53500000Y-40200000D03*
X54300000Y-40200000D03*
X52700000Y-40200000D03*
D12*
X56100000Y-41500000D03*
D13*
X56900000Y-41600000D03*
X55300000Y-41600000D03*
X56100000Y-40200000D03*
X56900000Y-40200000D03*
X55300000Y-40200000D03*
D12*
X58700000Y-41500000D03*
D13*
X59500000Y-41600000D03*
X57900000Y-41600000D03*
X58700000Y-40200000D03*
X59500000Y-40200000D03*
X57900000Y-40200000D03*
D12*
X61300000Y-41500000D03*
D13*
X62100000Y-41600000D03*
X60500000Y-41600000D03*
X61300000Y-40200000D03*
X62100000Y-40200000D03*
X60500000Y-40200000D03*
D12*
X63900000Y-41500000D03*
D13*
X64700000Y-41600000D03*
X63100000Y-41600000D03*
X63900000Y-40200000D03*
X64700000Y-40200000D03*
X63100000Y-40200000D03*
D12*
X66500000Y-41500000D03*
D13*
X67300000Y-41600000D03*
X65700000Y-41600000D03*
X66500000Y-40200000D03*
X67300000Y-40200000D03*
X65700000Y-40200000D03*
D12*
X69100000Y-41500000D03*
D13*
X69900000Y-41600000D03*
X68300000Y-41600000D03*
X69100000Y-40200000D03*
X69900000Y-40200000D03*
X68300000Y-40200000D03*
D12*
X71700000Y-41500000D03*
D13*
X72500000Y-41600000D03*
X70900000Y-41600000D03*
X71700000Y-40200000D03*
X72500000Y-40200000D03*
X70900000Y-40200000D03*
D12*
X74300000Y-41500000D03*
D13*
X75100000Y-41600000D03*
X73500000Y-41600000D03*
X74300000Y-40200000D03*
X75100000Y-40200000D03*
X73500000Y-40200000D03*
D12*
X74300000Y-42900000D03*
D13*
X73500000Y-42800000D03*
X75100000Y-42800000D03*
X74300000Y-44200000D03*
X73500000Y-44200000D03*
X75100000Y-44200000D03*
D12*
X71700000Y-42900000D03*
D13*
X70900000Y-42800000D03*
X72500000Y-42800000D03*
X71700000Y-44200000D03*
X70900000Y-44200000D03*
X72500000Y-44200000D03*
D12*
X69100000Y-42900000D03*
D13*
X68300000Y-42800000D03*
X69900000Y-42800000D03*
X69100000Y-44200000D03*
X68300000Y-44200000D03*
X69900000Y-44200000D03*
D12*
X66500000Y-42900000D03*
D13*
X65700000Y-42800000D03*
X67300000Y-42800000D03*
X66500000Y-44200000D03*
X65700000Y-44200000D03*
X67300000Y-44200000D03*
D12*
X63900000Y-42900000D03*
D13*
X63100000Y-42800000D03*
X64700000Y-42800000D03*
X63900000Y-44200000D03*
X63100000Y-44200000D03*
X64700000Y-44200000D03*
D12*
X61300000Y-42900000D03*
D13*
X60500000Y-42800000D03*
X62100000Y-42800000D03*
X61300000Y-44200000D03*
X60500000Y-44200000D03*
X62100000Y-44200000D03*
D12*
X58700000Y-42900000D03*
D13*
X57900000Y-42800000D03*
X59500000Y-42800000D03*
X58700000Y-44200000D03*
X57900000Y-44200000D03*
X59500000Y-44200000D03*
D12*
X56100000Y-42900000D03*
D13*
X55300000Y-42800000D03*
X56900000Y-42800000D03*
X56100000Y-44200000D03*
X55300000Y-44200000D03*
X56900000Y-44200000D03*
D12*
X53500000Y-42900000D03*
D13*
X52700000Y-42800000D03*
X54300000Y-42800000D03*
X53500000Y-44200000D03*
X52700000Y-44200000D03*
X54300000Y-44200000D03*
D12*
X50900000Y-42900000D03*
D13*
X50100000Y-42800000D03*
X51700000Y-42800000D03*
X50900000Y-44200000D03*
X50100000Y-44200000D03*
X51700000Y-44200000D03*
D12*
X48300000Y-42900000D03*
D13*
X47500000Y-42800000D03*
X49100000Y-42800000D03*
X48300000Y-44200000D03*
X47500000Y-44200000D03*
X49100000Y-44200000D03*
D12*
X45700000Y-42900000D03*
D13*
X44900000Y-42800000D03*
X46500000Y-42800000D03*
X45700000Y-44200000D03*
X44900000Y-44200000D03*
X46500000Y-44200000D03*
D12*
X45700000Y-46700000D03*
D13*
X46500000Y-46800000D03*
X44900000Y-46800000D03*
X45700000Y-45400000D03*
X46500000Y-45400000D03*
X44900000Y-45400000D03*
D12*
X48300000Y-46700000D03*
D13*
X49100000Y-46800000D03*
X47500000Y-46800000D03*
X48300000Y-45400000D03*
X49100000Y-45400000D03*
X47500000Y-45400000D03*
D12*
X50900000Y-46700000D03*
D13*
X51700000Y-46800000D03*
X50100000Y-46800000D03*
X50900000Y-45400000D03*
X51700000Y-45400000D03*
X50100000Y-45400000D03*
D12*
X53500000Y-46700000D03*
D13*
X54300000Y-46800000D03*
X52700000Y-46800000D03*
X53500000Y-45400000D03*
X54300000Y-45400000D03*
X52700000Y-45400000D03*
D12*
X56100000Y-46700000D03*
D13*
X56900000Y-46800000D03*
X55300000Y-46800000D03*
X56100000Y-45400000D03*
X56900000Y-45400000D03*
X55300000Y-45400000D03*
D12*
X58700000Y-46700000D03*
D13*
X59500000Y-46800000D03*
X57900000Y-46800000D03*
X58700000Y-45400000D03*
X59500000Y-45400000D03*
X57900000Y-45400000D03*
D12*
X61300000Y-46700000D03*
D13*
X62100000Y-46800000D03*
X60500000Y-46800000D03*
X61300000Y-45400000D03*
X62100000Y-45400000D03*
X60500000Y-45400000D03*
D12*
X63900000Y-46700000D03*
D13*
X64700000Y-46800000D03*
X63100000Y-46800000D03*
X63900000Y-45400000D03*
X64700000Y-45400000D03*
X63100000Y-45400000D03*
D12*
X66500000Y-46700000D03*
D13*
X67300000Y-46800000D03*
X65700000Y-46800000D03*
X66500000Y-45400000D03*
X67300000Y-45400000D03*
X65700000Y-45400000D03*
D12*
X69100000Y-46700000D03*
D13*
X69900000Y-46800000D03*
X68300000Y-46800000D03*
X69100000Y-45400000D03*
X69900000Y-45400000D03*
X68300000Y-45400000D03*
D12*
X71700000Y-46700000D03*
D13*
X72500000Y-46800000D03*
X70900000Y-46800000D03*
X71700000Y-45400000D03*
X72500000Y-45400000D03*
X70900000Y-45400000D03*
D12*
X74300000Y-46700000D03*
D13*
X75100000Y-46800000D03*
X73500000Y-46800000D03*
X74300000Y-45400000D03*
X75100000Y-45400000D03*
X73500000Y-45400000D03*
D12*
X74300000Y-48100000D03*
D13*
X73500000Y-48000000D03*
X75100000Y-48000000D03*
X74300000Y-49400000D03*
X73500000Y-49400000D03*
X75100000Y-49400000D03*
D12*
X71700000Y-48100000D03*
D13*
X70900000Y-48000000D03*
X72500000Y-48000000D03*
X71700000Y-49400000D03*
X70900000Y-49400000D03*
X72500000Y-49400000D03*
D12*
X69100000Y-48100000D03*
D13*
X68300000Y-48000000D03*
X69900000Y-48000000D03*
X69100000Y-49400000D03*
X68300000Y-49400000D03*
X69900000Y-49400000D03*
D12*
X66500000Y-48100000D03*
D13*
X65700000Y-48000000D03*
X67300000Y-48000000D03*
X66500000Y-49400000D03*
X65700000Y-49400000D03*
X67300000Y-49400000D03*
D12*
X63900000Y-48100000D03*
D13*
X63100000Y-48000000D03*
X64700000Y-48000000D03*
X63900000Y-49400000D03*
X63100000Y-49400000D03*
X64700000Y-49400000D03*
D12*
X61300000Y-48100000D03*
D13*
X60500000Y-48000000D03*
X62100000Y-48000000D03*
X61300000Y-49400000D03*
X60500000Y-49400000D03*
X62100000Y-49400000D03*
D12*
X58700000Y-48100000D03*
D13*
X57900000Y-48000000D03*
X59500000Y-48000000D03*
X58700000Y-49400000D03*
X57900000Y-49400000D03*
X59500000Y-49400000D03*
D12*
X56100000Y-48100000D03*
D13*
X55300000Y-48000000D03*
X56900000Y-48000000D03*
X56100000Y-49400000D03*
X55300000Y-49400000D03*
X56900000Y-49400000D03*
D12*
X53500000Y-48100000D03*
D13*
X52700000Y-48000000D03*
X54300000Y-48000000D03*
X53500000Y-49400000D03*
X52700000Y-49400000D03*
X54300000Y-49400000D03*
D12*
X50900000Y-48100000D03*
D13*
X50100000Y-48000000D03*
X51700000Y-48000000D03*
X50900000Y-49400000D03*
X50100000Y-49400000D03*
X51700000Y-49400000D03*
D12*
X48300000Y-48100000D03*
D13*
X47500000Y-48000000D03*
X49100000Y-48000000D03*
X48300000Y-49400000D03*
X47500000Y-49400000D03*
X49100000Y-49400000D03*
D12*
X45700000Y-48100000D03*
D13*
X44900000Y-48000000D03*
X46500000Y-48000000D03*
X45700000Y-49400000D03*
X44900000Y-49400000D03*
X46500000Y-49400000D03*
D12*
X45700000Y-51900000D03*
D13*
X46500000Y-52000000D03*
X44900000Y-52000000D03*
X45700000Y-50600000D03*
X46500000Y-50600000D03*
X44900000Y-50600000D03*
D12*
X48300000Y-51900000D03*
D13*
X49100000Y-52000000D03*
X47500000Y-52000000D03*
X48300000Y-50600000D03*
X49100000Y-50600000D03*
X47500000Y-50600000D03*
D12*
X50900000Y-51900000D03*
D13*
X51700000Y-52000000D03*
X50100000Y-52000000D03*
X50900000Y-50600000D03*
X51700000Y-50600000D03*
X50100000Y-50600000D03*
D12*
X53500000Y-51900000D03*
D13*
X54300000Y-52000000D03*
X52700000Y-52000000D03*
X53500000Y-50600000D03*
X54300000Y-50600000D03*
X52700000Y-50600000D03*
D12*
X56100000Y-51900000D03*
D13*
X56900000Y-52000000D03*
X55300000Y-52000000D03*
X56100000Y-50600000D03*
X56900000Y-50600000D03*
X55300000Y-50600000D03*
D12*
X58700000Y-51900000D03*
D13*
X59500000Y-52000000D03*
X57900000Y-52000000D03*
X58700000Y-50600000D03*
X59500000Y-50600000D03*
X57900000Y-50600000D03*
D12*
X61300000Y-51900000D03*
D13*
X62100000Y-52000000D03*
X60500000Y-52000000D03*
X61300000Y-50600000D03*
X62100000Y-50600000D03*
X60500000Y-50600000D03*
D12*
X63900000Y-51900000D03*
D13*
X64700000Y-52000000D03*
X63100000Y-52000000D03*
X63900000Y-50600000D03*
X64700000Y-50600000D03*
X63100000Y-50600000D03*
D12*
X66500000Y-51900000D03*
D13*
X67300000Y-52000000D03*
X65700000Y-52000000D03*
X66500000Y-50600000D03*
X67300000Y-50600000D03*
X65700000Y-50600000D03*
D12*
X69100000Y-51900000D03*
D13*
X69900000Y-52000000D03*
X68300000Y-52000000D03*
X69100000Y-50600000D03*
X69900000Y-50600000D03*
X68300000Y-50600000D03*
D12*
X71700000Y-51900000D03*
D13*
X72500000Y-52000000D03*
X70900000Y-52000000D03*
X71700000Y-50600000D03*
X72500000Y-50600000D03*
X70900000Y-50600000D03*
D12*
X74300000Y-51900000D03*
D13*
X75100000Y-52000000D03*
X73500000Y-52000000D03*
X74300000Y-50600000D03*
X75100000Y-50600000D03*
X73500000Y-50600000D03*
D12*
X74300000Y-53300000D03*
D13*
X73500000Y-53200000D03*
X75100000Y-53200000D03*
X74300000Y-54600000D03*
X73500000Y-54600000D03*
X75100000Y-54600000D03*
D12*
X71700000Y-53300000D03*
D13*
X70900000Y-53200000D03*
X72500000Y-53200000D03*
X71700000Y-54600000D03*
X70900000Y-54600000D03*
X72500000Y-54600000D03*
D12*
X69100000Y-53300000D03*
D13*
X68300000Y-53200000D03*
X69900000Y-53200000D03*
X69100000Y-54600000D03*
X68300000Y-54600000D03*
X69900000Y-54600000D03*
D12*
X66500000Y-53300000D03*
D13*
X65700000Y-53200000D03*
X67300000Y-53200000D03*
X66500000Y-54600000D03*
X65700000Y-54600000D03*
X67300000Y-54600000D03*
D12*
X63900000Y-53300000D03*
D13*
X63100000Y-53200000D03*
X64700000Y-53200000D03*
X63900000Y-54600000D03*
X63100000Y-54600000D03*
X64700000Y-54600000D03*
D12*
X61300000Y-53300000D03*
D13*
X60500000Y-53200000D03*
X62100000Y-53200000D03*
X61300000Y-54600000D03*
X60500000Y-54600000D03*
X62100000Y-54600000D03*
D12*
X58700000Y-53300000D03*
D13*
X57900000Y-53200000D03*
X59500000Y-53200000D03*
X58700000Y-54600000D03*
X57900000Y-54600000D03*
X59500000Y-54600000D03*
D12*
X56100000Y-53300000D03*
D13*
X55300000Y-53200000D03*
X56900000Y-53200000D03*
X56100000Y-54600000D03*
X55300000Y-54600000D03*
X56900000Y-54600000D03*
D12*
X53500000Y-53300000D03*
D13*
X52700000Y-53200000D03*
X54300000Y-53200000D03*
X53500000Y-54600000D03*
X52700000Y-54600000D03*
X54300000Y-54600000D03*
D12*
X50900000Y-53300000D03*
D13*
X50100000Y-53200000D03*
X51700000Y-53200000D03*
X50900000Y-54600000D03*
X50100000Y-54600000D03*
X51700000Y-54600000D03*
D12*
X48300000Y-53300000D03*
D13*
X47500000Y-53200000D03*
X49100000Y-53200000D03*
X48300000Y-54600000D03*
X47500000Y-54600000D03*
X49100000Y-54600000D03*
D12*
X45700000Y-53300000D03*
D13*
X44900000Y-53200000D03*
X46500000Y-53200000D03*
X45700000Y-54600000D03*
X44900000Y-54600000D03*
X46500000Y-54600000D03*
D12*
X45700000Y-57100000D03*
D13*
X46500000Y-57200000D03*
X44900000Y-57200000D03*
X45700000Y-55800000D03*
X46500000Y-55800000D03*
X44900000Y-55800000D03*
D12*
X48300000Y-57100000D03*
D13*
X49100000Y-57200000D03*
X47500000Y-57200000D03*
X48300000Y-55800000D03*
X49100000Y-55800000D03*
X47500000Y-55800000D03*
D12*
X50900000Y-57100000D03*
D13*
X51700000Y-57200000D03*
X50100000Y-57200000D03*
X50900000Y-55800000D03*
X51700000Y-55800000D03*
X50100000Y-55800000D03*
D12*
X53500000Y-57100000D03*
D13*
X54300000Y-57200000D03*
X52700000Y-57200000D03*
X53500000Y-55800000D03*
X54300000Y-55800000D03*
X52700000Y-55800000D03*
D12*
X56100000Y-57100000D03*
D13*
X56900000Y-57200000D03*
X55300000Y-57200000D03*
X56100000Y-55800000D03*
X56900000Y-55800000D03*
X55300000Y-55800000D03*
D12*
X58700000Y-57100000D03*
D13*
X59500000Y-57200000D03*
X57900000Y-57200000D03*
X58700000Y-55800000D03*
X59500000Y-55800000D03*
X57900000Y-55800000D03*
D12*
X61300000Y-57100000D03*
D13*
X62100000Y-57200000D03*
X60500000Y-57200000D03*
X61300000Y-55800000D03*
X62100000Y-55800000D03*
X60500000Y-55800000D03*
D12*
X63900000Y-57100000D03*
D13*
X64700000Y-57200000D03*
X63100000Y-57200000D03*
X63900000Y-55800000D03*
X64700000Y-55800000D03*
X63100000Y-55800000D03*
D12*
X66500000Y-57100000D03*
D13*
X67300000Y-57200000D03*
X65700000Y-57200000D03*
X66500000Y-55800000D03*
X67300000Y-55800000D03*
X65700000Y-55800000D03*
D12*
X69100000Y-57100000D03*
D13*
X69900000Y-57200000D03*
X68300000Y-57200000D03*
X69100000Y-55800000D03*
X69900000Y-55800000D03*
X68300000Y-55800000D03*
D12*
X71700000Y-57100000D03*
D13*
X72500000Y-57200000D03*
X70900000Y-57200000D03*
X71700000Y-55800000D03*
X72500000Y-55800000D03*
X70900000Y-55800000D03*
D12*
X74300000Y-57100000D03*
D13*
X75100000Y-57200000D03*
X73500000Y-57200000D03*
X74300000Y-55800000D03*
X75100000Y-55800000D03*
X73500000Y-55800000D03*
D12*
X74300000Y-58500000D03*
D13*
X73500000Y-58400000D03*
X75100000Y-58400000D03*
X74300000Y-59800000D03*
X73500000Y-59800000D03*
X75100000Y-59800000D03*
D12*
X71700000Y-58500000D03*
D13*
X70900000Y-58400000D03*
X72500000Y-58400000D03*
X71700000Y-59800000D03*
X70900000Y-59800000D03*
X72500000Y-59800000D03*
D12*
X69100000Y-58500000D03*
D13*
X68300000Y-58400000D03*
X69900000Y-58400000D03*
X69100000Y-59800000D03*
X68300000Y-59800000D03*
X69900000Y-59800000D03*
D12*
X66500000Y-58500000D03*
D13*
X65700000Y-58400000D03*
X67300000Y-58400000D03*
X66500000Y-59800000D03*
X65700000Y-59800000D03*
X67300000Y-59800000D03*
D12*
X63900000Y-58500000D03*
D13*
X63100000Y-58400000D03*
X64700000Y-58400000D03*
X63900000Y-59800000D03*
X63100000Y-59800000D03*
X64700000Y-59800000D03*
D12*
X61300000Y-58500000D03*
D13*
X60500000Y-58400000D03*
X62100000Y-58400000D03*
X61300000Y-59800000D03*
X60500000Y-59800000D03*
X62100000Y-59800000D03*
D12*
X58700000Y-58500000D03*
D13*
X57900000Y-58400000D03*
X59500000Y-58400000D03*
X58700000Y-59800000D03*
X57900000Y-59800000D03*
X59500000Y-59800000D03*
D12*
X56100000Y-58500000D03*
D13*
X55300000Y-58400000D03*
X56900000Y-58400000D03*
X56100000Y-59800000D03*
X55300000Y-59800000D03*
X56900000Y-59800000D03*
D12*
X53500000Y-58500000D03*
D13*
X52700000Y-58400000D03*
X54300000Y-58400000D03*
X53500000Y-59800000D03*
X52700000Y-59800000D03*
X54300000Y-59800000D03*
D12*
X50900000Y-58500000D03*
D13*
X50100000Y-58400000D03*
X51700000Y-58400000D03*
X50900000Y-59800000D03*
X50100000Y-59800000D03*
X51700000Y-59800000D03*
D12*
X48300000Y-58500000D03*
D13*
X47500000Y-58400000D03*
X49100000Y-58400000D03*
X48300000Y-59800000D03*
X47500000Y-59800000D03*
X49100000Y-59800000D03*
D12*
X45700000Y-58500000D03*
D13*
X44900000Y-58400000D03*
X46500000Y-58400000D03*
X45700000Y-59800000D03*
X44900000Y-59800000D03*
X46500000Y-59800000D03*
D12*
X50900000Y-62300000D03*
D13*
X51700000Y-62400000D03*
X50100000Y-62400000D03*
X50900000Y-61000000D03*
X51700000Y-61000000D03*
X50100000Y-61000000D03*
D12*
X53500000Y-62300000D03*
D13*
X54300000Y-62400000D03*
X52700000Y-62400000D03*
X53500000Y-61000000D03*
X54300000Y-61000000D03*
X52700000Y-61000000D03*
D12*
X56100000Y-62300000D03*
D13*
X56900000Y-62400000D03*
X55300000Y-62400000D03*
X56100000Y-61000000D03*
X56900000Y-61000000D03*
X55300000Y-61000000D03*
D12*
X58700000Y-62300000D03*
D13*
X59500000Y-62400000D03*
X57900000Y-62400000D03*
X58700000Y-61000000D03*
X59500000Y-61000000D03*
X57900000Y-61000000D03*
D12*
X61300000Y-62300000D03*
D13*
X62100000Y-62400000D03*
X60500000Y-62400000D03*
X61300000Y-61000000D03*
X62100000Y-61000000D03*
X60500000Y-61000000D03*
D12*
X63900000Y-62300000D03*
D13*
X64700000Y-62400000D03*
X63100000Y-62400000D03*
X63900000Y-61000000D03*
X64700000Y-61000000D03*
X63100000Y-61000000D03*
D12*
X66500000Y-62300000D03*
D13*
X67300000Y-62400000D03*
X65700000Y-62400000D03*
X66500000Y-61000000D03*
X67300000Y-61000000D03*
X65700000Y-61000000D03*
D12*
X69100000Y-62300000D03*
D13*
X69900000Y-62400000D03*
X68300000Y-62400000D03*
X69100000Y-61000000D03*
X69900000Y-61000000D03*
X68300000Y-61000000D03*
D12*
X66500000Y-63700000D03*
D13*
X65700000Y-63600000D03*
X67300000Y-63600000D03*
X66500000Y-65000000D03*
X65700000Y-65000000D03*
X67300000Y-65000000D03*
D12*
X63900000Y-63700000D03*
D13*
X63100000Y-63600000D03*
X64700000Y-63600000D03*
X63900000Y-65000000D03*
X63100000Y-65000000D03*
X64700000Y-65000000D03*
D12*
X61300000Y-63700000D03*
D13*
X60500000Y-63600000D03*
X62100000Y-63600000D03*
X61300000Y-65000000D03*
X60500000Y-65000000D03*
X62100000Y-65000000D03*
D12*
X58700000Y-63700000D03*
D13*
X57900000Y-63600000D03*
X59500000Y-63600000D03*
X58700000Y-65000000D03*
X57900000Y-65000000D03*
X59500000Y-65000000D03*
D12*
X56100000Y-63700000D03*
D13*
X55300000Y-63600000D03*
X56900000Y-63600000D03*
X56100000Y-65000000D03*
X55300000Y-65000000D03*
X56900000Y-65000000D03*
D12*
X53500000Y-63700000D03*
D13*
X52700000Y-63600000D03*
X54300000Y-63600000D03*
X53500000Y-65000000D03*
X52700000Y-65000000D03*
X54300000Y-65000000D03*
X51700000Y-65000000D03*
X50100000Y-65000000D03*
X50900000Y-65000000D03*
X51700000Y-63600000D03*
X50100000Y-63600000D03*
D12*
X50900000Y-63700000D03*
G36*
G01*
X49250001Y-26100000D02*
X47949999Y-26100000D01*
G75*
G02*
X47700000Y-25850001I0J249999D01*
G01*
X47700000Y-25199999D01*
G75*
G02*
X47949999Y-24950000I249999J0D01*
G01*
X49250001Y-24950000D01*
G75*
G02*
X49500000Y-25199999I0J-249999D01*
G01*
X49500000Y-25850001D01*
G75*
G02*
X49250001Y-26100000I-249999J0D01*
G01*
G37*
G36*
G01*
X49250001Y-29050000D02*
X47949999Y-29050000D01*
G75*
G02*
X47700000Y-28800001I0J249999D01*
G01*
X47700000Y-28149999D01*
G75*
G02*
X47949999Y-27900000I249999J0D01*
G01*
X49250001Y-27900000D01*
G75*
G02*
X49500000Y-28149999I0J-249999D01*
G01*
X49500000Y-28800001D01*
G75*
G02*
X49250001Y-29050000I-249999J0D01*
G01*
G37*
G36*
G01*
X76650001Y-26100000D02*
X75349999Y-26100000D01*
G75*
G02*
X75100000Y-25850001I0J249999D01*
G01*
X75100000Y-25199999D01*
G75*
G02*
X75349999Y-24950000I249999J0D01*
G01*
X76650001Y-24950000D01*
G75*
G02*
X76900000Y-25199999I0J-249999D01*
G01*
X76900000Y-25850001D01*
G75*
G02*
X76650001Y-26100000I-249999J0D01*
G01*
G37*
G36*
G01*
X76650001Y-29050000D02*
X75349999Y-29050000D01*
G75*
G02*
X75100000Y-28800001I0J249999D01*
G01*
X75100000Y-28149999D01*
G75*
G02*
X75349999Y-27900000I249999J0D01*
G01*
X76650001Y-27900000D01*
G75*
G02*
X76900000Y-28149999I0J-249999D01*
G01*
X76900000Y-28800001D01*
G75*
G02*
X76650001Y-29050000I-249999J0D01*
G01*
G37*
G36*
G01*
X45250001Y-26100000D02*
X43949999Y-26100000D01*
G75*
G02*
X43700000Y-25850001I0J249999D01*
G01*
X43700000Y-25199999D01*
G75*
G02*
X43949999Y-24950000I249999J0D01*
G01*
X45250001Y-24950000D01*
G75*
G02*
X45500000Y-25199999I0J-249999D01*
G01*
X45500000Y-25850001D01*
G75*
G02*
X45250001Y-26100000I-249999J0D01*
G01*
G37*
G36*
G01*
X45250001Y-29050000D02*
X43949999Y-29050000D01*
G75*
G02*
X43700000Y-28800001I0J249999D01*
G01*
X43700000Y-28149999D01*
G75*
G02*
X43949999Y-27900000I249999J0D01*
G01*
X45250001Y-27900000D01*
G75*
G02*
X45500000Y-28149999I0J-249999D01*
G01*
X45500000Y-28800001D01*
G75*
G02*
X45250001Y-29050000I-249999J0D01*
G01*
G37*
G36*
G01*
X72650001Y-26100000D02*
X71349999Y-26100000D01*
G75*
G02*
X71100000Y-25850001I0J249999D01*
G01*
X71100000Y-25199999D01*
G75*
G02*
X71349999Y-24950000I249999J0D01*
G01*
X72650001Y-24950000D01*
G75*
G02*
X72900000Y-25199999I0J-249999D01*
G01*
X72900000Y-25850001D01*
G75*
G02*
X72650001Y-26100000I-249999J0D01*
G01*
G37*
G36*
G01*
X72650001Y-29050000D02*
X71349999Y-29050000D01*
G75*
G02*
X71100000Y-28800001I0J249999D01*
G01*
X71100000Y-28149999D01*
G75*
G02*
X71349999Y-27900000I249999J0D01*
G01*
X72650001Y-27900000D01*
G75*
G02*
X72900000Y-28149999I0J-249999D01*
G01*
X72900000Y-28800001D01*
G75*
G02*
X72650001Y-29050000I-249999J0D01*
G01*
G37*
G36*
G01*
X63005000Y-32865000D02*
X63005000Y-32315000D01*
G75*
G02*
X63205000Y-32115000I200000J0D01*
G01*
X63605000Y-32115000D01*
G75*
G02*
X63805000Y-32315000I0J-200000D01*
G01*
X63805000Y-32865000D01*
G75*
G02*
X63605000Y-33065000I-200000J0D01*
G01*
X63205000Y-33065000D01*
G75*
G02*
X63005000Y-32865000I0J200000D01*
G01*
G37*
G36*
G01*
X61355000Y-32865000D02*
X61355000Y-32315000D01*
G75*
G02*
X61555000Y-32115000I200000J0D01*
G01*
X61955000Y-32115000D01*
G75*
G02*
X62155000Y-32315000I0J-200000D01*
G01*
X62155000Y-32865000D01*
G75*
G02*
X61955000Y-33065000I-200000J0D01*
G01*
X61555000Y-33065000D01*
G75*
G02*
X61355000Y-32865000I0J200000D01*
G01*
G37*
G36*
G01*
X58845000Y-32845000D02*
X58845000Y-32295000D01*
G75*
G02*
X59045000Y-32095000I200000J0D01*
G01*
X59445000Y-32095000D01*
G75*
G02*
X59645000Y-32295000I0J-200000D01*
G01*
X59645000Y-32845000D01*
G75*
G02*
X59445000Y-33045000I-200000J0D01*
G01*
X59045000Y-33045000D01*
G75*
G02*
X58845000Y-32845000I0J200000D01*
G01*
G37*
G36*
G01*
X57195000Y-32845000D02*
X57195000Y-32295000D01*
G75*
G02*
X57395000Y-32095000I200000J0D01*
G01*
X57795000Y-32095000D01*
G75*
G02*
X57995000Y-32295000I0J-200000D01*
G01*
X57995000Y-32845000D01*
G75*
G02*
X57795000Y-33045000I-200000J0D01*
G01*
X57395000Y-33045000D01*
G75*
G02*
X57195000Y-32845000I0J200000D01*
G01*
G37*
M02*
