G04 #@! TF.GenerationSoftware,KiCad,Pcbnew,(5.1.9-0-10_14)*
G04 #@! TF.CreationDate,2021-05-04T01:16:58-07:00*
G04 #@! TF.ProjectId,LED_array,4c45445f-6172-4726-9179-2e6b69636164,rev?*
G04 #@! TF.SameCoordinates,Original*
G04 #@! TF.FileFunction,Copper,L4,Bot*
G04 #@! TF.FilePolarity,Positive*
%FSLAX46Y46*%
G04 Gerber Fmt 4.6, Leading zero omitted, Abs format (unit mm)*
G04 Created by KiCad (PCBNEW (5.1.9-0-10_14)) date 2021-05-04 01:16:58*
%MOMM*%
%LPD*%
G01*
G04 APERTURE LIST*
G04 #@! TA.AperFunction,ViaPad*
%ADD10C,0.800000*%
G04 #@! TD*
G04 #@! TA.AperFunction,ViaPad*
%ADD11C,0.400000*%
G04 #@! TD*
G04 #@! TA.AperFunction,Conductor*
%ADD12C,0.300000*%
G04 #@! TD*
G04 #@! TA.AperFunction,Conductor*
%ADD13C,0.254000*%
G04 #@! TD*
G04 #@! TA.AperFunction,Conductor*
%ADD14C,0.100000*%
G04 #@! TD*
G04 APERTURE END LIST*
D10*
X76000000Y-24400000D03*
X72000000Y-24400000D03*
X44600000Y-24400000D03*
X48600000Y-24400000D03*
X58100000Y-28220000D03*
X61110000Y-28210000D03*
X64130000Y-28190000D03*
D11*
X71700000Y-39600000D03*
X45700000Y-39600000D03*
X50900000Y-34400000D03*
X53500000Y-34400000D03*
X56100000Y-34400000D03*
X58700000Y-34400000D03*
X61300000Y-34400000D03*
X63900000Y-34400000D03*
X66500000Y-34400000D03*
X69100000Y-34400000D03*
X50900000Y-39600000D03*
X53500000Y-39600000D03*
X56100000Y-39600000D03*
X58700000Y-39600000D03*
X61300000Y-39600000D03*
X63900000Y-39600000D03*
X66500000Y-39600000D03*
X69100000Y-39600000D03*
X50900000Y-44800000D03*
X53500000Y-44800000D03*
X56100000Y-44800000D03*
X58700000Y-44800000D03*
X61300000Y-44800000D03*
X63900000Y-44800000D03*
X66500000Y-44800000D03*
X69100000Y-44800000D03*
X50900000Y-50000000D03*
X53500000Y-50000000D03*
X56100000Y-50000000D03*
X58700000Y-50000000D03*
X61300000Y-50000000D03*
X63900000Y-50000000D03*
X66500000Y-50000000D03*
X69100000Y-50000000D03*
X50900000Y-55200000D03*
X53500000Y-55200000D03*
X56100000Y-55200000D03*
X58700000Y-55200000D03*
X61300000Y-55200000D03*
X63900000Y-55200000D03*
X66500000Y-55200000D03*
X69100000Y-55200000D03*
X50900000Y-60400000D03*
X53500000Y-60400000D03*
X56100000Y-60400000D03*
X58700000Y-60400000D03*
X61300000Y-60400000D03*
X63900000Y-60400000D03*
X66500000Y-60400000D03*
X69100000Y-60400000D03*
X50900000Y-65600000D03*
X53500000Y-65600000D03*
X56100000Y-65600000D03*
X58700000Y-65600000D03*
X61300000Y-65600000D03*
X63900000Y-65600000D03*
X66500000Y-65600000D03*
X69100000Y-65600000D03*
X48300000Y-39600000D03*
X45700000Y-44800000D03*
X48300000Y-44800000D03*
X45700000Y-50000000D03*
X48300000Y-50000000D03*
X45700000Y-55200000D03*
X48300000Y-55200000D03*
X45700000Y-60400000D03*
X48300000Y-60400000D03*
X74300000Y-39600000D03*
X71700000Y-44800000D03*
X74300000Y-44800000D03*
X71700000Y-50000000D03*
X74300000Y-50000000D03*
X71700000Y-55200000D03*
X74300000Y-55200000D03*
X71700000Y-60400000D03*
X74300000Y-60400000D03*
D10*
X56610000Y-28210000D03*
D11*
X71700000Y-42200000D03*
X45700000Y-42200000D03*
X50900000Y-37010000D03*
X53500000Y-37010000D03*
X56100000Y-37010000D03*
X58700000Y-37010000D03*
X61300000Y-37010000D03*
X63900000Y-37010000D03*
X66500000Y-37010000D03*
X69100000Y-37010000D03*
X50900000Y-42210000D03*
X53500000Y-42210000D03*
X56100000Y-42210000D03*
X58700000Y-42210000D03*
X61300000Y-42210000D03*
X63900000Y-42210000D03*
X66500000Y-42210000D03*
X69100000Y-42210000D03*
X50900000Y-47410000D03*
X53500000Y-47410000D03*
X56100000Y-47410000D03*
X58700000Y-47410000D03*
X61300000Y-47410000D03*
X63900000Y-47410000D03*
X66500000Y-47410000D03*
X69100000Y-47410000D03*
X50900000Y-52610000D03*
X53500000Y-52610000D03*
X56100000Y-52610000D03*
X58700000Y-52610000D03*
X61300000Y-52610000D03*
X63900000Y-52610000D03*
X66500000Y-52610000D03*
X69100000Y-52610000D03*
X50900000Y-57810000D03*
X53500000Y-57810000D03*
X56100000Y-57810000D03*
X58700000Y-57810000D03*
X61300000Y-57810000D03*
X63900000Y-57810000D03*
X66500000Y-57810000D03*
X69100000Y-57810000D03*
X50900000Y-63010000D03*
X53500000Y-63010000D03*
X56100000Y-63010000D03*
X58700000Y-63010000D03*
X61300000Y-63010000D03*
X63900000Y-63010000D03*
X66500000Y-63010000D03*
X69100000Y-63010000D03*
X48300000Y-42200000D03*
X45700000Y-47400000D03*
X48300000Y-47400000D03*
X45700000Y-52600000D03*
X48300000Y-52600000D03*
X45700000Y-57800000D03*
X48300000Y-57800000D03*
X74300000Y-42200000D03*
X71700000Y-47400000D03*
X74300000Y-47400000D03*
X71700000Y-52600000D03*
X74300000Y-52600000D03*
X71700000Y-57800000D03*
X74300000Y-57800000D03*
D10*
X76000000Y-29600000D03*
X72000000Y-29600000D03*
X48600000Y-29600000D03*
X44600000Y-29600000D03*
D12*
X66190000Y-46310000D02*
X65160000Y-47340000D01*
X64100000Y-46280000D02*
X65160000Y-47340000D01*
X64450000Y-48050000D02*
X65160000Y-47340000D01*
X66020000Y-48200000D02*
X65160000Y-47340000D01*
D13*
X77449016Y-22732312D02*
X77880930Y-22862714D01*
X78279285Y-23074524D01*
X78628914Y-23359675D01*
X78916497Y-23707303D01*
X79131086Y-24104177D01*
X79264498Y-24535161D01*
X79315000Y-25015654D01*
X79315001Y-66966485D01*
X79267688Y-67449016D01*
X79137287Y-67880927D01*
X78925480Y-68279280D01*
X78640325Y-68628914D01*
X78292697Y-68916497D01*
X77895825Y-69131085D01*
X77464834Y-69264500D01*
X76984346Y-69315000D01*
X43033504Y-69315000D01*
X42550984Y-69267688D01*
X42119073Y-69137287D01*
X41720720Y-68925480D01*
X41371086Y-68640325D01*
X41083503Y-68292697D01*
X40868915Y-67895825D01*
X40735500Y-67464834D01*
X40685000Y-66984346D01*
X40685000Y-64631946D01*
X41263081Y-64631946D01*
X41263081Y-65368054D01*
X41406689Y-66090019D01*
X41688386Y-66770095D01*
X42097346Y-67382147D01*
X42617853Y-67902654D01*
X43229905Y-68311614D01*
X43909981Y-68593311D01*
X44631946Y-68736919D01*
X45368054Y-68736919D01*
X46090019Y-68593311D01*
X46770095Y-68311614D01*
X47382147Y-67902654D01*
X47902654Y-67382147D01*
X48311614Y-66770095D01*
X48593311Y-66090019D01*
X48736919Y-65368054D01*
X48736919Y-64631946D01*
X71263081Y-64631946D01*
X71263081Y-65368054D01*
X71406689Y-66090019D01*
X71688386Y-66770095D01*
X72097346Y-67382147D01*
X72617853Y-67902654D01*
X73229905Y-68311614D01*
X73909981Y-68593311D01*
X74631946Y-68736919D01*
X75368054Y-68736919D01*
X76090019Y-68593311D01*
X76770095Y-68311614D01*
X77382147Y-67902654D01*
X77902654Y-67382147D01*
X78311614Y-66770095D01*
X78593311Y-66090019D01*
X78736919Y-65368054D01*
X78736919Y-64631946D01*
X78593311Y-63909981D01*
X78311614Y-63229905D01*
X77902654Y-62617853D01*
X77382147Y-62097346D01*
X76770095Y-61688386D01*
X76090019Y-61406689D01*
X75368054Y-61263081D01*
X74631946Y-61263081D01*
X73909981Y-61406689D01*
X73229905Y-61688386D01*
X72617853Y-62097346D01*
X72097346Y-62617853D01*
X71688386Y-63229905D01*
X71406689Y-63909981D01*
X71263081Y-64631946D01*
X48736919Y-64631946D01*
X48593311Y-63909981D01*
X48311614Y-63229905D01*
X48109728Y-62927760D01*
X50065000Y-62927760D01*
X50065000Y-63092240D01*
X50097089Y-63253560D01*
X50160033Y-63405521D01*
X50251413Y-63542281D01*
X50367719Y-63658587D01*
X50504479Y-63749967D01*
X50656440Y-63812911D01*
X50817760Y-63845000D01*
X50982240Y-63845000D01*
X51143560Y-63812911D01*
X51295521Y-63749967D01*
X51432281Y-63658587D01*
X51548587Y-63542281D01*
X51639967Y-63405521D01*
X51702911Y-63253560D01*
X51735000Y-63092240D01*
X51735000Y-62927760D01*
X52665000Y-62927760D01*
X52665000Y-63092240D01*
X52697089Y-63253560D01*
X52760033Y-63405521D01*
X52851413Y-63542281D01*
X52967719Y-63658587D01*
X53104479Y-63749967D01*
X53256440Y-63812911D01*
X53417760Y-63845000D01*
X53582240Y-63845000D01*
X53743560Y-63812911D01*
X53895521Y-63749967D01*
X54032281Y-63658587D01*
X54148587Y-63542281D01*
X54239967Y-63405521D01*
X54302911Y-63253560D01*
X54335000Y-63092240D01*
X54335000Y-62927760D01*
X55265000Y-62927760D01*
X55265000Y-63092240D01*
X55297089Y-63253560D01*
X55360033Y-63405521D01*
X55451413Y-63542281D01*
X55567719Y-63658587D01*
X55704479Y-63749967D01*
X55856440Y-63812911D01*
X56017760Y-63845000D01*
X56182240Y-63845000D01*
X56343560Y-63812911D01*
X56495521Y-63749967D01*
X56632281Y-63658587D01*
X56748587Y-63542281D01*
X56839967Y-63405521D01*
X56902911Y-63253560D01*
X56935000Y-63092240D01*
X56935000Y-62927760D01*
X57865000Y-62927760D01*
X57865000Y-63092240D01*
X57897089Y-63253560D01*
X57960033Y-63405521D01*
X58051413Y-63542281D01*
X58167719Y-63658587D01*
X58304479Y-63749967D01*
X58456440Y-63812911D01*
X58617760Y-63845000D01*
X58782240Y-63845000D01*
X58943560Y-63812911D01*
X59095521Y-63749967D01*
X59232281Y-63658587D01*
X59348587Y-63542281D01*
X59439967Y-63405521D01*
X59502911Y-63253560D01*
X59535000Y-63092240D01*
X59535000Y-62927760D01*
X60465000Y-62927760D01*
X60465000Y-63092240D01*
X60497089Y-63253560D01*
X60560033Y-63405521D01*
X60651413Y-63542281D01*
X60767719Y-63658587D01*
X60904479Y-63749967D01*
X61056440Y-63812911D01*
X61217760Y-63845000D01*
X61382240Y-63845000D01*
X61543560Y-63812911D01*
X61695521Y-63749967D01*
X61832281Y-63658587D01*
X61948587Y-63542281D01*
X62039967Y-63405521D01*
X62102911Y-63253560D01*
X62135000Y-63092240D01*
X62135000Y-62927760D01*
X63065000Y-62927760D01*
X63065000Y-63092240D01*
X63097089Y-63253560D01*
X63160033Y-63405521D01*
X63251413Y-63542281D01*
X63367719Y-63658587D01*
X63504479Y-63749967D01*
X63656440Y-63812911D01*
X63817760Y-63845000D01*
X63982240Y-63845000D01*
X64143560Y-63812911D01*
X64295521Y-63749967D01*
X64432281Y-63658587D01*
X64548587Y-63542281D01*
X64639967Y-63405521D01*
X64702911Y-63253560D01*
X64735000Y-63092240D01*
X64735000Y-62927760D01*
X65665000Y-62927760D01*
X65665000Y-63092240D01*
X65697089Y-63253560D01*
X65760033Y-63405521D01*
X65851413Y-63542281D01*
X65967719Y-63658587D01*
X66104479Y-63749967D01*
X66256440Y-63812911D01*
X66417760Y-63845000D01*
X66582240Y-63845000D01*
X66743560Y-63812911D01*
X66895521Y-63749967D01*
X67032281Y-63658587D01*
X67148587Y-63542281D01*
X67239967Y-63405521D01*
X67302911Y-63253560D01*
X67335000Y-63092240D01*
X67335000Y-62927760D01*
X68265000Y-62927760D01*
X68265000Y-63092240D01*
X68297089Y-63253560D01*
X68360033Y-63405521D01*
X68451413Y-63542281D01*
X68567719Y-63658587D01*
X68704479Y-63749967D01*
X68856440Y-63812911D01*
X69017760Y-63845000D01*
X69182240Y-63845000D01*
X69343560Y-63812911D01*
X69495521Y-63749967D01*
X69632281Y-63658587D01*
X69748587Y-63542281D01*
X69839967Y-63405521D01*
X69902911Y-63253560D01*
X69935000Y-63092240D01*
X69935000Y-62927760D01*
X69902911Y-62766440D01*
X69839967Y-62614479D01*
X69748587Y-62477719D01*
X69632281Y-62361413D01*
X69495521Y-62270033D01*
X69343560Y-62207089D01*
X69182240Y-62175000D01*
X69017760Y-62175000D01*
X68856440Y-62207089D01*
X68704479Y-62270033D01*
X68567719Y-62361413D01*
X68451413Y-62477719D01*
X68360033Y-62614479D01*
X68297089Y-62766440D01*
X68265000Y-62927760D01*
X67335000Y-62927760D01*
X67302911Y-62766440D01*
X67239967Y-62614479D01*
X67148587Y-62477719D01*
X67032281Y-62361413D01*
X66895521Y-62270033D01*
X66743560Y-62207089D01*
X66582240Y-62175000D01*
X66417760Y-62175000D01*
X66256440Y-62207089D01*
X66104479Y-62270033D01*
X65967719Y-62361413D01*
X65851413Y-62477719D01*
X65760033Y-62614479D01*
X65697089Y-62766440D01*
X65665000Y-62927760D01*
X64735000Y-62927760D01*
X64702911Y-62766440D01*
X64639967Y-62614479D01*
X64548587Y-62477719D01*
X64432281Y-62361413D01*
X64295521Y-62270033D01*
X64143560Y-62207089D01*
X63982240Y-62175000D01*
X63817760Y-62175000D01*
X63656440Y-62207089D01*
X63504479Y-62270033D01*
X63367719Y-62361413D01*
X63251413Y-62477719D01*
X63160033Y-62614479D01*
X63097089Y-62766440D01*
X63065000Y-62927760D01*
X62135000Y-62927760D01*
X62102911Y-62766440D01*
X62039967Y-62614479D01*
X61948587Y-62477719D01*
X61832281Y-62361413D01*
X61695521Y-62270033D01*
X61543560Y-62207089D01*
X61382240Y-62175000D01*
X61217760Y-62175000D01*
X61056440Y-62207089D01*
X60904479Y-62270033D01*
X60767719Y-62361413D01*
X60651413Y-62477719D01*
X60560033Y-62614479D01*
X60497089Y-62766440D01*
X60465000Y-62927760D01*
X59535000Y-62927760D01*
X59502911Y-62766440D01*
X59439967Y-62614479D01*
X59348587Y-62477719D01*
X59232281Y-62361413D01*
X59095521Y-62270033D01*
X58943560Y-62207089D01*
X58782240Y-62175000D01*
X58617760Y-62175000D01*
X58456440Y-62207089D01*
X58304479Y-62270033D01*
X58167719Y-62361413D01*
X58051413Y-62477719D01*
X57960033Y-62614479D01*
X57897089Y-62766440D01*
X57865000Y-62927760D01*
X56935000Y-62927760D01*
X56902911Y-62766440D01*
X56839967Y-62614479D01*
X56748587Y-62477719D01*
X56632281Y-62361413D01*
X56495521Y-62270033D01*
X56343560Y-62207089D01*
X56182240Y-62175000D01*
X56017760Y-62175000D01*
X55856440Y-62207089D01*
X55704479Y-62270033D01*
X55567719Y-62361413D01*
X55451413Y-62477719D01*
X55360033Y-62614479D01*
X55297089Y-62766440D01*
X55265000Y-62927760D01*
X54335000Y-62927760D01*
X54302911Y-62766440D01*
X54239967Y-62614479D01*
X54148587Y-62477719D01*
X54032281Y-62361413D01*
X53895521Y-62270033D01*
X53743560Y-62207089D01*
X53582240Y-62175000D01*
X53417760Y-62175000D01*
X53256440Y-62207089D01*
X53104479Y-62270033D01*
X52967719Y-62361413D01*
X52851413Y-62477719D01*
X52760033Y-62614479D01*
X52697089Y-62766440D01*
X52665000Y-62927760D01*
X51735000Y-62927760D01*
X51702911Y-62766440D01*
X51639967Y-62614479D01*
X51548587Y-62477719D01*
X51432281Y-62361413D01*
X51295521Y-62270033D01*
X51143560Y-62207089D01*
X50982240Y-62175000D01*
X50817760Y-62175000D01*
X50656440Y-62207089D01*
X50504479Y-62270033D01*
X50367719Y-62361413D01*
X50251413Y-62477719D01*
X50160033Y-62614479D01*
X50097089Y-62766440D01*
X50065000Y-62927760D01*
X48109728Y-62927760D01*
X47902654Y-62617853D01*
X47382147Y-62097346D01*
X46770095Y-61688386D01*
X46090019Y-61406689D01*
X45368054Y-61263081D01*
X44631946Y-61263081D01*
X43909981Y-61406689D01*
X43229905Y-61688386D01*
X42617853Y-62097346D01*
X42097346Y-62617853D01*
X41688386Y-63229905D01*
X41406689Y-63909981D01*
X41263081Y-64631946D01*
X40685000Y-64631946D01*
X40685000Y-57717760D01*
X44865000Y-57717760D01*
X44865000Y-57882240D01*
X44897089Y-58043560D01*
X44960033Y-58195521D01*
X45051413Y-58332281D01*
X45167719Y-58448587D01*
X45304479Y-58539967D01*
X45456440Y-58602911D01*
X45617760Y-58635000D01*
X45782240Y-58635000D01*
X45943560Y-58602911D01*
X46095521Y-58539967D01*
X46232281Y-58448587D01*
X46348587Y-58332281D01*
X46439967Y-58195521D01*
X46502911Y-58043560D01*
X46535000Y-57882240D01*
X46535000Y-57717760D01*
X47465000Y-57717760D01*
X47465000Y-57882240D01*
X47497089Y-58043560D01*
X47560033Y-58195521D01*
X47651413Y-58332281D01*
X47767719Y-58448587D01*
X47904479Y-58539967D01*
X48056440Y-58602911D01*
X48217760Y-58635000D01*
X48382240Y-58635000D01*
X48543560Y-58602911D01*
X48695521Y-58539967D01*
X48832281Y-58448587D01*
X48948587Y-58332281D01*
X49039967Y-58195521D01*
X49102911Y-58043560D01*
X49135000Y-57882240D01*
X49135000Y-57727760D01*
X50065000Y-57727760D01*
X50065000Y-57892240D01*
X50097089Y-58053560D01*
X50160033Y-58205521D01*
X50251413Y-58342281D01*
X50367719Y-58458587D01*
X50504479Y-58549967D01*
X50656440Y-58612911D01*
X50817760Y-58645000D01*
X50982240Y-58645000D01*
X51143560Y-58612911D01*
X51295521Y-58549967D01*
X51432281Y-58458587D01*
X51548587Y-58342281D01*
X51639967Y-58205521D01*
X51702911Y-58053560D01*
X51735000Y-57892240D01*
X51735000Y-57727760D01*
X52665000Y-57727760D01*
X52665000Y-57892240D01*
X52697089Y-58053560D01*
X52760033Y-58205521D01*
X52851413Y-58342281D01*
X52967719Y-58458587D01*
X53104479Y-58549967D01*
X53256440Y-58612911D01*
X53417760Y-58645000D01*
X53582240Y-58645000D01*
X53743560Y-58612911D01*
X53895521Y-58549967D01*
X54032281Y-58458587D01*
X54148587Y-58342281D01*
X54239967Y-58205521D01*
X54302911Y-58053560D01*
X54335000Y-57892240D01*
X54335000Y-57727760D01*
X55265000Y-57727760D01*
X55265000Y-57892240D01*
X55297089Y-58053560D01*
X55360033Y-58205521D01*
X55451413Y-58342281D01*
X55567719Y-58458587D01*
X55704479Y-58549967D01*
X55856440Y-58612911D01*
X56017760Y-58645000D01*
X56182240Y-58645000D01*
X56343560Y-58612911D01*
X56495521Y-58549967D01*
X56632281Y-58458587D01*
X56748587Y-58342281D01*
X56839967Y-58205521D01*
X56902911Y-58053560D01*
X56935000Y-57892240D01*
X56935000Y-57727760D01*
X57865000Y-57727760D01*
X57865000Y-57892240D01*
X57897089Y-58053560D01*
X57960033Y-58205521D01*
X58051413Y-58342281D01*
X58167719Y-58458587D01*
X58304479Y-58549967D01*
X58456440Y-58612911D01*
X58617760Y-58645000D01*
X58782240Y-58645000D01*
X58943560Y-58612911D01*
X59095521Y-58549967D01*
X59232281Y-58458587D01*
X59348587Y-58342281D01*
X59439967Y-58205521D01*
X59502911Y-58053560D01*
X59535000Y-57892240D01*
X59535000Y-57727760D01*
X60465000Y-57727760D01*
X60465000Y-57892240D01*
X60497089Y-58053560D01*
X60560033Y-58205521D01*
X60651413Y-58342281D01*
X60767719Y-58458587D01*
X60904479Y-58549967D01*
X61056440Y-58612911D01*
X61217760Y-58645000D01*
X61382240Y-58645000D01*
X61543560Y-58612911D01*
X61695521Y-58549967D01*
X61832281Y-58458587D01*
X61948587Y-58342281D01*
X62039967Y-58205521D01*
X62102911Y-58053560D01*
X62135000Y-57892240D01*
X62135000Y-57727760D01*
X63065000Y-57727760D01*
X63065000Y-57892240D01*
X63097089Y-58053560D01*
X63160033Y-58205521D01*
X63251413Y-58342281D01*
X63367719Y-58458587D01*
X63504479Y-58549967D01*
X63656440Y-58612911D01*
X63817760Y-58645000D01*
X63982240Y-58645000D01*
X64143560Y-58612911D01*
X64295521Y-58549967D01*
X64432281Y-58458587D01*
X64548587Y-58342281D01*
X64639967Y-58205521D01*
X64702911Y-58053560D01*
X64735000Y-57892240D01*
X64735000Y-57727760D01*
X65665000Y-57727760D01*
X65665000Y-57892240D01*
X65697089Y-58053560D01*
X65760033Y-58205521D01*
X65851413Y-58342281D01*
X65967719Y-58458587D01*
X66104479Y-58549967D01*
X66256440Y-58612911D01*
X66417760Y-58645000D01*
X66582240Y-58645000D01*
X66743560Y-58612911D01*
X66895521Y-58549967D01*
X67032281Y-58458587D01*
X67148587Y-58342281D01*
X67239967Y-58205521D01*
X67302911Y-58053560D01*
X67335000Y-57892240D01*
X67335000Y-57727760D01*
X68265000Y-57727760D01*
X68265000Y-57892240D01*
X68297089Y-58053560D01*
X68360033Y-58205521D01*
X68451413Y-58342281D01*
X68567719Y-58458587D01*
X68704479Y-58549967D01*
X68856440Y-58612911D01*
X69017760Y-58645000D01*
X69182240Y-58645000D01*
X69343560Y-58612911D01*
X69495521Y-58549967D01*
X69632281Y-58458587D01*
X69748587Y-58342281D01*
X69839967Y-58205521D01*
X69902911Y-58053560D01*
X69935000Y-57892240D01*
X69935000Y-57727760D01*
X69933011Y-57717760D01*
X70865000Y-57717760D01*
X70865000Y-57882240D01*
X70897089Y-58043560D01*
X70960033Y-58195521D01*
X71051413Y-58332281D01*
X71167719Y-58448587D01*
X71304479Y-58539967D01*
X71456440Y-58602911D01*
X71617760Y-58635000D01*
X71782240Y-58635000D01*
X71943560Y-58602911D01*
X72095521Y-58539967D01*
X72232281Y-58448587D01*
X72348587Y-58332281D01*
X72439967Y-58195521D01*
X72502911Y-58043560D01*
X72535000Y-57882240D01*
X72535000Y-57717760D01*
X73465000Y-57717760D01*
X73465000Y-57882240D01*
X73497089Y-58043560D01*
X73560033Y-58195521D01*
X73651413Y-58332281D01*
X73767719Y-58448587D01*
X73904479Y-58539967D01*
X74056440Y-58602911D01*
X74217760Y-58635000D01*
X74382240Y-58635000D01*
X74543560Y-58602911D01*
X74695521Y-58539967D01*
X74832281Y-58448587D01*
X74948587Y-58332281D01*
X75039967Y-58195521D01*
X75102911Y-58043560D01*
X75135000Y-57882240D01*
X75135000Y-57717760D01*
X75102911Y-57556440D01*
X75039967Y-57404479D01*
X74948587Y-57267719D01*
X74832281Y-57151413D01*
X74695521Y-57060033D01*
X74543560Y-56997089D01*
X74382240Y-56965000D01*
X74217760Y-56965000D01*
X74056440Y-56997089D01*
X73904479Y-57060033D01*
X73767719Y-57151413D01*
X73651413Y-57267719D01*
X73560033Y-57404479D01*
X73497089Y-57556440D01*
X73465000Y-57717760D01*
X72535000Y-57717760D01*
X72502911Y-57556440D01*
X72439967Y-57404479D01*
X72348587Y-57267719D01*
X72232281Y-57151413D01*
X72095521Y-57060033D01*
X71943560Y-56997089D01*
X71782240Y-56965000D01*
X71617760Y-56965000D01*
X71456440Y-56997089D01*
X71304479Y-57060033D01*
X71167719Y-57151413D01*
X71051413Y-57267719D01*
X70960033Y-57404479D01*
X70897089Y-57556440D01*
X70865000Y-57717760D01*
X69933011Y-57717760D01*
X69902911Y-57566440D01*
X69839967Y-57414479D01*
X69748587Y-57277719D01*
X69632281Y-57161413D01*
X69495521Y-57070033D01*
X69343560Y-57007089D01*
X69182240Y-56975000D01*
X69017760Y-56975000D01*
X68856440Y-57007089D01*
X68704479Y-57070033D01*
X68567719Y-57161413D01*
X68451413Y-57277719D01*
X68360033Y-57414479D01*
X68297089Y-57566440D01*
X68265000Y-57727760D01*
X67335000Y-57727760D01*
X67302911Y-57566440D01*
X67239967Y-57414479D01*
X67148587Y-57277719D01*
X67032281Y-57161413D01*
X66895521Y-57070033D01*
X66743560Y-57007089D01*
X66582240Y-56975000D01*
X66417760Y-56975000D01*
X66256440Y-57007089D01*
X66104479Y-57070033D01*
X65967719Y-57161413D01*
X65851413Y-57277719D01*
X65760033Y-57414479D01*
X65697089Y-57566440D01*
X65665000Y-57727760D01*
X64735000Y-57727760D01*
X64702911Y-57566440D01*
X64639967Y-57414479D01*
X64548587Y-57277719D01*
X64432281Y-57161413D01*
X64295521Y-57070033D01*
X64143560Y-57007089D01*
X63982240Y-56975000D01*
X63817760Y-56975000D01*
X63656440Y-57007089D01*
X63504479Y-57070033D01*
X63367719Y-57161413D01*
X63251413Y-57277719D01*
X63160033Y-57414479D01*
X63097089Y-57566440D01*
X63065000Y-57727760D01*
X62135000Y-57727760D01*
X62102911Y-57566440D01*
X62039967Y-57414479D01*
X61948587Y-57277719D01*
X61832281Y-57161413D01*
X61695521Y-57070033D01*
X61543560Y-57007089D01*
X61382240Y-56975000D01*
X61217760Y-56975000D01*
X61056440Y-57007089D01*
X60904479Y-57070033D01*
X60767719Y-57161413D01*
X60651413Y-57277719D01*
X60560033Y-57414479D01*
X60497089Y-57566440D01*
X60465000Y-57727760D01*
X59535000Y-57727760D01*
X59502911Y-57566440D01*
X59439967Y-57414479D01*
X59348587Y-57277719D01*
X59232281Y-57161413D01*
X59095521Y-57070033D01*
X58943560Y-57007089D01*
X58782240Y-56975000D01*
X58617760Y-56975000D01*
X58456440Y-57007089D01*
X58304479Y-57070033D01*
X58167719Y-57161413D01*
X58051413Y-57277719D01*
X57960033Y-57414479D01*
X57897089Y-57566440D01*
X57865000Y-57727760D01*
X56935000Y-57727760D01*
X56902911Y-57566440D01*
X56839967Y-57414479D01*
X56748587Y-57277719D01*
X56632281Y-57161413D01*
X56495521Y-57070033D01*
X56343560Y-57007089D01*
X56182240Y-56975000D01*
X56017760Y-56975000D01*
X55856440Y-57007089D01*
X55704479Y-57070033D01*
X55567719Y-57161413D01*
X55451413Y-57277719D01*
X55360033Y-57414479D01*
X55297089Y-57566440D01*
X55265000Y-57727760D01*
X54335000Y-57727760D01*
X54302911Y-57566440D01*
X54239967Y-57414479D01*
X54148587Y-57277719D01*
X54032281Y-57161413D01*
X53895521Y-57070033D01*
X53743560Y-57007089D01*
X53582240Y-56975000D01*
X53417760Y-56975000D01*
X53256440Y-57007089D01*
X53104479Y-57070033D01*
X52967719Y-57161413D01*
X52851413Y-57277719D01*
X52760033Y-57414479D01*
X52697089Y-57566440D01*
X52665000Y-57727760D01*
X51735000Y-57727760D01*
X51702911Y-57566440D01*
X51639967Y-57414479D01*
X51548587Y-57277719D01*
X51432281Y-57161413D01*
X51295521Y-57070033D01*
X51143560Y-57007089D01*
X50982240Y-56975000D01*
X50817760Y-56975000D01*
X50656440Y-57007089D01*
X50504479Y-57070033D01*
X50367719Y-57161413D01*
X50251413Y-57277719D01*
X50160033Y-57414479D01*
X50097089Y-57566440D01*
X50065000Y-57727760D01*
X49135000Y-57727760D01*
X49135000Y-57717760D01*
X49102911Y-57556440D01*
X49039967Y-57404479D01*
X48948587Y-57267719D01*
X48832281Y-57151413D01*
X48695521Y-57060033D01*
X48543560Y-56997089D01*
X48382240Y-56965000D01*
X48217760Y-56965000D01*
X48056440Y-56997089D01*
X47904479Y-57060033D01*
X47767719Y-57151413D01*
X47651413Y-57267719D01*
X47560033Y-57404479D01*
X47497089Y-57556440D01*
X47465000Y-57717760D01*
X46535000Y-57717760D01*
X46502911Y-57556440D01*
X46439967Y-57404479D01*
X46348587Y-57267719D01*
X46232281Y-57151413D01*
X46095521Y-57060033D01*
X45943560Y-56997089D01*
X45782240Y-56965000D01*
X45617760Y-56965000D01*
X45456440Y-56997089D01*
X45304479Y-57060033D01*
X45167719Y-57151413D01*
X45051413Y-57267719D01*
X44960033Y-57404479D01*
X44897089Y-57556440D01*
X44865000Y-57717760D01*
X40685000Y-57717760D01*
X40685000Y-52517760D01*
X44865000Y-52517760D01*
X44865000Y-52682240D01*
X44897089Y-52843560D01*
X44960033Y-52995521D01*
X45051413Y-53132281D01*
X45167719Y-53248587D01*
X45304479Y-53339967D01*
X45456440Y-53402911D01*
X45617760Y-53435000D01*
X45782240Y-53435000D01*
X45943560Y-53402911D01*
X46095521Y-53339967D01*
X46232281Y-53248587D01*
X46348587Y-53132281D01*
X46439967Y-52995521D01*
X46502911Y-52843560D01*
X46535000Y-52682240D01*
X46535000Y-52517760D01*
X47465000Y-52517760D01*
X47465000Y-52682240D01*
X47497089Y-52843560D01*
X47560033Y-52995521D01*
X47651413Y-53132281D01*
X47767719Y-53248587D01*
X47904479Y-53339967D01*
X48056440Y-53402911D01*
X48217760Y-53435000D01*
X48382240Y-53435000D01*
X48543560Y-53402911D01*
X48695521Y-53339967D01*
X48832281Y-53248587D01*
X48948587Y-53132281D01*
X49039967Y-52995521D01*
X49102911Y-52843560D01*
X49135000Y-52682240D01*
X49135000Y-52527760D01*
X50065000Y-52527760D01*
X50065000Y-52692240D01*
X50097089Y-52853560D01*
X50160033Y-53005521D01*
X50251413Y-53142281D01*
X50367719Y-53258587D01*
X50504479Y-53349967D01*
X50656440Y-53412911D01*
X50817760Y-53445000D01*
X50982240Y-53445000D01*
X51143560Y-53412911D01*
X51295521Y-53349967D01*
X51432281Y-53258587D01*
X51548587Y-53142281D01*
X51639967Y-53005521D01*
X51702911Y-52853560D01*
X51735000Y-52692240D01*
X51735000Y-52527760D01*
X52665000Y-52527760D01*
X52665000Y-52692240D01*
X52697089Y-52853560D01*
X52760033Y-53005521D01*
X52851413Y-53142281D01*
X52967719Y-53258587D01*
X53104479Y-53349967D01*
X53256440Y-53412911D01*
X53417760Y-53445000D01*
X53582240Y-53445000D01*
X53743560Y-53412911D01*
X53895521Y-53349967D01*
X54032281Y-53258587D01*
X54148587Y-53142281D01*
X54239967Y-53005521D01*
X54302911Y-52853560D01*
X54335000Y-52692240D01*
X54335000Y-52527760D01*
X55265000Y-52527760D01*
X55265000Y-52692240D01*
X55297089Y-52853560D01*
X55360033Y-53005521D01*
X55451413Y-53142281D01*
X55567719Y-53258587D01*
X55704479Y-53349967D01*
X55856440Y-53412911D01*
X56017760Y-53445000D01*
X56182240Y-53445000D01*
X56343560Y-53412911D01*
X56495521Y-53349967D01*
X56632281Y-53258587D01*
X56748587Y-53142281D01*
X56839967Y-53005521D01*
X56902911Y-52853560D01*
X56935000Y-52692240D01*
X56935000Y-52527760D01*
X57865000Y-52527760D01*
X57865000Y-52692240D01*
X57897089Y-52853560D01*
X57960033Y-53005521D01*
X58051413Y-53142281D01*
X58167719Y-53258587D01*
X58304479Y-53349967D01*
X58456440Y-53412911D01*
X58617760Y-53445000D01*
X58782240Y-53445000D01*
X58943560Y-53412911D01*
X59095521Y-53349967D01*
X59232281Y-53258587D01*
X59348587Y-53142281D01*
X59439967Y-53005521D01*
X59502911Y-52853560D01*
X59535000Y-52692240D01*
X59535000Y-52527760D01*
X60465000Y-52527760D01*
X60465000Y-52692240D01*
X60497089Y-52853560D01*
X60560033Y-53005521D01*
X60651413Y-53142281D01*
X60767719Y-53258587D01*
X60904479Y-53349967D01*
X61056440Y-53412911D01*
X61217760Y-53445000D01*
X61382240Y-53445000D01*
X61543560Y-53412911D01*
X61695521Y-53349967D01*
X61832281Y-53258587D01*
X61948587Y-53142281D01*
X62039967Y-53005521D01*
X62102911Y-52853560D01*
X62135000Y-52692240D01*
X62135000Y-52527760D01*
X63065000Y-52527760D01*
X63065000Y-52692240D01*
X63097089Y-52853560D01*
X63160033Y-53005521D01*
X63251413Y-53142281D01*
X63367719Y-53258587D01*
X63504479Y-53349967D01*
X63656440Y-53412911D01*
X63817760Y-53445000D01*
X63982240Y-53445000D01*
X64143560Y-53412911D01*
X64295521Y-53349967D01*
X64432281Y-53258587D01*
X64548587Y-53142281D01*
X64639967Y-53005521D01*
X64702911Y-52853560D01*
X64735000Y-52692240D01*
X64735000Y-52527760D01*
X65665000Y-52527760D01*
X65665000Y-52692240D01*
X65697089Y-52853560D01*
X65760033Y-53005521D01*
X65851413Y-53142281D01*
X65967719Y-53258587D01*
X66104479Y-53349967D01*
X66256440Y-53412911D01*
X66417760Y-53445000D01*
X66582240Y-53445000D01*
X66743560Y-53412911D01*
X66895521Y-53349967D01*
X67032281Y-53258587D01*
X67148587Y-53142281D01*
X67239967Y-53005521D01*
X67302911Y-52853560D01*
X67335000Y-52692240D01*
X67335000Y-52527760D01*
X68265000Y-52527760D01*
X68265000Y-52692240D01*
X68297089Y-52853560D01*
X68360033Y-53005521D01*
X68451413Y-53142281D01*
X68567719Y-53258587D01*
X68704479Y-53349967D01*
X68856440Y-53412911D01*
X69017760Y-53445000D01*
X69182240Y-53445000D01*
X69343560Y-53412911D01*
X69495521Y-53349967D01*
X69632281Y-53258587D01*
X69748587Y-53142281D01*
X69839967Y-53005521D01*
X69902911Y-52853560D01*
X69935000Y-52692240D01*
X69935000Y-52527760D01*
X69933011Y-52517760D01*
X70865000Y-52517760D01*
X70865000Y-52682240D01*
X70897089Y-52843560D01*
X70960033Y-52995521D01*
X71051413Y-53132281D01*
X71167719Y-53248587D01*
X71304479Y-53339967D01*
X71456440Y-53402911D01*
X71617760Y-53435000D01*
X71782240Y-53435000D01*
X71943560Y-53402911D01*
X72095521Y-53339967D01*
X72232281Y-53248587D01*
X72348587Y-53132281D01*
X72439967Y-52995521D01*
X72502911Y-52843560D01*
X72535000Y-52682240D01*
X72535000Y-52517760D01*
X73465000Y-52517760D01*
X73465000Y-52682240D01*
X73497089Y-52843560D01*
X73560033Y-52995521D01*
X73651413Y-53132281D01*
X73767719Y-53248587D01*
X73904479Y-53339967D01*
X74056440Y-53402911D01*
X74217760Y-53435000D01*
X74382240Y-53435000D01*
X74543560Y-53402911D01*
X74695521Y-53339967D01*
X74832281Y-53248587D01*
X74948587Y-53132281D01*
X75039967Y-52995521D01*
X75102911Y-52843560D01*
X75135000Y-52682240D01*
X75135000Y-52517760D01*
X75102911Y-52356440D01*
X75039967Y-52204479D01*
X74948587Y-52067719D01*
X74832281Y-51951413D01*
X74695521Y-51860033D01*
X74543560Y-51797089D01*
X74382240Y-51765000D01*
X74217760Y-51765000D01*
X74056440Y-51797089D01*
X73904479Y-51860033D01*
X73767719Y-51951413D01*
X73651413Y-52067719D01*
X73560033Y-52204479D01*
X73497089Y-52356440D01*
X73465000Y-52517760D01*
X72535000Y-52517760D01*
X72502911Y-52356440D01*
X72439967Y-52204479D01*
X72348587Y-52067719D01*
X72232281Y-51951413D01*
X72095521Y-51860033D01*
X71943560Y-51797089D01*
X71782240Y-51765000D01*
X71617760Y-51765000D01*
X71456440Y-51797089D01*
X71304479Y-51860033D01*
X71167719Y-51951413D01*
X71051413Y-52067719D01*
X70960033Y-52204479D01*
X70897089Y-52356440D01*
X70865000Y-52517760D01*
X69933011Y-52517760D01*
X69902911Y-52366440D01*
X69839967Y-52214479D01*
X69748587Y-52077719D01*
X69632281Y-51961413D01*
X69495521Y-51870033D01*
X69343560Y-51807089D01*
X69182240Y-51775000D01*
X69017760Y-51775000D01*
X68856440Y-51807089D01*
X68704479Y-51870033D01*
X68567719Y-51961413D01*
X68451413Y-52077719D01*
X68360033Y-52214479D01*
X68297089Y-52366440D01*
X68265000Y-52527760D01*
X67335000Y-52527760D01*
X67302911Y-52366440D01*
X67239967Y-52214479D01*
X67148587Y-52077719D01*
X67032281Y-51961413D01*
X66895521Y-51870033D01*
X66743560Y-51807089D01*
X66582240Y-51775000D01*
X66417760Y-51775000D01*
X66256440Y-51807089D01*
X66104479Y-51870033D01*
X65967719Y-51961413D01*
X65851413Y-52077719D01*
X65760033Y-52214479D01*
X65697089Y-52366440D01*
X65665000Y-52527760D01*
X64735000Y-52527760D01*
X64702911Y-52366440D01*
X64639967Y-52214479D01*
X64548587Y-52077719D01*
X64432281Y-51961413D01*
X64295521Y-51870033D01*
X64143560Y-51807089D01*
X63982240Y-51775000D01*
X63817760Y-51775000D01*
X63656440Y-51807089D01*
X63504479Y-51870033D01*
X63367719Y-51961413D01*
X63251413Y-52077719D01*
X63160033Y-52214479D01*
X63097089Y-52366440D01*
X63065000Y-52527760D01*
X62135000Y-52527760D01*
X62102911Y-52366440D01*
X62039967Y-52214479D01*
X61948587Y-52077719D01*
X61832281Y-51961413D01*
X61695521Y-51870033D01*
X61543560Y-51807089D01*
X61382240Y-51775000D01*
X61217760Y-51775000D01*
X61056440Y-51807089D01*
X60904479Y-51870033D01*
X60767719Y-51961413D01*
X60651413Y-52077719D01*
X60560033Y-52214479D01*
X60497089Y-52366440D01*
X60465000Y-52527760D01*
X59535000Y-52527760D01*
X59502911Y-52366440D01*
X59439967Y-52214479D01*
X59348587Y-52077719D01*
X59232281Y-51961413D01*
X59095521Y-51870033D01*
X58943560Y-51807089D01*
X58782240Y-51775000D01*
X58617760Y-51775000D01*
X58456440Y-51807089D01*
X58304479Y-51870033D01*
X58167719Y-51961413D01*
X58051413Y-52077719D01*
X57960033Y-52214479D01*
X57897089Y-52366440D01*
X57865000Y-52527760D01*
X56935000Y-52527760D01*
X56902911Y-52366440D01*
X56839967Y-52214479D01*
X56748587Y-52077719D01*
X56632281Y-51961413D01*
X56495521Y-51870033D01*
X56343560Y-51807089D01*
X56182240Y-51775000D01*
X56017760Y-51775000D01*
X55856440Y-51807089D01*
X55704479Y-51870033D01*
X55567719Y-51961413D01*
X55451413Y-52077719D01*
X55360033Y-52214479D01*
X55297089Y-52366440D01*
X55265000Y-52527760D01*
X54335000Y-52527760D01*
X54302911Y-52366440D01*
X54239967Y-52214479D01*
X54148587Y-52077719D01*
X54032281Y-51961413D01*
X53895521Y-51870033D01*
X53743560Y-51807089D01*
X53582240Y-51775000D01*
X53417760Y-51775000D01*
X53256440Y-51807089D01*
X53104479Y-51870033D01*
X52967719Y-51961413D01*
X52851413Y-52077719D01*
X52760033Y-52214479D01*
X52697089Y-52366440D01*
X52665000Y-52527760D01*
X51735000Y-52527760D01*
X51702911Y-52366440D01*
X51639967Y-52214479D01*
X51548587Y-52077719D01*
X51432281Y-51961413D01*
X51295521Y-51870033D01*
X51143560Y-51807089D01*
X50982240Y-51775000D01*
X50817760Y-51775000D01*
X50656440Y-51807089D01*
X50504479Y-51870033D01*
X50367719Y-51961413D01*
X50251413Y-52077719D01*
X50160033Y-52214479D01*
X50097089Y-52366440D01*
X50065000Y-52527760D01*
X49135000Y-52527760D01*
X49135000Y-52517760D01*
X49102911Y-52356440D01*
X49039967Y-52204479D01*
X48948587Y-52067719D01*
X48832281Y-51951413D01*
X48695521Y-51860033D01*
X48543560Y-51797089D01*
X48382240Y-51765000D01*
X48217760Y-51765000D01*
X48056440Y-51797089D01*
X47904479Y-51860033D01*
X47767719Y-51951413D01*
X47651413Y-52067719D01*
X47560033Y-52204479D01*
X47497089Y-52356440D01*
X47465000Y-52517760D01*
X46535000Y-52517760D01*
X46502911Y-52356440D01*
X46439967Y-52204479D01*
X46348587Y-52067719D01*
X46232281Y-51951413D01*
X46095521Y-51860033D01*
X45943560Y-51797089D01*
X45782240Y-51765000D01*
X45617760Y-51765000D01*
X45456440Y-51797089D01*
X45304479Y-51860033D01*
X45167719Y-51951413D01*
X45051413Y-52067719D01*
X44960033Y-52204479D01*
X44897089Y-52356440D01*
X44865000Y-52517760D01*
X40685000Y-52517760D01*
X40685000Y-47317760D01*
X44865000Y-47317760D01*
X44865000Y-47482240D01*
X44897089Y-47643560D01*
X44960033Y-47795521D01*
X45051413Y-47932281D01*
X45167719Y-48048587D01*
X45304479Y-48139967D01*
X45456440Y-48202911D01*
X45617760Y-48235000D01*
X45782240Y-48235000D01*
X45943560Y-48202911D01*
X46095521Y-48139967D01*
X46232281Y-48048587D01*
X46348587Y-47932281D01*
X46439967Y-47795521D01*
X46502911Y-47643560D01*
X46535000Y-47482240D01*
X46535000Y-47317760D01*
X47465000Y-47317760D01*
X47465000Y-47482240D01*
X47497089Y-47643560D01*
X47560033Y-47795521D01*
X47651413Y-47932281D01*
X47767719Y-48048587D01*
X47904479Y-48139967D01*
X48056440Y-48202911D01*
X48217760Y-48235000D01*
X48382240Y-48235000D01*
X48543560Y-48202911D01*
X48695521Y-48139967D01*
X48832281Y-48048587D01*
X48948587Y-47932281D01*
X49039967Y-47795521D01*
X49102911Y-47643560D01*
X49135000Y-47482240D01*
X49135000Y-47327760D01*
X50065000Y-47327760D01*
X50065000Y-47492240D01*
X50097089Y-47653560D01*
X50160033Y-47805521D01*
X50251413Y-47942281D01*
X50367719Y-48058587D01*
X50504479Y-48149967D01*
X50656440Y-48212911D01*
X50817760Y-48245000D01*
X50982240Y-48245000D01*
X51143560Y-48212911D01*
X51295521Y-48149967D01*
X51432281Y-48058587D01*
X51548587Y-47942281D01*
X51639967Y-47805521D01*
X51702911Y-47653560D01*
X51735000Y-47492240D01*
X51735000Y-47327760D01*
X52665000Y-47327760D01*
X52665000Y-47492240D01*
X52697089Y-47653560D01*
X52760033Y-47805521D01*
X52851413Y-47942281D01*
X52967719Y-48058587D01*
X53104479Y-48149967D01*
X53256440Y-48212911D01*
X53417760Y-48245000D01*
X53582240Y-48245000D01*
X53743560Y-48212911D01*
X53895521Y-48149967D01*
X54032281Y-48058587D01*
X54148587Y-47942281D01*
X54239967Y-47805521D01*
X54302911Y-47653560D01*
X54335000Y-47492240D01*
X54335000Y-47327760D01*
X55265000Y-47327760D01*
X55265000Y-47492240D01*
X55297089Y-47653560D01*
X55360033Y-47805521D01*
X55451413Y-47942281D01*
X55567719Y-48058587D01*
X55704479Y-48149967D01*
X55856440Y-48212911D01*
X56017760Y-48245000D01*
X56182240Y-48245000D01*
X56343560Y-48212911D01*
X56495521Y-48149967D01*
X56632281Y-48058587D01*
X56748587Y-47942281D01*
X56839967Y-47805521D01*
X56902911Y-47653560D01*
X56935000Y-47492240D01*
X56935000Y-47327760D01*
X57865000Y-47327760D01*
X57865000Y-47492240D01*
X57897089Y-47653560D01*
X57960033Y-47805521D01*
X58051413Y-47942281D01*
X58167719Y-48058587D01*
X58304479Y-48149967D01*
X58456440Y-48212911D01*
X58617760Y-48245000D01*
X58782240Y-48245000D01*
X58943560Y-48212911D01*
X59095521Y-48149967D01*
X59232281Y-48058587D01*
X59348587Y-47942281D01*
X59439967Y-47805521D01*
X59502911Y-47653560D01*
X59535000Y-47492240D01*
X59535000Y-47327760D01*
X60465000Y-47327760D01*
X60465000Y-47492240D01*
X60497089Y-47653560D01*
X60560033Y-47805521D01*
X60651413Y-47942281D01*
X60767719Y-48058587D01*
X60904479Y-48149967D01*
X61056440Y-48212911D01*
X61217760Y-48245000D01*
X61382240Y-48245000D01*
X61543560Y-48212911D01*
X61695521Y-48149967D01*
X61832281Y-48058587D01*
X61948587Y-47942281D01*
X62039967Y-47805521D01*
X62102911Y-47653560D01*
X62135000Y-47492240D01*
X62135000Y-47327760D01*
X63065000Y-47327760D01*
X63065000Y-47492240D01*
X63097089Y-47653560D01*
X63160033Y-47805521D01*
X63251413Y-47942281D01*
X63367719Y-48058587D01*
X63504479Y-48149967D01*
X63656440Y-48212911D01*
X63817760Y-48245000D01*
X63982240Y-48245000D01*
X64143560Y-48212911D01*
X64295521Y-48149967D01*
X64432281Y-48058587D01*
X64548587Y-47942281D01*
X64639967Y-47805521D01*
X64702911Y-47653560D01*
X64735000Y-47492240D01*
X64735000Y-47327760D01*
X65665000Y-47327760D01*
X65665000Y-47492240D01*
X65697089Y-47653560D01*
X65760033Y-47805521D01*
X65851413Y-47942281D01*
X65967719Y-48058587D01*
X66104479Y-48149967D01*
X66256440Y-48212911D01*
X66417760Y-48245000D01*
X66582240Y-48245000D01*
X66743560Y-48212911D01*
X66895521Y-48149967D01*
X67032281Y-48058587D01*
X67148587Y-47942281D01*
X67239967Y-47805521D01*
X67302911Y-47653560D01*
X67335000Y-47492240D01*
X67335000Y-47327760D01*
X68265000Y-47327760D01*
X68265000Y-47492240D01*
X68297089Y-47653560D01*
X68360033Y-47805521D01*
X68451413Y-47942281D01*
X68567719Y-48058587D01*
X68704479Y-48149967D01*
X68856440Y-48212911D01*
X69017760Y-48245000D01*
X69182240Y-48245000D01*
X69343560Y-48212911D01*
X69495521Y-48149967D01*
X69632281Y-48058587D01*
X69748587Y-47942281D01*
X69839967Y-47805521D01*
X69902911Y-47653560D01*
X69935000Y-47492240D01*
X69935000Y-47327760D01*
X69933011Y-47317760D01*
X70865000Y-47317760D01*
X70865000Y-47482240D01*
X70897089Y-47643560D01*
X70960033Y-47795521D01*
X71051413Y-47932281D01*
X71167719Y-48048587D01*
X71304479Y-48139967D01*
X71456440Y-48202911D01*
X71617760Y-48235000D01*
X71782240Y-48235000D01*
X71943560Y-48202911D01*
X72095521Y-48139967D01*
X72232281Y-48048587D01*
X72348587Y-47932281D01*
X72439967Y-47795521D01*
X72502911Y-47643560D01*
X72535000Y-47482240D01*
X72535000Y-47317760D01*
X73465000Y-47317760D01*
X73465000Y-47482240D01*
X73497089Y-47643560D01*
X73560033Y-47795521D01*
X73651413Y-47932281D01*
X73767719Y-48048587D01*
X73904479Y-48139967D01*
X74056440Y-48202911D01*
X74217760Y-48235000D01*
X74382240Y-48235000D01*
X74543560Y-48202911D01*
X74695521Y-48139967D01*
X74832281Y-48048587D01*
X74948587Y-47932281D01*
X75039967Y-47795521D01*
X75102911Y-47643560D01*
X75135000Y-47482240D01*
X75135000Y-47317760D01*
X75102911Y-47156440D01*
X75039967Y-47004479D01*
X74948587Y-46867719D01*
X74832281Y-46751413D01*
X74695521Y-46660033D01*
X74543560Y-46597089D01*
X74382240Y-46565000D01*
X74217760Y-46565000D01*
X74056440Y-46597089D01*
X73904479Y-46660033D01*
X73767719Y-46751413D01*
X73651413Y-46867719D01*
X73560033Y-47004479D01*
X73497089Y-47156440D01*
X73465000Y-47317760D01*
X72535000Y-47317760D01*
X72502911Y-47156440D01*
X72439967Y-47004479D01*
X72348587Y-46867719D01*
X72232281Y-46751413D01*
X72095521Y-46660033D01*
X71943560Y-46597089D01*
X71782240Y-46565000D01*
X71617760Y-46565000D01*
X71456440Y-46597089D01*
X71304479Y-46660033D01*
X71167719Y-46751413D01*
X71051413Y-46867719D01*
X70960033Y-47004479D01*
X70897089Y-47156440D01*
X70865000Y-47317760D01*
X69933011Y-47317760D01*
X69902911Y-47166440D01*
X69839967Y-47014479D01*
X69748587Y-46877719D01*
X69632281Y-46761413D01*
X69495521Y-46670033D01*
X69343560Y-46607089D01*
X69182240Y-46575000D01*
X69017760Y-46575000D01*
X68856440Y-46607089D01*
X68704479Y-46670033D01*
X68567719Y-46761413D01*
X68451413Y-46877719D01*
X68360033Y-47014479D01*
X68297089Y-47166440D01*
X68265000Y-47327760D01*
X67335000Y-47327760D01*
X67302911Y-47166440D01*
X67239967Y-47014479D01*
X67148587Y-46877719D01*
X67032281Y-46761413D01*
X66895521Y-46670033D01*
X66743560Y-46607089D01*
X66582240Y-46575000D01*
X66417760Y-46575000D01*
X66256440Y-46607089D01*
X66104479Y-46670033D01*
X65967719Y-46761413D01*
X65851413Y-46877719D01*
X65760033Y-47014479D01*
X65697089Y-47166440D01*
X65665000Y-47327760D01*
X64735000Y-47327760D01*
X64702911Y-47166440D01*
X64639967Y-47014479D01*
X64548587Y-46877719D01*
X64432281Y-46761413D01*
X64295521Y-46670033D01*
X64143560Y-46607089D01*
X63982240Y-46575000D01*
X63817760Y-46575000D01*
X63656440Y-46607089D01*
X63504479Y-46670033D01*
X63367719Y-46761413D01*
X63251413Y-46877719D01*
X63160033Y-47014479D01*
X63097089Y-47166440D01*
X63065000Y-47327760D01*
X62135000Y-47327760D01*
X62102911Y-47166440D01*
X62039967Y-47014479D01*
X61948587Y-46877719D01*
X61832281Y-46761413D01*
X61695521Y-46670033D01*
X61543560Y-46607089D01*
X61382240Y-46575000D01*
X61217760Y-46575000D01*
X61056440Y-46607089D01*
X60904479Y-46670033D01*
X60767719Y-46761413D01*
X60651413Y-46877719D01*
X60560033Y-47014479D01*
X60497089Y-47166440D01*
X60465000Y-47327760D01*
X59535000Y-47327760D01*
X59502911Y-47166440D01*
X59439967Y-47014479D01*
X59348587Y-46877719D01*
X59232281Y-46761413D01*
X59095521Y-46670033D01*
X58943560Y-46607089D01*
X58782240Y-46575000D01*
X58617760Y-46575000D01*
X58456440Y-46607089D01*
X58304479Y-46670033D01*
X58167719Y-46761413D01*
X58051413Y-46877719D01*
X57960033Y-47014479D01*
X57897089Y-47166440D01*
X57865000Y-47327760D01*
X56935000Y-47327760D01*
X56902911Y-47166440D01*
X56839967Y-47014479D01*
X56748587Y-46877719D01*
X56632281Y-46761413D01*
X56495521Y-46670033D01*
X56343560Y-46607089D01*
X56182240Y-46575000D01*
X56017760Y-46575000D01*
X55856440Y-46607089D01*
X55704479Y-46670033D01*
X55567719Y-46761413D01*
X55451413Y-46877719D01*
X55360033Y-47014479D01*
X55297089Y-47166440D01*
X55265000Y-47327760D01*
X54335000Y-47327760D01*
X54302911Y-47166440D01*
X54239967Y-47014479D01*
X54148587Y-46877719D01*
X54032281Y-46761413D01*
X53895521Y-46670033D01*
X53743560Y-46607089D01*
X53582240Y-46575000D01*
X53417760Y-46575000D01*
X53256440Y-46607089D01*
X53104479Y-46670033D01*
X52967719Y-46761413D01*
X52851413Y-46877719D01*
X52760033Y-47014479D01*
X52697089Y-47166440D01*
X52665000Y-47327760D01*
X51735000Y-47327760D01*
X51702911Y-47166440D01*
X51639967Y-47014479D01*
X51548587Y-46877719D01*
X51432281Y-46761413D01*
X51295521Y-46670033D01*
X51143560Y-46607089D01*
X50982240Y-46575000D01*
X50817760Y-46575000D01*
X50656440Y-46607089D01*
X50504479Y-46670033D01*
X50367719Y-46761413D01*
X50251413Y-46877719D01*
X50160033Y-47014479D01*
X50097089Y-47166440D01*
X50065000Y-47327760D01*
X49135000Y-47327760D01*
X49135000Y-47317760D01*
X49102911Y-47156440D01*
X49039967Y-47004479D01*
X48948587Y-46867719D01*
X48832281Y-46751413D01*
X48695521Y-46660033D01*
X48543560Y-46597089D01*
X48382240Y-46565000D01*
X48217760Y-46565000D01*
X48056440Y-46597089D01*
X47904479Y-46660033D01*
X47767719Y-46751413D01*
X47651413Y-46867719D01*
X47560033Y-47004479D01*
X47497089Y-47156440D01*
X47465000Y-47317760D01*
X46535000Y-47317760D01*
X46502911Y-47156440D01*
X46439967Y-47004479D01*
X46348587Y-46867719D01*
X46232281Y-46751413D01*
X46095521Y-46660033D01*
X45943560Y-46597089D01*
X45782240Y-46565000D01*
X45617760Y-46565000D01*
X45456440Y-46597089D01*
X45304479Y-46660033D01*
X45167719Y-46751413D01*
X45051413Y-46867719D01*
X44960033Y-47004479D01*
X44897089Y-47156440D01*
X44865000Y-47317760D01*
X40685000Y-47317760D01*
X40685000Y-42117760D01*
X44865000Y-42117760D01*
X44865000Y-42282240D01*
X44897089Y-42443560D01*
X44960033Y-42595521D01*
X45051413Y-42732281D01*
X45167719Y-42848587D01*
X45304479Y-42939967D01*
X45456440Y-43002911D01*
X45617760Y-43035000D01*
X45782240Y-43035000D01*
X45943560Y-43002911D01*
X46095521Y-42939967D01*
X46232281Y-42848587D01*
X46348587Y-42732281D01*
X46439967Y-42595521D01*
X46502911Y-42443560D01*
X46535000Y-42282240D01*
X46535000Y-42117760D01*
X47465000Y-42117760D01*
X47465000Y-42282240D01*
X47497089Y-42443560D01*
X47560033Y-42595521D01*
X47651413Y-42732281D01*
X47767719Y-42848587D01*
X47904479Y-42939967D01*
X48056440Y-43002911D01*
X48217760Y-43035000D01*
X48382240Y-43035000D01*
X48543560Y-43002911D01*
X48695521Y-42939967D01*
X48832281Y-42848587D01*
X48948587Y-42732281D01*
X49039967Y-42595521D01*
X49102911Y-42443560D01*
X49135000Y-42282240D01*
X49135000Y-42127760D01*
X50065000Y-42127760D01*
X50065000Y-42292240D01*
X50097089Y-42453560D01*
X50160033Y-42605521D01*
X50251413Y-42742281D01*
X50367719Y-42858587D01*
X50504479Y-42949967D01*
X50656440Y-43012911D01*
X50817760Y-43045000D01*
X50982240Y-43045000D01*
X51143560Y-43012911D01*
X51295521Y-42949967D01*
X51432281Y-42858587D01*
X51548587Y-42742281D01*
X51639967Y-42605521D01*
X51702911Y-42453560D01*
X51735000Y-42292240D01*
X51735000Y-42127760D01*
X52665000Y-42127760D01*
X52665000Y-42292240D01*
X52697089Y-42453560D01*
X52760033Y-42605521D01*
X52851413Y-42742281D01*
X52967719Y-42858587D01*
X53104479Y-42949967D01*
X53256440Y-43012911D01*
X53417760Y-43045000D01*
X53582240Y-43045000D01*
X53743560Y-43012911D01*
X53895521Y-42949967D01*
X54032281Y-42858587D01*
X54148587Y-42742281D01*
X54239967Y-42605521D01*
X54302911Y-42453560D01*
X54335000Y-42292240D01*
X54335000Y-42127760D01*
X55265000Y-42127760D01*
X55265000Y-42292240D01*
X55297089Y-42453560D01*
X55360033Y-42605521D01*
X55451413Y-42742281D01*
X55567719Y-42858587D01*
X55704479Y-42949967D01*
X55856440Y-43012911D01*
X56017760Y-43045000D01*
X56182240Y-43045000D01*
X56343560Y-43012911D01*
X56495521Y-42949967D01*
X56632281Y-42858587D01*
X56748587Y-42742281D01*
X56839967Y-42605521D01*
X56902911Y-42453560D01*
X56935000Y-42292240D01*
X56935000Y-42127760D01*
X57865000Y-42127760D01*
X57865000Y-42292240D01*
X57897089Y-42453560D01*
X57960033Y-42605521D01*
X58051413Y-42742281D01*
X58167719Y-42858587D01*
X58304479Y-42949967D01*
X58456440Y-43012911D01*
X58617760Y-43045000D01*
X58782240Y-43045000D01*
X58943560Y-43012911D01*
X59095521Y-42949967D01*
X59232281Y-42858587D01*
X59348587Y-42742281D01*
X59439967Y-42605521D01*
X59502911Y-42453560D01*
X59535000Y-42292240D01*
X59535000Y-42127760D01*
X60465000Y-42127760D01*
X60465000Y-42292240D01*
X60497089Y-42453560D01*
X60560033Y-42605521D01*
X60651413Y-42742281D01*
X60767719Y-42858587D01*
X60904479Y-42949967D01*
X61056440Y-43012911D01*
X61217760Y-43045000D01*
X61382240Y-43045000D01*
X61543560Y-43012911D01*
X61695521Y-42949967D01*
X61832281Y-42858587D01*
X61948587Y-42742281D01*
X62039967Y-42605521D01*
X62102911Y-42453560D01*
X62135000Y-42292240D01*
X62135000Y-42127760D01*
X63065000Y-42127760D01*
X63065000Y-42292240D01*
X63097089Y-42453560D01*
X63160033Y-42605521D01*
X63251413Y-42742281D01*
X63367719Y-42858587D01*
X63504479Y-42949967D01*
X63656440Y-43012911D01*
X63817760Y-43045000D01*
X63982240Y-43045000D01*
X64143560Y-43012911D01*
X64295521Y-42949967D01*
X64432281Y-42858587D01*
X64548587Y-42742281D01*
X64639967Y-42605521D01*
X64702911Y-42453560D01*
X64735000Y-42292240D01*
X64735000Y-42127760D01*
X65665000Y-42127760D01*
X65665000Y-42292240D01*
X65697089Y-42453560D01*
X65760033Y-42605521D01*
X65851413Y-42742281D01*
X65967719Y-42858587D01*
X66104479Y-42949967D01*
X66256440Y-43012911D01*
X66417760Y-43045000D01*
X66582240Y-43045000D01*
X66743560Y-43012911D01*
X66895521Y-42949967D01*
X67032281Y-42858587D01*
X67148587Y-42742281D01*
X67239967Y-42605521D01*
X67302911Y-42453560D01*
X67335000Y-42292240D01*
X67335000Y-42127760D01*
X68265000Y-42127760D01*
X68265000Y-42292240D01*
X68297089Y-42453560D01*
X68360033Y-42605521D01*
X68451413Y-42742281D01*
X68567719Y-42858587D01*
X68704479Y-42949967D01*
X68856440Y-43012911D01*
X69017760Y-43045000D01*
X69182240Y-43045000D01*
X69343560Y-43012911D01*
X69495521Y-42949967D01*
X69632281Y-42858587D01*
X69748587Y-42742281D01*
X69839967Y-42605521D01*
X69902911Y-42453560D01*
X69935000Y-42292240D01*
X69935000Y-42127760D01*
X69933011Y-42117760D01*
X70865000Y-42117760D01*
X70865000Y-42282240D01*
X70897089Y-42443560D01*
X70960033Y-42595521D01*
X71051413Y-42732281D01*
X71167719Y-42848587D01*
X71304479Y-42939967D01*
X71456440Y-43002911D01*
X71617760Y-43035000D01*
X71782240Y-43035000D01*
X71943560Y-43002911D01*
X72095521Y-42939967D01*
X72232281Y-42848587D01*
X72348587Y-42732281D01*
X72439967Y-42595521D01*
X72502911Y-42443560D01*
X72535000Y-42282240D01*
X72535000Y-42117760D01*
X73465000Y-42117760D01*
X73465000Y-42282240D01*
X73497089Y-42443560D01*
X73560033Y-42595521D01*
X73651413Y-42732281D01*
X73767719Y-42848587D01*
X73904479Y-42939967D01*
X74056440Y-43002911D01*
X74217760Y-43035000D01*
X74382240Y-43035000D01*
X74543560Y-43002911D01*
X74695521Y-42939967D01*
X74832281Y-42848587D01*
X74948587Y-42732281D01*
X75039967Y-42595521D01*
X75102911Y-42443560D01*
X75135000Y-42282240D01*
X75135000Y-42117760D01*
X75102911Y-41956440D01*
X75039967Y-41804479D01*
X74948587Y-41667719D01*
X74832281Y-41551413D01*
X74695521Y-41460033D01*
X74543560Y-41397089D01*
X74382240Y-41365000D01*
X74217760Y-41365000D01*
X74056440Y-41397089D01*
X73904479Y-41460033D01*
X73767719Y-41551413D01*
X73651413Y-41667719D01*
X73560033Y-41804479D01*
X73497089Y-41956440D01*
X73465000Y-42117760D01*
X72535000Y-42117760D01*
X72502911Y-41956440D01*
X72439967Y-41804479D01*
X72348587Y-41667719D01*
X72232281Y-41551413D01*
X72095521Y-41460033D01*
X71943560Y-41397089D01*
X71782240Y-41365000D01*
X71617760Y-41365000D01*
X71456440Y-41397089D01*
X71304479Y-41460033D01*
X71167719Y-41551413D01*
X71051413Y-41667719D01*
X70960033Y-41804479D01*
X70897089Y-41956440D01*
X70865000Y-42117760D01*
X69933011Y-42117760D01*
X69902911Y-41966440D01*
X69839967Y-41814479D01*
X69748587Y-41677719D01*
X69632281Y-41561413D01*
X69495521Y-41470033D01*
X69343560Y-41407089D01*
X69182240Y-41375000D01*
X69017760Y-41375000D01*
X68856440Y-41407089D01*
X68704479Y-41470033D01*
X68567719Y-41561413D01*
X68451413Y-41677719D01*
X68360033Y-41814479D01*
X68297089Y-41966440D01*
X68265000Y-42127760D01*
X67335000Y-42127760D01*
X67302911Y-41966440D01*
X67239967Y-41814479D01*
X67148587Y-41677719D01*
X67032281Y-41561413D01*
X66895521Y-41470033D01*
X66743560Y-41407089D01*
X66582240Y-41375000D01*
X66417760Y-41375000D01*
X66256440Y-41407089D01*
X66104479Y-41470033D01*
X65967719Y-41561413D01*
X65851413Y-41677719D01*
X65760033Y-41814479D01*
X65697089Y-41966440D01*
X65665000Y-42127760D01*
X64735000Y-42127760D01*
X64702911Y-41966440D01*
X64639967Y-41814479D01*
X64548587Y-41677719D01*
X64432281Y-41561413D01*
X64295521Y-41470033D01*
X64143560Y-41407089D01*
X63982240Y-41375000D01*
X63817760Y-41375000D01*
X63656440Y-41407089D01*
X63504479Y-41470033D01*
X63367719Y-41561413D01*
X63251413Y-41677719D01*
X63160033Y-41814479D01*
X63097089Y-41966440D01*
X63065000Y-42127760D01*
X62135000Y-42127760D01*
X62102911Y-41966440D01*
X62039967Y-41814479D01*
X61948587Y-41677719D01*
X61832281Y-41561413D01*
X61695521Y-41470033D01*
X61543560Y-41407089D01*
X61382240Y-41375000D01*
X61217760Y-41375000D01*
X61056440Y-41407089D01*
X60904479Y-41470033D01*
X60767719Y-41561413D01*
X60651413Y-41677719D01*
X60560033Y-41814479D01*
X60497089Y-41966440D01*
X60465000Y-42127760D01*
X59535000Y-42127760D01*
X59502911Y-41966440D01*
X59439967Y-41814479D01*
X59348587Y-41677719D01*
X59232281Y-41561413D01*
X59095521Y-41470033D01*
X58943560Y-41407089D01*
X58782240Y-41375000D01*
X58617760Y-41375000D01*
X58456440Y-41407089D01*
X58304479Y-41470033D01*
X58167719Y-41561413D01*
X58051413Y-41677719D01*
X57960033Y-41814479D01*
X57897089Y-41966440D01*
X57865000Y-42127760D01*
X56935000Y-42127760D01*
X56902911Y-41966440D01*
X56839967Y-41814479D01*
X56748587Y-41677719D01*
X56632281Y-41561413D01*
X56495521Y-41470033D01*
X56343560Y-41407089D01*
X56182240Y-41375000D01*
X56017760Y-41375000D01*
X55856440Y-41407089D01*
X55704479Y-41470033D01*
X55567719Y-41561413D01*
X55451413Y-41677719D01*
X55360033Y-41814479D01*
X55297089Y-41966440D01*
X55265000Y-42127760D01*
X54335000Y-42127760D01*
X54302911Y-41966440D01*
X54239967Y-41814479D01*
X54148587Y-41677719D01*
X54032281Y-41561413D01*
X53895521Y-41470033D01*
X53743560Y-41407089D01*
X53582240Y-41375000D01*
X53417760Y-41375000D01*
X53256440Y-41407089D01*
X53104479Y-41470033D01*
X52967719Y-41561413D01*
X52851413Y-41677719D01*
X52760033Y-41814479D01*
X52697089Y-41966440D01*
X52665000Y-42127760D01*
X51735000Y-42127760D01*
X51702911Y-41966440D01*
X51639967Y-41814479D01*
X51548587Y-41677719D01*
X51432281Y-41561413D01*
X51295521Y-41470033D01*
X51143560Y-41407089D01*
X50982240Y-41375000D01*
X50817760Y-41375000D01*
X50656440Y-41407089D01*
X50504479Y-41470033D01*
X50367719Y-41561413D01*
X50251413Y-41677719D01*
X50160033Y-41814479D01*
X50097089Y-41966440D01*
X50065000Y-42127760D01*
X49135000Y-42127760D01*
X49135000Y-42117760D01*
X49102911Y-41956440D01*
X49039967Y-41804479D01*
X48948587Y-41667719D01*
X48832281Y-41551413D01*
X48695521Y-41460033D01*
X48543560Y-41397089D01*
X48382240Y-41365000D01*
X48217760Y-41365000D01*
X48056440Y-41397089D01*
X47904479Y-41460033D01*
X47767719Y-41551413D01*
X47651413Y-41667719D01*
X47560033Y-41804479D01*
X47497089Y-41956440D01*
X47465000Y-42117760D01*
X46535000Y-42117760D01*
X46502911Y-41956440D01*
X46439967Y-41804479D01*
X46348587Y-41667719D01*
X46232281Y-41551413D01*
X46095521Y-41460033D01*
X45943560Y-41397089D01*
X45782240Y-41365000D01*
X45617760Y-41365000D01*
X45456440Y-41397089D01*
X45304479Y-41460033D01*
X45167719Y-41551413D01*
X45051413Y-41667719D01*
X44960033Y-41804479D01*
X44897089Y-41956440D01*
X44865000Y-42117760D01*
X40685000Y-42117760D01*
X40685000Y-34631946D01*
X41263081Y-34631946D01*
X41263081Y-35368054D01*
X41406689Y-36090019D01*
X41688386Y-36770095D01*
X42097346Y-37382147D01*
X42617853Y-37902654D01*
X43229905Y-38311614D01*
X43909981Y-38593311D01*
X44631946Y-38736919D01*
X45368054Y-38736919D01*
X46090019Y-38593311D01*
X46770095Y-38311614D01*
X47382147Y-37902654D01*
X47902654Y-37382147D01*
X48206265Y-36927760D01*
X50065000Y-36927760D01*
X50065000Y-37092240D01*
X50097089Y-37253560D01*
X50160033Y-37405521D01*
X50251413Y-37542281D01*
X50367719Y-37658587D01*
X50504479Y-37749967D01*
X50656440Y-37812911D01*
X50817760Y-37845000D01*
X50982240Y-37845000D01*
X51143560Y-37812911D01*
X51295521Y-37749967D01*
X51432281Y-37658587D01*
X51548587Y-37542281D01*
X51639967Y-37405521D01*
X51702911Y-37253560D01*
X51735000Y-37092240D01*
X51735000Y-36927760D01*
X52665000Y-36927760D01*
X52665000Y-37092240D01*
X52697089Y-37253560D01*
X52760033Y-37405521D01*
X52851413Y-37542281D01*
X52967719Y-37658587D01*
X53104479Y-37749967D01*
X53256440Y-37812911D01*
X53417760Y-37845000D01*
X53582240Y-37845000D01*
X53743560Y-37812911D01*
X53895521Y-37749967D01*
X54032281Y-37658587D01*
X54148587Y-37542281D01*
X54239967Y-37405521D01*
X54302911Y-37253560D01*
X54335000Y-37092240D01*
X54335000Y-36927760D01*
X55265000Y-36927760D01*
X55265000Y-37092240D01*
X55297089Y-37253560D01*
X55360033Y-37405521D01*
X55451413Y-37542281D01*
X55567719Y-37658587D01*
X55704479Y-37749967D01*
X55856440Y-37812911D01*
X56017760Y-37845000D01*
X56182240Y-37845000D01*
X56343560Y-37812911D01*
X56495521Y-37749967D01*
X56632281Y-37658587D01*
X56748587Y-37542281D01*
X56839967Y-37405521D01*
X56902911Y-37253560D01*
X56935000Y-37092240D01*
X56935000Y-36927760D01*
X57865000Y-36927760D01*
X57865000Y-37092240D01*
X57897089Y-37253560D01*
X57960033Y-37405521D01*
X58051413Y-37542281D01*
X58167719Y-37658587D01*
X58304479Y-37749967D01*
X58456440Y-37812911D01*
X58617760Y-37845000D01*
X58782240Y-37845000D01*
X58943560Y-37812911D01*
X59095521Y-37749967D01*
X59232281Y-37658587D01*
X59348587Y-37542281D01*
X59439967Y-37405521D01*
X59502911Y-37253560D01*
X59535000Y-37092240D01*
X59535000Y-36927760D01*
X60465000Y-36927760D01*
X60465000Y-37092240D01*
X60497089Y-37253560D01*
X60560033Y-37405521D01*
X60651413Y-37542281D01*
X60767719Y-37658587D01*
X60904479Y-37749967D01*
X61056440Y-37812911D01*
X61217760Y-37845000D01*
X61382240Y-37845000D01*
X61543560Y-37812911D01*
X61695521Y-37749967D01*
X61832281Y-37658587D01*
X61948587Y-37542281D01*
X62039967Y-37405521D01*
X62102911Y-37253560D01*
X62135000Y-37092240D01*
X62135000Y-36927760D01*
X63065000Y-36927760D01*
X63065000Y-37092240D01*
X63097089Y-37253560D01*
X63160033Y-37405521D01*
X63251413Y-37542281D01*
X63367719Y-37658587D01*
X63504479Y-37749967D01*
X63656440Y-37812911D01*
X63817760Y-37845000D01*
X63982240Y-37845000D01*
X64143560Y-37812911D01*
X64295521Y-37749967D01*
X64432281Y-37658587D01*
X64548587Y-37542281D01*
X64639967Y-37405521D01*
X64702911Y-37253560D01*
X64735000Y-37092240D01*
X64735000Y-36927760D01*
X65665000Y-36927760D01*
X65665000Y-37092240D01*
X65697089Y-37253560D01*
X65760033Y-37405521D01*
X65851413Y-37542281D01*
X65967719Y-37658587D01*
X66104479Y-37749967D01*
X66256440Y-37812911D01*
X66417760Y-37845000D01*
X66582240Y-37845000D01*
X66743560Y-37812911D01*
X66895521Y-37749967D01*
X67032281Y-37658587D01*
X67148587Y-37542281D01*
X67239967Y-37405521D01*
X67302911Y-37253560D01*
X67335000Y-37092240D01*
X67335000Y-36927760D01*
X68265000Y-36927760D01*
X68265000Y-37092240D01*
X68297089Y-37253560D01*
X68360033Y-37405521D01*
X68451413Y-37542281D01*
X68567719Y-37658587D01*
X68704479Y-37749967D01*
X68856440Y-37812911D01*
X69017760Y-37845000D01*
X69182240Y-37845000D01*
X69343560Y-37812911D01*
X69495521Y-37749967D01*
X69632281Y-37658587D01*
X69748587Y-37542281D01*
X69839967Y-37405521D01*
X69902911Y-37253560D01*
X69935000Y-37092240D01*
X69935000Y-36927760D01*
X69902911Y-36766440D01*
X69839967Y-36614479D01*
X69748587Y-36477719D01*
X69632281Y-36361413D01*
X69495521Y-36270033D01*
X69343560Y-36207089D01*
X69182240Y-36175000D01*
X69017760Y-36175000D01*
X68856440Y-36207089D01*
X68704479Y-36270033D01*
X68567719Y-36361413D01*
X68451413Y-36477719D01*
X68360033Y-36614479D01*
X68297089Y-36766440D01*
X68265000Y-36927760D01*
X67335000Y-36927760D01*
X67302911Y-36766440D01*
X67239967Y-36614479D01*
X67148587Y-36477719D01*
X67032281Y-36361413D01*
X66895521Y-36270033D01*
X66743560Y-36207089D01*
X66582240Y-36175000D01*
X66417760Y-36175000D01*
X66256440Y-36207089D01*
X66104479Y-36270033D01*
X65967719Y-36361413D01*
X65851413Y-36477719D01*
X65760033Y-36614479D01*
X65697089Y-36766440D01*
X65665000Y-36927760D01*
X64735000Y-36927760D01*
X64702911Y-36766440D01*
X64639967Y-36614479D01*
X64548587Y-36477719D01*
X64432281Y-36361413D01*
X64295521Y-36270033D01*
X64143560Y-36207089D01*
X63982240Y-36175000D01*
X63817760Y-36175000D01*
X63656440Y-36207089D01*
X63504479Y-36270033D01*
X63367719Y-36361413D01*
X63251413Y-36477719D01*
X63160033Y-36614479D01*
X63097089Y-36766440D01*
X63065000Y-36927760D01*
X62135000Y-36927760D01*
X62102911Y-36766440D01*
X62039967Y-36614479D01*
X61948587Y-36477719D01*
X61832281Y-36361413D01*
X61695521Y-36270033D01*
X61543560Y-36207089D01*
X61382240Y-36175000D01*
X61217760Y-36175000D01*
X61056440Y-36207089D01*
X60904479Y-36270033D01*
X60767719Y-36361413D01*
X60651413Y-36477719D01*
X60560033Y-36614479D01*
X60497089Y-36766440D01*
X60465000Y-36927760D01*
X59535000Y-36927760D01*
X59502911Y-36766440D01*
X59439967Y-36614479D01*
X59348587Y-36477719D01*
X59232281Y-36361413D01*
X59095521Y-36270033D01*
X58943560Y-36207089D01*
X58782240Y-36175000D01*
X58617760Y-36175000D01*
X58456440Y-36207089D01*
X58304479Y-36270033D01*
X58167719Y-36361413D01*
X58051413Y-36477719D01*
X57960033Y-36614479D01*
X57897089Y-36766440D01*
X57865000Y-36927760D01*
X56935000Y-36927760D01*
X56902911Y-36766440D01*
X56839967Y-36614479D01*
X56748587Y-36477719D01*
X56632281Y-36361413D01*
X56495521Y-36270033D01*
X56343560Y-36207089D01*
X56182240Y-36175000D01*
X56017760Y-36175000D01*
X55856440Y-36207089D01*
X55704479Y-36270033D01*
X55567719Y-36361413D01*
X55451413Y-36477719D01*
X55360033Y-36614479D01*
X55297089Y-36766440D01*
X55265000Y-36927760D01*
X54335000Y-36927760D01*
X54302911Y-36766440D01*
X54239967Y-36614479D01*
X54148587Y-36477719D01*
X54032281Y-36361413D01*
X53895521Y-36270033D01*
X53743560Y-36207089D01*
X53582240Y-36175000D01*
X53417760Y-36175000D01*
X53256440Y-36207089D01*
X53104479Y-36270033D01*
X52967719Y-36361413D01*
X52851413Y-36477719D01*
X52760033Y-36614479D01*
X52697089Y-36766440D01*
X52665000Y-36927760D01*
X51735000Y-36927760D01*
X51702911Y-36766440D01*
X51639967Y-36614479D01*
X51548587Y-36477719D01*
X51432281Y-36361413D01*
X51295521Y-36270033D01*
X51143560Y-36207089D01*
X50982240Y-36175000D01*
X50817760Y-36175000D01*
X50656440Y-36207089D01*
X50504479Y-36270033D01*
X50367719Y-36361413D01*
X50251413Y-36477719D01*
X50160033Y-36614479D01*
X50097089Y-36766440D01*
X50065000Y-36927760D01*
X48206265Y-36927760D01*
X48311614Y-36770095D01*
X48593311Y-36090019D01*
X48736919Y-35368054D01*
X48736919Y-34631946D01*
X71263081Y-34631946D01*
X71263081Y-35368054D01*
X71406689Y-36090019D01*
X71688386Y-36770095D01*
X72097346Y-37382147D01*
X72617853Y-37902654D01*
X73229905Y-38311614D01*
X73909981Y-38593311D01*
X74631946Y-38736919D01*
X75368054Y-38736919D01*
X76090019Y-38593311D01*
X76770095Y-38311614D01*
X77382147Y-37902654D01*
X77902654Y-37382147D01*
X78311614Y-36770095D01*
X78593311Y-36090019D01*
X78736919Y-35368054D01*
X78736919Y-34631946D01*
X78593311Y-33909981D01*
X78311614Y-33229905D01*
X77902654Y-32617853D01*
X77382147Y-32097346D01*
X76770095Y-31688386D01*
X76090019Y-31406689D01*
X75368054Y-31263081D01*
X74631946Y-31263081D01*
X73909981Y-31406689D01*
X73229905Y-31688386D01*
X72617853Y-32097346D01*
X72097346Y-32617853D01*
X71688386Y-33229905D01*
X71406689Y-33909981D01*
X71263081Y-34631946D01*
X48736919Y-34631946D01*
X48593311Y-33909981D01*
X48311614Y-33229905D01*
X47902654Y-32617853D01*
X47382147Y-32097346D01*
X46770095Y-31688386D01*
X46090019Y-31406689D01*
X45368054Y-31263081D01*
X44631946Y-31263081D01*
X43909981Y-31406689D01*
X43229905Y-31688386D01*
X42617853Y-32097346D01*
X42097346Y-32617853D01*
X41688386Y-33229905D01*
X41406689Y-33909981D01*
X41263081Y-34631946D01*
X40685000Y-34631946D01*
X40685000Y-29498061D01*
X43565000Y-29498061D01*
X43565000Y-29701939D01*
X43604774Y-29901898D01*
X43682795Y-30090256D01*
X43796063Y-30259774D01*
X43940226Y-30403937D01*
X44109744Y-30517205D01*
X44298102Y-30595226D01*
X44498061Y-30635000D01*
X44701939Y-30635000D01*
X44901898Y-30595226D01*
X45090256Y-30517205D01*
X45259774Y-30403937D01*
X45403937Y-30259774D01*
X45517205Y-30090256D01*
X45595226Y-29901898D01*
X45635000Y-29701939D01*
X45635000Y-29498061D01*
X47565000Y-29498061D01*
X47565000Y-29701939D01*
X47604774Y-29901898D01*
X47682795Y-30090256D01*
X47796063Y-30259774D01*
X47940226Y-30403937D01*
X48109744Y-30517205D01*
X48298102Y-30595226D01*
X48498061Y-30635000D01*
X48701939Y-30635000D01*
X48901898Y-30595226D01*
X49090256Y-30517205D01*
X49259774Y-30403937D01*
X49403937Y-30259774D01*
X49517205Y-30090256D01*
X49595226Y-29901898D01*
X49635000Y-29701939D01*
X49635000Y-29498061D01*
X70965000Y-29498061D01*
X70965000Y-29701939D01*
X71004774Y-29901898D01*
X71082795Y-30090256D01*
X71196063Y-30259774D01*
X71340226Y-30403937D01*
X71509744Y-30517205D01*
X71698102Y-30595226D01*
X71898061Y-30635000D01*
X72101939Y-30635000D01*
X72301898Y-30595226D01*
X72490256Y-30517205D01*
X72659774Y-30403937D01*
X72803937Y-30259774D01*
X72917205Y-30090256D01*
X72995226Y-29901898D01*
X73035000Y-29701939D01*
X73035000Y-29498061D01*
X74965000Y-29498061D01*
X74965000Y-29701939D01*
X75004774Y-29901898D01*
X75082795Y-30090256D01*
X75196063Y-30259774D01*
X75340226Y-30403937D01*
X75509744Y-30517205D01*
X75698102Y-30595226D01*
X75898061Y-30635000D01*
X76101939Y-30635000D01*
X76301898Y-30595226D01*
X76490256Y-30517205D01*
X76659774Y-30403937D01*
X76803937Y-30259774D01*
X76917205Y-30090256D01*
X76995226Y-29901898D01*
X77035000Y-29701939D01*
X77035000Y-29498061D01*
X76995226Y-29298102D01*
X76917205Y-29109744D01*
X76803937Y-28940226D01*
X76659774Y-28796063D01*
X76490256Y-28682795D01*
X76301898Y-28604774D01*
X76101939Y-28565000D01*
X75898061Y-28565000D01*
X75698102Y-28604774D01*
X75509744Y-28682795D01*
X75340226Y-28796063D01*
X75196063Y-28940226D01*
X75082795Y-29109744D01*
X75004774Y-29298102D01*
X74965000Y-29498061D01*
X73035000Y-29498061D01*
X72995226Y-29298102D01*
X72917205Y-29109744D01*
X72803937Y-28940226D01*
X72659774Y-28796063D01*
X72490256Y-28682795D01*
X72301898Y-28604774D01*
X72101939Y-28565000D01*
X71898061Y-28565000D01*
X71698102Y-28604774D01*
X71509744Y-28682795D01*
X71340226Y-28796063D01*
X71196063Y-28940226D01*
X71082795Y-29109744D01*
X71004774Y-29298102D01*
X70965000Y-29498061D01*
X49635000Y-29498061D01*
X49595226Y-29298102D01*
X49517205Y-29109744D01*
X49403937Y-28940226D01*
X49259774Y-28796063D01*
X49090256Y-28682795D01*
X48901898Y-28604774D01*
X48701939Y-28565000D01*
X48498061Y-28565000D01*
X48298102Y-28604774D01*
X48109744Y-28682795D01*
X47940226Y-28796063D01*
X47796063Y-28940226D01*
X47682795Y-29109744D01*
X47604774Y-29298102D01*
X47565000Y-29498061D01*
X45635000Y-29498061D01*
X45595226Y-29298102D01*
X45517205Y-29109744D01*
X45403937Y-28940226D01*
X45259774Y-28796063D01*
X45090256Y-28682795D01*
X44901898Y-28604774D01*
X44701939Y-28565000D01*
X44498061Y-28565000D01*
X44298102Y-28604774D01*
X44109744Y-28682795D01*
X43940226Y-28796063D01*
X43796063Y-28940226D01*
X43682795Y-29109744D01*
X43604774Y-29298102D01*
X43565000Y-29498061D01*
X40685000Y-29498061D01*
X40685000Y-28108061D01*
X55575000Y-28108061D01*
X55575000Y-28311939D01*
X55614774Y-28511898D01*
X55692795Y-28700256D01*
X55806063Y-28869774D01*
X55950226Y-29013937D01*
X56119744Y-29127205D01*
X56308102Y-29205226D01*
X56508061Y-29245000D01*
X56711939Y-29245000D01*
X56911898Y-29205226D01*
X57100256Y-29127205D01*
X57269774Y-29013937D01*
X57413937Y-28869774D01*
X57527205Y-28700256D01*
X57605226Y-28511898D01*
X57645000Y-28311939D01*
X57645000Y-28108061D01*
X57605226Y-27908102D01*
X57527205Y-27719744D01*
X57413937Y-27550226D01*
X57269774Y-27406063D01*
X57100256Y-27292795D01*
X56911898Y-27214774D01*
X56711939Y-27175000D01*
X56508061Y-27175000D01*
X56308102Y-27214774D01*
X56119744Y-27292795D01*
X55950226Y-27406063D01*
X55806063Y-27550226D01*
X55692795Y-27719744D01*
X55614774Y-27908102D01*
X55575000Y-28108061D01*
X40685000Y-28108061D01*
X40685000Y-25033505D01*
X40732312Y-24550984D01*
X40862714Y-24119070D01*
X41074524Y-23720715D01*
X41359675Y-23371086D01*
X41707303Y-23083503D01*
X42104177Y-22868914D01*
X42535161Y-22735502D01*
X43015654Y-22685000D01*
X76966495Y-22685000D01*
X77449016Y-22732312D01*
G04 #@! TA.AperFunction,Conductor*
D14*
G36*
X77449016Y-22732312D02*
G01*
X77880930Y-22862714D01*
X78279285Y-23074524D01*
X78628914Y-23359675D01*
X78916497Y-23707303D01*
X79131086Y-24104177D01*
X79264498Y-24535161D01*
X79315000Y-25015654D01*
X79315001Y-66966485D01*
X79267688Y-67449016D01*
X79137287Y-67880927D01*
X78925480Y-68279280D01*
X78640325Y-68628914D01*
X78292697Y-68916497D01*
X77895825Y-69131085D01*
X77464834Y-69264500D01*
X76984346Y-69315000D01*
X43033504Y-69315000D01*
X42550984Y-69267688D01*
X42119073Y-69137287D01*
X41720720Y-68925480D01*
X41371086Y-68640325D01*
X41083503Y-68292697D01*
X40868915Y-67895825D01*
X40735500Y-67464834D01*
X40685000Y-66984346D01*
X40685000Y-64631946D01*
X41263081Y-64631946D01*
X41263081Y-65368054D01*
X41406689Y-66090019D01*
X41688386Y-66770095D01*
X42097346Y-67382147D01*
X42617853Y-67902654D01*
X43229905Y-68311614D01*
X43909981Y-68593311D01*
X44631946Y-68736919D01*
X45368054Y-68736919D01*
X46090019Y-68593311D01*
X46770095Y-68311614D01*
X47382147Y-67902654D01*
X47902654Y-67382147D01*
X48311614Y-66770095D01*
X48593311Y-66090019D01*
X48736919Y-65368054D01*
X48736919Y-64631946D01*
X71263081Y-64631946D01*
X71263081Y-65368054D01*
X71406689Y-66090019D01*
X71688386Y-66770095D01*
X72097346Y-67382147D01*
X72617853Y-67902654D01*
X73229905Y-68311614D01*
X73909981Y-68593311D01*
X74631946Y-68736919D01*
X75368054Y-68736919D01*
X76090019Y-68593311D01*
X76770095Y-68311614D01*
X77382147Y-67902654D01*
X77902654Y-67382147D01*
X78311614Y-66770095D01*
X78593311Y-66090019D01*
X78736919Y-65368054D01*
X78736919Y-64631946D01*
X78593311Y-63909981D01*
X78311614Y-63229905D01*
X77902654Y-62617853D01*
X77382147Y-62097346D01*
X76770095Y-61688386D01*
X76090019Y-61406689D01*
X75368054Y-61263081D01*
X74631946Y-61263081D01*
X73909981Y-61406689D01*
X73229905Y-61688386D01*
X72617853Y-62097346D01*
X72097346Y-62617853D01*
X71688386Y-63229905D01*
X71406689Y-63909981D01*
X71263081Y-64631946D01*
X48736919Y-64631946D01*
X48593311Y-63909981D01*
X48311614Y-63229905D01*
X48109728Y-62927760D01*
X50065000Y-62927760D01*
X50065000Y-63092240D01*
X50097089Y-63253560D01*
X50160033Y-63405521D01*
X50251413Y-63542281D01*
X50367719Y-63658587D01*
X50504479Y-63749967D01*
X50656440Y-63812911D01*
X50817760Y-63845000D01*
X50982240Y-63845000D01*
X51143560Y-63812911D01*
X51295521Y-63749967D01*
X51432281Y-63658587D01*
X51548587Y-63542281D01*
X51639967Y-63405521D01*
X51702911Y-63253560D01*
X51735000Y-63092240D01*
X51735000Y-62927760D01*
X52665000Y-62927760D01*
X52665000Y-63092240D01*
X52697089Y-63253560D01*
X52760033Y-63405521D01*
X52851413Y-63542281D01*
X52967719Y-63658587D01*
X53104479Y-63749967D01*
X53256440Y-63812911D01*
X53417760Y-63845000D01*
X53582240Y-63845000D01*
X53743560Y-63812911D01*
X53895521Y-63749967D01*
X54032281Y-63658587D01*
X54148587Y-63542281D01*
X54239967Y-63405521D01*
X54302911Y-63253560D01*
X54335000Y-63092240D01*
X54335000Y-62927760D01*
X55265000Y-62927760D01*
X55265000Y-63092240D01*
X55297089Y-63253560D01*
X55360033Y-63405521D01*
X55451413Y-63542281D01*
X55567719Y-63658587D01*
X55704479Y-63749967D01*
X55856440Y-63812911D01*
X56017760Y-63845000D01*
X56182240Y-63845000D01*
X56343560Y-63812911D01*
X56495521Y-63749967D01*
X56632281Y-63658587D01*
X56748587Y-63542281D01*
X56839967Y-63405521D01*
X56902911Y-63253560D01*
X56935000Y-63092240D01*
X56935000Y-62927760D01*
X57865000Y-62927760D01*
X57865000Y-63092240D01*
X57897089Y-63253560D01*
X57960033Y-63405521D01*
X58051413Y-63542281D01*
X58167719Y-63658587D01*
X58304479Y-63749967D01*
X58456440Y-63812911D01*
X58617760Y-63845000D01*
X58782240Y-63845000D01*
X58943560Y-63812911D01*
X59095521Y-63749967D01*
X59232281Y-63658587D01*
X59348587Y-63542281D01*
X59439967Y-63405521D01*
X59502911Y-63253560D01*
X59535000Y-63092240D01*
X59535000Y-62927760D01*
X60465000Y-62927760D01*
X60465000Y-63092240D01*
X60497089Y-63253560D01*
X60560033Y-63405521D01*
X60651413Y-63542281D01*
X60767719Y-63658587D01*
X60904479Y-63749967D01*
X61056440Y-63812911D01*
X61217760Y-63845000D01*
X61382240Y-63845000D01*
X61543560Y-63812911D01*
X61695521Y-63749967D01*
X61832281Y-63658587D01*
X61948587Y-63542281D01*
X62039967Y-63405521D01*
X62102911Y-63253560D01*
X62135000Y-63092240D01*
X62135000Y-62927760D01*
X63065000Y-62927760D01*
X63065000Y-63092240D01*
X63097089Y-63253560D01*
X63160033Y-63405521D01*
X63251413Y-63542281D01*
X63367719Y-63658587D01*
X63504479Y-63749967D01*
X63656440Y-63812911D01*
X63817760Y-63845000D01*
X63982240Y-63845000D01*
X64143560Y-63812911D01*
X64295521Y-63749967D01*
X64432281Y-63658587D01*
X64548587Y-63542281D01*
X64639967Y-63405521D01*
X64702911Y-63253560D01*
X64735000Y-63092240D01*
X64735000Y-62927760D01*
X65665000Y-62927760D01*
X65665000Y-63092240D01*
X65697089Y-63253560D01*
X65760033Y-63405521D01*
X65851413Y-63542281D01*
X65967719Y-63658587D01*
X66104479Y-63749967D01*
X66256440Y-63812911D01*
X66417760Y-63845000D01*
X66582240Y-63845000D01*
X66743560Y-63812911D01*
X66895521Y-63749967D01*
X67032281Y-63658587D01*
X67148587Y-63542281D01*
X67239967Y-63405521D01*
X67302911Y-63253560D01*
X67335000Y-63092240D01*
X67335000Y-62927760D01*
X68265000Y-62927760D01*
X68265000Y-63092240D01*
X68297089Y-63253560D01*
X68360033Y-63405521D01*
X68451413Y-63542281D01*
X68567719Y-63658587D01*
X68704479Y-63749967D01*
X68856440Y-63812911D01*
X69017760Y-63845000D01*
X69182240Y-63845000D01*
X69343560Y-63812911D01*
X69495521Y-63749967D01*
X69632281Y-63658587D01*
X69748587Y-63542281D01*
X69839967Y-63405521D01*
X69902911Y-63253560D01*
X69935000Y-63092240D01*
X69935000Y-62927760D01*
X69902911Y-62766440D01*
X69839967Y-62614479D01*
X69748587Y-62477719D01*
X69632281Y-62361413D01*
X69495521Y-62270033D01*
X69343560Y-62207089D01*
X69182240Y-62175000D01*
X69017760Y-62175000D01*
X68856440Y-62207089D01*
X68704479Y-62270033D01*
X68567719Y-62361413D01*
X68451413Y-62477719D01*
X68360033Y-62614479D01*
X68297089Y-62766440D01*
X68265000Y-62927760D01*
X67335000Y-62927760D01*
X67302911Y-62766440D01*
X67239967Y-62614479D01*
X67148587Y-62477719D01*
X67032281Y-62361413D01*
X66895521Y-62270033D01*
X66743560Y-62207089D01*
X66582240Y-62175000D01*
X66417760Y-62175000D01*
X66256440Y-62207089D01*
X66104479Y-62270033D01*
X65967719Y-62361413D01*
X65851413Y-62477719D01*
X65760033Y-62614479D01*
X65697089Y-62766440D01*
X65665000Y-62927760D01*
X64735000Y-62927760D01*
X64702911Y-62766440D01*
X64639967Y-62614479D01*
X64548587Y-62477719D01*
X64432281Y-62361413D01*
X64295521Y-62270033D01*
X64143560Y-62207089D01*
X63982240Y-62175000D01*
X63817760Y-62175000D01*
X63656440Y-62207089D01*
X63504479Y-62270033D01*
X63367719Y-62361413D01*
X63251413Y-62477719D01*
X63160033Y-62614479D01*
X63097089Y-62766440D01*
X63065000Y-62927760D01*
X62135000Y-62927760D01*
X62102911Y-62766440D01*
X62039967Y-62614479D01*
X61948587Y-62477719D01*
X61832281Y-62361413D01*
X61695521Y-62270033D01*
X61543560Y-62207089D01*
X61382240Y-62175000D01*
X61217760Y-62175000D01*
X61056440Y-62207089D01*
X60904479Y-62270033D01*
X60767719Y-62361413D01*
X60651413Y-62477719D01*
X60560033Y-62614479D01*
X60497089Y-62766440D01*
X60465000Y-62927760D01*
X59535000Y-62927760D01*
X59502911Y-62766440D01*
X59439967Y-62614479D01*
X59348587Y-62477719D01*
X59232281Y-62361413D01*
X59095521Y-62270033D01*
X58943560Y-62207089D01*
X58782240Y-62175000D01*
X58617760Y-62175000D01*
X58456440Y-62207089D01*
X58304479Y-62270033D01*
X58167719Y-62361413D01*
X58051413Y-62477719D01*
X57960033Y-62614479D01*
X57897089Y-62766440D01*
X57865000Y-62927760D01*
X56935000Y-62927760D01*
X56902911Y-62766440D01*
X56839967Y-62614479D01*
X56748587Y-62477719D01*
X56632281Y-62361413D01*
X56495521Y-62270033D01*
X56343560Y-62207089D01*
X56182240Y-62175000D01*
X56017760Y-62175000D01*
X55856440Y-62207089D01*
X55704479Y-62270033D01*
X55567719Y-62361413D01*
X55451413Y-62477719D01*
X55360033Y-62614479D01*
X55297089Y-62766440D01*
X55265000Y-62927760D01*
X54335000Y-62927760D01*
X54302911Y-62766440D01*
X54239967Y-62614479D01*
X54148587Y-62477719D01*
X54032281Y-62361413D01*
X53895521Y-62270033D01*
X53743560Y-62207089D01*
X53582240Y-62175000D01*
X53417760Y-62175000D01*
X53256440Y-62207089D01*
X53104479Y-62270033D01*
X52967719Y-62361413D01*
X52851413Y-62477719D01*
X52760033Y-62614479D01*
X52697089Y-62766440D01*
X52665000Y-62927760D01*
X51735000Y-62927760D01*
X51702911Y-62766440D01*
X51639967Y-62614479D01*
X51548587Y-62477719D01*
X51432281Y-62361413D01*
X51295521Y-62270033D01*
X51143560Y-62207089D01*
X50982240Y-62175000D01*
X50817760Y-62175000D01*
X50656440Y-62207089D01*
X50504479Y-62270033D01*
X50367719Y-62361413D01*
X50251413Y-62477719D01*
X50160033Y-62614479D01*
X50097089Y-62766440D01*
X50065000Y-62927760D01*
X48109728Y-62927760D01*
X47902654Y-62617853D01*
X47382147Y-62097346D01*
X46770095Y-61688386D01*
X46090019Y-61406689D01*
X45368054Y-61263081D01*
X44631946Y-61263081D01*
X43909981Y-61406689D01*
X43229905Y-61688386D01*
X42617853Y-62097346D01*
X42097346Y-62617853D01*
X41688386Y-63229905D01*
X41406689Y-63909981D01*
X41263081Y-64631946D01*
X40685000Y-64631946D01*
X40685000Y-57717760D01*
X44865000Y-57717760D01*
X44865000Y-57882240D01*
X44897089Y-58043560D01*
X44960033Y-58195521D01*
X45051413Y-58332281D01*
X45167719Y-58448587D01*
X45304479Y-58539967D01*
X45456440Y-58602911D01*
X45617760Y-58635000D01*
X45782240Y-58635000D01*
X45943560Y-58602911D01*
X46095521Y-58539967D01*
X46232281Y-58448587D01*
X46348587Y-58332281D01*
X46439967Y-58195521D01*
X46502911Y-58043560D01*
X46535000Y-57882240D01*
X46535000Y-57717760D01*
X47465000Y-57717760D01*
X47465000Y-57882240D01*
X47497089Y-58043560D01*
X47560033Y-58195521D01*
X47651413Y-58332281D01*
X47767719Y-58448587D01*
X47904479Y-58539967D01*
X48056440Y-58602911D01*
X48217760Y-58635000D01*
X48382240Y-58635000D01*
X48543560Y-58602911D01*
X48695521Y-58539967D01*
X48832281Y-58448587D01*
X48948587Y-58332281D01*
X49039967Y-58195521D01*
X49102911Y-58043560D01*
X49135000Y-57882240D01*
X49135000Y-57727760D01*
X50065000Y-57727760D01*
X50065000Y-57892240D01*
X50097089Y-58053560D01*
X50160033Y-58205521D01*
X50251413Y-58342281D01*
X50367719Y-58458587D01*
X50504479Y-58549967D01*
X50656440Y-58612911D01*
X50817760Y-58645000D01*
X50982240Y-58645000D01*
X51143560Y-58612911D01*
X51295521Y-58549967D01*
X51432281Y-58458587D01*
X51548587Y-58342281D01*
X51639967Y-58205521D01*
X51702911Y-58053560D01*
X51735000Y-57892240D01*
X51735000Y-57727760D01*
X52665000Y-57727760D01*
X52665000Y-57892240D01*
X52697089Y-58053560D01*
X52760033Y-58205521D01*
X52851413Y-58342281D01*
X52967719Y-58458587D01*
X53104479Y-58549967D01*
X53256440Y-58612911D01*
X53417760Y-58645000D01*
X53582240Y-58645000D01*
X53743560Y-58612911D01*
X53895521Y-58549967D01*
X54032281Y-58458587D01*
X54148587Y-58342281D01*
X54239967Y-58205521D01*
X54302911Y-58053560D01*
X54335000Y-57892240D01*
X54335000Y-57727760D01*
X55265000Y-57727760D01*
X55265000Y-57892240D01*
X55297089Y-58053560D01*
X55360033Y-58205521D01*
X55451413Y-58342281D01*
X55567719Y-58458587D01*
X55704479Y-58549967D01*
X55856440Y-58612911D01*
X56017760Y-58645000D01*
X56182240Y-58645000D01*
X56343560Y-58612911D01*
X56495521Y-58549967D01*
X56632281Y-58458587D01*
X56748587Y-58342281D01*
X56839967Y-58205521D01*
X56902911Y-58053560D01*
X56935000Y-57892240D01*
X56935000Y-57727760D01*
X57865000Y-57727760D01*
X57865000Y-57892240D01*
X57897089Y-58053560D01*
X57960033Y-58205521D01*
X58051413Y-58342281D01*
X58167719Y-58458587D01*
X58304479Y-58549967D01*
X58456440Y-58612911D01*
X58617760Y-58645000D01*
X58782240Y-58645000D01*
X58943560Y-58612911D01*
X59095521Y-58549967D01*
X59232281Y-58458587D01*
X59348587Y-58342281D01*
X59439967Y-58205521D01*
X59502911Y-58053560D01*
X59535000Y-57892240D01*
X59535000Y-57727760D01*
X60465000Y-57727760D01*
X60465000Y-57892240D01*
X60497089Y-58053560D01*
X60560033Y-58205521D01*
X60651413Y-58342281D01*
X60767719Y-58458587D01*
X60904479Y-58549967D01*
X61056440Y-58612911D01*
X61217760Y-58645000D01*
X61382240Y-58645000D01*
X61543560Y-58612911D01*
X61695521Y-58549967D01*
X61832281Y-58458587D01*
X61948587Y-58342281D01*
X62039967Y-58205521D01*
X62102911Y-58053560D01*
X62135000Y-57892240D01*
X62135000Y-57727760D01*
X63065000Y-57727760D01*
X63065000Y-57892240D01*
X63097089Y-58053560D01*
X63160033Y-58205521D01*
X63251413Y-58342281D01*
X63367719Y-58458587D01*
X63504479Y-58549967D01*
X63656440Y-58612911D01*
X63817760Y-58645000D01*
X63982240Y-58645000D01*
X64143560Y-58612911D01*
X64295521Y-58549967D01*
X64432281Y-58458587D01*
X64548587Y-58342281D01*
X64639967Y-58205521D01*
X64702911Y-58053560D01*
X64735000Y-57892240D01*
X64735000Y-57727760D01*
X65665000Y-57727760D01*
X65665000Y-57892240D01*
X65697089Y-58053560D01*
X65760033Y-58205521D01*
X65851413Y-58342281D01*
X65967719Y-58458587D01*
X66104479Y-58549967D01*
X66256440Y-58612911D01*
X66417760Y-58645000D01*
X66582240Y-58645000D01*
X66743560Y-58612911D01*
X66895521Y-58549967D01*
X67032281Y-58458587D01*
X67148587Y-58342281D01*
X67239967Y-58205521D01*
X67302911Y-58053560D01*
X67335000Y-57892240D01*
X67335000Y-57727760D01*
X68265000Y-57727760D01*
X68265000Y-57892240D01*
X68297089Y-58053560D01*
X68360033Y-58205521D01*
X68451413Y-58342281D01*
X68567719Y-58458587D01*
X68704479Y-58549967D01*
X68856440Y-58612911D01*
X69017760Y-58645000D01*
X69182240Y-58645000D01*
X69343560Y-58612911D01*
X69495521Y-58549967D01*
X69632281Y-58458587D01*
X69748587Y-58342281D01*
X69839967Y-58205521D01*
X69902911Y-58053560D01*
X69935000Y-57892240D01*
X69935000Y-57727760D01*
X69933011Y-57717760D01*
X70865000Y-57717760D01*
X70865000Y-57882240D01*
X70897089Y-58043560D01*
X70960033Y-58195521D01*
X71051413Y-58332281D01*
X71167719Y-58448587D01*
X71304479Y-58539967D01*
X71456440Y-58602911D01*
X71617760Y-58635000D01*
X71782240Y-58635000D01*
X71943560Y-58602911D01*
X72095521Y-58539967D01*
X72232281Y-58448587D01*
X72348587Y-58332281D01*
X72439967Y-58195521D01*
X72502911Y-58043560D01*
X72535000Y-57882240D01*
X72535000Y-57717760D01*
X73465000Y-57717760D01*
X73465000Y-57882240D01*
X73497089Y-58043560D01*
X73560033Y-58195521D01*
X73651413Y-58332281D01*
X73767719Y-58448587D01*
X73904479Y-58539967D01*
X74056440Y-58602911D01*
X74217760Y-58635000D01*
X74382240Y-58635000D01*
X74543560Y-58602911D01*
X74695521Y-58539967D01*
X74832281Y-58448587D01*
X74948587Y-58332281D01*
X75039967Y-58195521D01*
X75102911Y-58043560D01*
X75135000Y-57882240D01*
X75135000Y-57717760D01*
X75102911Y-57556440D01*
X75039967Y-57404479D01*
X74948587Y-57267719D01*
X74832281Y-57151413D01*
X74695521Y-57060033D01*
X74543560Y-56997089D01*
X74382240Y-56965000D01*
X74217760Y-56965000D01*
X74056440Y-56997089D01*
X73904479Y-57060033D01*
X73767719Y-57151413D01*
X73651413Y-57267719D01*
X73560033Y-57404479D01*
X73497089Y-57556440D01*
X73465000Y-57717760D01*
X72535000Y-57717760D01*
X72502911Y-57556440D01*
X72439967Y-57404479D01*
X72348587Y-57267719D01*
X72232281Y-57151413D01*
X72095521Y-57060033D01*
X71943560Y-56997089D01*
X71782240Y-56965000D01*
X71617760Y-56965000D01*
X71456440Y-56997089D01*
X71304479Y-57060033D01*
X71167719Y-57151413D01*
X71051413Y-57267719D01*
X70960033Y-57404479D01*
X70897089Y-57556440D01*
X70865000Y-57717760D01*
X69933011Y-57717760D01*
X69902911Y-57566440D01*
X69839967Y-57414479D01*
X69748587Y-57277719D01*
X69632281Y-57161413D01*
X69495521Y-57070033D01*
X69343560Y-57007089D01*
X69182240Y-56975000D01*
X69017760Y-56975000D01*
X68856440Y-57007089D01*
X68704479Y-57070033D01*
X68567719Y-57161413D01*
X68451413Y-57277719D01*
X68360033Y-57414479D01*
X68297089Y-57566440D01*
X68265000Y-57727760D01*
X67335000Y-57727760D01*
X67302911Y-57566440D01*
X67239967Y-57414479D01*
X67148587Y-57277719D01*
X67032281Y-57161413D01*
X66895521Y-57070033D01*
X66743560Y-57007089D01*
X66582240Y-56975000D01*
X66417760Y-56975000D01*
X66256440Y-57007089D01*
X66104479Y-57070033D01*
X65967719Y-57161413D01*
X65851413Y-57277719D01*
X65760033Y-57414479D01*
X65697089Y-57566440D01*
X65665000Y-57727760D01*
X64735000Y-57727760D01*
X64702911Y-57566440D01*
X64639967Y-57414479D01*
X64548587Y-57277719D01*
X64432281Y-57161413D01*
X64295521Y-57070033D01*
X64143560Y-57007089D01*
X63982240Y-56975000D01*
X63817760Y-56975000D01*
X63656440Y-57007089D01*
X63504479Y-57070033D01*
X63367719Y-57161413D01*
X63251413Y-57277719D01*
X63160033Y-57414479D01*
X63097089Y-57566440D01*
X63065000Y-57727760D01*
X62135000Y-57727760D01*
X62102911Y-57566440D01*
X62039967Y-57414479D01*
X61948587Y-57277719D01*
X61832281Y-57161413D01*
X61695521Y-57070033D01*
X61543560Y-57007089D01*
X61382240Y-56975000D01*
X61217760Y-56975000D01*
X61056440Y-57007089D01*
X60904479Y-57070033D01*
X60767719Y-57161413D01*
X60651413Y-57277719D01*
X60560033Y-57414479D01*
X60497089Y-57566440D01*
X60465000Y-57727760D01*
X59535000Y-57727760D01*
X59502911Y-57566440D01*
X59439967Y-57414479D01*
X59348587Y-57277719D01*
X59232281Y-57161413D01*
X59095521Y-57070033D01*
X58943560Y-57007089D01*
X58782240Y-56975000D01*
X58617760Y-56975000D01*
X58456440Y-57007089D01*
X58304479Y-57070033D01*
X58167719Y-57161413D01*
X58051413Y-57277719D01*
X57960033Y-57414479D01*
X57897089Y-57566440D01*
X57865000Y-57727760D01*
X56935000Y-57727760D01*
X56902911Y-57566440D01*
X56839967Y-57414479D01*
X56748587Y-57277719D01*
X56632281Y-57161413D01*
X56495521Y-57070033D01*
X56343560Y-57007089D01*
X56182240Y-56975000D01*
X56017760Y-56975000D01*
X55856440Y-57007089D01*
X55704479Y-57070033D01*
X55567719Y-57161413D01*
X55451413Y-57277719D01*
X55360033Y-57414479D01*
X55297089Y-57566440D01*
X55265000Y-57727760D01*
X54335000Y-57727760D01*
X54302911Y-57566440D01*
X54239967Y-57414479D01*
X54148587Y-57277719D01*
X54032281Y-57161413D01*
X53895521Y-57070033D01*
X53743560Y-57007089D01*
X53582240Y-56975000D01*
X53417760Y-56975000D01*
X53256440Y-57007089D01*
X53104479Y-57070033D01*
X52967719Y-57161413D01*
X52851413Y-57277719D01*
X52760033Y-57414479D01*
X52697089Y-57566440D01*
X52665000Y-57727760D01*
X51735000Y-57727760D01*
X51702911Y-57566440D01*
X51639967Y-57414479D01*
X51548587Y-57277719D01*
X51432281Y-57161413D01*
X51295521Y-57070033D01*
X51143560Y-57007089D01*
X50982240Y-56975000D01*
X50817760Y-56975000D01*
X50656440Y-57007089D01*
X50504479Y-57070033D01*
X50367719Y-57161413D01*
X50251413Y-57277719D01*
X50160033Y-57414479D01*
X50097089Y-57566440D01*
X50065000Y-57727760D01*
X49135000Y-57727760D01*
X49135000Y-57717760D01*
X49102911Y-57556440D01*
X49039967Y-57404479D01*
X48948587Y-57267719D01*
X48832281Y-57151413D01*
X48695521Y-57060033D01*
X48543560Y-56997089D01*
X48382240Y-56965000D01*
X48217760Y-56965000D01*
X48056440Y-56997089D01*
X47904479Y-57060033D01*
X47767719Y-57151413D01*
X47651413Y-57267719D01*
X47560033Y-57404479D01*
X47497089Y-57556440D01*
X47465000Y-57717760D01*
X46535000Y-57717760D01*
X46502911Y-57556440D01*
X46439967Y-57404479D01*
X46348587Y-57267719D01*
X46232281Y-57151413D01*
X46095521Y-57060033D01*
X45943560Y-56997089D01*
X45782240Y-56965000D01*
X45617760Y-56965000D01*
X45456440Y-56997089D01*
X45304479Y-57060033D01*
X45167719Y-57151413D01*
X45051413Y-57267719D01*
X44960033Y-57404479D01*
X44897089Y-57556440D01*
X44865000Y-57717760D01*
X40685000Y-57717760D01*
X40685000Y-52517760D01*
X44865000Y-52517760D01*
X44865000Y-52682240D01*
X44897089Y-52843560D01*
X44960033Y-52995521D01*
X45051413Y-53132281D01*
X45167719Y-53248587D01*
X45304479Y-53339967D01*
X45456440Y-53402911D01*
X45617760Y-53435000D01*
X45782240Y-53435000D01*
X45943560Y-53402911D01*
X46095521Y-53339967D01*
X46232281Y-53248587D01*
X46348587Y-53132281D01*
X46439967Y-52995521D01*
X46502911Y-52843560D01*
X46535000Y-52682240D01*
X46535000Y-52517760D01*
X47465000Y-52517760D01*
X47465000Y-52682240D01*
X47497089Y-52843560D01*
X47560033Y-52995521D01*
X47651413Y-53132281D01*
X47767719Y-53248587D01*
X47904479Y-53339967D01*
X48056440Y-53402911D01*
X48217760Y-53435000D01*
X48382240Y-53435000D01*
X48543560Y-53402911D01*
X48695521Y-53339967D01*
X48832281Y-53248587D01*
X48948587Y-53132281D01*
X49039967Y-52995521D01*
X49102911Y-52843560D01*
X49135000Y-52682240D01*
X49135000Y-52527760D01*
X50065000Y-52527760D01*
X50065000Y-52692240D01*
X50097089Y-52853560D01*
X50160033Y-53005521D01*
X50251413Y-53142281D01*
X50367719Y-53258587D01*
X50504479Y-53349967D01*
X50656440Y-53412911D01*
X50817760Y-53445000D01*
X50982240Y-53445000D01*
X51143560Y-53412911D01*
X51295521Y-53349967D01*
X51432281Y-53258587D01*
X51548587Y-53142281D01*
X51639967Y-53005521D01*
X51702911Y-52853560D01*
X51735000Y-52692240D01*
X51735000Y-52527760D01*
X52665000Y-52527760D01*
X52665000Y-52692240D01*
X52697089Y-52853560D01*
X52760033Y-53005521D01*
X52851413Y-53142281D01*
X52967719Y-53258587D01*
X53104479Y-53349967D01*
X53256440Y-53412911D01*
X53417760Y-53445000D01*
X53582240Y-53445000D01*
X53743560Y-53412911D01*
X53895521Y-53349967D01*
X54032281Y-53258587D01*
X54148587Y-53142281D01*
X54239967Y-53005521D01*
X54302911Y-52853560D01*
X54335000Y-52692240D01*
X54335000Y-52527760D01*
X55265000Y-52527760D01*
X55265000Y-52692240D01*
X55297089Y-52853560D01*
X55360033Y-53005521D01*
X55451413Y-53142281D01*
X55567719Y-53258587D01*
X55704479Y-53349967D01*
X55856440Y-53412911D01*
X56017760Y-53445000D01*
X56182240Y-53445000D01*
X56343560Y-53412911D01*
X56495521Y-53349967D01*
X56632281Y-53258587D01*
X56748587Y-53142281D01*
X56839967Y-53005521D01*
X56902911Y-52853560D01*
X56935000Y-52692240D01*
X56935000Y-52527760D01*
X57865000Y-52527760D01*
X57865000Y-52692240D01*
X57897089Y-52853560D01*
X57960033Y-53005521D01*
X58051413Y-53142281D01*
X58167719Y-53258587D01*
X58304479Y-53349967D01*
X58456440Y-53412911D01*
X58617760Y-53445000D01*
X58782240Y-53445000D01*
X58943560Y-53412911D01*
X59095521Y-53349967D01*
X59232281Y-53258587D01*
X59348587Y-53142281D01*
X59439967Y-53005521D01*
X59502911Y-52853560D01*
X59535000Y-52692240D01*
X59535000Y-52527760D01*
X60465000Y-52527760D01*
X60465000Y-52692240D01*
X60497089Y-52853560D01*
X60560033Y-53005521D01*
X60651413Y-53142281D01*
X60767719Y-53258587D01*
X60904479Y-53349967D01*
X61056440Y-53412911D01*
X61217760Y-53445000D01*
X61382240Y-53445000D01*
X61543560Y-53412911D01*
X61695521Y-53349967D01*
X61832281Y-53258587D01*
X61948587Y-53142281D01*
X62039967Y-53005521D01*
X62102911Y-52853560D01*
X62135000Y-52692240D01*
X62135000Y-52527760D01*
X63065000Y-52527760D01*
X63065000Y-52692240D01*
X63097089Y-52853560D01*
X63160033Y-53005521D01*
X63251413Y-53142281D01*
X63367719Y-53258587D01*
X63504479Y-53349967D01*
X63656440Y-53412911D01*
X63817760Y-53445000D01*
X63982240Y-53445000D01*
X64143560Y-53412911D01*
X64295521Y-53349967D01*
X64432281Y-53258587D01*
X64548587Y-53142281D01*
X64639967Y-53005521D01*
X64702911Y-52853560D01*
X64735000Y-52692240D01*
X64735000Y-52527760D01*
X65665000Y-52527760D01*
X65665000Y-52692240D01*
X65697089Y-52853560D01*
X65760033Y-53005521D01*
X65851413Y-53142281D01*
X65967719Y-53258587D01*
X66104479Y-53349967D01*
X66256440Y-53412911D01*
X66417760Y-53445000D01*
X66582240Y-53445000D01*
X66743560Y-53412911D01*
X66895521Y-53349967D01*
X67032281Y-53258587D01*
X67148587Y-53142281D01*
X67239967Y-53005521D01*
X67302911Y-52853560D01*
X67335000Y-52692240D01*
X67335000Y-52527760D01*
X68265000Y-52527760D01*
X68265000Y-52692240D01*
X68297089Y-52853560D01*
X68360033Y-53005521D01*
X68451413Y-53142281D01*
X68567719Y-53258587D01*
X68704479Y-53349967D01*
X68856440Y-53412911D01*
X69017760Y-53445000D01*
X69182240Y-53445000D01*
X69343560Y-53412911D01*
X69495521Y-53349967D01*
X69632281Y-53258587D01*
X69748587Y-53142281D01*
X69839967Y-53005521D01*
X69902911Y-52853560D01*
X69935000Y-52692240D01*
X69935000Y-52527760D01*
X69933011Y-52517760D01*
X70865000Y-52517760D01*
X70865000Y-52682240D01*
X70897089Y-52843560D01*
X70960033Y-52995521D01*
X71051413Y-53132281D01*
X71167719Y-53248587D01*
X71304479Y-53339967D01*
X71456440Y-53402911D01*
X71617760Y-53435000D01*
X71782240Y-53435000D01*
X71943560Y-53402911D01*
X72095521Y-53339967D01*
X72232281Y-53248587D01*
X72348587Y-53132281D01*
X72439967Y-52995521D01*
X72502911Y-52843560D01*
X72535000Y-52682240D01*
X72535000Y-52517760D01*
X73465000Y-52517760D01*
X73465000Y-52682240D01*
X73497089Y-52843560D01*
X73560033Y-52995521D01*
X73651413Y-53132281D01*
X73767719Y-53248587D01*
X73904479Y-53339967D01*
X74056440Y-53402911D01*
X74217760Y-53435000D01*
X74382240Y-53435000D01*
X74543560Y-53402911D01*
X74695521Y-53339967D01*
X74832281Y-53248587D01*
X74948587Y-53132281D01*
X75039967Y-52995521D01*
X75102911Y-52843560D01*
X75135000Y-52682240D01*
X75135000Y-52517760D01*
X75102911Y-52356440D01*
X75039967Y-52204479D01*
X74948587Y-52067719D01*
X74832281Y-51951413D01*
X74695521Y-51860033D01*
X74543560Y-51797089D01*
X74382240Y-51765000D01*
X74217760Y-51765000D01*
X74056440Y-51797089D01*
X73904479Y-51860033D01*
X73767719Y-51951413D01*
X73651413Y-52067719D01*
X73560033Y-52204479D01*
X73497089Y-52356440D01*
X73465000Y-52517760D01*
X72535000Y-52517760D01*
X72502911Y-52356440D01*
X72439967Y-52204479D01*
X72348587Y-52067719D01*
X72232281Y-51951413D01*
X72095521Y-51860033D01*
X71943560Y-51797089D01*
X71782240Y-51765000D01*
X71617760Y-51765000D01*
X71456440Y-51797089D01*
X71304479Y-51860033D01*
X71167719Y-51951413D01*
X71051413Y-52067719D01*
X70960033Y-52204479D01*
X70897089Y-52356440D01*
X70865000Y-52517760D01*
X69933011Y-52517760D01*
X69902911Y-52366440D01*
X69839967Y-52214479D01*
X69748587Y-52077719D01*
X69632281Y-51961413D01*
X69495521Y-51870033D01*
X69343560Y-51807089D01*
X69182240Y-51775000D01*
X69017760Y-51775000D01*
X68856440Y-51807089D01*
X68704479Y-51870033D01*
X68567719Y-51961413D01*
X68451413Y-52077719D01*
X68360033Y-52214479D01*
X68297089Y-52366440D01*
X68265000Y-52527760D01*
X67335000Y-52527760D01*
X67302911Y-52366440D01*
X67239967Y-52214479D01*
X67148587Y-52077719D01*
X67032281Y-51961413D01*
X66895521Y-51870033D01*
X66743560Y-51807089D01*
X66582240Y-51775000D01*
X66417760Y-51775000D01*
X66256440Y-51807089D01*
X66104479Y-51870033D01*
X65967719Y-51961413D01*
X65851413Y-52077719D01*
X65760033Y-52214479D01*
X65697089Y-52366440D01*
X65665000Y-52527760D01*
X64735000Y-52527760D01*
X64702911Y-52366440D01*
X64639967Y-52214479D01*
X64548587Y-52077719D01*
X64432281Y-51961413D01*
X64295521Y-51870033D01*
X64143560Y-51807089D01*
X63982240Y-51775000D01*
X63817760Y-51775000D01*
X63656440Y-51807089D01*
X63504479Y-51870033D01*
X63367719Y-51961413D01*
X63251413Y-52077719D01*
X63160033Y-52214479D01*
X63097089Y-52366440D01*
X63065000Y-52527760D01*
X62135000Y-52527760D01*
X62102911Y-52366440D01*
X62039967Y-52214479D01*
X61948587Y-52077719D01*
X61832281Y-51961413D01*
X61695521Y-51870033D01*
X61543560Y-51807089D01*
X61382240Y-51775000D01*
X61217760Y-51775000D01*
X61056440Y-51807089D01*
X60904479Y-51870033D01*
X60767719Y-51961413D01*
X60651413Y-52077719D01*
X60560033Y-52214479D01*
X60497089Y-52366440D01*
X60465000Y-52527760D01*
X59535000Y-52527760D01*
X59502911Y-52366440D01*
X59439967Y-52214479D01*
X59348587Y-52077719D01*
X59232281Y-51961413D01*
X59095521Y-51870033D01*
X58943560Y-51807089D01*
X58782240Y-51775000D01*
X58617760Y-51775000D01*
X58456440Y-51807089D01*
X58304479Y-51870033D01*
X58167719Y-51961413D01*
X58051413Y-52077719D01*
X57960033Y-52214479D01*
X57897089Y-52366440D01*
X57865000Y-52527760D01*
X56935000Y-52527760D01*
X56902911Y-52366440D01*
X56839967Y-52214479D01*
X56748587Y-52077719D01*
X56632281Y-51961413D01*
X56495521Y-51870033D01*
X56343560Y-51807089D01*
X56182240Y-51775000D01*
X56017760Y-51775000D01*
X55856440Y-51807089D01*
X55704479Y-51870033D01*
X55567719Y-51961413D01*
X55451413Y-52077719D01*
X55360033Y-52214479D01*
X55297089Y-52366440D01*
X55265000Y-52527760D01*
X54335000Y-52527760D01*
X54302911Y-52366440D01*
X54239967Y-52214479D01*
X54148587Y-52077719D01*
X54032281Y-51961413D01*
X53895521Y-51870033D01*
X53743560Y-51807089D01*
X53582240Y-51775000D01*
X53417760Y-51775000D01*
X53256440Y-51807089D01*
X53104479Y-51870033D01*
X52967719Y-51961413D01*
X52851413Y-52077719D01*
X52760033Y-52214479D01*
X52697089Y-52366440D01*
X52665000Y-52527760D01*
X51735000Y-52527760D01*
X51702911Y-52366440D01*
X51639967Y-52214479D01*
X51548587Y-52077719D01*
X51432281Y-51961413D01*
X51295521Y-51870033D01*
X51143560Y-51807089D01*
X50982240Y-51775000D01*
X50817760Y-51775000D01*
X50656440Y-51807089D01*
X50504479Y-51870033D01*
X50367719Y-51961413D01*
X50251413Y-52077719D01*
X50160033Y-52214479D01*
X50097089Y-52366440D01*
X50065000Y-52527760D01*
X49135000Y-52527760D01*
X49135000Y-52517760D01*
X49102911Y-52356440D01*
X49039967Y-52204479D01*
X48948587Y-52067719D01*
X48832281Y-51951413D01*
X48695521Y-51860033D01*
X48543560Y-51797089D01*
X48382240Y-51765000D01*
X48217760Y-51765000D01*
X48056440Y-51797089D01*
X47904479Y-51860033D01*
X47767719Y-51951413D01*
X47651413Y-52067719D01*
X47560033Y-52204479D01*
X47497089Y-52356440D01*
X47465000Y-52517760D01*
X46535000Y-52517760D01*
X46502911Y-52356440D01*
X46439967Y-52204479D01*
X46348587Y-52067719D01*
X46232281Y-51951413D01*
X46095521Y-51860033D01*
X45943560Y-51797089D01*
X45782240Y-51765000D01*
X45617760Y-51765000D01*
X45456440Y-51797089D01*
X45304479Y-51860033D01*
X45167719Y-51951413D01*
X45051413Y-52067719D01*
X44960033Y-52204479D01*
X44897089Y-52356440D01*
X44865000Y-52517760D01*
X40685000Y-52517760D01*
X40685000Y-47317760D01*
X44865000Y-47317760D01*
X44865000Y-47482240D01*
X44897089Y-47643560D01*
X44960033Y-47795521D01*
X45051413Y-47932281D01*
X45167719Y-48048587D01*
X45304479Y-48139967D01*
X45456440Y-48202911D01*
X45617760Y-48235000D01*
X45782240Y-48235000D01*
X45943560Y-48202911D01*
X46095521Y-48139967D01*
X46232281Y-48048587D01*
X46348587Y-47932281D01*
X46439967Y-47795521D01*
X46502911Y-47643560D01*
X46535000Y-47482240D01*
X46535000Y-47317760D01*
X47465000Y-47317760D01*
X47465000Y-47482240D01*
X47497089Y-47643560D01*
X47560033Y-47795521D01*
X47651413Y-47932281D01*
X47767719Y-48048587D01*
X47904479Y-48139967D01*
X48056440Y-48202911D01*
X48217760Y-48235000D01*
X48382240Y-48235000D01*
X48543560Y-48202911D01*
X48695521Y-48139967D01*
X48832281Y-48048587D01*
X48948587Y-47932281D01*
X49039967Y-47795521D01*
X49102911Y-47643560D01*
X49135000Y-47482240D01*
X49135000Y-47327760D01*
X50065000Y-47327760D01*
X50065000Y-47492240D01*
X50097089Y-47653560D01*
X50160033Y-47805521D01*
X50251413Y-47942281D01*
X50367719Y-48058587D01*
X50504479Y-48149967D01*
X50656440Y-48212911D01*
X50817760Y-48245000D01*
X50982240Y-48245000D01*
X51143560Y-48212911D01*
X51295521Y-48149967D01*
X51432281Y-48058587D01*
X51548587Y-47942281D01*
X51639967Y-47805521D01*
X51702911Y-47653560D01*
X51735000Y-47492240D01*
X51735000Y-47327760D01*
X52665000Y-47327760D01*
X52665000Y-47492240D01*
X52697089Y-47653560D01*
X52760033Y-47805521D01*
X52851413Y-47942281D01*
X52967719Y-48058587D01*
X53104479Y-48149967D01*
X53256440Y-48212911D01*
X53417760Y-48245000D01*
X53582240Y-48245000D01*
X53743560Y-48212911D01*
X53895521Y-48149967D01*
X54032281Y-48058587D01*
X54148587Y-47942281D01*
X54239967Y-47805521D01*
X54302911Y-47653560D01*
X54335000Y-47492240D01*
X54335000Y-47327760D01*
X55265000Y-47327760D01*
X55265000Y-47492240D01*
X55297089Y-47653560D01*
X55360033Y-47805521D01*
X55451413Y-47942281D01*
X55567719Y-48058587D01*
X55704479Y-48149967D01*
X55856440Y-48212911D01*
X56017760Y-48245000D01*
X56182240Y-48245000D01*
X56343560Y-48212911D01*
X56495521Y-48149967D01*
X56632281Y-48058587D01*
X56748587Y-47942281D01*
X56839967Y-47805521D01*
X56902911Y-47653560D01*
X56935000Y-47492240D01*
X56935000Y-47327760D01*
X57865000Y-47327760D01*
X57865000Y-47492240D01*
X57897089Y-47653560D01*
X57960033Y-47805521D01*
X58051413Y-47942281D01*
X58167719Y-48058587D01*
X58304479Y-48149967D01*
X58456440Y-48212911D01*
X58617760Y-48245000D01*
X58782240Y-48245000D01*
X58943560Y-48212911D01*
X59095521Y-48149967D01*
X59232281Y-48058587D01*
X59348587Y-47942281D01*
X59439967Y-47805521D01*
X59502911Y-47653560D01*
X59535000Y-47492240D01*
X59535000Y-47327760D01*
X60465000Y-47327760D01*
X60465000Y-47492240D01*
X60497089Y-47653560D01*
X60560033Y-47805521D01*
X60651413Y-47942281D01*
X60767719Y-48058587D01*
X60904479Y-48149967D01*
X61056440Y-48212911D01*
X61217760Y-48245000D01*
X61382240Y-48245000D01*
X61543560Y-48212911D01*
X61695521Y-48149967D01*
X61832281Y-48058587D01*
X61948587Y-47942281D01*
X62039967Y-47805521D01*
X62102911Y-47653560D01*
X62135000Y-47492240D01*
X62135000Y-47327760D01*
X63065000Y-47327760D01*
X63065000Y-47492240D01*
X63097089Y-47653560D01*
X63160033Y-47805521D01*
X63251413Y-47942281D01*
X63367719Y-48058587D01*
X63504479Y-48149967D01*
X63656440Y-48212911D01*
X63817760Y-48245000D01*
X63982240Y-48245000D01*
X64143560Y-48212911D01*
X64295521Y-48149967D01*
X64432281Y-48058587D01*
X64548587Y-47942281D01*
X64639967Y-47805521D01*
X64702911Y-47653560D01*
X64735000Y-47492240D01*
X64735000Y-47327760D01*
X65665000Y-47327760D01*
X65665000Y-47492240D01*
X65697089Y-47653560D01*
X65760033Y-47805521D01*
X65851413Y-47942281D01*
X65967719Y-48058587D01*
X66104479Y-48149967D01*
X66256440Y-48212911D01*
X66417760Y-48245000D01*
X66582240Y-48245000D01*
X66743560Y-48212911D01*
X66895521Y-48149967D01*
X67032281Y-48058587D01*
X67148587Y-47942281D01*
X67239967Y-47805521D01*
X67302911Y-47653560D01*
X67335000Y-47492240D01*
X67335000Y-47327760D01*
X68265000Y-47327760D01*
X68265000Y-47492240D01*
X68297089Y-47653560D01*
X68360033Y-47805521D01*
X68451413Y-47942281D01*
X68567719Y-48058587D01*
X68704479Y-48149967D01*
X68856440Y-48212911D01*
X69017760Y-48245000D01*
X69182240Y-48245000D01*
X69343560Y-48212911D01*
X69495521Y-48149967D01*
X69632281Y-48058587D01*
X69748587Y-47942281D01*
X69839967Y-47805521D01*
X69902911Y-47653560D01*
X69935000Y-47492240D01*
X69935000Y-47327760D01*
X69933011Y-47317760D01*
X70865000Y-47317760D01*
X70865000Y-47482240D01*
X70897089Y-47643560D01*
X70960033Y-47795521D01*
X71051413Y-47932281D01*
X71167719Y-48048587D01*
X71304479Y-48139967D01*
X71456440Y-48202911D01*
X71617760Y-48235000D01*
X71782240Y-48235000D01*
X71943560Y-48202911D01*
X72095521Y-48139967D01*
X72232281Y-48048587D01*
X72348587Y-47932281D01*
X72439967Y-47795521D01*
X72502911Y-47643560D01*
X72535000Y-47482240D01*
X72535000Y-47317760D01*
X73465000Y-47317760D01*
X73465000Y-47482240D01*
X73497089Y-47643560D01*
X73560033Y-47795521D01*
X73651413Y-47932281D01*
X73767719Y-48048587D01*
X73904479Y-48139967D01*
X74056440Y-48202911D01*
X74217760Y-48235000D01*
X74382240Y-48235000D01*
X74543560Y-48202911D01*
X74695521Y-48139967D01*
X74832281Y-48048587D01*
X74948587Y-47932281D01*
X75039967Y-47795521D01*
X75102911Y-47643560D01*
X75135000Y-47482240D01*
X75135000Y-47317760D01*
X75102911Y-47156440D01*
X75039967Y-47004479D01*
X74948587Y-46867719D01*
X74832281Y-46751413D01*
X74695521Y-46660033D01*
X74543560Y-46597089D01*
X74382240Y-46565000D01*
X74217760Y-46565000D01*
X74056440Y-46597089D01*
X73904479Y-46660033D01*
X73767719Y-46751413D01*
X73651413Y-46867719D01*
X73560033Y-47004479D01*
X73497089Y-47156440D01*
X73465000Y-47317760D01*
X72535000Y-47317760D01*
X72502911Y-47156440D01*
X72439967Y-47004479D01*
X72348587Y-46867719D01*
X72232281Y-46751413D01*
X72095521Y-46660033D01*
X71943560Y-46597089D01*
X71782240Y-46565000D01*
X71617760Y-46565000D01*
X71456440Y-46597089D01*
X71304479Y-46660033D01*
X71167719Y-46751413D01*
X71051413Y-46867719D01*
X70960033Y-47004479D01*
X70897089Y-47156440D01*
X70865000Y-47317760D01*
X69933011Y-47317760D01*
X69902911Y-47166440D01*
X69839967Y-47014479D01*
X69748587Y-46877719D01*
X69632281Y-46761413D01*
X69495521Y-46670033D01*
X69343560Y-46607089D01*
X69182240Y-46575000D01*
X69017760Y-46575000D01*
X68856440Y-46607089D01*
X68704479Y-46670033D01*
X68567719Y-46761413D01*
X68451413Y-46877719D01*
X68360033Y-47014479D01*
X68297089Y-47166440D01*
X68265000Y-47327760D01*
X67335000Y-47327760D01*
X67302911Y-47166440D01*
X67239967Y-47014479D01*
X67148587Y-46877719D01*
X67032281Y-46761413D01*
X66895521Y-46670033D01*
X66743560Y-46607089D01*
X66582240Y-46575000D01*
X66417760Y-46575000D01*
X66256440Y-46607089D01*
X66104479Y-46670033D01*
X65967719Y-46761413D01*
X65851413Y-46877719D01*
X65760033Y-47014479D01*
X65697089Y-47166440D01*
X65665000Y-47327760D01*
X64735000Y-47327760D01*
X64702911Y-47166440D01*
X64639967Y-47014479D01*
X64548587Y-46877719D01*
X64432281Y-46761413D01*
X64295521Y-46670033D01*
X64143560Y-46607089D01*
X63982240Y-46575000D01*
X63817760Y-46575000D01*
X63656440Y-46607089D01*
X63504479Y-46670033D01*
X63367719Y-46761413D01*
X63251413Y-46877719D01*
X63160033Y-47014479D01*
X63097089Y-47166440D01*
X63065000Y-47327760D01*
X62135000Y-47327760D01*
X62102911Y-47166440D01*
X62039967Y-47014479D01*
X61948587Y-46877719D01*
X61832281Y-46761413D01*
X61695521Y-46670033D01*
X61543560Y-46607089D01*
X61382240Y-46575000D01*
X61217760Y-46575000D01*
X61056440Y-46607089D01*
X60904479Y-46670033D01*
X60767719Y-46761413D01*
X60651413Y-46877719D01*
X60560033Y-47014479D01*
X60497089Y-47166440D01*
X60465000Y-47327760D01*
X59535000Y-47327760D01*
X59502911Y-47166440D01*
X59439967Y-47014479D01*
X59348587Y-46877719D01*
X59232281Y-46761413D01*
X59095521Y-46670033D01*
X58943560Y-46607089D01*
X58782240Y-46575000D01*
X58617760Y-46575000D01*
X58456440Y-46607089D01*
X58304479Y-46670033D01*
X58167719Y-46761413D01*
X58051413Y-46877719D01*
X57960033Y-47014479D01*
X57897089Y-47166440D01*
X57865000Y-47327760D01*
X56935000Y-47327760D01*
X56902911Y-47166440D01*
X56839967Y-47014479D01*
X56748587Y-46877719D01*
X56632281Y-46761413D01*
X56495521Y-46670033D01*
X56343560Y-46607089D01*
X56182240Y-46575000D01*
X56017760Y-46575000D01*
X55856440Y-46607089D01*
X55704479Y-46670033D01*
X55567719Y-46761413D01*
X55451413Y-46877719D01*
X55360033Y-47014479D01*
X55297089Y-47166440D01*
X55265000Y-47327760D01*
X54335000Y-47327760D01*
X54302911Y-47166440D01*
X54239967Y-47014479D01*
X54148587Y-46877719D01*
X54032281Y-46761413D01*
X53895521Y-46670033D01*
X53743560Y-46607089D01*
X53582240Y-46575000D01*
X53417760Y-46575000D01*
X53256440Y-46607089D01*
X53104479Y-46670033D01*
X52967719Y-46761413D01*
X52851413Y-46877719D01*
X52760033Y-47014479D01*
X52697089Y-47166440D01*
X52665000Y-47327760D01*
X51735000Y-47327760D01*
X51702911Y-47166440D01*
X51639967Y-47014479D01*
X51548587Y-46877719D01*
X51432281Y-46761413D01*
X51295521Y-46670033D01*
X51143560Y-46607089D01*
X50982240Y-46575000D01*
X50817760Y-46575000D01*
X50656440Y-46607089D01*
X50504479Y-46670033D01*
X50367719Y-46761413D01*
X50251413Y-46877719D01*
X50160033Y-47014479D01*
X50097089Y-47166440D01*
X50065000Y-47327760D01*
X49135000Y-47327760D01*
X49135000Y-47317760D01*
X49102911Y-47156440D01*
X49039967Y-47004479D01*
X48948587Y-46867719D01*
X48832281Y-46751413D01*
X48695521Y-46660033D01*
X48543560Y-46597089D01*
X48382240Y-46565000D01*
X48217760Y-46565000D01*
X48056440Y-46597089D01*
X47904479Y-46660033D01*
X47767719Y-46751413D01*
X47651413Y-46867719D01*
X47560033Y-47004479D01*
X47497089Y-47156440D01*
X47465000Y-47317760D01*
X46535000Y-47317760D01*
X46502911Y-47156440D01*
X46439967Y-47004479D01*
X46348587Y-46867719D01*
X46232281Y-46751413D01*
X46095521Y-46660033D01*
X45943560Y-46597089D01*
X45782240Y-46565000D01*
X45617760Y-46565000D01*
X45456440Y-46597089D01*
X45304479Y-46660033D01*
X45167719Y-46751413D01*
X45051413Y-46867719D01*
X44960033Y-47004479D01*
X44897089Y-47156440D01*
X44865000Y-47317760D01*
X40685000Y-47317760D01*
X40685000Y-42117760D01*
X44865000Y-42117760D01*
X44865000Y-42282240D01*
X44897089Y-42443560D01*
X44960033Y-42595521D01*
X45051413Y-42732281D01*
X45167719Y-42848587D01*
X45304479Y-42939967D01*
X45456440Y-43002911D01*
X45617760Y-43035000D01*
X45782240Y-43035000D01*
X45943560Y-43002911D01*
X46095521Y-42939967D01*
X46232281Y-42848587D01*
X46348587Y-42732281D01*
X46439967Y-42595521D01*
X46502911Y-42443560D01*
X46535000Y-42282240D01*
X46535000Y-42117760D01*
X47465000Y-42117760D01*
X47465000Y-42282240D01*
X47497089Y-42443560D01*
X47560033Y-42595521D01*
X47651413Y-42732281D01*
X47767719Y-42848587D01*
X47904479Y-42939967D01*
X48056440Y-43002911D01*
X48217760Y-43035000D01*
X48382240Y-43035000D01*
X48543560Y-43002911D01*
X48695521Y-42939967D01*
X48832281Y-42848587D01*
X48948587Y-42732281D01*
X49039967Y-42595521D01*
X49102911Y-42443560D01*
X49135000Y-42282240D01*
X49135000Y-42127760D01*
X50065000Y-42127760D01*
X50065000Y-42292240D01*
X50097089Y-42453560D01*
X50160033Y-42605521D01*
X50251413Y-42742281D01*
X50367719Y-42858587D01*
X50504479Y-42949967D01*
X50656440Y-43012911D01*
X50817760Y-43045000D01*
X50982240Y-43045000D01*
X51143560Y-43012911D01*
X51295521Y-42949967D01*
X51432281Y-42858587D01*
X51548587Y-42742281D01*
X51639967Y-42605521D01*
X51702911Y-42453560D01*
X51735000Y-42292240D01*
X51735000Y-42127760D01*
X52665000Y-42127760D01*
X52665000Y-42292240D01*
X52697089Y-42453560D01*
X52760033Y-42605521D01*
X52851413Y-42742281D01*
X52967719Y-42858587D01*
X53104479Y-42949967D01*
X53256440Y-43012911D01*
X53417760Y-43045000D01*
X53582240Y-43045000D01*
X53743560Y-43012911D01*
X53895521Y-42949967D01*
X54032281Y-42858587D01*
X54148587Y-42742281D01*
X54239967Y-42605521D01*
X54302911Y-42453560D01*
X54335000Y-42292240D01*
X54335000Y-42127760D01*
X55265000Y-42127760D01*
X55265000Y-42292240D01*
X55297089Y-42453560D01*
X55360033Y-42605521D01*
X55451413Y-42742281D01*
X55567719Y-42858587D01*
X55704479Y-42949967D01*
X55856440Y-43012911D01*
X56017760Y-43045000D01*
X56182240Y-43045000D01*
X56343560Y-43012911D01*
X56495521Y-42949967D01*
X56632281Y-42858587D01*
X56748587Y-42742281D01*
X56839967Y-42605521D01*
X56902911Y-42453560D01*
X56935000Y-42292240D01*
X56935000Y-42127760D01*
X57865000Y-42127760D01*
X57865000Y-42292240D01*
X57897089Y-42453560D01*
X57960033Y-42605521D01*
X58051413Y-42742281D01*
X58167719Y-42858587D01*
X58304479Y-42949967D01*
X58456440Y-43012911D01*
X58617760Y-43045000D01*
X58782240Y-43045000D01*
X58943560Y-43012911D01*
X59095521Y-42949967D01*
X59232281Y-42858587D01*
X59348587Y-42742281D01*
X59439967Y-42605521D01*
X59502911Y-42453560D01*
X59535000Y-42292240D01*
X59535000Y-42127760D01*
X60465000Y-42127760D01*
X60465000Y-42292240D01*
X60497089Y-42453560D01*
X60560033Y-42605521D01*
X60651413Y-42742281D01*
X60767719Y-42858587D01*
X60904479Y-42949967D01*
X61056440Y-43012911D01*
X61217760Y-43045000D01*
X61382240Y-43045000D01*
X61543560Y-43012911D01*
X61695521Y-42949967D01*
X61832281Y-42858587D01*
X61948587Y-42742281D01*
X62039967Y-42605521D01*
X62102911Y-42453560D01*
X62135000Y-42292240D01*
X62135000Y-42127760D01*
X63065000Y-42127760D01*
X63065000Y-42292240D01*
X63097089Y-42453560D01*
X63160033Y-42605521D01*
X63251413Y-42742281D01*
X63367719Y-42858587D01*
X63504479Y-42949967D01*
X63656440Y-43012911D01*
X63817760Y-43045000D01*
X63982240Y-43045000D01*
X64143560Y-43012911D01*
X64295521Y-42949967D01*
X64432281Y-42858587D01*
X64548587Y-42742281D01*
X64639967Y-42605521D01*
X64702911Y-42453560D01*
X64735000Y-42292240D01*
X64735000Y-42127760D01*
X65665000Y-42127760D01*
X65665000Y-42292240D01*
X65697089Y-42453560D01*
X65760033Y-42605521D01*
X65851413Y-42742281D01*
X65967719Y-42858587D01*
X66104479Y-42949967D01*
X66256440Y-43012911D01*
X66417760Y-43045000D01*
X66582240Y-43045000D01*
X66743560Y-43012911D01*
X66895521Y-42949967D01*
X67032281Y-42858587D01*
X67148587Y-42742281D01*
X67239967Y-42605521D01*
X67302911Y-42453560D01*
X67335000Y-42292240D01*
X67335000Y-42127760D01*
X68265000Y-42127760D01*
X68265000Y-42292240D01*
X68297089Y-42453560D01*
X68360033Y-42605521D01*
X68451413Y-42742281D01*
X68567719Y-42858587D01*
X68704479Y-42949967D01*
X68856440Y-43012911D01*
X69017760Y-43045000D01*
X69182240Y-43045000D01*
X69343560Y-43012911D01*
X69495521Y-42949967D01*
X69632281Y-42858587D01*
X69748587Y-42742281D01*
X69839967Y-42605521D01*
X69902911Y-42453560D01*
X69935000Y-42292240D01*
X69935000Y-42127760D01*
X69933011Y-42117760D01*
X70865000Y-42117760D01*
X70865000Y-42282240D01*
X70897089Y-42443560D01*
X70960033Y-42595521D01*
X71051413Y-42732281D01*
X71167719Y-42848587D01*
X71304479Y-42939967D01*
X71456440Y-43002911D01*
X71617760Y-43035000D01*
X71782240Y-43035000D01*
X71943560Y-43002911D01*
X72095521Y-42939967D01*
X72232281Y-42848587D01*
X72348587Y-42732281D01*
X72439967Y-42595521D01*
X72502911Y-42443560D01*
X72535000Y-42282240D01*
X72535000Y-42117760D01*
X73465000Y-42117760D01*
X73465000Y-42282240D01*
X73497089Y-42443560D01*
X73560033Y-42595521D01*
X73651413Y-42732281D01*
X73767719Y-42848587D01*
X73904479Y-42939967D01*
X74056440Y-43002911D01*
X74217760Y-43035000D01*
X74382240Y-43035000D01*
X74543560Y-43002911D01*
X74695521Y-42939967D01*
X74832281Y-42848587D01*
X74948587Y-42732281D01*
X75039967Y-42595521D01*
X75102911Y-42443560D01*
X75135000Y-42282240D01*
X75135000Y-42117760D01*
X75102911Y-41956440D01*
X75039967Y-41804479D01*
X74948587Y-41667719D01*
X74832281Y-41551413D01*
X74695521Y-41460033D01*
X74543560Y-41397089D01*
X74382240Y-41365000D01*
X74217760Y-41365000D01*
X74056440Y-41397089D01*
X73904479Y-41460033D01*
X73767719Y-41551413D01*
X73651413Y-41667719D01*
X73560033Y-41804479D01*
X73497089Y-41956440D01*
X73465000Y-42117760D01*
X72535000Y-42117760D01*
X72502911Y-41956440D01*
X72439967Y-41804479D01*
X72348587Y-41667719D01*
X72232281Y-41551413D01*
X72095521Y-41460033D01*
X71943560Y-41397089D01*
X71782240Y-41365000D01*
X71617760Y-41365000D01*
X71456440Y-41397089D01*
X71304479Y-41460033D01*
X71167719Y-41551413D01*
X71051413Y-41667719D01*
X70960033Y-41804479D01*
X70897089Y-41956440D01*
X70865000Y-42117760D01*
X69933011Y-42117760D01*
X69902911Y-41966440D01*
X69839967Y-41814479D01*
X69748587Y-41677719D01*
X69632281Y-41561413D01*
X69495521Y-41470033D01*
X69343560Y-41407089D01*
X69182240Y-41375000D01*
X69017760Y-41375000D01*
X68856440Y-41407089D01*
X68704479Y-41470033D01*
X68567719Y-41561413D01*
X68451413Y-41677719D01*
X68360033Y-41814479D01*
X68297089Y-41966440D01*
X68265000Y-42127760D01*
X67335000Y-42127760D01*
X67302911Y-41966440D01*
X67239967Y-41814479D01*
X67148587Y-41677719D01*
X67032281Y-41561413D01*
X66895521Y-41470033D01*
X66743560Y-41407089D01*
X66582240Y-41375000D01*
X66417760Y-41375000D01*
X66256440Y-41407089D01*
X66104479Y-41470033D01*
X65967719Y-41561413D01*
X65851413Y-41677719D01*
X65760033Y-41814479D01*
X65697089Y-41966440D01*
X65665000Y-42127760D01*
X64735000Y-42127760D01*
X64702911Y-41966440D01*
X64639967Y-41814479D01*
X64548587Y-41677719D01*
X64432281Y-41561413D01*
X64295521Y-41470033D01*
X64143560Y-41407089D01*
X63982240Y-41375000D01*
X63817760Y-41375000D01*
X63656440Y-41407089D01*
X63504479Y-41470033D01*
X63367719Y-41561413D01*
X63251413Y-41677719D01*
X63160033Y-41814479D01*
X63097089Y-41966440D01*
X63065000Y-42127760D01*
X62135000Y-42127760D01*
X62102911Y-41966440D01*
X62039967Y-41814479D01*
X61948587Y-41677719D01*
X61832281Y-41561413D01*
X61695521Y-41470033D01*
X61543560Y-41407089D01*
X61382240Y-41375000D01*
X61217760Y-41375000D01*
X61056440Y-41407089D01*
X60904479Y-41470033D01*
X60767719Y-41561413D01*
X60651413Y-41677719D01*
X60560033Y-41814479D01*
X60497089Y-41966440D01*
X60465000Y-42127760D01*
X59535000Y-42127760D01*
X59502911Y-41966440D01*
X59439967Y-41814479D01*
X59348587Y-41677719D01*
X59232281Y-41561413D01*
X59095521Y-41470033D01*
X58943560Y-41407089D01*
X58782240Y-41375000D01*
X58617760Y-41375000D01*
X58456440Y-41407089D01*
X58304479Y-41470033D01*
X58167719Y-41561413D01*
X58051413Y-41677719D01*
X57960033Y-41814479D01*
X57897089Y-41966440D01*
X57865000Y-42127760D01*
X56935000Y-42127760D01*
X56902911Y-41966440D01*
X56839967Y-41814479D01*
X56748587Y-41677719D01*
X56632281Y-41561413D01*
X56495521Y-41470033D01*
X56343560Y-41407089D01*
X56182240Y-41375000D01*
X56017760Y-41375000D01*
X55856440Y-41407089D01*
X55704479Y-41470033D01*
X55567719Y-41561413D01*
X55451413Y-41677719D01*
X55360033Y-41814479D01*
X55297089Y-41966440D01*
X55265000Y-42127760D01*
X54335000Y-42127760D01*
X54302911Y-41966440D01*
X54239967Y-41814479D01*
X54148587Y-41677719D01*
X54032281Y-41561413D01*
X53895521Y-41470033D01*
X53743560Y-41407089D01*
X53582240Y-41375000D01*
X53417760Y-41375000D01*
X53256440Y-41407089D01*
X53104479Y-41470033D01*
X52967719Y-41561413D01*
X52851413Y-41677719D01*
X52760033Y-41814479D01*
X52697089Y-41966440D01*
X52665000Y-42127760D01*
X51735000Y-42127760D01*
X51702911Y-41966440D01*
X51639967Y-41814479D01*
X51548587Y-41677719D01*
X51432281Y-41561413D01*
X51295521Y-41470033D01*
X51143560Y-41407089D01*
X50982240Y-41375000D01*
X50817760Y-41375000D01*
X50656440Y-41407089D01*
X50504479Y-41470033D01*
X50367719Y-41561413D01*
X50251413Y-41677719D01*
X50160033Y-41814479D01*
X50097089Y-41966440D01*
X50065000Y-42127760D01*
X49135000Y-42127760D01*
X49135000Y-42117760D01*
X49102911Y-41956440D01*
X49039967Y-41804479D01*
X48948587Y-41667719D01*
X48832281Y-41551413D01*
X48695521Y-41460033D01*
X48543560Y-41397089D01*
X48382240Y-41365000D01*
X48217760Y-41365000D01*
X48056440Y-41397089D01*
X47904479Y-41460033D01*
X47767719Y-41551413D01*
X47651413Y-41667719D01*
X47560033Y-41804479D01*
X47497089Y-41956440D01*
X47465000Y-42117760D01*
X46535000Y-42117760D01*
X46502911Y-41956440D01*
X46439967Y-41804479D01*
X46348587Y-41667719D01*
X46232281Y-41551413D01*
X46095521Y-41460033D01*
X45943560Y-41397089D01*
X45782240Y-41365000D01*
X45617760Y-41365000D01*
X45456440Y-41397089D01*
X45304479Y-41460033D01*
X45167719Y-41551413D01*
X45051413Y-41667719D01*
X44960033Y-41804479D01*
X44897089Y-41956440D01*
X44865000Y-42117760D01*
X40685000Y-42117760D01*
X40685000Y-34631946D01*
X41263081Y-34631946D01*
X41263081Y-35368054D01*
X41406689Y-36090019D01*
X41688386Y-36770095D01*
X42097346Y-37382147D01*
X42617853Y-37902654D01*
X43229905Y-38311614D01*
X43909981Y-38593311D01*
X44631946Y-38736919D01*
X45368054Y-38736919D01*
X46090019Y-38593311D01*
X46770095Y-38311614D01*
X47382147Y-37902654D01*
X47902654Y-37382147D01*
X48206265Y-36927760D01*
X50065000Y-36927760D01*
X50065000Y-37092240D01*
X50097089Y-37253560D01*
X50160033Y-37405521D01*
X50251413Y-37542281D01*
X50367719Y-37658587D01*
X50504479Y-37749967D01*
X50656440Y-37812911D01*
X50817760Y-37845000D01*
X50982240Y-37845000D01*
X51143560Y-37812911D01*
X51295521Y-37749967D01*
X51432281Y-37658587D01*
X51548587Y-37542281D01*
X51639967Y-37405521D01*
X51702911Y-37253560D01*
X51735000Y-37092240D01*
X51735000Y-36927760D01*
X52665000Y-36927760D01*
X52665000Y-37092240D01*
X52697089Y-37253560D01*
X52760033Y-37405521D01*
X52851413Y-37542281D01*
X52967719Y-37658587D01*
X53104479Y-37749967D01*
X53256440Y-37812911D01*
X53417760Y-37845000D01*
X53582240Y-37845000D01*
X53743560Y-37812911D01*
X53895521Y-37749967D01*
X54032281Y-37658587D01*
X54148587Y-37542281D01*
X54239967Y-37405521D01*
X54302911Y-37253560D01*
X54335000Y-37092240D01*
X54335000Y-36927760D01*
X55265000Y-36927760D01*
X55265000Y-37092240D01*
X55297089Y-37253560D01*
X55360033Y-37405521D01*
X55451413Y-37542281D01*
X55567719Y-37658587D01*
X55704479Y-37749967D01*
X55856440Y-37812911D01*
X56017760Y-37845000D01*
X56182240Y-37845000D01*
X56343560Y-37812911D01*
X56495521Y-37749967D01*
X56632281Y-37658587D01*
X56748587Y-37542281D01*
X56839967Y-37405521D01*
X56902911Y-37253560D01*
X56935000Y-37092240D01*
X56935000Y-36927760D01*
X57865000Y-36927760D01*
X57865000Y-37092240D01*
X57897089Y-37253560D01*
X57960033Y-37405521D01*
X58051413Y-37542281D01*
X58167719Y-37658587D01*
X58304479Y-37749967D01*
X58456440Y-37812911D01*
X58617760Y-37845000D01*
X58782240Y-37845000D01*
X58943560Y-37812911D01*
X59095521Y-37749967D01*
X59232281Y-37658587D01*
X59348587Y-37542281D01*
X59439967Y-37405521D01*
X59502911Y-37253560D01*
X59535000Y-37092240D01*
X59535000Y-36927760D01*
X60465000Y-36927760D01*
X60465000Y-37092240D01*
X60497089Y-37253560D01*
X60560033Y-37405521D01*
X60651413Y-37542281D01*
X60767719Y-37658587D01*
X60904479Y-37749967D01*
X61056440Y-37812911D01*
X61217760Y-37845000D01*
X61382240Y-37845000D01*
X61543560Y-37812911D01*
X61695521Y-37749967D01*
X61832281Y-37658587D01*
X61948587Y-37542281D01*
X62039967Y-37405521D01*
X62102911Y-37253560D01*
X62135000Y-37092240D01*
X62135000Y-36927760D01*
X63065000Y-36927760D01*
X63065000Y-37092240D01*
X63097089Y-37253560D01*
X63160033Y-37405521D01*
X63251413Y-37542281D01*
X63367719Y-37658587D01*
X63504479Y-37749967D01*
X63656440Y-37812911D01*
X63817760Y-37845000D01*
X63982240Y-37845000D01*
X64143560Y-37812911D01*
X64295521Y-37749967D01*
X64432281Y-37658587D01*
X64548587Y-37542281D01*
X64639967Y-37405521D01*
X64702911Y-37253560D01*
X64735000Y-37092240D01*
X64735000Y-36927760D01*
X65665000Y-36927760D01*
X65665000Y-37092240D01*
X65697089Y-37253560D01*
X65760033Y-37405521D01*
X65851413Y-37542281D01*
X65967719Y-37658587D01*
X66104479Y-37749967D01*
X66256440Y-37812911D01*
X66417760Y-37845000D01*
X66582240Y-37845000D01*
X66743560Y-37812911D01*
X66895521Y-37749967D01*
X67032281Y-37658587D01*
X67148587Y-37542281D01*
X67239967Y-37405521D01*
X67302911Y-37253560D01*
X67335000Y-37092240D01*
X67335000Y-36927760D01*
X68265000Y-36927760D01*
X68265000Y-37092240D01*
X68297089Y-37253560D01*
X68360033Y-37405521D01*
X68451413Y-37542281D01*
X68567719Y-37658587D01*
X68704479Y-37749967D01*
X68856440Y-37812911D01*
X69017760Y-37845000D01*
X69182240Y-37845000D01*
X69343560Y-37812911D01*
X69495521Y-37749967D01*
X69632281Y-37658587D01*
X69748587Y-37542281D01*
X69839967Y-37405521D01*
X69902911Y-37253560D01*
X69935000Y-37092240D01*
X69935000Y-36927760D01*
X69902911Y-36766440D01*
X69839967Y-36614479D01*
X69748587Y-36477719D01*
X69632281Y-36361413D01*
X69495521Y-36270033D01*
X69343560Y-36207089D01*
X69182240Y-36175000D01*
X69017760Y-36175000D01*
X68856440Y-36207089D01*
X68704479Y-36270033D01*
X68567719Y-36361413D01*
X68451413Y-36477719D01*
X68360033Y-36614479D01*
X68297089Y-36766440D01*
X68265000Y-36927760D01*
X67335000Y-36927760D01*
X67302911Y-36766440D01*
X67239967Y-36614479D01*
X67148587Y-36477719D01*
X67032281Y-36361413D01*
X66895521Y-36270033D01*
X66743560Y-36207089D01*
X66582240Y-36175000D01*
X66417760Y-36175000D01*
X66256440Y-36207089D01*
X66104479Y-36270033D01*
X65967719Y-36361413D01*
X65851413Y-36477719D01*
X65760033Y-36614479D01*
X65697089Y-36766440D01*
X65665000Y-36927760D01*
X64735000Y-36927760D01*
X64702911Y-36766440D01*
X64639967Y-36614479D01*
X64548587Y-36477719D01*
X64432281Y-36361413D01*
X64295521Y-36270033D01*
X64143560Y-36207089D01*
X63982240Y-36175000D01*
X63817760Y-36175000D01*
X63656440Y-36207089D01*
X63504479Y-36270033D01*
X63367719Y-36361413D01*
X63251413Y-36477719D01*
X63160033Y-36614479D01*
X63097089Y-36766440D01*
X63065000Y-36927760D01*
X62135000Y-36927760D01*
X62102911Y-36766440D01*
X62039967Y-36614479D01*
X61948587Y-36477719D01*
X61832281Y-36361413D01*
X61695521Y-36270033D01*
X61543560Y-36207089D01*
X61382240Y-36175000D01*
X61217760Y-36175000D01*
X61056440Y-36207089D01*
X60904479Y-36270033D01*
X60767719Y-36361413D01*
X60651413Y-36477719D01*
X60560033Y-36614479D01*
X60497089Y-36766440D01*
X60465000Y-36927760D01*
X59535000Y-36927760D01*
X59502911Y-36766440D01*
X59439967Y-36614479D01*
X59348587Y-36477719D01*
X59232281Y-36361413D01*
X59095521Y-36270033D01*
X58943560Y-36207089D01*
X58782240Y-36175000D01*
X58617760Y-36175000D01*
X58456440Y-36207089D01*
X58304479Y-36270033D01*
X58167719Y-36361413D01*
X58051413Y-36477719D01*
X57960033Y-36614479D01*
X57897089Y-36766440D01*
X57865000Y-36927760D01*
X56935000Y-36927760D01*
X56902911Y-36766440D01*
X56839967Y-36614479D01*
X56748587Y-36477719D01*
X56632281Y-36361413D01*
X56495521Y-36270033D01*
X56343560Y-36207089D01*
X56182240Y-36175000D01*
X56017760Y-36175000D01*
X55856440Y-36207089D01*
X55704479Y-36270033D01*
X55567719Y-36361413D01*
X55451413Y-36477719D01*
X55360033Y-36614479D01*
X55297089Y-36766440D01*
X55265000Y-36927760D01*
X54335000Y-36927760D01*
X54302911Y-36766440D01*
X54239967Y-36614479D01*
X54148587Y-36477719D01*
X54032281Y-36361413D01*
X53895521Y-36270033D01*
X53743560Y-36207089D01*
X53582240Y-36175000D01*
X53417760Y-36175000D01*
X53256440Y-36207089D01*
X53104479Y-36270033D01*
X52967719Y-36361413D01*
X52851413Y-36477719D01*
X52760033Y-36614479D01*
X52697089Y-36766440D01*
X52665000Y-36927760D01*
X51735000Y-36927760D01*
X51702911Y-36766440D01*
X51639967Y-36614479D01*
X51548587Y-36477719D01*
X51432281Y-36361413D01*
X51295521Y-36270033D01*
X51143560Y-36207089D01*
X50982240Y-36175000D01*
X50817760Y-36175000D01*
X50656440Y-36207089D01*
X50504479Y-36270033D01*
X50367719Y-36361413D01*
X50251413Y-36477719D01*
X50160033Y-36614479D01*
X50097089Y-36766440D01*
X50065000Y-36927760D01*
X48206265Y-36927760D01*
X48311614Y-36770095D01*
X48593311Y-36090019D01*
X48736919Y-35368054D01*
X48736919Y-34631946D01*
X71263081Y-34631946D01*
X71263081Y-35368054D01*
X71406689Y-36090019D01*
X71688386Y-36770095D01*
X72097346Y-37382147D01*
X72617853Y-37902654D01*
X73229905Y-38311614D01*
X73909981Y-38593311D01*
X74631946Y-38736919D01*
X75368054Y-38736919D01*
X76090019Y-38593311D01*
X76770095Y-38311614D01*
X77382147Y-37902654D01*
X77902654Y-37382147D01*
X78311614Y-36770095D01*
X78593311Y-36090019D01*
X78736919Y-35368054D01*
X78736919Y-34631946D01*
X78593311Y-33909981D01*
X78311614Y-33229905D01*
X77902654Y-32617853D01*
X77382147Y-32097346D01*
X76770095Y-31688386D01*
X76090019Y-31406689D01*
X75368054Y-31263081D01*
X74631946Y-31263081D01*
X73909981Y-31406689D01*
X73229905Y-31688386D01*
X72617853Y-32097346D01*
X72097346Y-32617853D01*
X71688386Y-33229905D01*
X71406689Y-33909981D01*
X71263081Y-34631946D01*
X48736919Y-34631946D01*
X48593311Y-33909981D01*
X48311614Y-33229905D01*
X47902654Y-32617853D01*
X47382147Y-32097346D01*
X46770095Y-31688386D01*
X46090019Y-31406689D01*
X45368054Y-31263081D01*
X44631946Y-31263081D01*
X43909981Y-31406689D01*
X43229905Y-31688386D01*
X42617853Y-32097346D01*
X42097346Y-32617853D01*
X41688386Y-33229905D01*
X41406689Y-33909981D01*
X41263081Y-34631946D01*
X40685000Y-34631946D01*
X40685000Y-29498061D01*
X43565000Y-29498061D01*
X43565000Y-29701939D01*
X43604774Y-29901898D01*
X43682795Y-30090256D01*
X43796063Y-30259774D01*
X43940226Y-30403937D01*
X44109744Y-30517205D01*
X44298102Y-30595226D01*
X44498061Y-30635000D01*
X44701939Y-30635000D01*
X44901898Y-30595226D01*
X45090256Y-30517205D01*
X45259774Y-30403937D01*
X45403937Y-30259774D01*
X45517205Y-30090256D01*
X45595226Y-29901898D01*
X45635000Y-29701939D01*
X45635000Y-29498061D01*
X47565000Y-29498061D01*
X47565000Y-29701939D01*
X47604774Y-29901898D01*
X47682795Y-30090256D01*
X47796063Y-30259774D01*
X47940226Y-30403937D01*
X48109744Y-30517205D01*
X48298102Y-30595226D01*
X48498061Y-30635000D01*
X48701939Y-30635000D01*
X48901898Y-30595226D01*
X49090256Y-30517205D01*
X49259774Y-30403937D01*
X49403937Y-30259774D01*
X49517205Y-30090256D01*
X49595226Y-29901898D01*
X49635000Y-29701939D01*
X49635000Y-29498061D01*
X70965000Y-29498061D01*
X70965000Y-29701939D01*
X71004774Y-29901898D01*
X71082795Y-30090256D01*
X71196063Y-30259774D01*
X71340226Y-30403937D01*
X71509744Y-30517205D01*
X71698102Y-30595226D01*
X71898061Y-30635000D01*
X72101939Y-30635000D01*
X72301898Y-30595226D01*
X72490256Y-30517205D01*
X72659774Y-30403937D01*
X72803937Y-30259774D01*
X72917205Y-30090256D01*
X72995226Y-29901898D01*
X73035000Y-29701939D01*
X73035000Y-29498061D01*
X74965000Y-29498061D01*
X74965000Y-29701939D01*
X75004774Y-29901898D01*
X75082795Y-30090256D01*
X75196063Y-30259774D01*
X75340226Y-30403937D01*
X75509744Y-30517205D01*
X75698102Y-30595226D01*
X75898061Y-30635000D01*
X76101939Y-30635000D01*
X76301898Y-30595226D01*
X76490256Y-30517205D01*
X76659774Y-30403937D01*
X76803937Y-30259774D01*
X76917205Y-30090256D01*
X76995226Y-29901898D01*
X77035000Y-29701939D01*
X77035000Y-29498061D01*
X76995226Y-29298102D01*
X76917205Y-29109744D01*
X76803937Y-28940226D01*
X76659774Y-28796063D01*
X76490256Y-28682795D01*
X76301898Y-28604774D01*
X76101939Y-28565000D01*
X75898061Y-28565000D01*
X75698102Y-28604774D01*
X75509744Y-28682795D01*
X75340226Y-28796063D01*
X75196063Y-28940226D01*
X75082795Y-29109744D01*
X75004774Y-29298102D01*
X74965000Y-29498061D01*
X73035000Y-29498061D01*
X72995226Y-29298102D01*
X72917205Y-29109744D01*
X72803937Y-28940226D01*
X72659774Y-28796063D01*
X72490256Y-28682795D01*
X72301898Y-28604774D01*
X72101939Y-28565000D01*
X71898061Y-28565000D01*
X71698102Y-28604774D01*
X71509744Y-28682795D01*
X71340226Y-28796063D01*
X71196063Y-28940226D01*
X71082795Y-29109744D01*
X71004774Y-29298102D01*
X70965000Y-29498061D01*
X49635000Y-29498061D01*
X49595226Y-29298102D01*
X49517205Y-29109744D01*
X49403937Y-28940226D01*
X49259774Y-28796063D01*
X49090256Y-28682795D01*
X48901898Y-28604774D01*
X48701939Y-28565000D01*
X48498061Y-28565000D01*
X48298102Y-28604774D01*
X48109744Y-28682795D01*
X47940226Y-28796063D01*
X47796063Y-28940226D01*
X47682795Y-29109744D01*
X47604774Y-29298102D01*
X47565000Y-29498061D01*
X45635000Y-29498061D01*
X45595226Y-29298102D01*
X45517205Y-29109744D01*
X45403937Y-28940226D01*
X45259774Y-28796063D01*
X45090256Y-28682795D01*
X44901898Y-28604774D01*
X44701939Y-28565000D01*
X44498061Y-28565000D01*
X44298102Y-28604774D01*
X44109744Y-28682795D01*
X43940226Y-28796063D01*
X43796063Y-28940226D01*
X43682795Y-29109744D01*
X43604774Y-29298102D01*
X43565000Y-29498061D01*
X40685000Y-29498061D01*
X40685000Y-28108061D01*
X55575000Y-28108061D01*
X55575000Y-28311939D01*
X55614774Y-28511898D01*
X55692795Y-28700256D01*
X55806063Y-28869774D01*
X55950226Y-29013937D01*
X56119744Y-29127205D01*
X56308102Y-29205226D01*
X56508061Y-29245000D01*
X56711939Y-29245000D01*
X56911898Y-29205226D01*
X57100256Y-29127205D01*
X57269774Y-29013937D01*
X57413937Y-28869774D01*
X57527205Y-28700256D01*
X57605226Y-28511898D01*
X57645000Y-28311939D01*
X57645000Y-28108061D01*
X57605226Y-27908102D01*
X57527205Y-27719744D01*
X57413937Y-27550226D01*
X57269774Y-27406063D01*
X57100256Y-27292795D01*
X56911898Y-27214774D01*
X56711939Y-27175000D01*
X56508061Y-27175000D01*
X56308102Y-27214774D01*
X56119744Y-27292795D01*
X55950226Y-27406063D01*
X55806063Y-27550226D01*
X55692795Y-27719744D01*
X55614774Y-27908102D01*
X55575000Y-28108061D01*
X40685000Y-28108061D01*
X40685000Y-25033505D01*
X40732312Y-24550984D01*
X40862714Y-24119070D01*
X41074524Y-23720715D01*
X41359675Y-23371086D01*
X41707303Y-23083503D01*
X42104177Y-22868914D01*
X42535161Y-22735502D01*
X43015654Y-22685000D01*
X76966495Y-22685000D01*
X77449016Y-22732312D01*
G37*
G04 #@! TD.AperFunction*
M02*
