G04 #@! TF.GenerationSoftware,KiCad,Pcbnew,(5.1.9-0-10_14)*
G04 #@! TF.CreationDate,2021-04-12T02:05:24-07:00*
G04 #@! TF.ProjectId,LED_array,4c45445f-6172-4726-9179-2e6b69636164,rev?*
G04 #@! TF.SameCoordinates,Original*
G04 #@! TF.FileFunction,Copper,L2,Inr*
G04 #@! TF.FilePolarity,Positive*
%FSLAX46Y46*%
G04 Gerber Fmt 4.6, Leading zero omitted, Abs format (unit mm)*
G04 Created by KiCad (PCBNEW (5.1.9-0-10_14)) date 2021-04-12 02:05:24*
%MOMM*%
%LPD*%
G01*
G04 APERTURE LIST*
G04 #@! TA.AperFunction,ViaPad*
%ADD10C,0.800000*%
G04 #@! TD*
G04 #@! TA.AperFunction,ViaPad*
%ADD11C,0.400000*%
G04 #@! TD*
G04 #@! TA.AperFunction,Conductor*
%ADD12C,0.254000*%
G04 #@! TD*
G04 #@! TA.AperFunction,Conductor*
%ADD13C,0.100000*%
G04 #@! TD*
G04 APERTURE END LIST*
D10*
X76000000Y-24400000D03*
X72000000Y-24400000D03*
X44600000Y-24400000D03*
X48600000Y-24400000D03*
X58100000Y-28220000D03*
X61110000Y-28210000D03*
X64130000Y-28190000D03*
D11*
X71700000Y-39600000D03*
X45700000Y-39600000D03*
X50900000Y-34400000D03*
X53500000Y-34400000D03*
X56100000Y-34400000D03*
X58700000Y-34400000D03*
X61300000Y-34400000D03*
X63900000Y-34400000D03*
X66500000Y-34400000D03*
X69100000Y-34400000D03*
X50900000Y-39600000D03*
X53500000Y-39600000D03*
X56100000Y-39600000D03*
X58700000Y-39600000D03*
X61300000Y-39600000D03*
X63900000Y-39600000D03*
X66500000Y-39600000D03*
X69100000Y-39600000D03*
X50900000Y-44800000D03*
X53500000Y-44800000D03*
X56100000Y-44800000D03*
X58700000Y-44800000D03*
X61300000Y-44800000D03*
X63900000Y-44800000D03*
X66500000Y-44800000D03*
X69100000Y-44800000D03*
X50900000Y-50000000D03*
X53500000Y-50000000D03*
X56100000Y-50000000D03*
X58700000Y-50000000D03*
X61300000Y-50000000D03*
X63900000Y-50000000D03*
X66500000Y-50000000D03*
X69100000Y-50000000D03*
X50900000Y-55200000D03*
X53500000Y-55200000D03*
X56100000Y-55200000D03*
X58700000Y-55200000D03*
X61300000Y-55200000D03*
X63900000Y-55200000D03*
X66500000Y-55200000D03*
X69100000Y-55200000D03*
X50900000Y-60400000D03*
X53500000Y-60400000D03*
X56100000Y-60400000D03*
X58700000Y-60400000D03*
X61300000Y-60400000D03*
X63900000Y-60400000D03*
X66500000Y-60400000D03*
X69100000Y-60400000D03*
X50900000Y-65600000D03*
X53500000Y-65600000D03*
X56100000Y-65600000D03*
X58700000Y-65600000D03*
X61300000Y-65600000D03*
X63900000Y-65600000D03*
X66500000Y-65600000D03*
X69100000Y-65600000D03*
X48300000Y-39600000D03*
X45700000Y-44800000D03*
X48300000Y-44800000D03*
X45700000Y-50000000D03*
X48300000Y-50000000D03*
X45700000Y-55200000D03*
X48300000Y-55200000D03*
X45700000Y-60400000D03*
X48300000Y-60400000D03*
X74300000Y-39600000D03*
X71700000Y-44800000D03*
X74300000Y-44800000D03*
X71700000Y-50000000D03*
X74300000Y-50000000D03*
X71700000Y-55200000D03*
X74300000Y-55200000D03*
X71700000Y-60400000D03*
X74300000Y-60400000D03*
D10*
X56610000Y-28210000D03*
D11*
X71700000Y-42200000D03*
X45700000Y-42200000D03*
X50900000Y-37010000D03*
X53500000Y-37010000D03*
X56100000Y-37010000D03*
X58700000Y-37010000D03*
X61300000Y-37010000D03*
X63900000Y-37010000D03*
X66500000Y-37010000D03*
X69100000Y-37010000D03*
X50900000Y-42210000D03*
X53500000Y-42210000D03*
X56100000Y-42210000D03*
X58700000Y-42210000D03*
X61300000Y-42210000D03*
X63900000Y-42210000D03*
X66500000Y-42210000D03*
X69100000Y-42210000D03*
X50900000Y-47410000D03*
X53500000Y-47410000D03*
X56100000Y-47410000D03*
X58700000Y-47410000D03*
X61300000Y-47410000D03*
X63900000Y-47410000D03*
X66500000Y-47410000D03*
X69100000Y-47410000D03*
X50900000Y-52610000D03*
X53500000Y-52610000D03*
X56100000Y-52610000D03*
X58700000Y-52610000D03*
X61300000Y-52610000D03*
X63900000Y-52610000D03*
X66500000Y-52610000D03*
X69100000Y-52610000D03*
X50900000Y-57810000D03*
X53500000Y-57810000D03*
X56100000Y-57810000D03*
X58700000Y-57810000D03*
X61300000Y-57810000D03*
X63900000Y-57810000D03*
X66500000Y-57810000D03*
X69100000Y-57810000D03*
X50900000Y-63010000D03*
X53500000Y-63010000D03*
X56100000Y-63010000D03*
X58700000Y-63010000D03*
X61300000Y-63010000D03*
X63900000Y-63010000D03*
X66500000Y-63010000D03*
X69100000Y-63010000D03*
X48300000Y-42200000D03*
X45700000Y-47400000D03*
X48300000Y-47400000D03*
X45700000Y-52600000D03*
X48300000Y-52600000D03*
X45700000Y-57800000D03*
X48300000Y-57800000D03*
X74300000Y-42200000D03*
X71700000Y-47400000D03*
X74300000Y-47400000D03*
X71700000Y-52600000D03*
X74300000Y-52600000D03*
X71700000Y-57800000D03*
X74300000Y-57800000D03*
D10*
X76000000Y-29600000D03*
X72000000Y-29600000D03*
X48600000Y-29600000D03*
X44600000Y-29600000D03*
D12*
X77449016Y-22732312D02*
X77880930Y-22862714D01*
X78279285Y-23074524D01*
X78628914Y-23359675D01*
X78916497Y-23707303D01*
X79131086Y-24104177D01*
X79264498Y-24535161D01*
X79315000Y-25015654D01*
X79315001Y-66966485D01*
X79267688Y-67449016D01*
X79137287Y-67880927D01*
X78925480Y-68279280D01*
X78640325Y-68628914D01*
X78292697Y-68916497D01*
X77895825Y-69131085D01*
X77464834Y-69264500D01*
X76984346Y-69315000D01*
X43033504Y-69315000D01*
X42550984Y-69267688D01*
X42119073Y-69137287D01*
X41720720Y-68925480D01*
X41371086Y-68640325D01*
X41083503Y-68292697D01*
X40868915Y-67895825D01*
X40735500Y-67464834D01*
X40685000Y-66984346D01*
X40685000Y-64631946D01*
X41263081Y-64631946D01*
X41263081Y-65368054D01*
X41406689Y-66090019D01*
X41688386Y-66770095D01*
X42097346Y-67382147D01*
X42617853Y-67902654D01*
X43229905Y-68311614D01*
X43909981Y-68593311D01*
X44631946Y-68736919D01*
X45368054Y-68736919D01*
X46090019Y-68593311D01*
X46770095Y-68311614D01*
X47382147Y-67902654D01*
X47902654Y-67382147D01*
X48311614Y-66770095D01*
X48593311Y-66090019D01*
X48707140Y-65517760D01*
X50065000Y-65517760D01*
X50065000Y-65682240D01*
X50097089Y-65843560D01*
X50160033Y-65995521D01*
X50251413Y-66132281D01*
X50367719Y-66248587D01*
X50504479Y-66339967D01*
X50656440Y-66402911D01*
X50817760Y-66435000D01*
X50982240Y-66435000D01*
X51143560Y-66402911D01*
X51295521Y-66339967D01*
X51432281Y-66248587D01*
X51548587Y-66132281D01*
X51639967Y-65995521D01*
X51702911Y-65843560D01*
X51735000Y-65682240D01*
X51735000Y-65517760D01*
X52665000Y-65517760D01*
X52665000Y-65682240D01*
X52697089Y-65843560D01*
X52760033Y-65995521D01*
X52851413Y-66132281D01*
X52967719Y-66248587D01*
X53104479Y-66339967D01*
X53256440Y-66402911D01*
X53417760Y-66435000D01*
X53582240Y-66435000D01*
X53743560Y-66402911D01*
X53895521Y-66339967D01*
X54032281Y-66248587D01*
X54148587Y-66132281D01*
X54239967Y-65995521D01*
X54302911Y-65843560D01*
X54335000Y-65682240D01*
X54335000Y-65517760D01*
X55265000Y-65517760D01*
X55265000Y-65682240D01*
X55297089Y-65843560D01*
X55360033Y-65995521D01*
X55451413Y-66132281D01*
X55567719Y-66248587D01*
X55704479Y-66339967D01*
X55856440Y-66402911D01*
X56017760Y-66435000D01*
X56182240Y-66435000D01*
X56343560Y-66402911D01*
X56495521Y-66339967D01*
X56632281Y-66248587D01*
X56748587Y-66132281D01*
X56839967Y-65995521D01*
X56902911Y-65843560D01*
X56935000Y-65682240D01*
X56935000Y-65517760D01*
X57865000Y-65517760D01*
X57865000Y-65682240D01*
X57897089Y-65843560D01*
X57960033Y-65995521D01*
X58051413Y-66132281D01*
X58167719Y-66248587D01*
X58304479Y-66339967D01*
X58456440Y-66402911D01*
X58617760Y-66435000D01*
X58782240Y-66435000D01*
X58943560Y-66402911D01*
X59095521Y-66339967D01*
X59232281Y-66248587D01*
X59348587Y-66132281D01*
X59439967Y-65995521D01*
X59502911Y-65843560D01*
X59535000Y-65682240D01*
X59535000Y-65517760D01*
X60465000Y-65517760D01*
X60465000Y-65682240D01*
X60497089Y-65843560D01*
X60560033Y-65995521D01*
X60651413Y-66132281D01*
X60767719Y-66248587D01*
X60904479Y-66339967D01*
X61056440Y-66402911D01*
X61217760Y-66435000D01*
X61382240Y-66435000D01*
X61543560Y-66402911D01*
X61695521Y-66339967D01*
X61832281Y-66248587D01*
X61948587Y-66132281D01*
X62039967Y-65995521D01*
X62102911Y-65843560D01*
X62135000Y-65682240D01*
X62135000Y-65517760D01*
X63065000Y-65517760D01*
X63065000Y-65682240D01*
X63097089Y-65843560D01*
X63160033Y-65995521D01*
X63251413Y-66132281D01*
X63367719Y-66248587D01*
X63504479Y-66339967D01*
X63656440Y-66402911D01*
X63817760Y-66435000D01*
X63982240Y-66435000D01*
X64143560Y-66402911D01*
X64295521Y-66339967D01*
X64432281Y-66248587D01*
X64548587Y-66132281D01*
X64639967Y-65995521D01*
X64702911Y-65843560D01*
X64735000Y-65682240D01*
X64735000Y-65517760D01*
X65665000Y-65517760D01*
X65665000Y-65682240D01*
X65697089Y-65843560D01*
X65760033Y-65995521D01*
X65851413Y-66132281D01*
X65967719Y-66248587D01*
X66104479Y-66339967D01*
X66256440Y-66402911D01*
X66417760Y-66435000D01*
X66582240Y-66435000D01*
X66743560Y-66402911D01*
X66895521Y-66339967D01*
X67032281Y-66248587D01*
X67148587Y-66132281D01*
X67239967Y-65995521D01*
X67302911Y-65843560D01*
X67335000Y-65682240D01*
X67335000Y-65517760D01*
X68265000Y-65517760D01*
X68265000Y-65682240D01*
X68297089Y-65843560D01*
X68360033Y-65995521D01*
X68451413Y-66132281D01*
X68567719Y-66248587D01*
X68704479Y-66339967D01*
X68856440Y-66402911D01*
X69017760Y-66435000D01*
X69182240Y-66435000D01*
X69343560Y-66402911D01*
X69495521Y-66339967D01*
X69632281Y-66248587D01*
X69748587Y-66132281D01*
X69839967Y-65995521D01*
X69902911Y-65843560D01*
X69935000Y-65682240D01*
X69935000Y-65517760D01*
X69902911Y-65356440D01*
X69839967Y-65204479D01*
X69748587Y-65067719D01*
X69632281Y-64951413D01*
X69495521Y-64860033D01*
X69343560Y-64797089D01*
X69182240Y-64765000D01*
X69017760Y-64765000D01*
X68856440Y-64797089D01*
X68704479Y-64860033D01*
X68567719Y-64951413D01*
X68451413Y-65067719D01*
X68360033Y-65204479D01*
X68297089Y-65356440D01*
X68265000Y-65517760D01*
X67335000Y-65517760D01*
X67302911Y-65356440D01*
X67239967Y-65204479D01*
X67148587Y-65067719D01*
X67032281Y-64951413D01*
X66895521Y-64860033D01*
X66743560Y-64797089D01*
X66582240Y-64765000D01*
X66417760Y-64765000D01*
X66256440Y-64797089D01*
X66104479Y-64860033D01*
X65967719Y-64951413D01*
X65851413Y-65067719D01*
X65760033Y-65204479D01*
X65697089Y-65356440D01*
X65665000Y-65517760D01*
X64735000Y-65517760D01*
X64702911Y-65356440D01*
X64639967Y-65204479D01*
X64548587Y-65067719D01*
X64432281Y-64951413D01*
X64295521Y-64860033D01*
X64143560Y-64797089D01*
X63982240Y-64765000D01*
X63817760Y-64765000D01*
X63656440Y-64797089D01*
X63504479Y-64860033D01*
X63367719Y-64951413D01*
X63251413Y-65067719D01*
X63160033Y-65204479D01*
X63097089Y-65356440D01*
X63065000Y-65517760D01*
X62135000Y-65517760D01*
X62102911Y-65356440D01*
X62039967Y-65204479D01*
X61948587Y-65067719D01*
X61832281Y-64951413D01*
X61695521Y-64860033D01*
X61543560Y-64797089D01*
X61382240Y-64765000D01*
X61217760Y-64765000D01*
X61056440Y-64797089D01*
X60904479Y-64860033D01*
X60767719Y-64951413D01*
X60651413Y-65067719D01*
X60560033Y-65204479D01*
X60497089Y-65356440D01*
X60465000Y-65517760D01*
X59535000Y-65517760D01*
X59502911Y-65356440D01*
X59439967Y-65204479D01*
X59348587Y-65067719D01*
X59232281Y-64951413D01*
X59095521Y-64860033D01*
X58943560Y-64797089D01*
X58782240Y-64765000D01*
X58617760Y-64765000D01*
X58456440Y-64797089D01*
X58304479Y-64860033D01*
X58167719Y-64951413D01*
X58051413Y-65067719D01*
X57960033Y-65204479D01*
X57897089Y-65356440D01*
X57865000Y-65517760D01*
X56935000Y-65517760D01*
X56902911Y-65356440D01*
X56839967Y-65204479D01*
X56748587Y-65067719D01*
X56632281Y-64951413D01*
X56495521Y-64860033D01*
X56343560Y-64797089D01*
X56182240Y-64765000D01*
X56017760Y-64765000D01*
X55856440Y-64797089D01*
X55704479Y-64860033D01*
X55567719Y-64951413D01*
X55451413Y-65067719D01*
X55360033Y-65204479D01*
X55297089Y-65356440D01*
X55265000Y-65517760D01*
X54335000Y-65517760D01*
X54302911Y-65356440D01*
X54239967Y-65204479D01*
X54148587Y-65067719D01*
X54032281Y-64951413D01*
X53895521Y-64860033D01*
X53743560Y-64797089D01*
X53582240Y-64765000D01*
X53417760Y-64765000D01*
X53256440Y-64797089D01*
X53104479Y-64860033D01*
X52967719Y-64951413D01*
X52851413Y-65067719D01*
X52760033Y-65204479D01*
X52697089Y-65356440D01*
X52665000Y-65517760D01*
X51735000Y-65517760D01*
X51702911Y-65356440D01*
X51639967Y-65204479D01*
X51548587Y-65067719D01*
X51432281Y-64951413D01*
X51295521Y-64860033D01*
X51143560Y-64797089D01*
X50982240Y-64765000D01*
X50817760Y-64765000D01*
X50656440Y-64797089D01*
X50504479Y-64860033D01*
X50367719Y-64951413D01*
X50251413Y-65067719D01*
X50160033Y-65204479D01*
X50097089Y-65356440D01*
X50065000Y-65517760D01*
X48707140Y-65517760D01*
X48736919Y-65368054D01*
X48736919Y-64631946D01*
X71263081Y-64631946D01*
X71263081Y-65368054D01*
X71406689Y-66090019D01*
X71688386Y-66770095D01*
X72097346Y-67382147D01*
X72617853Y-67902654D01*
X73229905Y-68311614D01*
X73909981Y-68593311D01*
X74631946Y-68736919D01*
X75368054Y-68736919D01*
X76090019Y-68593311D01*
X76770095Y-68311614D01*
X77382147Y-67902654D01*
X77902654Y-67382147D01*
X78311614Y-66770095D01*
X78593311Y-66090019D01*
X78736919Y-65368054D01*
X78736919Y-64631946D01*
X78593311Y-63909981D01*
X78311614Y-63229905D01*
X77902654Y-62617853D01*
X77382147Y-62097346D01*
X76770095Y-61688386D01*
X76090019Y-61406689D01*
X75368054Y-61263081D01*
X74631946Y-61263081D01*
X73909981Y-61406689D01*
X73229905Y-61688386D01*
X72617853Y-62097346D01*
X72097346Y-62617853D01*
X71688386Y-63229905D01*
X71406689Y-63909981D01*
X71263081Y-64631946D01*
X48736919Y-64631946D01*
X48593311Y-63909981D01*
X48311614Y-63229905D01*
X47902654Y-62617853D01*
X47382147Y-62097346D01*
X46770095Y-61688386D01*
X46090019Y-61406689D01*
X45368054Y-61263081D01*
X44631946Y-61263081D01*
X43909981Y-61406689D01*
X43229905Y-61688386D01*
X42617853Y-62097346D01*
X42097346Y-62617853D01*
X41688386Y-63229905D01*
X41406689Y-63909981D01*
X41263081Y-64631946D01*
X40685000Y-64631946D01*
X40685000Y-60317760D01*
X44865000Y-60317760D01*
X44865000Y-60482240D01*
X44897089Y-60643560D01*
X44960033Y-60795521D01*
X45051413Y-60932281D01*
X45167719Y-61048587D01*
X45304479Y-61139967D01*
X45456440Y-61202911D01*
X45617760Y-61235000D01*
X45782240Y-61235000D01*
X45943560Y-61202911D01*
X46095521Y-61139967D01*
X46232281Y-61048587D01*
X46348587Y-60932281D01*
X46439967Y-60795521D01*
X46502911Y-60643560D01*
X46535000Y-60482240D01*
X46535000Y-60317760D01*
X47465000Y-60317760D01*
X47465000Y-60482240D01*
X47497089Y-60643560D01*
X47560033Y-60795521D01*
X47651413Y-60932281D01*
X47767719Y-61048587D01*
X47904479Y-61139967D01*
X48056440Y-61202911D01*
X48217760Y-61235000D01*
X48382240Y-61235000D01*
X48543560Y-61202911D01*
X48695521Y-61139967D01*
X48832281Y-61048587D01*
X48948587Y-60932281D01*
X49039967Y-60795521D01*
X49102911Y-60643560D01*
X49135000Y-60482240D01*
X49135000Y-60317760D01*
X50065000Y-60317760D01*
X50065000Y-60482240D01*
X50097089Y-60643560D01*
X50160033Y-60795521D01*
X50251413Y-60932281D01*
X50367719Y-61048587D01*
X50504479Y-61139967D01*
X50656440Y-61202911D01*
X50817760Y-61235000D01*
X50982240Y-61235000D01*
X51143560Y-61202911D01*
X51295521Y-61139967D01*
X51432281Y-61048587D01*
X51548587Y-60932281D01*
X51639967Y-60795521D01*
X51702911Y-60643560D01*
X51735000Y-60482240D01*
X51735000Y-60317760D01*
X52665000Y-60317760D01*
X52665000Y-60482240D01*
X52697089Y-60643560D01*
X52760033Y-60795521D01*
X52851413Y-60932281D01*
X52967719Y-61048587D01*
X53104479Y-61139967D01*
X53256440Y-61202911D01*
X53417760Y-61235000D01*
X53582240Y-61235000D01*
X53743560Y-61202911D01*
X53895521Y-61139967D01*
X54032281Y-61048587D01*
X54148587Y-60932281D01*
X54239967Y-60795521D01*
X54302911Y-60643560D01*
X54335000Y-60482240D01*
X54335000Y-60317760D01*
X55265000Y-60317760D01*
X55265000Y-60482240D01*
X55297089Y-60643560D01*
X55360033Y-60795521D01*
X55451413Y-60932281D01*
X55567719Y-61048587D01*
X55704479Y-61139967D01*
X55856440Y-61202911D01*
X56017760Y-61235000D01*
X56182240Y-61235000D01*
X56343560Y-61202911D01*
X56495521Y-61139967D01*
X56632281Y-61048587D01*
X56748587Y-60932281D01*
X56839967Y-60795521D01*
X56902911Y-60643560D01*
X56935000Y-60482240D01*
X56935000Y-60317760D01*
X57865000Y-60317760D01*
X57865000Y-60482240D01*
X57897089Y-60643560D01*
X57960033Y-60795521D01*
X58051413Y-60932281D01*
X58167719Y-61048587D01*
X58304479Y-61139967D01*
X58456440Y-61202911D01*
X58617760Y-61235000D01*
X58782240Y-61235000D01*
X58943560Y-61202911D01*
X59095521Y-61139967D01*
X59232281Y-61048587D01*
X59348587Y-60932281D01*
X59439967Y-60795521D01*
X59502911Y-60643560D01*
X59535000Y-60482240D01*
X59535000Y-60317760D01*
X60465000Y-60317760D01*
X60465000Y-60482240D01*
X60497089Y-60643560D01*
X60560033Y-60795521D01*
X60651413Y-60932281D01*
X60767719Y-61048587D01*
X60904479Y-61139967D01*
X61056440Y-61202911D01*
X61217760Y-61235000D01*
X61382240Y-61235000D01*
X61543560Y-61202911D01*
X61695521Y-61139967D01*
X61832281Y-61048587D01*
X61948587Y-60932281D01*
X62039967Y-60795521D01*
X62102911Y-60643560D01*
X62135000Y-60482240D01*
X62135000Y-60317760D01*
X63065000Y-60317760D01*
X63065000Y-60482240D01*
X63097089Y-60643560D01*
X63160033Y-60795521D01*
X63251413Y-60932281D01*
X63367719Y-61048587D01*
X63504479Y-61139967D01*
X63656440Y-61202911D01*
X63817760Y-61235000D01*
X63982240Y-61235000D01*
X64143560Y-61202911D01*
X64295521Y-61139967D01*
X64432281Y-61048587D01*
X64548587Y-60932281D01*
X64639967Y-60795521D01*
X64702911Y-60643560D01*
X64735000Y-60482240D01*
X64735000Y-60317760D01*
X65665000Y-60317760D01*
X65665000Y-60482240D01*
X65697089Y-60643560D01*
X65760033Y-60795521D01*
X65851413Y-60932281D01*
X65967719Y-61048587D01*
X66104479Y-61139967D01*
X66256440Y-61202911D01*
X66417760Y-61235000D01*
X66582240Y-61235000D01*
X66743560Y-61202911D01*
X66895521Y-61139967D01*
X67032281Y-61048587D01*
X67148587Y-60932281D01*
X67239967Y-60795521D01*
X67302911Y-60643560D01*
X67335000Y-60482240D01*
X67335000Y-60317760D01*
X68265000Y-60317760D01*
X68265000Y-60482240D01*
X68297089Y-60643560D01*
X68360033Y-60795521D01*
X68451413Y-60932281D01*
X68567719Y-61048587D01*
X68704479Y-61139967D01*
X68856440Y-61202911D01*
X69017760Y-61235000D01*
X69182240Y-61235000D01*
X69343560Y-61202911D01*
X69495521Y-61139967D01*
X69632281Y-61048587D01*
X69748587Y-60932281D01*
X69839967Y-60795521D01*
X69902911Y-60643560D01*
X69935000Y-60482240D01*
X69935000Y-60317760D01*
X70865000Y-60317760D01*
X70865000Y-60482240D01*
X70897089Y-60643560D01*
X70960033Y-60795521D01*
X71051413Y-60932281D01*
X71167719Y-61048587D01*
X71304479Y-61139967D01*
X71456440Y-61202911D01*
X71617760Y-61235000D01*
X71782240Y-61235000D01*
X71943560Y-61202911D01*
X72095521Y-61139967D01*
X72232281Y-61048587D01*
X72348587Y-60932281D01*
X72439967Y-60795521D01*
X72502911Y-60643560D01*
X72535000Y-60482240D01*
X72535000Y-60317760D01*
X73465000Y-60317760D01*
X73465000Y-60482240D01*
X73497089Y-60643560D01*
X73560033Y-60795521D01*
X73651413Y-60932281D01*
X73767719Y-61048587D01*
X73904479Y-61139967D01*
X74056440Y-61202911D01*
X74217760Y-61235000D01*
X74382240Y-61235000D01*
X74543560Y-61202911D01*
X74695521Y-61139967D01*
X74832281Y-61048587D01*
X74948587Y-60932281D01*
X75039967Y-60795521D01*
X75102911Y-60643560D01*
X75135000Y-60482240D01*
X75135000Y-60317760D01*
X75102911Y-60156440D01*
X75039967Y-60004479D01*
X74948587Y-59867719D01*
X74832281Y-59751413D01*
X74695521Y-59660033D01*
X74543560Y-59597089D01*
X74382240Y-59565000D01*
X74217760Y-59565000D01*
X74056440Y-59597089D01*
X73904479Y-59660033D01*
X73767719Y-59751413D01*
X73651413Y-59867719D01*
X73560033Y-60004479D01*
X73497089Y-60156440D01*
X73465000Y-60317760D01*
X72535000Y-60317760D01*
X72502911Y-60156440D01*
X72439967Y-60004479D01*
X72348587Y-59867719D01*
X72232281Y-59751413D01*
X72095521Y-59660033D01*
X71943560Y-59597089D01*
X71782240Y-59565000D01*
X71617760Y-59565000D01*
X71456440Y-59597089D01*
X71304479Y-59660033D01*
X71167719Y-59751413D01*
X71051413Y-59867719D01*
X70960033Y-60004479D01*
X70897089Y-60156440D01*
X70865000Y-60317760D01*
X69935000Y-60317760D01*
X69902911Y-60156440D01*
X69839967Y-60004479D01*
X69748587Y-59867719D01*
X69632281Y-59751413D01*
X69495521Y-59660033D01*
X69343560Y-59597089D01*
X69182240Y-59565000D01*
X69017760Y-59565000D01*
X68856440Y-59597089D01*
X68704479Y-59660033D01*
X68567719Y-59751413D01*
X68451413Y-59867719D01*
X68360033Y-60004479D01*
X68297089Y-60156440D01*
X68265000Y-60317760D01*
X67335000Y-60317760D01*
X67302911Y-60156440D01*
X67239967Y-60004479D01*
X67148587Y-59867719D01*
X67032281Y-59751413D01*
X66895521Y-59660033D01*
X66743560Y-59597089D01*
X66582240Y-59565000D01*
X66417760Y-59565000D01*
X66256440Y-59597089D01*
X66104479Y-59660033D01*
X65967719Y-59751413D01*
X65851413Y-59867719D01*
X65760033Y-60004479D01*
X65697089Y-60156440D01*
X65665000Y-60317760D01*
X64735000Y-60317760D01*
X64702911Y-60156440D01*
X64639967Y-60004479D01*
X64548587Y-59867719D01*
X64432281Y-59751413D01*
X64295521Y-59660033D01*
X64143560Y-59597089D01*
X63982240Y-59565000D01*
X63817760Y-59565000D01*
X63656440Y-59597089D01*
X63504479Y-59660033D01*
X63367719Y-59751413D01*
X63251413Y-59867719D01*
X63160033Y-60004479D01*
X63097089Y-60156440D01*
X63065000Y-60317760D01*
X62135000Y-60317760D01*
X62102911Y-60156440D01*
X62039967Y-60004479D01*
X61948587Y-59867719D01*
X61832281Y-59751413D01*
X61695521Y-59660033D01*
X61543560Y-59597089D01*
X61382240Y-59565000D01*
X61217760Y-59565000D01*
X61056440Y-59597089D01*
X60904479Y-59660033D01*
X60767719Y-59751413D01*
X60651413Y-59867719D01*
X60560033Y-60004479D01*
X60497089Y-60156440D01*
X60465000Y-60317760D01*
X59535000Y-60317760D01*
X59502911Y-60156440D01*
X59439967Y-60004479D01*
X59348587Y-59867719D01*
X59232281Y-59751413D01*
X59095521Y-59660033D01*
X58943560Y-59597089D01*
X58782240Y-59565000D01*
X58617760Y-59565000D01*
X58456440Y-59597089D01*
X58304479Y-59660033D01*
X58167719Y-59751413D01*
X58051413Y-59867719D01*
X57960033Y-60004479D01*
X57897089Y-60156440D01*
X57865000Y-60317760D01*
X56935000Y-60317760D01*
X56902911Y-60156440D01*
X56839967Y-60004479D01*
X56748587Y-59867719D01*
X56632281Y-59751413D01*
X56495521Y-59660033D01*
X56343560Y-59597089D01*
X56182240Y-59565000D01*
X56017760Y-59565000D01*
X55856440Y-59597089D01*
X55704479Y-59660033D01*
X55567719Y-59751413D01*
X55451413Y-59867719D01*
X55360033Y-60004479D01*
X55297089Y-60156440D01*
X55265000Y-60317760D01*
X54335000Y-60317760D01*
X54302911Y-60156440D01*
X54239967Y-60004479D01*
X54148587Y-59867719D01*
X54032281Y-59751413D01*
X53895521Y-59660033D01*
X53743560Y-59597089D01*
X53582240Y-59565000D01*
X53417760Y-59565000D01*
X53256440Y-59597089D01*
X53104479Y-59660033D01*
X52967719Y-59751413D01*
X52851413Y-59867719D01*
X52760033Y-60004479D01*
X52697089Y-60156440D01*
X52665000Y-60317760D01*
X51735000Y-60317760D01*
X51702911Y-60156440D01*
X51639967Y-60004479D01*
X51548587Y-59867719D01*
X51432281Y-59751413D01*
X51295521Y-59660033D01*
X51143560Y-59597089D01*
X50982240Y-59565000D01*
X50817760Y-59565000D01*
X50656440Y-59597089D01*
X50504479Y-59660033D01*
X50367719Y-59751413D01*
X50251413Y-59867719D01*
X50160033Y-60004479D01*
X50097089Y-60156440D01*
X50065000Y-60317760D01*
X49135000Y-60317760D01*
X49102911Y-60156440D01*
X49039967Y-60004479D01*
X48948587Y-59867719D01*
X48832281Y-59751413D01*
X48695521Y-59660033D01*
X48543560Y-59597089D01*
X48382240Y-59565000D01*
X48217760Y-59565000D01*
X48056440Y-59597089D01*
X47904479Y-59660033D01*
X47767719Y-59751413D01*
X47651413Y-59867719D01*
X47560033Y-60004479D01*
X47497089Y-60156440D01*
X47465000Y-60317760D01*
X46535000Y-60317760D01*
X46502911Y-60156440D01*
X46439967Y-60004479D01*
X46348587Y-59867719D01*
X46232281Y-59751413D01*
X46095521Y-59660033D01*
X45943560Y-59597089D01*
X45782240Y-59565000D01*
X45617760Y-59565000D01*
X45456440Y-59597089D01*
X45304479Y-59660033D01*
X45167719Y-59751413D01*
X45051413Y-59867719D01*
X44960033Y-60004479D01*
X44897089Y-60156440D01*
X44865000Y-60317760D01*
X40685000Y-60317760D01*
X40685000Y-55117760D01*
X44865000Y-55117760D01*
X44865000Y-55282240D01*
X44897089Y-55443560D01*
X44960033Y-55595521D01*
X45051413Y-55732281D01*
X45167719Y-55848587D01*
X45304479Y-55939967D01*
X45456440Y-56002911D01*
X45617760Y-56035000D01*
X45782240Y-56035000D01*
X45943560Y-56002911D01*
X46095521Y-55939967D01*
X46232281Y-55848587D01*
X46348587Y-55732281D01*
X46439967Y-55595521D01*
X46502911Y-55443560D01*
X46535000Y-55282240D01*
X46535000Y-55117760D01*
X47465000Y-55117760D01*
X47465000Y-55282240D01*
X47497089Y-55443560D01*
X47560033Y-55595521D01*
X47651413Y-55732281D01*
X47767719Y-55848587D01*
X47904479Y-55939967D01*
X48056440Y-56002911D01*
X48217760Y-56035000D01*
X48382240Y-56035000D01*
X48543560Y-56002911D01*
X48695521Y-55939967D01*
X48832281Y-55848587D01*
X48948587Y-55732281D01*
X49039967Y-55595521D01*
X49102911Y-55443560D01*
X49135000Y-55282240D01*
X49135000Y-55117760D01*
X50065000Y-55117760D01*
X50065000Y-55282240D01*
X50097089Y-55443560D01*
X50160033Y-55595521D01*
X50251413Y-55732281D01*
X50367719Y-55848587D01*
X50504479Y-55939967D01*
X50656440Y-56002911D01*
X50817760Y-56035000D01*
X50982240Y-56035000D01*
X51143560Y-56002911D01*
X51295521Y-55939967D01*
X51432281Y-55848587D01*
X51548587Y-55732281D01*
X51639967Y-55595521D01*
X51702911Y-55443560D01*
X51735000Y-55282240D01*
X51735000Y-55117760D01*
X52665000Y-55117760D01*
X52665000Y-55282240D01*
X52697089Y-55443560D01*
X52760033Y-55595521D01*
X52851413Y-55732281D01*
X52967719Y-55848587D01*
X53104479Y-55939967D01*
X53256440Y-56002911D01*
X53417760Y-56035000D01*
X53582240Y-56035000D01*
X53743560Y-56002911D01*
X53895521Y-55939967D01*
X54032281Y-55848587D01*
X54148587Y-55732281D01*
X54239967Y-55595521D01*
X54302911Y-55443560D01*
X54335000Y-55282240D01*
X54335000Y-55117760D01*
X55265000Y-55117760D01*
X55265000Y-55282240D01*
X55297089Y-55443560D01*
X55360033Y-55595521D01*
X55451413Y-55732281D01*
X55567719Y-55848587D01*
X55704479Y-55939967D01*
X55856440Y-56002911D01*
X56017760Y-56035000D01*
X56182240Y-56035000D01*
X56343560Y-56002911D01*
X56495521Y-55939967D01*
X56632281Y-55848587D01*
X56748587Y-55732281D01*
X56839967Y-55595521D01*
X56902911Y-55443560D01*
X56935000Y-55282240D01*
X56935000Y-55117760D01*
X57865000Y-55117760D01*
X57865000Y-55282240D01*
X57897089Y-55443560D01*
X57960033Y-55595521D01*
X58051413Y-55732281D01*
X58167719Y-55848587D01*
X58304479Y-55939967D01*
X58456440Y-56002911D01*
X58617760Y-56035000D01*
X58782240Y-56035000D01*
X58943560Y-56002911D01*
X59095521Y-55939967D01*
X59232281Y-55848587D01*
X59348587Y-55732281D01*
X59439967Y-55595521D01*
X59502911Y-55443560D01*
X59535000Y-55282240D01*
X59535000Y-55117760D01*
X60465000Y-55117760D01*
X60465000Y-55282240D01*
X60497089Y-55443560D01*
X60560033Y-55595521D01*
X60651413Y-55732281D01*
X60767719Y-55848587D01*
X60904479Y-55939967D01*
X61056440Y-56002911D01*
X61217760Y-56035000D01*
X61382240Y-56035000D01*
X61543560Y-56002911D01*
X61695521Y-55939967D01*
X61832281Y-55848587D01*
X61948587Y-55732281D01*
X62039967Y-55595521D01*
X62102911Y-55443560D01*
X62135000Y-55282240D01*
X62135000Y-55117760D01*
X63065000Y-55117760D01*
X63065000Y-55282240D01*
X63097089Y-55443560D01*
X63160033Y-55595521D01*
X63251413Y-55732281D01*
X63367719Y-55848587D01*
X63504479Y-55939967D01*
X63656440Y-56002911D01*
X63817760Y-56035000D01*
X63982240Y-56035000D01*
X64143560Y-56002911D01*
X64295521Y-55939967D01*
X64432281Y-55848587D01*
X64548587Y-55732281D01*
X64639967Y-55595521D01*
X64702911Y-55443560D01*
X64735000Y-55282240D01*
X64735000Y-55117760D01*
X65665000Y-55117760D01*
X65665000Y-55282240D01*
X65697089Y-55443560D01*
X65760033Y-55595521D01*
X65851413Y-55732281D01*
X65967719Y-55848587D01*
X66104479Y-55939967D01*
X66256440Y-56002911D01*
X66417760Y-56035000D01*
X66582240Y-56035000D01*
X66743560Y-56002911D01*
X66895521Y-55939967D01*
X67032281Y-55848587D01*
X67148587Y-55732281D01*
X67239967Y-55595521D01*
X67302911Y-55443560D01*
X67335000Y-55282240D01*
X67335000Y-55117760D01*
X68265000Y-55117760D01*
X68265000Y-55282240D01*
X68297089Y-55443560D01*
X68360033Y-55595521D01*
X68451413Y-55732281D01*
X68567719Y-55848587D01*
X68704479Y-55939967D01*
X68856440Y-56002911D01*
X69017760Y-56035000D01*
X69182240Y-56035000D01*
X69343560Y-56002911D01*
X69495521Y-55939967D01*
X69632281Y-55848587D01*
X69748587Y-55732281D01*
X69839967Y-55595521D01*
X69902911Y-55443560D01*
X69935000Y-55282240D01*
X69935000Y-55117760D01*
X70865000Y-55117760D01*
X70865000Y-55282240D01*
X70897089Y-55443560D01*
X70960033Y-55595521D01*
X71051413Y-55732281D01*
X71167719Y-55848587D01*
X71304479Y-55939967D01*
X71456440Y-56002911D01*
X71617760Y-56035000D01*
X71782240Y-56035000D01*
X71943560Y-56002911D01*
X72095521Y-55939967D01*
X72232281Y-55848587D01*
X72348587Y-55732281D01*
X72439967Y-55595521D01*
X72502911Y-55443560D01*
X72535000Y-55282240D01*
X72535000Y-55117760D01*
X73465000Y-55117760D01*
X73465000Y-55282240D01*
X73497089Y-55443560D01*
X73560033Y-55595521D01*
X73651413Y-55732281D01*
X73767719Y-55848587D01*
X73904479Y-55939967D01*
X74056440Y-56002911D01*
X74217760Y-56035000D01*
X74382240Y-56035000D01*
X74543560Y-56002911D01*
X74695521Y-55939967D01*
X74832281Y-55848587D01*
X74948587Y-55732281D01*
X75039967Y-55595521D01*
X75102911Y-55443560D01*
X75135000Y-55282240D01*
X75135000Y-55117760D01*
X75102911Y-54956440D01*
X75039967Y-54804479D01*
X74948587Y-54667719D01*
X74832281Y-54551413D01*
X74695521Y-54460033D01*
X74543560Y-54397089D01*
X74382240Y-54365000D01*
X74217760Y-54365000D01*
X74056440Y-54397089D01*
X73904479Y-54460033D01*
X73767719Y-54551413D01*
X73651413Y-54667719D01*
X73560033Y-54804479D01*
X73497089Y-54956440D01*
X73465000Y-55117760D01*
X72535000Y-55117760D01*
X72502911Y-54956440D01*
X72439967Y-54804479D01*
X72348587Y-54667719D01*
X72232281Y-54551413D01*
X72095521Y-54460033D01*
X71943560Y-54397089D01*
X71782240Y-54365000D01*
X71617760Y-54365000D01*
X71456440Y-54397089D01*
X71304479Y-54460033D01*
X71167719Y-54551413D01*
X71051413Y-54667719D01*
X70960033Y-54804479D01*
X70897089Y-54956440D01*
X70865000Y-55117760D01*
X69935000Y-55117760D01*
X69902911Y-54956440D01*
X69839967Y-54804479D01*
X69748587Y-54667719D01*
X69632281Y-54551413D01*
X69495521Y-54460033D01*
X69343560Y-54397089D01*
X69182240Y-54365000D01*
X69017760Y-54365000D01*
X68856440Y-54397089D01*
X68704479Y-54460033D01*
X68567719Y-54551413D01*
X68451413Y-54667719D01*
X68360033Y-54804479D01*
X68297089Y-54956440D01*
X68265000Y-55117760D01*
X67335000Y-55117760D01*
X67302911Y-54956440D01*
X67239967Y-54804479D01*
X67148587Y-54667719D01*
X67032281Y-54551413D01*
X66895521Y-54460033D01*
X66743560Y-54397089D01*
X66582240Y-54365000D01*
X66417760Y-54365000D01*
X66256440Y-54397089D01*
X66104479Y-54460033D01*
X65967719Y-54551413D01*
X65851413Y-54667719D01*
X65760033Y-54804479D01*
X65697089Y-54956440D01*
X65665000Y-55117760D01*
X64735000Y-55117760D01*
X64702911Y-54956440D01*
X64639967Y-54804479D01*
X64548587Y-54667719D01*
X64432281Y-54551413D01*
X64295521Y-54460033D01*
X64143560Y-54397089D01*
X63982240Y-54365000D01*
X63817760Y-54365000D01*
X63656440Y-54397089D01*
X63504479Y-54460033D01*
X63367719Y-54551413D01*
X63251413Y-54667719D01*
X63160033Y-54804479D01*
X63097089Y-54956440D01*
X63065000Y-55117760D01*
X62135000Y-55117760D01*
X62102911Y-54956440D01*
X62039967Y-54804479D01*
X61948587Y-54667719D01*
X61832281Y-54551413D01*
X61695521Y-54460033D01*
X61543560Y-54397089D01*
X61382240Y-54365000D01*
X61217760Y-54365000D01*
X61056440Y-54397089D01*
X60904479Y-54460033D01*
X60767719Y-54551413D01*
X60651413Y-54667719D01*
X60560033Y-54804479D01*
X60497089Y-54956440D01*
X60465000Y-55117760D01*
X59535000Y-55117760D01*
X59502911Y-54956440D01*
X59439967Y-54804479D01*
X59348587Y-54667719D01*
X59232281Y-54551413D01*
X59095521Y-54460033D01*
X58943560Y-54397089D01*
X58782240Y-54365000D01*
X58617760Y-54365000D01*
X58456440Y-54397089D01*
X58304479Y-54460033D01*
X58167719Y-54551413D01*
X58051413Y-54667719D01*
X57960033Y-54804479D01*
X57897089Y-54956440D01*
X57865000Y-55117760D01*
X56935000Y-55117760D01*
X56902911Y-54956440D01*
X56839967Y-54804479D01*
X56748587Y-54667719D01*
X56632281Y-54551413D01*
X56495521Y-54460033D01*
X56343560Y-54397089D01*
X56182240Y-54365000D01*
X56017760Y-54365000D01*
X55856440Y-54397089D01*
X55704479Y-54460033D01*
X55567719Y-54551413D01*
X55451413Y-54667719D01*
X55360033Y-54804479D01*
X55297089Y-54956440D01*
X55265000Y-55117760D01*
X54335000Y-55117760D01*
X54302911Y-54956440D01*
X54239967Y-54804479D01*
X54148587Y-54667719D01*
X54032281Y-54551413D01*
X53895521Y-54460033D01*
X53743560Y-54397089D01*
X53582240Y-54365000D01*
X53417760Y-54365000D01*
X53256440Y-54397089D01*
X53104479Y-54460033D01*
X52967719Y-54551413D01*
X52851413Y-54667719D01*
X52760033Y-54804479D01*
X52697089Y-54956440D01*
X52665000Y-55117760D01*
X51735000Y-55117760D01*
X51702911Y-54956440D01*
X51639967Y-54804479D01*
X51548587Y-54667719D01*
X51432281Y-54551413D01*
X51295521Y-54460033D01*
X51143560Y-54397089D01*
X50982240Y-54365000D01*
X50817760Y-54365000D01*
X50656440Y-54397089D01*
X50504479Y-54460033D01*
X50367719Y-54551413D01*
X50251413Y-54667719D01*
X50160033Y-54804479D01*
X50097089Y-54956440D01*
X50065000Y-55117760D01*
X49135000Y-55117760D01*
X49102911Y-54956440D01*
X49039967Y-54804479D01*
X48948587Y-54667719D01*
X48832281Y-54551413D01*
X48695521Y-54460033D01*
X48543560Y-54397089D01*
X48382240Y-54365000D01*
X48217760Y-54365000D01*
X48056440Y-54397089D01*
X47904479Y-54460033D01*
X47767719Y-54551413D01*
X47651413Y-54667719D01*
X47560033Y-54804479D01*
X47497089Y-54956440D01*
X47465000Y-55117760D01*
X46535000Y-55117760D01*
X46502911Y-54956440D01*
X46439967Y-54804479D01*
X46348587Y-54667719D01*
X46232281Y-54551413D01*
X46095521Y-54460033D01*
X45943560Y-54397089D01*
X45782240Y-54365000D01*
X45617760Y-54365000D01*
X45456440Y-54397089D01*
X45304479Y-54460033D01*
X45167719Y-54551413D01*
X45051413Y-54667719D01*
X44960033Y-54804479D01*
X44897089Y-54956440D01*
X44865000Y-55117760D01*
X40685000Y-55117760D01*
X40685000Y-49917760D01*
X44865000Y-49917760D01*
X44865000Y-50082240D01*
X44897089Y-50243560D01*
X44960033Y-50395521D01*
X45051413Y-50532281D01*
X45167719Y-50648587D01*
X45304479Y-50739967D01*
X45456440Y-50802911D01*
X45617760Y-50835000D01*
X45782240Y-50835000D01*
X45943560Y-50802911D01*
X46095521Y-50739967D01*
X46232281Y-50648587D01*
X46348587Y-50532281D01*
X46439967Y-50395521D01*
X46502911Y-50243560D01*
X46535000Y-50082240D01*
X46535000Y-49917760D01*
X47465000Y-49917760D01*
X47465000Y-50082240D01*
X47497089Y-50243560D01*
X47560033Y-50395521D01*
X47651413Y-50532281D01*
X47767719Y-50648587D01*
X47904479Y-50739967D01*
X48056440Y-50802911D01*
X48217760Y-50835000D01*
X48382240Y-50835000D01*
X48543560Y-50802911D01*
X48695521Y-50739967D01*
X48832281Y-50648587D01*
X48948587Y-50532281D01*
X49039967Y-50395521D01*
X49102911Y-50243560D01*
X49135000Y-50082240D01*
X49135000Y-49917760D01*
X50065000Y-49917760D01*
X50065000Y-50082240D01*
X50097089Y-50243560D01*
X50160033Y-50395521D01*
X50251413Y-50532281D01*
X50367719Y-50648587D01*
X50504479Y-50739967D01*
X50656440Y-50802911D01*
X50817760Y-50835000D01*
X50982240Y-50835000D01*
X51143560Y-50802911D01*
X51295521Y-50739967D01*
X51432281Y-50648587D01*
X51548587Y-50532281D01*
X51639967Y-50395521D01*
X51702911Y-50243560D01*
X51735000Y-50082240D01*
X51735000Y-49917760D01*
X52665000Y-49917760D01*
X52665000Y-50082240D01*
X52697089Y-50243560D01*
X52760033Y-50395521D01*
X52851413Y-50532281D01*
X52967719Y-50648587D01*
X53104479Y-50739967D01*
X53256440Y-50802911D01*
X53417760Y-50835000D01*
X53582240Y-50835000D01*
X53743560Y-50802911D01*
X53895521Y-50739967D01*
X54032281Y-50648587D01*
X54148587Y-50532281D01*
X54239967Y-50395521D01*
X54302911Y-50243560D01*
X54335000Y-50082240D01*
X54335000Y-49917760D01*
X55265000Y-49917760D01*
X55265000Y-50082240D01*
X55297089Y-50243560D01*
X55360033Y-50395521D01*
X55451413Y-50532281D01*
X55567719Y-50648587D01*
X55704479Y-50739967D01*
X55856440Y-50802911D01*
X56017760Y-50835000D01*
X56182240Y-50835000D01*
X56343560Y-50802911D01*
X56495521Y-50739967D01*
X56632281Y-50648587D01*
X56748587Y-50532281D01*
X56839967Y-50395521D01*
X56902911Y-50243560D01*
X56935000Y-50082240D01*
X56935000Y-49917760D01*
X57865000Y-49917760D01*
X57865000Y-50082240D01*
X57897089Y-50243560D01*
X57960033Y-50395521D01*
X58051413Y-50532281D01*
X58167719Y-50648587D01*
X58304479Y-50739967D01*
X58456440Y-50802911D01*
X58617760Y-50835000D01*
X58782240Y-50835000D01*
X58943560Y-50802911D01*
X59095521Y-50739967D01*
X59232281Y-50648587D01*
X59348587Y-50532281D01*
X59439967Y-50395521D01*
X59502911Y-50243560D01*
X59535000Y-50082240D01*
X59535000Y-49917760D01*
X60465000Y-49917760D01*
X60465000Y-50082240D01*
X60497089Y-50243560D01*
X60560033Y-50395521D01*
X60651413Y-50532281D01*
X60767719Y-50648587D01*
X60904479Y-50739967D01*
X61056440Y-50802911D01*
X61217760Y-50835000D01*
X61382240Y-50835000D01*
X61543560Y-50802911D01*
X61695521Y-50739967D01*
X61832281Y-50648587D01*
X61948587Y-50532281D01*
X62039967Y-50395521D01*
X62102911Y-50243560D01*
X62135000Y-50082240D01*
X62135000Y-49917760D01*
X63065000Y-49917760D01*
X63065000Y-50082240D01*
X63097089Y-50243560D01*
X63160033Y-50395521D01*
X63251413Y-50532281D01*
X63367719Y-50648587D01*
X63504479Y-50739967D01*
X63656440Y-50802911D01*
X63817760Y-50835000D01*
X63982240Y-50835000D01*
X64143560Y-50802911D01*
X64295521Y-50739967D01*
X64432281Y-50648587D01*
X64548587Y-50532281D01*
X64639967Y-50395521D01*
X64702911Y-50243560D01*
X64735000Y-50082240D01*
X64735000Y-49917760D01*
X65665000Y-49917760D01*
X65665000Y-50082240D01*
X65697089Y-50243560D01*
X65760033Y-50395521D01*
X65851413Y-50532281D01*
X65967719Y-50648587D01*
X66104479Y-50739967D01*
X66256440Y-50802911D01*
X66417760Y-50835000D01*
X66582240Y-50835000D01*
X66743560Y-50802911D01*
X66895521Y-50739967D01*
X67032281Y-50648587D01*
X67148587Y-50532281D01*
X67239967Y-50395521D01*
X67302911Y-50243560D01*
X67335000Y-50082240D01*
X67335000Y-49917760D01*
X68265000Y-49917760D01*
X68265000Y-50082240D01*
X68297089Y-50243560D01*
X68360033Y-50395521D01*
X68451413Y-50532281D01*
X68567719Y-50648587D01*
X68704479Y-50739967D01*
X68856440Y-50802911D01*
X69017760Y-50835000D01*
X69182240Y-50835000D01*
X69343560Y-50802911D01*
X69495521Y-50739967D01*
X69632281Y-50648587D01*
X69748587Y-50532281D01*
X69839967Y-50395521D01*
X69902911Y-50243560D01*
X69935000Y-50082240D01*
X69935000Y-49917760D01*
X70865000Y-49917760D01*
X70865000Y-50082240D01*
X70897089Y-50243560D01*
X70960033Y-50395521D01*
X71051413Y-50532281D01*
X71167719Y-50648587D01*
X71304479Y-50739967D01*
X71456440Y-50802911D01*
X71617760Y-50835000D01*
X71782240Y-50835000D01*
X71943560Y-50802911D01*
X72095521Y-50739967D01*
X72232281Y-50648587D01*
X72348587Y-50532281D01*
X72439967Y-50395521D01*
X72502911Y-50243560D01*
X72535000Y-50082240D01*
X72535000Y-49917760D01*
X73465000Y-49917760D01*
X73465000Y-50082240D01*
X73497089Y-50243560D01*
X73560033Y-50395521D01*
X73651413Y-50532281D01*
X73767719Y-50648587D01*
X73904479Y-50739967D01*
X74056440Y-50802911D01*
X74217760Y-50835000D01*
X74382240Y-50835000D01*
X74543560Y-50802911D01*
X74695521Y-50739967D01*
X74832281Y-50648587D01*
X74948587Y-50532281D01*
X75039967Y-50395521D01*
X75102911Y-50243560D01*
X75135000Y-50082240D01*
X75135000Y-49917760D01*
X75102911Y-49756440D01*
X75039967Y-49604479D01*
X74948587Y-49467719D01*
X74832281Y-49351413D01*
X74695521Y-49260033D01*
X74543560Y-49197089D01*
X74382240Y-49165000D01*
X74217760Y-49165000D01*
X74056440Y-49197089D01*
X73904479Y-49260033D01*
X73767719Y-49351413D01*
X73651413Y-49467719D01*
X73560033Y-49604479D01*
X73497089Y-49756440D01*
X73465000Y-49917760D01*
X72535000Y-49917760D01*
X72502911Y-49756440D01*
X72439967Y-49604479D01*
X72348587Y-49467719D01*
X72232281Y-49351413D01*
X72095521Y-49260033D01*
X71943560Y-49197089D01*
X71782240Y-49165000D01*
X71617760Y-49165000D01*
X71456440Y-49197089D01*
X71304479Y-49260033D01*
X71167719Y-49351413D01*
X71051413Y-49467719D01*
X70960033Y-49604479D01*
X70897089Y-49756440D01*
X70865000Y-49917760D01*
X69935000Y-49917760D01*
X69902911Y-49756440D01*
X69839967Y-49604479D01*
X69748587Y-49467719D01*
X69632281Y-49351413D01*
X69495521Y-49260033D01*
X69343560Y-49197089D01*
X69182240Y-49165000D01*
X69017760Y-49165000D01*
X68856440Y-49197089D01*
X68704479Y-49260033D01*
X68567719Y-49351413D01*
X68451413Y-49467719D01*
X68360033Y-49604479D01*
X68297089Y-49756440D01*
X68265000Y-49917760D01*
X67335000Y-49917760D01*
X67302911Y-49756440D01*
X67239967Y-49604479D01*
X67148587Y-49467719D01*
X67032281Y-49351413D01*
X66895521Y-49260033D01*
X66743560Y-49197089D01*
X66582240Y-49165000D01*
X66417760Y-49165000D01*
X66256440Y-49197089D01*
X66104479Y-49260033D01*
X65967719Y-49351413D01*
X65851413Y-49467719D01*
X65760033Y-49604479D01*
X65697089Y-49756440D01*
X65665000Y-49917760D01*
X64735000Y-49917760D01*
X64702911Y-49756440D01*
X64639967Y-49604479D01*
X64548587Y-49467719D01*
X64432281Y-49351413D01*
X64295521Y-49260033D01*
X64143560Y-49197089D01*
X63982240Y-49165000D01*
X63817760Y-49165000D01*
X63656440Y-49197089D01*
X63504479Y-49260033D01*
X63367719Y-49351413D01*
X63251413Y-49467719D01*
X63160033Y-49604479D01*
X63097089Y-49756440D01*
X63065000Y-49917760D01*
X62135000Y-49917760D01*
X62102911Y-49756440D01*
X62039967Y-49604479D01*
X61948587Y-49467719D01*
X61832281Y-49351413D01*
X61695521Y-49260033D01*
X61543560Y-49197089D01*
X61382240Y-49165000D01*
X61217760Y-49165000D01*
X61056440Y-49197089D01*
X60904479Y-49260033D01*
X60767719Y-49351413D01*
X60651413Y-49467719D01*
X60560033Y-49604479D01*
X60497089Y-49756440D01*
X60465000Y-49917760D01*
X59535000Y-49917760D01*
X59502911Y-49756440D01*
X59439967Y-49604479D01*
X59348587Y-49467719D01*
X59232281Y-49351413D01*
X59095521Y-49260033D01*
X58943560Y-49197089D01*
X58782240Y-49165000D01*
X58617760Y-49165000D01*
X58456440Y-49197089D01*
X58304479Y-49260033D01*
X58167719Y-49351413D01*
X58051413Y-49467719D01*
X57960033Y-49604479D01*
X57897089Y-49756440D01*
X57865000Y-49917760D01*
X56935000Y-49917760D01*
X56902911Y-49756440D01*
X56839967Y-49604479D01*
X56748587Y-49467719D01*
X56632281Y-49351413D01*
X56495521Y-49260033D01*
X56343560Y-49197089D01*
X56182240Y-49165000D01*
X56017760Y-49165000D01*
X55856440Y-49197089D01*
X55704479Y-49260033D01*
X55567719Y-49351413D01*
X55451413Y-49467719D01*
X55360033Y-49604479D01*
X55297089Y-49756440D01*
X55265000Y-49917760D01*
X54335000Y-49917760D01*
X54302911Y-49756440D01*
X54239967Y-49604479D01*
X54148587Y-49467719D01*
X54032281Y-49351413D01*
X53895521Y-49260033D01*
X53743560Y-49197089D01*
X53582240Y-49165000D01*
X53417760Y-49165000D01*
X53256440Y-49197089D01*
X53104479Y-49260033D01*
X52967719Y-49351413D01*
X52851413Y-49467719D01*
X52760033Y-49604479D01*
X52697089Y-49756440D01*
X52665000Y-49917760D01*
X51735000Y-49917760D01*
X51702911Y-49756440D01*
X51639967Y-49604479D01*
X51548587Y-49467719D01*
X51432281Y-49351413D01*
X51295521Y-49260033D01*
X51143560Y-49197089D01*
X50982240Y-49165000D01*
X50817760Y-49165000D01*
X50656440Y-49197089D01*
X50504479Y-49260033D01*
X50367719Y-49351413D01*
X50251413Y-49467719D01*
X50160033Y-49604479D01*
X50097089Y-49756440D01*
X50065000Y-49917760D01*
X49135000Y-49917760D01*
X49102911Y-49756440D01*
X49039967Y-49604479D01*
X48948587Y-49467719D01*
X48832281Y-49351413D01*
X48695521Y-49260033D01*
X48543560Y-49197089D01*
X48382240Y-49165000D01*
X48217760Y-49165000D01*
X48056440Y-49197089D01*
X47904479Y-49260033D01*
X47767719Y-49351413D01*
X47651413Y-49467719D01*
X47560033Y-49604479D01*
X47497089Y-49756440D01*
X47465000Y-49917760D01*
X46535000Y-49917760D01*
X46502911Y-49756440D01*
X46439967Y-49604479D01*
X46348587Y-49467719D01*
X46232281Y-49351413D01*
X46095521Y-49260033D01*
X45943560Y-49197089D01*
X45782240Y-49165000D01*
X45617760Y-49165000D01*
X45456440Y-49197089D01*
X45304479Y-49260033D01*
X45167719Y-49351413D01*
X45051413Y-49467719D01*
X44960033Y-49604479D01*
X44897089Y-49756440D01*
X44865000Y-49917760D01*
X40685000Y-49917760D01*
X40685000Y-44717760D01*
X44865000Y-44717760D01*
X44865000Y-44882240D01*
X44897089Y-45043560D01*
X44960033Y-45195521D01*
X45051413Y-45332281D01*
X45167719Y-45448587D01*
X45304479Y-45539967D01*
X45456440Y-45602911D01*
X45617760Y-45635000D01*
X45782240Y-45635000D01*
X45943560Y-45602911D01*
X46095521Y-45539967D01*
X46232281Y-45448587D01*
X46348587Y-45332281D01*
X46439967Y-45195521D01*
X46502911Y-45043560D01*
X46535000Y-44882240D01*
X46535000Y-44717760D01*
X47465000Y-44717760D01*
X47465000Y-44882240D01*
X47497089Y-45043560D01*
X47560033Y-45195521D01*
X47651413Y-45332281D01*
X47767719Y-45448587D01*
X47904479Y-45539967D01*
X48056440Y-45602911D01*
X48217760Y-45635000D01*
X48382240Y-45635000D01*
X48543560Y-45602911D01*
X48695521Y-45539967D01*
X48832281Y-45448587D01*
X48948587Y-45332281D01*
X49039967Y-45195521D01*
X49102911Y-45043560D01*
X49135000Y-44882240D01*
X49135000Y-44717760D01*
X50065000Y-44717760D01*
X50065000Y-44882240D01*
X50097089Y-45043560D01*
X50160033Y-45195521D01*
X50251413Y-45332281D01*
X50367719Y-45448587D01*
X50504479Y-45539967D01*
X50656440Y-45602911D01*
X50817760Y-45635000D01*
X50982240Y-45635000D01*
X51143560Y-45602911D01*
X51295521Y-45539967D01*
X51432281Y-45448587D01*
X51548587Y-45332281D01*
X51639967Y-45195521D01*
X51702911Y-45043560D01*
X51735000Y-44882240D01*
X51735000Y-44717760D01*
X52665000Y-44717760D01*
X52665000Y-44882240D01*
X52697089Y-45043560D01*
X52760033Y-45195521D01*
X52851413Y-45332281D01*
X52967719Y-45448587D01*
X53104479Y-45539967D01*
X53256440Y-45602911D01*
X53417760Y-45635000D01*
X53582240Y-45635000D01*
X53743560Y-45602911D01*
X53895521Y-45539967D01*
X54032281Y-45448587D01*
X54148587Y-45332281D01*
X54239967Y-45195521D01*
X54302911Y-45043560D01*
X54335000Y-44882240D01*
X54335000Y-44717760D01*
X55265000Y-44717760D01*
X55265000Y-44882240D01*
X55297089Y-45043560D01*
X55360033Y-45195521D01*
X55451413Y-45332281D01*
X55567719Y-45448587D01*
X55704479Y-45539967D01*
X55856440Y-45602911D01*
X56017760Y-45635000D01*
X56182240Y-45635000D01*
X56343560Y-45602911D01*
X56495521Y-45539967D01*
X56632281Y-45448587D01*
X56748587Y-45332281D01*
X56839967Y-45195521D01*
X56902911Y-45043560D01*
X56935000Y-44882240D01*
X56935000Y-44717760D01*
X57865000Y-44717760D01*
X57865000Y-44882240D01*
X57897089Y-45043560D01*
X57960033Y-45195521D01*
X58051413Y-45332281D01*
X58167719Y-45448587D01*
X58304479Y-45539967D01*
X58456440Y-45602911D01*
X58617760Y-45635000D01*
X58782240Y-45635000D01*
X58943560Y-45602911D01*
X59095521Y-45539967D01*
X59232281Y-45448587D01*
X59348587Y-45332281D01*
X59439967Y-45195521D01*
X59502911Y-45043560D01*
X59535000Y-44882240D01*
X59535000Y-44717760D01*
X60465000Y-44717760D01*
X60465000Y-44882240D01*
X60497089Y-45043560D01*
X60560033Y-45195521D01*
X60651413Y-45332281D01*
X60767719Y-45448587D01*
X60904479Y-45539967D01*
X61056440Y-45602911D01*
X61217760Y-45635000D01*
X61382240Y-45635000D01*
X61543560Y-45602911D01*
X61695521Y-45539967D01*
X61832281Y-45448587D01*
X61948587Y-45332281D01*
X62039967Y-45195521D01*
X62102911Y-45043560D01*
X62135000Y-44882240D01*
X62135000Y-44717760D01*
X63065000Y-44717760D01*
X63065000Y-44882240D01*
X63097089Y-45043560D01*
X63160033Y-45195521D01*
X63251413Y-45332281D01*
X63367719Y-45448587D01*
X63504479Y-45539967D01*
X63656440Y-45602911D01*
X63817760Y-45635000D01*
X63982240Y-45635000D01*
X64143560Y-45602911D01*
X64295521Y-45539967D01*
X64432281Y-45448587D01*
X64548587Y-45332281D01*
X64639967Y-45195521D01*
X64702911Y-45043560D01*
X64735000Y-44882240D01*
X64735000Y-44717760D01*
X65665000Y-44717760D01*
X65665000Y-44882240D01*
X65697089Y-45043560D01*
X65760033Y-45195521D01*
X65851413Y-45332281D01*
X65967719Y-45448587D01*
X66104479Y-45539967D01*
X66256440Y-45602911D01*
X66417760Y-45635000D01*
X66582240Y-45635000D01*
X66743560Y-45602911D01*
X66895521Y-45539967D01*
X67032281Y-45448587D01*
X67148587Y-45332281D01*
X67239967Y-45195521D01*
X67302911Y-45043560D01*
X67335000Y-44882240D01*
X67335000Y-44717760D01*
X68265000Y-44717760D01*
X68265000Y-44882240D01*
X68297089Y-45043560D01*
X68360033Y-45195521D01*
X68451413Y-45332281D01*
X68567719Y-45448587D01*
X68704479Y-45539967D01*
X68856440Y-45602911D01*
X69017760Y-45635000D01*
X69182240Y-45635000D01*
X69343560Y-45602911D01*
X69495521Y-45539967D01*
X69632281Y-45448587D01*
X69748587Y-45332281D01*
X69839967Y-45195521D01*
X69902911Y-45043560D01*
X69935000Y-44882240D01*
X69935000Y-44717760D01*
X70865000Y-44717760D01*
X70865000Y-44882240D01*
X70897089Y-45043560D01*
X70960033Y-45195521D01*
X71051413Y-45332281D01*
X71167719Y-45448587D01*
X71304479Y-45539967D01*
X71456440Y-45602911D01*
X71617760Y-45635000D01*
X71782240Y-45635000D01*
X71943560Y-45602911D01*
X72095521Y-45539967D01*
X72232281Y-45448587D01*
X72348587Y-45332281D01*
X72439967Y-45195521D01*
X72502911Y-45043560D01*
X72535000Y-44882240D01*
X72535000Y-44717760D01*
X73465000Y-44717760D01*
X73465000Y-44882240D01*
X73497089Y-45043560D01*
X73560033Y-45195521D01*
X73651413Y-45332281D01*
X73767719Y-45448587D01*
X73904479Y-45539967D01*
X74056440Y-45602911D01*
X74217760Y-45635000D01*
X74382240Y-45635000D01*
X74543560Y-45602911D01*
X74695521Y-45539967D01*
X74832281Y-45448587D01*
X74948587Y-45332281D01*
X75039967Y-45195521D01*
X75102911Y-45043560D01*
X75135000Y-44882240D01*
X75135000Y-44717760D01*
X75102911Y-44556440D01*
X75039967Y-44404479D01*
X74948587Y-44267719D01*
X74832281Y-44151413D01*
X74695521Y-44060033D01*
X74543560Y-43997089D01*
X74382240Y-43965000D01*
X74217760Y-43965000D01*
X74056440Y-43997089D01*
X73904479Y-44060033D01*
X73767719Y-44151413D01*
X73651413Y-44267719D01*
X73560033Y-44404479D01*
X73497089Y-44556440D01*
X73465000Y-44717760D01*
X72535000Y-44717760D01*
X72502911Y-44556440D01*
X72439967Y-44404479D01*
X72348587Y-44267719D01*
X72232281Y-44151413D01*
X72095521Y-44060033D01*
X71943560Y-43997089D01*
X71782240Y-43965000D01*
X71617760Y-43965000D01*
X71456440Y-43997089D01*
X71304479Y-44060033D01*
X71167719Y-44151413D01*
X71051413Y-44267719D01*
X70960033Y-44404479D01*
X70897089Y-44556440D01*
X70865000Y-44717760D01*
X69935000Y-44717760D01*
X69902911Y-44556440D01*
X69839967Y-44404479D01*
X69748587Y-44267719D01*
X69632281Y-44151413D01*
X69495521Y-44060033D01*
X69343560Y-43997089D01*
X69182240Y-43965000D01*
X69017760Y-43965000D01*
X68856440Y-43997089D01*
X68704479Y-44060033D01*
X68567719Y-44151413D01*
X68451413Y-44267719D01*
X68360033Y-44404479D01*
X68297089Y-44556440D01*
X68265000Y-44717760D01*
X67335000Y-44717760D01*
X67302911Y-44556440D01*
X67239967Y-44404479D01*
X67148587Y-44267719D01*
X67032281Y-44151413D01*
X66895521Y-44060033D01*
X66743560Y-43997089D01*
X66582240Y-43965000D01*
X66417760Y-43965000D01*
X66256440Y-43997089D01*
X66104479Y-44060033D01*
X65967719Y-44151413D01*
X65851413Y-44267719D01*
X65760033Y-44404479D01*
X65697089Y-44556440D01*
X65665000Y-44717760D01*
X64735000Y-44717760D01*
X64702911Y-44556440D01*
X64639967Y-44404479D01*
X64548587Y-44267719D01*
X64432281Y-44151413D01*
X64295521Y-44060033D01*
X64143560Y-43997089D01*
X63982240Y-43965000D01*
X63817760Y-43965000D01*
X63656440Y-43997089D01*
X63504479Y-44060033D01*
X63367719Y-44151413D01*
X63251413Y-44267719D01*
X63160033Y-44404479D01*
X63097089Y-44556440D01*
X63065000Y-44717760D01*
X62135000Y-44717760D01*
X62102911Y-44556440D01*
X62039967Y-44404479D01*
X61948587Y-44267719D01*
X61832281Y-44151413D01*
X61695521Y-44060033D01*
X61543560Y-43997089D01*
X61382240Y-43965000D01*
X61217760Y-43965000D01*
X61056440Y-43997089D01*
X60904479Y-44060033D01*
X60767719Y-44151413D01*
X60651413Y-44267719D01*
X60560033Y-44404479D01*
X60497089Y-44556440D01*
X60465000Y-44717760D01*
X59535000Y-44717760D01*
X59502911Y-44556440D01*
X59439967Y-44404479D01*
X59348587Y-44267719D01*
X59232281Y-44151413D01*
X59095521Y-44060033D01*
X58943560Y-43997089D01*
X58782240Y-43965000D01*
X58617760Y-43965000D01*
X58456440Y-43997089D01*
X58304479Y-44060033D01*
X58167719Y-44151413D01*
X58051413Y-44267719D01*
X57960033Y-44404479D01*
X57897089Y-44556440D01*
X57865000Y-44717760D01*
X56935000Y-44717760D01*
X56902911Y-44556440D01*
X56839967Y-44404479D01*
X56748587Y-44267719D01*
X56632281Y-44151413D01*
X56495521Y-44060033D01*
X56343560Y-43997089D01*
X56182240Y-43965000D01*
X56017760Y-43965000D01*
X55856440Y-43997089D01*
X55704479Y-44060033D01*
X55567719Y-44151413D01*
X55451413Y-44267719D01*
X55360033Y-44404479D01*
X55297089Y-44556440D01*
X55265000Y-44717760D01*
X54335000Y-44717760D01*
X54302911Y-44556440D01*
X54239967Y-44404479D01*
X54148587Y-44267719D01*
X54032281Y-44151413D01*
X53895521Y-44060033D01*
X53743560Y-43997089D01*
X53582240Y-43965000D01*
X53417760Y-43965000D01*
X53256440Y-43997089D01*
X53104479Y-44060033D01*
X52967719Y-44151413D01*
X52851413Y-44267719D01*
X52760033Y-44404479D01*
X52697089Y-44556440D01*
X52665000Y-44717760D01*
X51735000Y-44717760D01*
X51702911Y-44556440D01*
X51639967Y-44404479D01*
X51548587Y-44267719D01*
X51432281Y-44151413D01*
X51295521Y-44060033D01*
X51143560Y-43997089D01*
X50982240Y-43965000D01*
X50817760Y-43965000D01*
X50656440Y-43997089D01*
X50504479Y-44060033D01*
X50367719Y-44151413D01*
X50251413Y-44267719D01*
X50160033Y-44404479D01*
X50097089Y-44556440D01*
X50065000Y-44717760D01*
X49135000Y-44717760D01*
X49102911Y-44556440D01*
X49039967Y-44404479D01*
X48948587Y-44267719D01*
X48832281Y-44151413D01*
X48695521Y-44060033D01*
X48543560Y-43997089D01*
X48382240Y-43965000D01*
X48217760Y-43965000D01*
X48056440Y-43997089D01*
X47904479Y-44060033D01*
X47767719Y-44151413D01*
X47651413Y-44267719D01*
X47560033Y-44404479D01*
X47497089Y-44556440D01*
X47465000Y-44717760D01*
X46535000Y-44717760D01*
X46502911Y-44556440D01*
X46439967Y-44404479D01*
X46348587Y-44267719D01*
X46232281Y-44151413D01*
X46095521Y-44060033D01*
X45943560Y-43997089D01*
X45782240Y-43965000D01*
X45617760Y-43965000D01*
X45456440Y-43997089D01*
X45304479Y-44060033D01*
X45167719Y-44151413D01*
X45051413Y-44267719D01*
X44960033Y-44404479D01*
X44897089Y-44556440D01*
X44865000Y-44717760D01*
X40685000Y-44717760D01*
X40685000Y-39517760D01*
X44865000Y-39517760D01*
X44865000Y-39682240D01*
X44897089Y-39843560D01*
X44960033Y-39995521D01*
X45051413Y-40132281D01*
X45167719Y-40248587D01*
X45304479Y-40339967D01*
X45456440Y-40402911D01*
X45617760Y-40435000D01*
X45782240Y-40435000D01*
X45943560Y-40402911D01*
X46095521Y-40339967D01*
X46232281Y-40248587D01*
X46348587Y-40132281D01*
X46439967Y-39995521D01*
X46502911Y-39843560D01*
X46535000Y-39682240D01*
X46535000Y-39517760D01*
X47465000Y-39517760D01*
X47465000Y-39682240D01*
X47497089Y-39843560D01*
X47560033Y-39995521D01*
X47651413Y-40132281D01*
X47767719Y-40248587D01*
X47904479Y-40339967D01*
X48056440Y-40402911D01*
X48217760Y-40435000D01*
X48382240Y-40435000D01*
X48543560Y-40402911D01*
X48695521Y-40339967D01*
X48832281Y-40248587D01*
X48948587Y-40132281D01*
X49039967Y-39995521D01*
X49102911Y-39843560D01*
X49135000Y-39682240D01*
X49135000Y-39517760D01*
X50065000Y-39517760D01*
X50065000Y-39682240D01*
X50097089Y-39843560D01*
X50160033Y-39995521D01*
X50251413Y-40132281D01*
X50367719Y-40248587D01*
X50504479Y-40339967D01*
X50656440Y-40402911D01*
X50817760Y-40435000D01*
X50982240Y-40435000D01*
X51143560Y-40402911D01*
X51295521Y-40339967D01*
X51432281Y-40248587D01*
X51548587Y-40132281D01*
X51639967Y-39995521D01*
X51702911Y-39843560D01*
X51735000Y-39682240D01*
X51735000Y-39517760D01*
X52665000Y-39517760D01*
X52665000Y-39682240D01*
X52697089Y-39843560D01*
X52760033Y-39995521D01*
X52851413Y-40132281D01*
X52967719Y-40248587D01*
X53104479Y-40339967D01*
X53256440Y-40402911D01*
X53417760Y-40435000D01*
X53582240Y-40435000D01*
X53743560Y-40402911D01*
X53895521Y-40339967D01*
X54032281Y-40248587D01*
X54148587Y-40132281D01*
X54239967Y-39995521D01*
X54302911Y-39843560D01*
X54335000Y-39682240D01*
X54335000Y-39517760D01*
X55265000Y-39517760D01*
X55265000Y-39682240D01*
X55297089Y-39843560D01*
X55360033Y-39995521D01*
X55451413Y-40132281D01*
X55567719Y-40248587D01*
X55704479Y-40339967D01*
X55856440Y-40402911D01*
X56017760Y-40435000D01*
X56182240Y-40435000D01*
X56343560Y-40402911D01*
X56495521Y-40339967D01*
X56632281Y-40248587D01*
X56748587Y-40132281D01*
X56839967Y-39995521D01*
X56902911Y-39843560D01*
X56935000Y-39682240D01*
X56935000Y-39517760D01*
X57865000Y-39517760D01*
X57865000Y-39682240D01*
X57897089Y-39843560D01*
X57960033Y-39995521D01*
X58051413Y-40132281D01*
X58167719Y-40248587D01*
X58304479Y-40339967D01*
X58456440Y-40402911D01*
X58617760Y-40435000D01*
X58782240Y-40435000D01*
X58943560Y-40402911D01*
X59095521Y-40339967D01*
X59232281Y-40248587D01*
X59348587Y-40132281D01*
X59439967Y-39995521D01*
X59502911Y-39843560D01*
X59535000Y-39682240D01*
X59535000Y-39517760D01*
X60465000Y-39517760D01*
X60465000Y-39682240D01*
X60497089Y-39843560D01*
X60560033Y-39995521D01*
X60651413Y-40132281D01*
X60767719Y-40248587D01*
X60904479Y-40339967D01*
X61056440Y-40402911D01*
X61217760Y-40435000D01*
X61382240Y-40435000D01*
X61543560Y-40402911D01*
X61695521Y-40339967D01*
X61832281Y-40248587D01*
X61948587Y-40132281D01*
X62039967Y-39995521D01*
X62102911Y-39843560D01*
X62135000Y-39682240D01*
X62135000Y-39517760D01*
X63065000Y-39517760D01*
X63065000Y-39682240D01*
X63097089Y-39843560D01*
X63160033Y-39995521D01*
X63251413Y-40132281D01*
X63367719Y-40248587D01*
X63504479Y-40339967D01*
X63656440Y-40402911D01*
X63817760Y-40435000D01*
X63982240Y-40435000D01*
X64143560Y-40402911D01*
X64295521Y-40339967D01*
X64432281Y-40248587D01*
X64548587Y-40132281D01*
X64639967Y-39995521D01*
X64702911Y-39843560D01*
X64735000Y-39682240D01*
X64735000Y-39517760D01*
X65665000Y-39517760D01*
X65665000Y-39682240D01*
X65697089Y-39843560D01*
X65760033Y-39995521D01*
X65851413Y-40132281D01*
X65967719Y-40248587D01*
X66104479Y-40339967D01*
X66256440Y-40402911D01*
X66417760Y-40435000D01*
X66582240Y-40435000D01*
X66743560Y-40402911D01*
X66895521Y-40339967D01*
X67032281Y-40248587D01*
X67148587Y-40132281D01*
X67239967Y-39995521D01*
X67302911Y-39843560D01*
X67335000Y-39682240D01*
X67335000Y-39517760D01*
X68265000Y-39517760D01*
X68265000Y-39682240D01*
X68297089Y-39843560D01*
X68360033Y-39995521D01*
X68451413Y-40132281D01*
X68567719Y-40248587D01*
X68704479Y-40339967D01*
X68856440Y-40402911D01*
X69017760Y-40435000D01*
X69182240Y-40435000D01*
X69343560Y-40402911D01*
X69495521Y-40339967D01*
X69632281Y-40248587D01*
X69748587Y-40132281D01*
X69839967Y-39995521D01*
X69902911Y-39843560D01*
X69935000Y-39682240D01*
X69935000Y-39517760D01*
X70865000Y-39517760D01*
X70865000Y-39682240D01*
X70897089Y-39843560D01*
X70960033Y-39995521D01*
X71051413Y-40132281D01*
X71167719Y-40248587D01*
X71304479Y-40339967D01*
X71456440Y-40402911D01*
X71617760Y-40435000D01*
X71782240Y-40435000D01*
X71943560Y-40402911D01*
X72095521Y-40339967D01*
X72232281Y-40248587D01*
X72348587Y-40132281D01*
X72439967Y-39995521D01*
X72502911Y-39843560D01*
X72535000Y-39682240D01*
X72535000Y-39517760D01*
X73465000Y-39517760D01*
X73465000Y-39682240D01*
X73497089Y-39843560D01*
X73560033Y-39995521D01*
X73651413Y-40132281D01*
X73767719Y-40248587D01*
X73904479Y-40339967D01*
X74056440Y-40402911D01*
X74217760Y-40435000D01*
X74382240Y-40435000D01*
X74543560Y-40402911D01*
X74695521Y-40339967D01*
X74832281Y-40248587D01*
X74948587Y-40132281D01*
X75039967Y-39995521D01*
X75102911Y-39843560D01*
X75135000Y-39682240D01*
X75135000Y-39517760D01*
X75102911Y-39356440D01*
X75039967Y-39204479D01*
X74948587Y-39067719D01*
X74832281Y-38951413D01*
X74695521Y-38860033D01*
X74543560Y-38797089D01*
X74382240Y-38765000D01*
X74217760Y-38765000D01*
X74056440Y-38797089D01*
X73904479Y-38860033D01*
X73767719Y-38951413D01*
X73651413Y-39067719D01*
X73560033Y-39204479D01*
X73497089Y-39356440D01*
X73465000Y-39517760D01*
X72535000Y-39517760D01*
X72502911Y-39356440D01*
X72439967Y-39204479D01*
X72348587Y-39067719D01*
X72232281Y-38951413D01*
X72095521Y-38860033D01*
X71943560Y-38797089D01*
X71782240Y-38765000D01*
X71617760Y-38765000D01*
X71456440Y-38797089D01*
X71304479Y-38860033D01*
X71167719Y-38951413D01*
X71051413Y-39067719D01*
X70960033Y-39204479D01*
X70897089Y-39356440D01*
X70865000Y-39517760D01*
X69935000Y-39517760D01*
X69902911Y-39356440D01*
X69839967Y-39204479D01*
X69748587Y-39067719D01*
X69632281Y-38951413D01*
X69495521Y-38860033D01*
X69343560Y-38797089D01*
X69182240Y-38765000D01*
X69017760Y-38765000D01*
X68856440Y-38797089D01*
X68704479Y-38860033D01*
X68567719Y-38951413D01*
X68451413Y-39067719D01*
X68360033Y-39204479D01*
X68297089Y-39356440D01*
X68265000Y-39517760D01*
X67335000Y-39517760D01*
X67302911Y-39356440D01*
X67239967Y-39204479D01*
X67148587Y-39067719D01*
X67032281Y-38951413D01*
X66895521Y-38860033D01*
X66743560Y-38797089D01*
X66582240Y-38765000D01*
X66417760Y-38765000D01*
X66256440Y-38797089D01*
X66104479Y-38860033D01*
X65967719Y-38951413D01*
X65851413Y-39067719D01*
X65760033Y-39204479D01*
X65697089Y-39356440D01*
X65665000Y-39517760D01*
X64735000Y-39517760D01*
X64702911Y-39356440D01*
X64639967Y-39204479D01*
X64548587Y-39067719D01*
X64432281Y-38951413D01*
X64295521Y-38860033D01*
X64143560Y-38797089D01*
X63982240Y-38765000D01*
X63817760Y-38765000D01*
X63656440Y-38797089D01*
X63504479Y-38860033D01*
X63367719Y-38951413D01*
X63251413Y-39067719D01*
X63160033Y-39204479D01*
X63097089Y-39356440D01*
X63065000Y-39517760D01*
X62135000Y-39517760D01*
X62102911Y-39356440D01*
X62039967Y-39204479D01*
X61948587Y-39067719D01*
X61832281Y-38951413D01*
X61695521Y-38860033D01*
X61543560Y-38797089D01*
X61382240Y-38765000D01*
X61217760Y-38765000D01*
X61056440Y-38797089D01*
X60904479Y-38860033D01*
X60767719Y-38951413D01*
X60651413Y-39067719D01*
X60560033Y-39204479D01*
X60497089Y-39356440D01*
X60465000Y-39517760D01*
X59535000Y-39517760D01*
X59502911Y-39356440D01*
X59439967Y-39204479D01*
X59348587Y-39067719D01*
X59232281Y-38951413D01*
X59095521Y-38860033D01*
X58943560Y-38797089D01*
X58782240Y-38765000D01*
X58617760Y-38765000D01*
X58456440Y-38797089D01*
X58304479Y-38860033D01*
X58167719Y-38951413D01*
X58051413Y-39067719D01*
X57960033Y-39204479D01*
X57897089Y-39356440D01*
X57865000Y-39517760D01*
X56935000Y-39517760D01*
X56902911Y-39356440D01*
X56839967Y-39204479D01*
X56748587Y-39067719D01*
X56632281Y-38951413D01*
X56495521Y-38860033D01*
X56343560Y-38797089D01*
X56182240Y-38765000D01*
X56017760Y-38765000D01*
X55856440Y-38797089D01*
X55704479Y-38860033D01*
X55567719Y-38951413D01*
X55451413Y-39067719D01*
X55360033Y-39204479D01*
X55297089Y-39356440D01*
X55265000Y-39517760D01*
X54335000Y-39517760D01*
X54302911Y-39356440D01*
X54239967Y-39204479D01*
X54148587Y-39067719D01*
X54032281Y-38951413D01*
X53895521Y-38860033D01*
X53743560Y-38797089D01*
X53582240Y-38765000D01*
X53417760Y-38765000D01*
X53256440Y-38797089D01*
X53104479Y-38860033D01*
X52967719Y-38951413D01*
X52851413Y-39067719D01*
X52760033Y-39204479D01*
X52697089Y-39356440D01*
X52665000Y-39517760D01*
X51735000Y-39517760D01*
X51702911Y-39356440D01*
X51639967Y-39204479D01*
X51548587Y-39067719D01*
X51432281Y-38951413D01*
X51295521Y-38860033D01*
X51143560Y-38797089D01*
X50982240Y-38765000D01*
X50817760Y-38765000D01*
X50656440Y-38797089D01*
X50504479Y-38860033D01*
X50367719Y-38951413D01*
X50251413Y-39067719D01*
X50160033Y-39204479D01*
X50097089Y-39356440D01*
X50065000Y-39517760D01*
X49135000Y-39517760D01*
X49102911Y-39356440D01*
X49039967Y-39204479D01*
X48948587Y-39067719D01*
X48832281Y-38951413D01*
X48695521Y-38860033D01*
X48543560Y-38797089D01*
X48382240Y-38765000D01*
X48217760Y-38765000D01*
X48056440Y-38797089D01*
X47904479Y-38860033D01*
X47767719Y-38951413D01*
X47651413Y-39067719D01*
X47560033Y-39204479D01*
X47497089Y-39356440D01*
X47465000Y-39517760D01*
X46535000Y-39517760D01*
X46502911Y-39356440D01*
X46439967Y-39204479D01*
X46348587Y-39067719D01*
X46232281Y-38951413D01*
X46095521Y-38860033D01*
X45943560Y-38797089D01*
X45782240Y-38765000D01*
X45617760Y-38765000D01*
X45456440Y-38797089D01*
X45304479Y-38860033D01*
X45167719Y-38951413D01*
X45051413Y-39067719D01*
X44960033Y-39204479D01*
X44897089Y-39356440D01*
X44865000Y-39517760D01*
X40685000Y-39517760D01*
X40685000Y-34631946D01*
X41263081Y-34631946D01*
X41263081Y-35368054D01*
X41406689Y-36090019D01*
X41688386Y-36770095D01*
X42097346Y-37382147D01*
X42617853Y-37902654D01*
X43229905Y-38311614D01*
X43909981Y-38593311D01*
X44631946Y-38736919D01*
X45368054Y-38736919D01*
X46090019Y-38593311D01*
X46770095Y-38311614D01*
X47382147Y-37902654D01*
X47902654Y-37382147D01*
X48311614Y-36770095D01*
X48593311Y-36090019D01*
X48736919Y-35368054D01*
X48736919Y-34631946D01*
X48674424Y-34317760D01*
X50065000Y-34317760D01*
X50065000Y-34482240D01*
X50097089Y-34643560D01*
X50160033Y-34795521D01*
X50251413Y-34932281D01*
X50367719Y-35048587D01*
X50504479Y-35139967D01*
X50656440Y-35202911D01*
X50817760Y-35235000D01*
X50982240Y-35235000D01*
X51143560Y-35202911D01*
X51295521Y-35139967D01*
X51432281Y-35048587D01*
X51548587Y-34932281D01*
X51639967Y-34795521D01*
X51702911Y-34643560D01*
X51735000Y-34482240D01*
X51735000Y-34317760D01*
X52665000Y-34317760D01*
X52665000Y-34482240D01*
X52697089Y-34643560D01*
X52760033Y-34795521D01*
X52851413Y-34932281D01*
X52967719Y-35048587D01*
X53104479Y-35139967D01*
X53256440Y-35202911D01*
X53417760Y-35235000D01*
X53582240Y-35235000D01*
X53743560Y-35202911D01*
X53895521Y-35139967D01*
X54032281Y-35048587D01*
X54148587Y-34932281D01*
X54239967Y-34795521D01*
X54302911Y-34643560D01*
X54335000Y-34482240D01*
X54335000Y-34317760D01*
X55265000Y-34317760D01*
X55265000Y-34482240D01*
X55297089Y-34643560D01*
X55360033Y-34795521D01*
X55451413Y-34932281D01*
X55567719Y-35048587D01*
X55704479Y-35139967D01*
X55856440Y-35202911D01*
X56017760Y-35235000D01*
X56182240Y-35235000D01*
X56343560Y-35202911D01*
X56495521Y-35139967D01*
X56632281Y-35048587D01*
X56748587Y-34932281D01*
X56839967Y-34795521D01*
X56902911Y-34643560D01*
X56935000Y-34482240D01*
X56935000Y-34317760D01*
X57865000Y-34317760D01*
X57865000Y-34482240D01*
X57897089Y-34643560D01*
X57960033Y-34795521D01*
X58051413Y-34932281D01*
X58167719Y-35048587D01*
X58304479Y-35139967D01*
X58456440Y-35202911D01*
X58617760Y-35235000D01*
X58782240Y-35235000D01*
X58943560Y-35202911D01*
X59095521Y-35139967D01*
X59232281Y-35048587D01*
X59348587Y-34932281D01*
X59439967Y-34795521D01*
X59502911Y-34643560D01*
X59535000Y-34482240D01*
X59535000Y-34317760D01*
X60465000Y-34317760D01*
X60465000Y-34482240D01*
X60497089Y-34643560D01*
X60560033Y-34795521D01*
X60651413Y-34932281D01*
X60767719Y-35048587D01*
X60904479Y-35139967D01*
X61056440Y-35202911D01*
X61217760Y-35235000D01*
X61382240Y-35235000D01*
X61543560Y-35202911D01*
X61695521Y-35139967D01*
X61832281Y-35048587D01*
X61948587Y-34932281D01*
X62039967Y-34795521D01*
X62102911Y-34643560D01*
X62135000Y-34482240D01*
X62135000Y-34317760D01*
X63065000Y-34317760D01*
X63065000Y-34482240D01*
X63097089Y-34643560D01*
X63160033Y-34795521D01*
X63251413Y-34932281D01*
X63367719Y-35048587D01*
X63504479Y-35139967D01*
X63656440Y-35202911D01*
X63817760Y-35235000D01*
X63982240Y-35235000D01*
X64143560Y-35202911D01*
X64295521Y-35139967D01*
X64432281Y-35048587D01*
X64548587Y-34932281D01*
X64639967Y-34795521D01*
X64702911Y-34643560D01*
X64735000Y-34482240D01*
X64735000Y-34317760D01*
X65665000Y-34317760D01*
X65665000Y-34482240D01*
X65697089Y-34643560D01*
X65760033Y-34795521D01*
X65851413Y-34932281D01*
X65967719Y-35048587D01*
X66104479Y-35139967D01*
X66256440Y-35202911D01*
X66417760Y-35235000D01*
X66582240Y-35235000D01*
X66743560Y-35202911D01*
X66895521Y-35139967D01*
X67032281Y-35048587D01*
X67148587Y-34932281D01*
X67239967Y-34795521D01*
X67302911Y-34643560D01*
X67335000Y-34482240D01*
X67335000Y-34317760D01*
X68265000Y-34317760D01*
X68265000Y-34482240D01*
X68297089Y-34643560D01*
X68360033Y-34795521D01*
X68451413Y-34932281D01*
X68567719Y-35048587D01*
X68704479Y-35139967D01*
X68856440Y-35202911D01*
X69017760Y-35235000D01*
X69182240Y-35235000D01*
X69343560Y-35202911D01*
X69495521Y-35139967D01*
X69632281Y-35048587D01*
X69748587Y-34932281D01*
X69839967Y-34795521D01*
X69902911Y-34643560D01*
X69905221Y-34631946D01*
X71263081Y-34631946D01*
X71263081Y-35368054D01*
X71406689Y-36090019D01*
X71688386Y-36770095D01*
X72097346Y-37382147D01*
X72617853Y-37902654D01*
X73229905Y-38311614D01*
X73909981Y-38593311D01*
X74631946Y-38736919D01*
X75368054Y-38736919D01*
X76090019Y-38593311D01*
X76770095Y-38311614D01*
X77382147Y-37902654D01*
X77902654Y-37382147D01*
X78311614Y-36770095D01*
X78593311Y-36090019D01*
X78736919Y-35368054D01*
X78736919Y-34631946D01*
X78593311Y-33909981D01*
X78311614Y-33229905D01*
X77902654Y-32617853D01*
X77382147Y-32097346D01*
X76770095Y-31688386D01*
X76090019Y-31406689D01*
X75368054Y-31263081D01*
X74631946Y-31263081D01*
X73909981Y-31406689D01*
X73229905Y-31688386D01*
X72617853Y-32097346D01*
X72097346Y-32617853D01*
X71688386Y-33229905D01*
X71406689Y-33909981D01*
X71263081Y-34631946D01*
X69905221Y-34631946D01*
X69935000Y-34482240D01*
X69935000Y-34317760D01*
X69902911Y-34156440D01*
X69839967Y-34004479D01*
X69748587Y-33867719D01*
X69632281Y-33751413D01*
X69495521Y-33660033D01*
X69343560Y-33597089D01*
X69182240Y-33565000D01*
X69017760Y-33565000D01*
X68856440Y-33597089D01*
X68704479Y-33660033D01*
X68567719Y-33751413D01*
X68451413Y-33867719D01*
X68360033Y-34004479D01*
X68297089Y-34156440D01*
X68265000Y-34317760D01*
X67335000Y-34317760D01*
X67302911Y-34156440D01*
X67239967Y-34004479D01*
X67148587Y-33867719D01*
X67032281Y-33751413D01*
X66895521Y-33660033D01*
X66743560Y-33597089D01*
X66582240Y-33565000D01*
X66417760Y-33565000D01*
X66256440Y-33597089D01*
X66104479Y-33660033D01*
X65967719Y-33751413D01*
X65851413Y-33867719D01*
X65760033Y-34004479D01*
X65697089Y-34156440D01*
X65665000Y-34317760D01*
X64735000Y-34317760D01*
X64702911Y-34156440D01*
X64639967Y-34004479D01*
X64548587Y-33867719D01*
X64432281Y-33751413D01*
X64295521Y-33660033D01*
X64143560Y-33597089D01*
X63982240Y-33565000D01*
X63817760Y-33565000D01*
X63656440Y-33597089D01*
X63504479Y-33660033D01*
X63367719Y-33751413D01*
X63251413Y-33867719D01*
X63160033Y-34004479D01*
X63097089Y-34156440D01*
X63065000Y-34317760D01*
X62135000Y-34317760D01*
X62102911Y-34156440D01*
X62039967Y-34004479D01*
X61948587Y-33867719D01*
X61832281Y-33751413D01*
X61695521Y-33660033D01*
X61543560Y-33597089D01*
X61382240Y-33565000D01*
X61217760Y-33565000D01*
X61056440Y-33597089D01*
X60904479Y-33660033D01*
X60767719Y-33751413D01*
X60651413Y-33867719D01*
X60560033Y-34004479D01*
X60497089Y-34156440D01*
X60465000Y-34317760D01*
X59535000Y-34317760D01*
X59502911Y-34156440D01*
X59439967Y-34004479D01*
X59348587Y-33867719D01*
X59232281Y-33751413D01*
X59095521Y-33660033D01*
X58943560Y-33597089D01*
X58782240Y-33565000D01*
X58617760Y-33565000D01*
X58456440Y-33597089D01*
X58304479Y-33660033D01*
X58167719Y-33751413D01*
X58051413Y-33867719D01*
X57960033Y-34004479D01*
X57897089Y-34156440D01*
X57865000Y-34317760D01*
X56935000Y-34317760D01*
X56902911Y-34156440D01*
X56839967Y-34004479D01*
X56748587Y-33867719D01*
X56632281Y-33751413D01*
X56495521Y-33660033D01*
X56343560Y-33597089D01*
X56182240Y-33565000D01*
X56017760Y-33565000D01*
X55856440Y-33597089D01*
X55704479Y-33660033D01*
X55567719Y-33751413D01*
X55451413Y-33867719D01*
X55360033Y-34004479D01*
X55297089Y-34156440D01*
X55265000Y-34317760D01*
X54335000Y-34317760D01*
X54302911Y-34156440D01*
X54239967Y-34004479D01*
X54148587Y-33867719D01*
X54032281Y-33751413D01*
X53895521Y-33660033D01*
X53743560Y-33597089D01*
X53582240Y-33565000D01*
X53417760Y-33565000D01*
X53256440Y-33597089D01*
X53104479Y-33660033D01*
X52967719Y-33751413D01*
X52851413Y-33867719D01*
X52760033Y-34004479D01*
X52697089Y-34156440D01*
X52665000Y-34317760D01*
X51735000Y-34317760D01*
X51702911Y-34156440D01*
X51639967Y-34004479D01*
X51548587Y-33867719D01*
X51432281Y-33751413D01*
X51295521Y-33660033D01*
X51143560Y-33597089D01*
X50982240Y-33565000D01*
X50817760Y-33565000D01*
X50656440Y-33597089D01*
X50504479Y-33660033D01*
X50367719Y-33751413D01*
X50251413Y-33867719D01*
X50160033Y-34004479D01*
X50097089Y-34156440D01*
X50065000Y-34317760D01*
X48674424Y-34317760D01*
X48593311Y-33909981D01*
X48311614Y-33229905D01*
X47902654Y-32617853D01*
X47382147Y-32097346D01*
X46770095Y-31688386D01*
X46090019Y-31406689D01*
X45368054Y-31263081D01*
X44631946Y-31263081D01*
X43909981Y-31406689D01*
X43229905Y-31688386D01*
X42617853Y-32097346D01*
X42097346Y-32617853D01*
X41688386Y-33229905D01*
X41406689Y-33909981D01*
X41263081Y-34631946D01*
X40685000Y-34631946D01*
X40685000Y-28118061D01*
X57065000Y-28118061D01*
X57065000Y-28321939D01*
X57104774Y-28521898D01*
X57182795Y-28710256D01*
X57296063Y-28879774D01*
X57440226Y-29023937D01*
X57609744Y-29137205D01*
X57798102Y-29215226D01*
X57998061Y-29255000D01*
X58201939Y-29255000D01*
X58401898Y-29215226D01*
X58590256Y-29137205D01*
X58759774Y-29023937D01*
X58903937Y-28879774D01*
X59017205Y-28710256D01*
X59095226Y-28521898D01*
X59135000Y-28321939D01*
X59135000Y-28118061D01*
X59133011Y-28108061D01*
X60075000Y-28108061D01*
X60075000Y-28311939D01*
X60114774Y-28511898D01*
X60192795Y-28700256D01*
X60306063Y-28869774D01*
X60450226Y-29013937D01*
X60619744Y-29127205D01*
X60808102Y-29205226D01*
X61008061Y-29245000D01*
X61211939Y-29245000D01*
X61411898Y-29205226D01*
X61600256Y-29127205D01*
X61769774Y-29013937D01*
X61913937Y-28869774D01*
X62027205Y-28700256D01*
X62105226Y-28511898D01*
X62145000Y-28311939D01*
X62145000Y-28108061D01*
X62141022Y-28088061D01*
X63095000Y-28088061D01*
X63095000Y-28291939D01*
X63134774Y-28491898D01*
X63212795Y-28680256D01*
X63326063Y-28849774D01*
X63470226Y-28993937D01*
X63639744Y-29107205D01*
X63828102Y-29185226D01*
X64028061Y-29225000D01*
X64231939Y-29225000D01*
X64431898Y-29185226D01*
X64620256Y-29107205D01*
X64789774Y-28993937D01*
X64933937Y-28849774D01*
X65047205Y-28680256D01*
X65125226Y-28491898D01*
X65165000Y-28291939D01*
X65165000Y-28088061D01*
X65125226Y-27888102D01*
X65047205Y-27699744D01*
X64933937Y-27530226D01*
X64789774Y-27386063D01*
X64620256Y-27272795D01*
X64431898Y-27194774D01*
X64231939Y-27155000D01*
X64028061Y-27155000D01*
X63828102Y-27194774D01*
X63639744Y-27272795D01*
X63470226Y-27386063D01*
X63326063Y-27530226D01*
X63212795Y-27699744D01*
X63134774Y-27888102D01*
X63095000Y-28088061D01*
X62141022Y-28088061D01*
X62105226Y-27908102D01*
X62027205Y-27719744D01*
X61913937Y-27550226D01*
X61769774Y-27406063D01*
X61600256Y-27292795D01*
X61411898Y-27214774D01*
X61211939Y-27175000D01*
X61008061Y-27175000D01*
X60808102Y-27214774D01*
X60619744Y-27292795D01*
X60450226Y-27406063D01*
X60306063Y-27550226D01*
X60192795Y-27719744D01*
X60114774Y-27908102D01*
X60075000Y-28108061D01*
X59133011Y-28108061D01*
X59095226Y-27918102D01*
X59017205Y-27729744D01*
X58903937Y-27560226D01*
X58759774Y-27416063D01*
X58590256Y-27302795D01*
X58401898Y-27224774D01*
X58201939Y-27185000D01*
X57998061Y-27185000D01*
X57798102Y-27224774D01*
X57609744Y-27302795D01*
X57440226Y-27416063D01*
X57296063Y-27560226D01*
X57182795Y-27729744D01*
X57104774Y-27918102D01*
X57065000Y-28118061D01*
X40685000Y-28118061D01*
X40685000Y-25033505D01*
X40732312Y-24550984D01*
X40808673Y-24298061D01*
X43565000Y-24298061D01*
X43565000Y-24501939D01*
X43604774Y-24701898D01*
X43682795Y-24890256D01*
X43796063Y-25059774D01*
X43940226Y-25203937D01*
X44109744Y-25317205D01*
X44298102Y-25395226D01*
X44498061Y-25435000D01*
X44701939Y-25435000D01*
X44901898Y-25395226D01*
X45090256Y-25317205D01*
X45259774Y-25203937D01*
X45403937Y-25059774D01*
X45517205Y-24890256D01*
X45595226Y-24701898D01*
X45635000Y-24501939D01*
X45635000Y-24298061D01*
X47565000Y-24298061D01*
X47565000Y-24501939D01*
X47604774Y-24701898D01*
X47682795Y-24890256D01*
X47796063Y-25059774D01*
X47940226Y-25203937D01*
X48109744Y-25317205D01*
X48298102Y-25395226D01*
X48498061Y-25435000D01*
X48701939Y-25435000D01*
X48901898Y-25395226D01*
X49090256Y-25317205D01*
X49259774Y-25203937D01*
X49403937Y-25059774D01*
X49517205Y-24890256D01*
X49595226Y-24701898D01*
X49635000Y-24501939D01*
X49635000Y-24298061D01*
X70965000Y-24298061D01*
X70965000Y-24501939D01*
X71004774Y-24701898D01*
X71082795Y-24890256D01*
X71196063Y-25059774D01*
X71340226Y-25203937D01*
X71509744Y-25317205D01*
X71698102Y-25395226D01*
X71898061Y-25435000D01*
X72101939Y-25435000D01*
X72301898Y-25395226D01*
X72490256Y-25317205D01*
X72659774Y-25203937D01*
X72803937Y-25059774D01*
X72917205Y-24890256D01*
X72995226Y-24701898D01*
X73035000Y-24501939D01*
X73035000Y-24298061D01*
X74965000Y-24298061D01*
X74965000Y-24501939D01*
X75004774Y-24701898D01*
X75082795Y-24890256D01*
X75196063Y-25059774D01*
X75340226Y-25203937D01*
X75509744Y-25317205D01*
X75698102Y-25395226D01*
X75898061Y-25435000D01*
X76101939Y-25435000D01*
X76301898Y-25395226D01*
X76490256Y-25317205D01*
X76659774Y-25203937D01*
X76803937Y-25059774D01*
X76917205Y-24890256D01*
X76995226Y-24701898D01*
X77035000Y-24501939D01*
X77035000Y-24298061D01*
X76995226Y-24098102D01*
X76917205Y-23909744D01*
X76803937Y-23740226D01*
X76659774Y-23596063D01*
X76490256Y-23482795D01*
X76301898Y-23404774D01*
X76101939Y-23365000D01*
X75898061Y-23365000D01*
X75698102Y-23404774D01*
X75509744Y-23482795D01*
X75340226Y-23596063D01*
X75196063Y-23740226D01*
X75082795Y-23909744D01*
X75004774Y-24098102D01*
X74965000Y-24298061D01*
X73035000Y-24298061D01*
X72995226Y-24098102D01*
X72917205Y-23909744D01*
X72803937Y-23740226D01*
X72659774Y-23596063D01*
X72490256Y-23482795D01*
X72301898Y-23404774D01*
X72101939Y-23365000D01*
X71898061Y-23365000D01*
X71698102Y-23404774D01*
X71509744Y-23482795D01*
X71340226Y-23596063D01*
X71196063Y-23740226D01*
X71082795Y-23909744D01*
X71004774Y-24098102D01*
X70965000Y-24298061D01*
X49635000Y-24298061D01*
X49595226Y-24098102D01*
X49517205Y-23909744D01*
X49403937Y-23740226D01*
X49259774Y-23596063D01*
X49090256Y-23482795D01*
X48901898Y-23404774D01*
X48701939Y-23365000D01*
X48498061Y-23365000D01*
X48298102Y-23404774D01*
X48109744Y-23482795D01*
X47940226Y-23596063D01*
X47796063Y-23740226D01*
X47682795Y-23909744D01*
X47604774Y-24098102D01*
X47565000Y-24298061D01*
X45635000Y-24298061D01*
X45595226Y-24098102D01*
X45517205Y-23909744D01*
X45403937Y-23740226D01*
X45259774Y-23596063D01*
X45090256Y-23482795D01*
X44901898Y-23404774D01*
X44701939Y-23365000D01*
X44498061Y-23365000D01*
X44298102Y-23404774D01*
X44109744Y-23482795D01*
X43940226Y-23596063D01*
X43796063Y-23740226D01*
X43682795Y-23909744D01*
X43604774Y-24098102D01*
X43565000Y-24298061D01*
X40808673Y-24298061D01*
X40862714Y-24119070D01*
X41074524Y-23720715D01*
X41359675Y-23371086D01*
X41707303Y-23083503D01*
X42104177Y-22868914D01*
X42535161Y-22735502D01*
X43015654Y-22685000D01*
X76966495Y-22685000D01*
X77449016Y-22732312D01*
G04 #@! TA.AperFunction,Conductor*
D13*
G36*
X77449016Y-22732312D02*
G01*
X77880930Y-22862714D01*
X78279285Y-23074524D01*
X78628914Y-23359675D01*
X78916497Y-23707303D01*
X79131086Y-24104177D01*
X79264498Y-24535161D01*
X79315000Y-25015654D01*
X79315001Y-66966485D01*
X79267688Y-67449016D01*
X79137287Y-67880927D01*
X78925480Y-68279280D01*
X78640325Y-68628914D01*
X78292697Y-68916497D01*
X77895825Y-69131085D01*
X77464834Y-69264500D01*
X76984346Y-69315000D01*
X43033504Y-69315000D01*
X42550984Y-69267688D01*
X42119073Y-69137287D01*
X41720720Y-68925480D01*
X41371086Y-68640325D01*
X41083503Y-68292697D01*
X40868915Y-67895825D01*
X40735500Y-67464834D01*
X40685000Y-66984346D01*
X40685000Y-64631946D01*
X41263081Y-64631946D01*
X41263081Y-65368054D01*
X41406689Y-66090019D01*
X41688386Y-66770095D01*
X42097346Y-67382147D01*
X42617853Y-67902654D01*
X43229905Y-68311614D01*
X43909981Y-68593311D01*
X44631946Y-68736919D01*
X45368054Y-68736919D01*
X46090019Y-68593311D01*
X46770095Y-68311614D01*
X47382147Y-67902654D01*
X47902654Y-67382147D01*
X48311614Y-66770095D01*
X48593311Y-66090019D01*
X48707140Y-65517760D01*
X50065000Y-65517760D01*
X50065000Y-65682240D01*
X50097089Y-65843560D01*
X50160033Y-65995521D01*
X50251413Y-66132281D01*
X50367719Y-66248587D01*
X50504479Y-66339967D01*
X50656440Y-66402911D01*
X50817760Y-66435000D01*
X50982240Y-66435000D01*
X51143560Y-66402911D01*
X51295521Y-66339967D01*
X51432281Y-66248587D01*
X51548587Y-66132281D01*
X51639967Y-65995521D01*
X51702911Y-65843560D01*
X51735000Y-65682240D01*
X51735000Y-65517760D01*
X52665000Y-65517760D01*
X52665000Y-65682240D01*
X52697089Y-65843560D01*
X52760033Y-65995521D01*
X52851413Y-66132281D01*
X52967719Y-66248587D01*
X53104479Y-66339967D01*
X53256440Y-66402911D01*
X53417760Y-66435000D01*
X53582240Y-66435000D01*
X53743560Y-66402911D01*
X53895521Y-66339967D01*
X54032281Y-66248587D01*
X54148587Y-66132281D01*
X54239967Y-65995521D01*
X54302911Y-65843560D01*
X54335000Y-65682240D01*
X54335000Y-65517760D01*
X55265000Y-65517760D01*
X55265000Y-65682240D01*
X55297089Y-65843560D01*
X55360033Y-65995521D01*
X55451413Y-66132281D01*
X55567719Y-66248587D01*
X55704479Y-66339967D01*
X55856440Y-66402911D01*
X56017760Y-66435000D01*
X56182240Y-66435000D01*
X56343560Y-66402911D01*
X56495521Y-66339967D01*
X56632281Y-66248587D01*
X56748587Y-66132281D01*
X56839967Y-65995521D01*
X56902911Y-65843560D01*
X56935000Y-65682240D01*
X56935000Y-65517760D01*
X57865000Y-65517760D01*
X57865000Y-65682240D01*
X57897089Y-65843560D01*
X57960033Y-65995521D01*
X58051413Y-66132281D01*
X58167719Y-66248587D01*
X58304479Y-66339967D01*
X58456440Y-66402911D01*
X58617760Y-66435000D01*
X58782240Y-66435000D01*
X58943560Y-66402911D01*
X59095521Y-66339967D01*
X59232281Y-66248587D01*
X59348587Y-66132281D01*
X59439967Y-65995521D01*
X59502911Y-65843560D01*
X59535000Y-65682240D01*
X59535000Y-65517760D01*
X60465000Y-65517760D01*
X60465000Y-65682240D01*
X60497089Y-65843560D01*
X60560033Y-65995521D01*
X60651413Y-66132281D01*
X60767719Y-66248587D01*
X60904479Y-66339967D01*
X61056440Y-66402911D01*
X61217760Y-66435000D01*
X61382240Y-66435000D01*
X61543560Y-66402911D01*
X61695521Y-66339967D01*
X61832281Y-66248587D01*
X61948587Y-66132281D01*
X62039967Y-65995521D01*
X62102911Y-65843560D01*
X62135000Y-65682240D01*
X62135000Y-65517760D01*
X63065000Y-65517760D01*
X63065000Y-65682240D01*
X63097089Y-65843560D01*
X63160033Y-65995521D01*
X63251413Y-66132281D01*
X63367719Y-66248587D01*
X63504479Y-66339967D01*
X63656440Y-66402911D01*
X63817760Y-66435000D01*
X63982240Y-66435000D01*
X64143560Y-66402911D01*
X64295521Y-66339967D01*
X64432281Y-66248587D01*
X64548587Y-66132281D01*
X64639967Y-65995521D01*
X64702911Y-65843560D01*
X64735000Y-65682240D01*
X64735000Y-65517760D01*
X65665000Y-65517760D01*
X65665000Y-65682240D01*
X65697089Y-65843560D01*
X65760033Y-65995521D01*
X65851413Y-66132281D01*
X65967719Y-66248587D01*
X66104479Y-66339967D01*
X66256440Y-66402911D01*
X66417760Y-66435000D01*
X66582240Y-66435000D01*
X66743560Y-66402911D01*
X66895521Y-66339967D01*
X67032281Y-66248587D01*
X67148587Y-66132281D01*
X67239967Y-65995521D01*
X67302911Y-65843560D01*
X67335000Y-65682240D01*
X67335000Y-65517760D01*
X68265000Y-65517760D01*
X68265000Y-65682240D01*
X68297089Y-65843560D01*
X68360033Y-65995521D01*
X68451413Y-66132281D01*
X68567719Y-66248587D01*
X68704479Y-66339967D01*
X68856440Y-66402911D01*
X69017760Y-66435000D01*
X69182240Y-66435000D01*
X69343560Y-66402911D01*
X69495521Y-66339967D01*
X69632281Y-66248587D01*
X69748587Y-66132281D01*
X69839967Y-65995521D01*
X69902911Y-65843560D01*
X69935000Y-65682240D01*
X69935000Y-65517760D01*
X69902911Y-65356440D01*
X69839967Y-65204479D01*
X69748587Y-65067719D01*
X69632281Y-64951413D01*
X69495521Y-64860033D01*
X69343560Y-64797089D01*
X69182240Y-64765000D01*
X69017760Y-64765000D01*
X68856440Y-64797089D01*
X68704479Y-64860033D01*
X68567719Y-64951413D01*
X68451413Y-65067719D01*
X68360033Y-65204479D01*
X68297089Y-65356440D01*
X68265000Y-65517760D01*
X67335000Y-65517760D01*
X67302911Y-65356440D01*
X67239967Y-65204479D01*
X67148587Y-65067719D01*
X67032281Y-64951413D01*
X66895521Y-64860033D01*
X66743560Y-64797089D01*
X66582240Y-64765000D01*
X66417760Y-64765000D01*
X66256440Y-64797089D01*
X66104479Y-64860033D01*
X65967719Y-64951413D01*
X65851413Y-65067719D01*
X65760033Y-65204479D01*
X65697089Y-65356440D01*
X65665000Y-65517760D01*
X64735000Y-65517760D01*
X64702911Y-65356440D01*
X64639967Y-65204479D01*
X64548587Y-65067719D01*
X64432281Y-64951413D01*
X64295521Y-64860033D01*
X64143560Y-64797089D01*
X63982240Y-64765000D01*
X63817760Y-64765000D01*
X63656440Y-64797089D01*
X63504479Y-64860033D01*
X63367719Y-64951413D01*
X63251413Y-65067719D01*
X63160033Y-65204479D01*
X63097089Y-65356440D01*
X63065000Y-65517760D01*
X62135000Y-65517760D01*
X62102911Y-65356440D01*
X62039967Y-65204479D01*
X61948587Y-65067719D01*
X61832281Y-64951413D01*
X61695521Y-64860033D01*
X61543560Y-64797089D01*
X61382240Y-64765000D01*
X61217760Y-64765000D01*
X61056440Y-64797089D01*
X60904479Y-64860033D01*
X60767719Y-64951413D01*
X60651413Y-65067719D01*
X60560033Y-65204479D01*
X60497089Y-65356440D01*
X60465000Y-65517760D01*
X59535000Y-65517760D01*
X59502911Y-65356440D01*
X59439967Y-65204479D01*
X59348587Y-65067719D01*
X59232281Y-64951413D01*
X59095521Y-64860033D01*
X58943560Y-64797089D01*
X58782240Y-64765000D01*
X58617760Y-64765000D01*
X58456440Y-64797089D01*
X58304479Y-64860033D01*
X58167719Y-64951413D01*
X58051413Y-65067719D01*
X57960033Y-65204479D01*
X57897089Y-65356440D01*
X57865000Y-65517760D01*
X56935000Y-65517760D01*
X56902911Y-65356440D01*
X56839967Y-65204479D01*
X56748587Y-65067719D01*
X56632281Y-64951413D01*
X56495521Y-64860033D01*
X56343560Y-64797089D01*
X56182240Y-64765000D01*
X56017760Y-64765000D01*
X55856440Y-64797089D01*
X55704479Y-64860033D01*
X55567719Y-64951413D01*
X55451413Y-65067719D01*
X55360033Y-65204479D01*
X55297089Y-65356440D01*
X55265000Y-65517760D01*
X54335000Y-65517760D01*
X54302911Y-65356440D01*
X54239967Y-65204479D01*
X54148587Y-65067719D01*
X54032281Y-64951413D01*
X53895521Y-64860033D01*
X53743560Y-64797089D01*
X53582240Y-64765000D01*
X53417760Y-64765000D01*
X53256440Y-64797089D01*
X53104479Y-64860033D01*
X52967719Y-64951413D01*
X52851413Y-65067719D01*
X52760033Y-65204479D01*
X52697089Y-65356440D01*
X52665000Y-65517760D01*
X51735000Y-65517760D01*
X51702911Y-65356440D01*
X51639967Y-65204479D01*
X51548587Y-65067719D01*
X51432281Y-64951413D01*
X51295521Y-64860033D01*
X51143560Y-64797089D01*
X50982240Y-64765000D01*
X50817760Y-64765000D01*
X50656440Y-64797089D01*
X50504479Y-64860033D01*
X50367719Y-64951413D01*
X50251413Y-65067719D01*
X50160033Y-65204479D01*
X50097089Y-65356440D01*
X50065000Y-65517760D01*
X48707140Y-65517760D01*
X48736919Y-65368054D01*
X48736919Y-64631946D01*
X71263081Y-64631946D01*
X71263081Y-65368054D01*
X71406689Y-66090019D01*
X71688386Y-66770095D01*
X72097346Y-67382147D01*
X72617853Y-67902654D01*
X73229905Y-68311614D01*
X73909981Y-68593311D01*
X74631946Y-68736919D01*
X75368054Y-68736919D01*
X76090019Y-68593311D01*
X76770095Y-68311614D01*
X77382147Y-67902654D01*
X77902654Y-67382147D01*
X78311614Y-66770095D01*
X78593311Y-66090019D01*
X78736919Y-65368054D01*
X78736919Y-64631946D01*
X78593311Y-63909981D01*
X78311614Y-63229905D01*
X77902654Y-62617853D01*
X77382147Y-62097346D01*
X76770095Y-61688386D01*
X76090019Y-61406689D01*
X75368054Y-61263081D01*
X74631946Y-61263081D01*
X73909981Y-61406689D01*
X73229905Y-61688386D01*
X72617853Y-62097346D01*
X72097346Y-62617853D01*
X71688386Y-63229905D01*
X71406689Y-63909981D01*
X71263081Y-64631946D01*
X48736919Y-64631946D01*
X48593311Y-63909981D01*
X48311614Y-63229905D01*
X47902654Y-62617853D01*
X47382147Y-62097346D01*
X46770095Y-61688386D01*
X46090019Y-61406689D01*
X45368054Y-61263081D01*
X44631946Y-61263081D01*
X43909981Y-61406689D01*
X43229905Y-61688386D01*
X42617853Y-62097346D01*
X42097346Y-62617853D01*
X41688386Y-63229905D01*
X41406689Y-63909981D01*
X41263081Y-64631946D01*
X40685000Y-64631946D01*
X40685000Y-60317760D01*
X44865000Y-60317760D01*
X44865000Y-60482240D01*
X44897089Y-60643560D01*
X44960033Y-60795521D01*
X45051413Y-60932281D01*
X45167719Y-61048587D01*
X45304479Y-61139967D01*
X45456440Y-61202911D01*
X45617760Y-61235000D01*
X45782240Y-61235000D01*
X45943560Y-61202911D01*
X46095521Y-61139967D01*
X46232281Y-61048587D01*
X46348587Y-60932281D01*
X46439967Y-60795521D01*
X46502911Y-60643560D01*
X46535000Y-60482240D01*
X46535000Y-60317760D01*
X47465000Y-60317760D01*
X47465000Y-60482240D01*
X47497089Y-60643560D01*
X47560033Y-60795521D01*
X47651413Y-60932281D01*
X47767719Y-61048587D01*
X47904479Y-61139967D01*
X48056440Y-61202911D01*
X48217760Y-61235000D01*
X48382240Y-61235000D01*
X48543560Y-61202911D01*
X48695521Y-61139967D01*
X48832281Y-61048587D01*
X48948587Y-60932281D01*
X49039967Y-60795521D01*
X49102911Y-60643560D01*
X49135000Y-60482240D01*
X49135000Y-60317760D01*
X50065000Y-60317760D01*
X50065000Y-60482240D01*
X50097089Y-60643560D01*
X50160033Y-60795521D01*
X50251413Y-60932281D01*
X50367719Y-61048587D01*
X50504479Y-61139967D01*
X50656440Y-61202911D01*
X50817760Y-61235000D01*
X50982240Y-61235000D01*
X51143560Y-61202911D01*
X51295521Y-61139967D01*
X51432281Y-61048587D01*
X51548587Y-60932281D01*
X51639967Y-60795521D01*
X51702911Y-60643560D01*
X51735000Y-60482240D01*
X51735000Y-60317760D01*
X52665000Y-60317760D01*
X52665000Y-60482240D01*
X52697089Y-60643560D01*
X52760033Y-60795521D01*
X52851413Y-60932281D01*
X52967719Y-61048587D01*
X53104479Y-61139967D01*
X53256440Y-61202911D01*
X53417760Y-61235000D01*
X53582240Y-61235000D01*
X53743560Y-61202911D01*
X53895521Y-61139967D01*
X54032281Y-61048587D01*
X54148587Y-60932281D01*
X54239967Y-60795521D01*
X54302911Y-60643560D01*
X54335000Y-60482240D01*
X54335000Y-60317760D01*
X55265000Y-60317760D01*
X55265000Y-60482240D01*
X55297089Y-60643560D01*
X55360033Y-60795521D01*
X55451413Y-60932281D01*
X55567719Y-61048587D01*
X55704479Y-61139967D01*
X55856440Y-61202911D01*
X56017760Y-61235000D01*
X56182240Y-61235000D01*
X56343560Y-61202911D01*
X56495521Y-61139967D01*
X56632281Y-61048587D01*
X56748587Y-60932281D01*
X56839967Y-60795521D01*
X56902911Y-60643560D01*
X56935000Y-60482240D01*
X56935000Y-60317760D01*
X57865000Y-60317760D01*
X57865000Y-60482240D01*
X57897089Y-60643560D01*
X57960033Y-60795521D01*
X58051413Y-60932281D01*
X58167719Y-61048587D01*
X58304479Y-61139967D01*
X58456440Y-61202911D01*
X58617760Y-61235000D01*
X58782240Y-61235000D01*
X58943560Y-61202911D01*
X59095521Y-61139967D01*
X59232281Y-61048587D01*
X59348587Y-60932281D01*
X59439967Y-60795521D01*
X59502911Y-60643560D01*
X59535000Y-60482240D01*
X59535000Y-60317760D01*
X60465000Y-60317760D01*
X60465000Y-60482240D01*
X60497089Y-60643560D01*
X60560033Y-60795521D01*
X60651413Y-60932281D01*
X60767719Y-61048587D01*
X60904479Y-61139967D01*
X61056440Y-61202911D01*
X61217760Y-61235000D01*
X61382240Y-61235000D01*
X61543560Y-61202911D01*
X61695521Y-61139967D01*
X61832281Y-61048587D01*
X61948587Y-60932281D01*
X62039967Y-60795521D01*
X62102911Y-60643560D01*
X62135000Y-60482240D01*
X62135000Y-60317760D01*
X63065000Y-60317760D01*
X63065000Y-60482240D01*
X63097089Y-60643560D01*
X63160033Y-60795521D01*
X63251413Y-60932281D01*
X63367719Y-61048587D01*
X63504479Y-61139967D01*
X63656440Y-61202911D01*
X63817760Y-61235000D01*
X63982240Y-61235000D01*
X64143560Y-61202911D01*
X64295521Y-61139967D01*
X64432281Y-61048587D01*
X64548587Y-60932281D01*
X64639967Y-60795521D01*
X64702911Y-60643560D01*
X64735000Y-60482240D01*
X64735000Y-60317760D01*
X65665000Y-60317760D01*
X65665000Y-60482240D01*
X65697089Y-60643560D01*
X65760033Y-60795521D01*
X65851413Y-60932281D01*
X65967719Y-61048587D01*
X66104479Y-61139967D01*
X66256440Y-61202911D01*
X66417760Y-61235000D01*
X66582240Y-61235000D01*
X66743560Y-61202911D01*
X66895521Y-61139967D01*
X67032281Y-61048587D01*
X67148587Y-60932281D01*
X67239967Y-60795521D01*
X67302911Y-60643560D01*
X67335000Y-60482240D01*
X67335000Y-60317760D01*
X68265000Y-60317760D01*
X68265000Y-60482240D01*
X68297089Y-60643560D01*
X68360033Y-60795521D01*
X68451413Y-60932281D01*
X68567719Y-61048587D01*
X68704479Y-61139967D01*
X68856440Y-61202911D01*
X69017760Y-61235000D01*
X69182240Y-61235000D01*
X69343560Y-61202911D01*
X69495521Y-61139967D01*
X69632281Y-61048587D01*
X69748587Y-60932281D01*
X69839967Y-60795521D01*
X69902911Y-60643560D01*
X69935000Y-60482240D01*
X69935000Y-60317760D01*
X70865000Y-60317760D01*
X70865000Y-60482240D01*
X70897089Y-60643560D01*
X70960033Y-60795521D01*
X71051413Y-60932281D01*
X71167719Y-61048587D01*
X71304479Y-61139967D01*
X71456440Y-61202911D01*
X71617760Y-61235000D01*
X71782240Y-61235000D01*
X71943560Y-61202911D01*
X72095521Y-61139967D01*
X72232281Y-61048587D01*
X72348587Y-60932281D01*
X72439967Y-60795521D01*
X72502911Y-60643560D01*
X72535000Y-60482240D01*
X72535000Y-60317760D01*
X73465000Y-60317760D01*
X73465000Y-60482240D01*
X73497089Y-60643560D01*
X73560033Y-60795521D01*
X73651413Y-60932281D01*
X73767719Y-61048587D01*
X73904479Y-61139967D01*
X74056440Y-61202911D01*
X74217760Y-61235000D01*
X74382240Y-61235000D01*
X74543560Y-61202911D01*
X74695521Y-61139967D01*
X74832281Y-61048587D01*
X74948587Y-60932281D01*
X75039967Y-60795521D01*
X75102911Y-60643560D01*
X75135000Y-60482240D01*
X75135000Y-60317760D01*
X75102911Y-60156440D01*
X75039967Y-60004479D01*
X74948587Y-59867719D01*
X74832281Y-59751413D01*
X74695521Y-59660033D01*
X74543560Y-59597089D01*
X74382240Y-59565000D01*
X74217760Y-59565000D01*
X74056440Y-59597089D01*
X73904479Y-59660033D01*
X73767719Y-59751413D01*
X73651413Y-59867719D01*
X73560033Y-60004479D01*
X73497089Y-60156440D01*
X73465000Y-60317760D01*
X72535000Y-60317760D01*
X72502911Y-60156440D01*
X72439967Y-60004479D01*
X72348587Y-59867719D01*
X72232281Y-59751413D01*
X72095521Y-59660033D01*
X71943560Y-59597089D01*
X71782240Y-59565000D01*
X71617760Y-59565000D01*
X71456440Y-59597089D01*
X71304479Y-59660033D01*
X71167719Y-59751413D01*
X71051413Y-59867719D01*
X70960033Y-60004479D01*
X70897089Y-60156440D01*
X70865000Y-60317760D01*
X69935000Y-60317760D01*
X69902911Y-60156440D01*
X69839967Y-60004479D01*
X69748587Y-59867719D01*
X69632281Y-59751413D01*
X69495521Y-59660033D01*
X69343560Y-59597089D01*
X69182240Y-59565000D01*
X69017760Y-59565000D01*
X68856440Y-59597089D01*
X68704479Y-59660033D01*
X68567719Y-59751413D01*
X68451413Y-59867719D01*
X68360033Y-60004479D01*
X68297089Y-60156440D01*
X68265000Y-60317760D01*
X67335000Y-60317760D01*
X67302911Y-60156440D01*
X67239967Y-60004479D01*
X67148587Y-59867719D01*
X67032281Y-59751413D01*
X66895521Y-59660033D01*
X66743560Y-59597089D01*
X66582240Y-59565000D01*
X66417760Y-59565000D01*
X66256440Y-59597089D01*
X66104479Y-59660033D01*
X65967719Y-59751413D01*
X65851413Y-59867719D01*
X65760033Y-60004479D01*
X65697089Y-60156440D01*
X65665000Y-60317760D01*
X64735000Y-60317760D01*
X64702911Y-60156440D01*
X64639967Y-60004479D01*
X64548587Y-59867719D01*
X64432281Y-59751413D01*
X64295521Y-59660033D01*
X64143560Y-59597089D01*
X63982240Y-59565000D01*
X63817760Y-59565000D01*
X63656440Y-59597089D01*
X63504479Y-59660033D01*
X63367719Y-59751413D01*
X63251413Y-59867719D01*
X63160033Y-60004479D01*
X63097089Y-60156440D01*
X63065000Y-60317760D01*
X62135000Y-60317760D01*
X62102911Y-60156440D01*
X62039967Y-60004479D01*
X61948587Y-59867719D01*
X61832281Y-59751413D01*
X61695521Y-59660033D01*
X61543560Y-59597089D01*
X61382240Y-59565000D01*
X61217760Y-59565000D01*
X61056440Y-59597089D01*
X60904479Y-59660033D01*
X60767719Y-59751413D01*
X60651413Y-59867719D01*
X60560033Y-60004479D01*
X60497089Y-60156440D01*
X60465000Y-60317760D01*
X59535000Y-60317760D01*
X59502911Y-60156440D01*
X59439967Y-60004479D01*
X59348587Y-59867719D01*
X59232281Y-59751413D01*
X59095521Y-59660033D01*
X58943560Y-59597089D01*
X58782240Y-59565000D01*
X58617760Y-59565000D01*
X58456440Y-59597089D01*
X58304479Y-59660033D01*
X58167719Y-59751413D01*
X58051413Y-59867719D01*
X57960033Y-60004479D01*
X57897089Y-60156440D01*
X57865000Y-60317760D01*
X56935000Y-60317760D01*
X56902911Y-60156440D01*
X56839967Y-60004479D01*
X56748587Y-59867719D01*
X56632281Y-59751413D01*
X56495521Y-59660033D01*
X56343560Y-59597089D01*
X56182240Y-59565000D01*
X56017760Y-59565000D01*
X55856440Y-59597089D01*
X55704479Y-59660033D01*
X55567719Y-59751413D01*
X55451413Y-59867719D01*
X55360033Y-60004479D01*
X55297089Y-60156440D01*
X55265000Y-60317760D01*
X54335000Y-60317760D01*
X54302911Y-60156440D01*
X54239967Y-60004479D01*
X54148587Y-59867719D01*
X54032281Y-59751413D01*
X53895521Y-59660033D01*
X53743560Y-59597089D01*
X53582240Y-59565000D01*
X53417760Y-59565000D01*
X53256440Y-59597089D01*
X53104479Y-59660033D01*
X52967719Y-59751413D01*
X52851413Y-59867719D01*
X52760033Y-60004479D01*
X52697089Y-60156440D01*
X52665000Y-60317760D01*
X51735000Y-60317760D01*
X51702911Y-60156440D01*
X51639967Y-60004479D01*
X51548587Y-59867719D01*
X51432281Y-59751413D01*
X51295521Y-59660033D01*
X51143560Y-59597089D01*
X50982240Y-59565000D01*
X50817760Y-59565000D01*
X50656440Y-59597089D01*
X50504479Y-59660033D01*
X50367719Y-59751413D01*
X50251413Y-59867719D01*
X50160033Y-60004479D01*
X50097089Y-60156440D01*
X50065000Y-60317760D01*
X49135000Y-60317760D01*
X49102911Y-60156440D01*
X49039967Y-60004479D01*
X48948587Y-59867719D01*
X48832281Y-59751413D01*
X48695521Y-59660033D01*
X48543560Y-59597089D01*
X48382240Y-59565000D01*
X48217760Y-59565000D01*
X48056440Y-59597089D01*
X47904479Y-59660033D01*
X47767719Y-59751413D01*
X47651413Y-59867719D01*
X47560033Y-60004479D01*
X47497089Y-60156440D01*
X47465000Y-60317760D01*
X46535000Y-60317760D01*
X46502911Y-60156440D01*
X46439967Y-60004479D01*
X46348587Y-59867719D01*
X46232281Y-59751413D01*
X46095521Y-59660033D01*
X45943560Y-59597089D01*
X45782240Y-59565000D01*
X45617760Y-59565000D01*
X45456440Y-59597089D01*
X45304479Y-59660033D01*
X45167719Y-59751413D01*
X45051413Y-59867719D01*
X44960033Y-60004479D01*
X44897089Y-60156440D01*
X44865000Y-60317760D01*
X40685000Y-60317760D01*
X40685000Y-55117760D01*
X44865000Y-55117760D01*
X44865000Y-55282240D01*
X44897089Y-55443560D01*
X44960033Y-55595521D01*
X45051413Y-55732281D01*
X45167719Y-55848587D01*
X45304479Y-55939967D01*
X45456440Y-56002911D01*
X45617760Y-56035000D01*
X45782240Y-56035000D01*
X45943560Y-56002911D01*
X46095521Y-55939967D01*
X46232281Y-55848587D01*
X46348587Y-55732281D01*
X46439967Y-55595521D01*
X46502911Y-55443560D01*
X46535000Y-55282240D01*
X46535000Y-55117760D01*
X47465000Y-55117760D01*
X47465000Y-55282240D01*
X47497089Y-55443560D01*
X47560033Y-55595521D01*
X47651413Y-55732281D01*
X47767719Y-55848587D01*
X47904479Y-55939967D01*
X48056440Y-56002911D01*
X48217760Y-56035000D01*
X48382240Y-56035000D01*
X48543560Y-56002911D01*
X48695521Y-55939967D01*
X48832281Y-55848587D01*
X48948587Y-55732281D01*
X49039967Y-55595521D01*
X49102911Y-55443560D01*
X49135000Y-55282240D01*
X49135000Y-55117760D01*
X50065000Y-55117760D01*
X50065000Y-55282240D01*
X50097089Y-55443560D01*
X50160033Y-55595521D01*
X50251413Y-55732281D01*
X50367719Y-55848587D01*
X50504479Y-55939967D01*
X50656440Y-56002911D01*
X50817760Y-56035000D01*
X50982240Y-56035000D01*
X51143560Y-56002911D01*
X51295521Y-55939967D01*
X51432281Y-55848587D01*
X51548587Y-55732281D01*
X51639967Y-55595521D01*
X51702911Y-55443560D01*
X51735000Y-55282240D01*
X51735000Y-55117760D01*
X52665000Y-55117760D01*
X52665000Y-55282240D01*
X52697089Y-55443560D01*
X52760033Y-55595521D01*
X52851413Y-55732281D01*
X52967719Y-55848587D01*
X53104479Y-55939967D01*
X53256440Y-56002911D01*
X53417760Y-56035000D01*
X53582240Y-56035000D01*
X53743560Y-56002911D01*
X53895521Y-55939967D01*
X54032281Y-55848587D01*
X54148587Y-55732281D01*
X54239967Y-55595521D01*
X54302911Y-55443560D01*
X54335000Y-55282240D01*
X54335000Y-55117760D01*
X55265000Y-55117760D01*
X55265000Y-55282240D01*
X55297089Y-55443560D01*
X55360033Y-55595521D01*
X55451413Y-55732281D01*
X55567719Y-55848587D01*
X55704479Y-55939967D01*
X55856440Y-56002911D01*
X56017760Y-56035000D01*
X56182240Y-56035000D01*
X56343560Y-56002911D01*
X56495521Y-55939967D01*
X56632281Y-55848587D01*
X56748587Y-55732281D01*
X56839967Y-55595521D01*
X56902911Y-55443560D01*
X56935000Y-55282240D01*
X56935000Y-55117760D01*
X57865000Y-55117760D01*
X57865000Y-55282240D01*
X57897089Y-55443560D01*
X57960033Y-55595521D01*
X58051413Y-55732281D01*
X58167719Y-55848587D01*
X58304479Y-55939967D01*
X58456440Y-56002911D01*
X58617760Y-56035000D01*
X58782240Y-56035000D01*
X58943560Y-56002911D01*
X59095521Y-55939967D01*
X59232281Y-55848587D01*
X59348587Y-55732281D01*
X59439967Y-55595521D01*
X59502911Y-55443560D01*
X59535000Y-55282240D01*
X59535000Y-55117760D01*
X60465000Y-55117760D01*
X60465000Y-55282240D01*
X60497089Y-55443560D01*
X60560033Y-55595521D01*
X60651413Y-55732281D01*
X60767719Y-55848587D01*
X60904479Y-55939967D01*
X61056440Y-56002911D01*
X61217760Y-56035000D01*
X61382240Y-56035000D01*
X61543560Y-56002911D01*
X61695521Y-55939967D01*
X61832281Y-55848587D01*
X61948587Y-55732281D01*
X62039967Y-55595521D01*
X62102911Y-55443560D01*
X62135000Y-55282240D01*
X62135000Y-55117760D01*
X63065000Y-55117760D01*
X63065000Y-55282240D01*
X63097089Y-55443560D01*
X63160033Y-55595521D01*
X63251413Y-55732281D01*
X63367719Y-55848587D01*
X63504479Y-55939967D01*
X63656440Y-56002911D01*
X63817760Y-56035000D01*
X63982240Y-56035000D01*
X64143560Y-56002911D01*
X64295521Y-55939967D01*
X64432281Y-55848587D01*
X64548587Y-55732281D01*
X64639967Y-55595521D01*
X64702911Y-55443560D01*
X64735000Y-55282240D01*
X64735000Y-55117760D01*
X65665000Y-55117760D01*
X65665000Y-55282240D01*
X65697089Y-55443560D01*
X65760033Y-55595521D01*
X65851413Y-55732281D01*
X65967719Y-55848587D01*
X66104479Y-55939967D01*
X66256440Y-56002911D01*
X66417760Y-56035000D01*
X66582240Y-56035000D01*
X66743560Y-56002911D01*
X66895521Y-55939967D01*
X67032281Y-55848587D01*
X67148587Y-55732281D01*
X67239967Y-55595521D01*
X67302911Y-55443560D01*
X67335000Y-55282240D01*
X67335000Y-55117760D01*
X68265000Y-55117760D01*
X68265000Y-55282240D01*
X68297089Y-55443560D01*
X68360033Y-55595521D01*
X68451413Y-55732281D01*
X68567719Y-55848587D01*
X68704479Y-55939967D01*
X68856440Y-56002911D01*
X69017760Y-56035000D01*
X69182240Y-56035000D01*
X69343560Y-56002911D01*
X69495521Y-55939967D01*
X69632281Y-55848587D01*
X69748587Y-55732281D01*
X69839967Y-55595521D01*
X69902911Y-55443560D01*
X69935000Y-55282240D01*
X69935000Y-55117760D01*
X70865000Y-55117760D01*
X70865000Y-55282240D01*
X70897089Y-55443560D01*
X70960033Y-55595521D01*
X71051413Y-55732281D01*
X71167719Y-55848587D01*
X71304479Y-55939967D01*
X71456440Y-56002911D01*
X71617760Y-56035000D01*
X71782240Y-56035000D01*
X71943560Y-56002911D01*
X72095521Y-55939967D01*
X72232281Y-55848587D01*
X72348587Y-55732281D01*
X72439967Y-55595521D01*
X72502911Y-55443560D01*
X72535000Y-55282240D01*
X72535000Y-55117760D01*
X73465000Y-55117760D01*
X73465000Y-55282240D01*
X73497089Y-55443560D01*
X73560033Y-55595521D01*
X73651413Y-55732281D01*
X73767719Y-55848587D01*
X73904479Y-55939967D01*
X74056440Y-56002911D01*
X74217760Y-56035000D01*
X74382240Y-56035000D01*
X74543560Y-56002911D01*
X74695521Y-55939967D01*
X74832281Y-55848587D01*
X74948587Y-55732281D01*
X75039967Y-55595521D01*
X75102911Y-55443560D01*
X75135000Y-55282240D01*
X75135000Y-55117760D01*
X75102911Y-54956440D01*
X75039967Y-54804479D01*
X74948587Y-54667719D01*
X74832281Y-54551413D01*
X74695521Y-54460033D01*
X74543560Y-54397089D01*
X74382240Y-54365000D01*
X74217760Y-54365000D01*
X74056440Y-54397089D01*
X73904479Y-54460033D01*
X73767719Y-54551413D01*
X73651413Y-54667719D01*
X73560033Y-54804479D01*
X73497089Y-54956440D01*
X73465000Y-55117760D01*
X72535000Y-55117760D01*
X72502911Y-54956440D01*
X72439967Y-54804479D01*
X72348587Y-54667719D01*
X72232281Y-54551413D01*
X72095521Y-54460033D01*
X71943560Y-54397089D01*
X71782240Y-54365000D01*
X71617760Y-54365000D01*
X71456440Y-54397089D01*
X71304479Y-54460033D01*
X71167719Y-54551413D01*
X71051413Y-54667719D01*
X70960033Y-54804479D01*
X70897089Y-54956440D01*
X70865000Y-55117760D01*
X69935000Y-55117760D01*
X69902911Y-54956440D01*
X69839967Y-54804479D01*
X69748587Y-54667719D01*
X69632281Y-54551413D01*
X69495521Y-54460033D01*
X69343560Y-54397089D01*
X69182240Y-54365000D01*
X69017760Y-54365000D01*
X68856440Y-54397089D01*
X68704479Y-54460033D01*
X68567719Y-54551413D01*
X68451413Y-54667719D01*
X68360033Y-54804479D01*
X68297089Y-54956440D01*
X68265000Y-55117760D01*
X67335000Y-55117760D01*
X67302911Y-54956440D01*
X67239967Y-54804479D01*
X67148587Y-54667719D01*
X67032281Y-54551413D01*
X66895521Y-54460033D01*
X66743560Y-54397089D01*
X66582240Y-54365000D01*
X66417760Y-54365000D01*
X66256440Y-54397089D01*
X66104479Y-54460033D01*
X65967719Y-54551413D01*
X65851413Y-54667719D01*
X65760033Y-54804479D01*
X65697089Y-54956440D01*
X65665000Y-55117760D01*
X64735000Y-55117760D01*
X64702911Y-54956440D01*
X64639967Y-54804479D01*
X64548587Y-54667719D01*
X64432281Y-54551413D01*
X64295521Y-54460033D01*
X64143560Y-54397089D01*
X63982240Y-54365000D01*
X63817760Y-54365000D01*
X63656440Y-54397089D01*
X63504479Y-54460033D01*
X63367719Y-54551413D01*
X63251413Y-54667719D01*
X63160033Y-54804479D01*
X63097089Y-54956440D01*
X63065000Y-55117760D01*
X62135000Y-55117760D01*
X62102911Y-54956440D01*
X62039967Y-54804479D01*
X61948587Y-54667719D01*
X61832281Y-54551413D01*
X61695521Y-54460033D01*
X61543560Y-54397089D01*
X61382240Y-54365000D01*
X61217760Y-54365000D01*
X61056440Y-54397089D01*
X60904479Y-54460033D01*
X60767719Y-54551413D01*
X60651413Y-54667719D01*
X60560033Y-54804479D01*
X60497089Y-54956440D01*
X60465000Y-55117760D01*
X59535000Y-55117760D01*
X59502911Y-54956440D01*
X59439967Y-54804479D01*
X59348587Y-54667719D01*
X59232281Y-54551413D01*
X59095521Y-54460033D01*
X58943560Y-54397089D01*
X58782240Y-54365000D01*
X58617760Y-54365000D01*
X58456440Y-54397089D01*
X58304479Y-54460033D01*
X58167719Y-54551413D01*
X58051413Y-54667719D01*
X57960033Y-54804479D01*
X57897089Y-54956440D01*
X57865000Y-55117760D01*
X56935000Y-55117760D01*
X56902911Y-54956440D01*
X56839967Y-54804479D01*
X56748587Y-54667719D01*
X56632281Y-54551413D01*
X56495521Y-54460033D01*
X56343560Y-54397089D01*
X56182240Y-54365000D01*
X56017760Y-54365000D01*
X55856440Y-54397089D01*
X55704479Y-54460033D01*
X55567719Y-54551413D01*
X55451413Y-54667719D01*
X55360033Y-54804479D01*
X55297089Y-54956440D01*
X55265000Y-55117760D01*
X54335000Y-55117760D01*
X54302911Y-54956440D01*
X54239967Y-54804479D01*
X54148587Y-54667719D01*
X54032281Y-54551413D01*
X53895521Y-54460033D01*
X53743560Y-54397089D01*
X53582240Y-54365000D01*
X53417760Y-54365000D01*
X53256440Y-54397089D01*
X53104479Y-54460033D01*
X52967719Y-54551413D01*
X52851413Y-54667719D01*
X52760033Y-54804479D01*
X52697089Y-54956440D01*
X52665000Y-55117760D01*
X51735000Y-55117760D01*
X51702911Y-54956440D01*
X51639967Y-54804479D01*
X51548587Y-54667719D01*
X51432281Y-54551413D01*
X51295521Y-54460033D01*
X51143560Y-54397089D01*
X50982240Y-54365000D01*
X50817760Y-54365000D01*
X50656440Y-54397089D01*
X50504479Y-54460033D01*
X50367719Y-54551413D01*
X50251413Y-54667719D01*
X50160033Y-54804479D01*
X50097089Y-54956440D01*
X50065000Y-55117760D01*
X49135000Y-55117760D01*
X49102911Y-54956440D01*
X49039967Y-54804479D01*
X48948587Y-54667719D01*
X48832281Y-54551413D01*
X48695521Y-54460033D01*
X48543560Y-54397089D01*
X48382240Y-54365000D01*
X48217760Y-54365000D01*
X48056440Y-54397089D01*
X47904479Y-54460033D01*
X47767719Y-54551413D01*
X47651413Y-54667719D01*
X47560033Y-54804479D01*
X47497089Y-54956440D01*
X47465000Y-55117760D01*
X46535000Y-55117760D01*
X46502911Y-54956440D01*
X46439967Y-54804479D01*
X46348587Y-54667719D01*
X46232281Y-54551413D01*
X46095521Y-54460033D01*
X45943560Y-54397089D01*
X45782240Y-54365000D01*
X45617760Y-54365000D01*
X45456440Y-54397089D01*
X45304479Y-54460033D01*
X45167719Y-54551413D01*
X45051413Y-54667719D01*
X44960033Y-54804479D01*
X44897089Y-54956440D01*
X44865000Y-55117760D01*
X40685000Y-55117760D01*
X40685000Y-49917760D01*
X44865000Y-49917760D01*
X44865000Y-50082240D01*
X44897089Y-50243560D01*
X44960033Y-50395521D01*
X45051413Y-50532281D01*
X45167719Y-50648587D01*
X45304479Y-50739967D01*
X45456440Y-50802911D01*
X45617760Y-50835000D01*
X45782240Y-50835000D01*
X45943560Y-50802911D01*
X46095521Y-50739967D01*
X46232281Y-50648587D01*
X46348587Y-50532281D01*
X46439967Y-50395521D01*
X46502911Y-50243560D01*
X46535000Y-50082240D01*
X46535000Y-49917760D01*
X47465000Y-49917760D01*
X47465000Y-50082240D01*
X47497089Y-50243560D01*
X47560033Y-50395521D01*
X47651413Y-50532281D01*
X47767719Y-50648587D01*
X47904479Y-50739967D01*
X48056440Y-50802911D01*
X48217760Y-50835000D01*
X48382240Y-50835000D01*
X48543560Y-50802911D01*
X48695521Y-50739967D01*
X48832281Y-50648587D01*
X48948587Y-50532281D01*
X49039967Y-50395521D01*
X49102911Y-50243560D01*
X49135000Y-50082240D01*
X49135000Y-49917760D01*
X50065000Y-49917760D01*
X50065000Y-50082240D01*
X50097089Y-50243560D01*
X50160033Y-50395521D01*
X50251413Y-50532281D01*
X50367719Y-50648587D01*
X50504479Y-50739967D01*
X50656440Y-50802911D01*
X50817760Y-50835000D01*
X50982240Y-50835000D01*
X51143560Y-50802911D01*
X51295521Y-50739967D01*
X51432281Y-50648587D01*
X51548587Y-50532281D01*
X51639967Y-50395521D01*
X51702911Y-50243560D01*
X51735000Y-50082240D01*
X51735000Y-49917760D01*
X52665000Y-49917760D01*
X52665000Y-50082240D01*
X52697089Y-50243560D01*
X52760033Y-50395521D01*
X52851413Y-50532281D01*
X52967719Y-50648587D01*
X53104479Y-50739967D01*
X53256440Y-50802911D01*
X53417760Y-50835000D01*
X53582240Y-50835000D01*
X53743560Y-50802911D01*
X53895521Y-50739967D01*
X54032281Y-50648587D01*
X54148587Y-50532281D01*
X54239967Y-50395521D01*
X54302911Y-50243560D01*
X54335000Y-50082240D01*
X54335000Y-49917760D01*
X55265000Y-49917760D01*
X55265000Y-50082240D01*
X55297089Y-50243560D01*
X55360033Y-50395521D01*
X55451413Y-50532281D01*
X55567719Y-50648587D01*
X55704479Y-50739967D01*
X55856440Y-50802911D01*
X56017760Y-50835000D01*
X56182240Y-50835000D01*
X56343560Y-50802911D01*
X56495521Y-50739967D01*
X56632281Y-50648587D01*
X56748587Y-50532281D01*
X56839967Y-50395521D01*
X56902911Y-50243560D01*
X56935000Y-50082240D01*
X56935000Y-49917760D01*
X57865000Y-49917760D01*
X57865000Y-50082240D01*
X57897089Y-50243560D01*
X57960033Y-50395521D01*
X58051413Y-50532281D01*
X58167719Y-50648587D01*
X58304479Y-50739967D01*
X58456440Y-50802911D01*
X58617760Y-50835000D01*
X58782240Y-50835000D01*
X58943560Y-50802911D01*
X59095521Y-50739967D01*
X59232281Y-50648587D01*
X59348587Y-50532281D01*
X59439967Y-50395521D01*
X59502911Y-50243560D01*
X59535000Y-50082240D01*
X59535000Y-49917760D01*
X60465000Y-49917760D01*
X60465000Y-50082240D01*
X60497089Y-50243560D01*
X60560033Y-50395521D01*
X60651413Y-50532281D01*
X60767719Y-50648587D01*
X60904479Y-50739967D01*
X61056440Y-50802911D01*
X61217760Y-50835000D01*
X61382240Y-50835000D01*
X61543560Y-50802911D01*
X61695521Y-50739967D01*
X61832281Y-50648587D01*
X61948587Y-50532281D01*
X62039967Y-50395521D01*
X62102911Y-50243560D01*
X62135000Y-50082240D01*
X62135000Y-49917760D01*
X63065000Y-49917760D01*
X63065000Y-50082240D01*
X63097089Y-50243560D01*
X63160033Y-50395521D01*
X63251413Y-50532281D01*
X63367719Y-50648587D01*
X63504479Y-50739967D01*
X63656440Y-50802911D01*
X63817760Y-50835000D01*
X63982240Y-50835000D01*
X64143560Y-50802911D01*
X64295521Y-50739967D01*
X64432281Y-50648587D01*
X64548587Y-50532281D01*
X64639967Y-50395521D01*
X64702911Y-50243560D01*
X64735000Y-50082240D01*
X64735000Y-49917760D01*
X65665000Y-49917760D01*
X65665000Y-50082240D01*
X65697089Y-50243560D01*
X65760033Y-50395521D01*
X65851413Y-50532281D01*
X65967719Y-50648587D01*
X66104479Y-50739967D01*
X66256440Y-50802911D01*
X66417760Y-50835000D01*
X66582240Y-50835000D01*
X66743560Y-50802911D01*
X66895521Y-50739967D01*
X67032281Y-50648587D01*
X67148587Y-50532281D01*
X67239967Y-50395521D01*
X67302911Y-50243560D01*
X67335000Y-50082240D01*
X67335000Y-49917760D01*
X68265000Y-49917760D01*
X68265000Y-50082240D01*
X68297089Y-50243560D01*
X68360033Y-50395521D01*
X68451413Y-50532281D01*
X68567719Y-50648587D01*
X68704479Y-50739967D01*
X68856440Y-50802911D01*
X69017760Y-50835000D01*
X69182240Y-50835000D01*
X69343560Y-50802911D01*
X69495521Y-50739967D01*
X69632281Y-50648587D01*
X69748587Y-50532281D01*
X69839967Y-50395521D01*
X69902911Y-50243560D01*
X69935000Y-50082240D01*
X69935000Y-49917760D01*
X70865000Y-49917760D01*
X70865000Y-50082240D01*
X70897089Y-50243560D01*
X70960033Y-50395521D01*
X71051413Y-50532281D01*
X71167719Y-50648587D01*
X71304479Y-50739967D01*
X71456440Y-50802911D01*
X71617760Y-50835000D01*
X71782240Y-50835000D01*
X71943560Y-50802911D01*
X72095521Y-50739967D01*
X72232281Y-50648587D01*
X72348587Y-50532281D01*
X72439967Y-50395521D01*
X72502911Y-50243560D01*
X72535000Y-50082240D01*
X72535000Y-49917760D01*
X73465000Y-49917760D01*
X73465000Y-50082240D01*
X73497089Y-50243560D01*
X73560033Y-50395521D01*
X73651413Y-50532281D01*
X73767719Y-50648587D01*
X73904479Y-50739967D01*
X74056440Y-50802911D01*
X74217760Y-50835000D01*
X74382240Y-50835000D01*
X74543560Y-50802911D01*
X74695521Y-50739967D01*
X74832281Y-50648587D01*
X74948587Y-50532281D01*
X75039967Y-50395521D01*
X75102911Y-50243560D01*
X75135000Y-50082240D01*
X75135000Y-49917760D01*
X75102911Y-49756440D01*
X75039967Y-49604479D01*
X74948587Y-49467719D01*
X74832281Y-49351413D01*
X74695521Y-49260033D01*
X74543560Y-49197089D01*
X74382240Y-49165000D01*
X74217760Y-49165000D01*
X74056440Y-49197089D01*
X73904479Y-49260033D01*
X73767719Y-49351413D01*
X73651413Y-49467719D01*
X73560033Y-49604479D01*
X73497089Y-49756440D01*
X73465000Y-49917760D01*
X72535000Y-49917760D01*
X72502911Y-49756440D01*
X72439967Y-49604479D01*
X72348587Y-49467719D01*
X72232281Y-49351413D01*
X72095521Y-49260033D01*
X71943560Y-49197089D01*
X71782240Y-49165000D01*
X71617760Y-49165000D01*
X71456440Y-49197089D01*
X71304479Y-49260033D01*
X71167719Y-49351413D01*
X71051413Y-49467719D01*
X70960033Y-49604479D01*
X70897089Y-49756440D01*
X70865000Y-49917760D01*
X69935000Y-49917760D01*
X69902911Y-49756440D01*
X69839967Y-49604479D01*
X69748587Y-49467719D01*
X69632281Y-49351413D01*
X69495521Y-49260033D01*
X69343560Y-49197089D01*
X69182240Y-49165000D01*
X69017760Y-49165000D01*
X68856440Y-49197089D01*
X68704479Y-49260033D01*
X68567719Y-49351413D01*
X68451413Y-49467719D01*
X68360033Y-49604479D01*
X68297089Y-49756440D01*
X68265000Y-49917760D01*
X67335000Y-49917760D01*
X67302911Y-49756440D01*
X67239967Y-49604479D01*
X67148587Y-49467719D01*
X67032281Y-49351413D01*
X66895521Y-49260033D01*
X66743560Y-49197089D01*
X66582240Y-49165000D01*
X66417760Y-49165000D01*
X66256440Y-49197089D01*
X66104479Y-49260033D01*
X65967719Y-49351413D01*
X65851413Y-49467719D01*
X65760033Y-49604479D01*
X65697089Y-49756440D01*
X65665000Y-49917760D01*
X64735000Y-49917760D01*
X64702911Y-49756440D01*
X64639967Y-49604479D01*
X64548587Y-49467719D01*
X64432281Y-49351413D01*
X64295521Y-49260033D01*
X64143560Y-49197089D01*
X63982240Y-49165000D01*
X63817760Y-49165000D01*
X63656440Y-49197089D01*
X63504479Y-49260033D01*
X63367719Y-49351413D01*
X63251413Y-49467719D01*
X63160033Y-49604479D01*
X63097089Y-49756440D01*
X63065000Y-49917760D01*
X62135000Y-49917760D01*
X62102911Y-49756440D01*
X62039967Y-49604479D01*
X61948587Y-49467719D01*
X61832281Y-49351413D01*
X61695521Y-49260033D01*
X61543560Y-49197089D01*
X61382240Y-49165000D01*
X61217760Y-49165000D01*
X61056440Y-49197089D01*
X60904479Y-49260033D01*
X60767719Y-49351413D01*
X60651413Y-49467719D01*
X60560033Y-49604479D01*
X60497089Y-49756440D01*
X60465000Y-49917760D01*
X59535000Y-49917760D01*
X59502911Y-49756440D01*
X59439967Y-49604479D01*
X59348587Y-49467719D01*
X59232281Y-49351413D01*
X59095521Y-49260033D01*
X58943560Y-49197089D01*
X58782240Y-49165000D01*
X58617760Y-49165000D01*
X58456440Y-49197089D01*
X58304479Y-49260033D01*
X58167719Y-49351413D01*
X58051413Y-49467719D01*
X57960033Y-49604479D01*
X57897089Y-49756440D01*
X57865000Y-49917760D01*
X56935000Y-49917760D01*
X56902911Y-49756440D01*
X56839967Y-49604479D01*
X56748587Y-49467719D01*
X56632281Y-49351413D01*
X56495521Y-49260033D01*
X56343560Y-49197089D01*
X56182240Y-49165000D01*
X56017760Y-49165000D01*
X55856440Y-49197089D01*
X55704479Y-49260033D01*
X55567719Y-49351413D01*
X55451413Y-49467719D01*
X55360033Y-49604479D01*
X55297089Y-49756440D01*
X55265000Y-49917760D01*
X54335000Y-49917760D01*
X54302911Y-49756440D01*
X54239967Y-49604479D01*
X54148587Y-49467719D01*
X54032281Y-49351413D01*
X53895521Y-49260033D01*
X53743560Y-49197089D01*
X53582240Y-49165000D01*
X53417760Y-49165000D01*
X53256440Y-49197089D01*
X53104479Y-49260033D01*
X52967719Y-49351413D01*
X52851413Y-49467719D01*
X52760033Y-49604479D01*
X52697089Y-49756440D01*
X52665000Y-49917760D01*
X51735000Y-49917760D01*
X51702911Y-49756440D01*
X51639967Y-49604479D01*
X51548587Y-49467719D01*
X51432281Y-49351413D01*
X51295521Y-49260033D01*
X51143560Y-49197089D01*
X50982240Y-49165000D01*
X50817760Y-49165000D01*
X50656440Y-49197089D01*
X50504479Y-49260033D01*
X50367719Y-49351413D01*
X50251413Y-49467719D01*
X50160033Y-49604479D01*
X50097089Y-49756440D01*
X50065000Y-49917760D01*
X49135000Y-49917760D01*
X49102911Y-49756440D01*
X49039967Y-49604479D01*
X48948587Y-49467719D01*
X48832281Y-49351413D01*
X48695521Y-49260033D01*
X48543560Y-49197089D01*
X48382240Y-49165000D01*
X48217760Y-49165000D01*
X48056440Y-49197089D01*
X47904479Y-49260033D01*
X47767719Y-49351413D01*
X47651413Y-49467719D01*
X47560033Y-49604479D01*
X47497089Y-49756440D01*
X47465000Y-49917760D01*
X46535000Y-49917760D01*
X46502911Y-49756440D01*
X46439967Y-49604479D01*
X46348587Y-49467719D01*
X46232281Y-49351413D01*
X46095521Y-49260033D01*
X45943560Y-49197089D01*
X45782240Y-49165000D01*
X45617760Y-49165000D01*
X45456440Y-49197089D01*
X45304479Y-49260033D01*
X45167719Y-49351413D01*
X45051413Y-49467719D01*
X44960033Y-49604479D01*
X44897089Y-49756440D01*
X44865000Y-49917760D01*
X40685000Y-49917760D01*
X40685000Y-44717760D01*
X44865000Y-44717760D01*
X44865000Y-44882240D01*
X44897089Y-45043560D01*
X44960033Y-45195521D01*
X45051413Y-45332281D01*
X45167719Y-45448587D01*
X45304479Y-45539967D01*
X45456440Y-45602911D01*
X45617760Y-45635000D01*
X45782240Y-45635000D01*
X45943560Y-45602911D01*
X46095521Y-45539967D01*
X46232281Y-45448587D01*
X46348587Y-45332281D01*
X46439967Y-45195521D01*
X46502911Y-45043560D01*
X46535000Y-44882240D01*
X46535000Y-44717760D01*
X47465000Y-44717760D01*
X47465000Y-44882240D01*
X47497089Y-45043560D01*
X47560033Y-45195521D01*
X47651413Y-45332281D01*
X47767719Y-45448587D01*
X47904479Y-45539967D01*
X48056440Y-45602911D01*
X48217760Y-45635000D01*
X48382240Y-45635000D01*
X48543560Y-45602911D01*
X48695521Y-45539967D01*
X48832281Y-45448587D01*
X48948587Y-45332281D01*
X49039967Y-45195521D01*
X49102911Y-45043560D01*
X49135000Y-44882240D01*
X49135000Y-44717760D01*
X50065000Y-44717760D01*
X50065000Y-44882240D01*
X50097089Y-45043560D01*
X50160033Y-45195521D01*
X50251413Y-45332281D01*
X50367719Y-45448587D01*
X50504479Y-45539967D01*
X50656440Y-45602911D01*
X50817760Y-45635000D01*
X50982240Y-45635000D01*
X51143560Y-45602911D01*
X51295521Y-45539967D01*
X51432281Y-45448587D01*
X51548587Y-45332281D01*
X51639967Y-45195521D01*
X51702911Y-45043560D01*
X51735000Y-44882240D01*
X51735000Y-44717760D01*
X52665000Y-44717760D01*
X52665000Y-44882240D01*
X52697089Y-45043560D01*
X52760033Y-45195521D01*
X52851413Y-45332281D01*
X52967719Y-45448587D01*
X53104479Y-45539967D01*
X53256440Y-45602911D01*
X53417760Y-45635000D01*
X53582240Y-45635000D01*
X53743560Y-45602911D01*
X53895521Y-45539967D01*
X54032281Y-45448587D01*
X54148587Y-45332281D01*
X54239967Y-45195521D01*
X54302911Y-45043560D01*
X54335000Y-44882240D01*
X54335000Y-44717760D01*
X55265000Y-44717760D01*
X55265000Y-44882240D01*
X55297089Y-45043560D01*
X55360033Y-45195521D01*
X55451413Y-45332281D01*
X55567719Y-45448587D01*
X55704479Y-45539967D01*
X55856440Y-45602911D01*
X56017760Y-45635000D01*
X56182240Y-45635000D01*
X56343560Y-45602911D01*
X56495521Y-45539967D01*
X56632281Y-45448587D01*
X56748587Y-45332281D01*
X56839967Y-45195521D01*
X56902911Y-45043560D01*
X56935000Y-44882240D01*
X56935000Y-44717760D01*
X57865000Y-44717760D01*
X57865000Y-44882240D01*
X57897089Y-45043560D01*
X57960033Y-45195521D01*
X58051413Y-45332281D01*
X58167719Y-45448587D01*
X58304479Y-45539967D01*
X58456440Y-45602911D01*
X58617760Y-45635000D01*
X58782240Y-45635000D01*
X58943560Y-45602911D01*
X59095521Y-45539967D01*
X59232281Y-45448587D01*
X59348587Y-45332281D01*
X59439967Y-45195521D01*
X59502911Y-45043560D01*
X59535000Y-44882240D01*
X59535000Y-44717760D01*
X60465000Y-44717760D01*
X60465000Y-44882240D01*
X60497089Y-45043560D01*
X60560033Y-45195521D01*
X60651413Y-45332281D01*
X60767719Y-45448587D01*
X60904479Y-45539967D01*
X61056440Y-45602911D01*
X61217760Y-45635000D01*
X61382240Y-45635000D01*
X61543560Y-45602911D01*
X61695521Y-45539967D01*
X61832281Y-45448587D01*
X61948587Y-45332281D01*
X62039967Y-45195521D01*
X62102911Y-45043560D01*
X62135000Y-44882240D01*
X62135000Y-44717760D01*
X63065000Y-44717760D01*
X63065000Y-44882240D01*
X63097089Y-45043560D01*
X63160033Y-45195521D01*
X63251413Y-45332281D01*
X63367719Y-45448587D01*
X63504479Y-45539967D01*
X63656440Y-45602911D01*
X63817760Y-45635000D01*
X63982240Y-45635000D01*
X64143560Y-45602911D01*
X64295521Y-45539967D01*
X64432281Y-45448587D01*
X64548587Y-45332281D01*
X64639967Y-45195521D01*
X64702911Y-45043560D01*
X64735000Y-44882240D01*
X64735000Y-44717760D01*
X65665000Y-44717760D01*
X65665000Y-44882240D01*
X65697089Y-45043560D01*
X65760033Y-45195521D01*
X65851413Y-45332281D01*
X65967719Y-45448587D01*
X66104479Y-45539967D01*
X66256440Y-45602911D01*
X66417760Y-45635000D01*
X66582240Y-45635000D01*
X66743560Y-45602911D01*
X66895521Y-45539967D01*
X67032281Y-45448587D01*
X67148587Y-45332281D01*
X67239967Y-45195521D01*
X67302911Y-45043560D01*
X67335000Y-44882240D01*
X67335000Y-44717760D01*
X68265000Y-44717760D01*
X68265000Y-44882240D01*
X68297089Y-45043560D01*
X68360033Y-45195521D01*
X68451413Y-45332281D01*
X68567719Y-45448587D01*
X68704479Y-45539967D01*
X68856440Y-45602911D01*
X69017760Y-45635000D01*
X69182240Y-45635000D01*
X69343560Y-45602911D01*
X69495521Y-45539967D01*
X69632281Y-45448587D01*
X69748587Y-45332281D01*
X69839967Y-45195521D01*
X69902911Y-45043560D01*
X69935000Y-44882240D01*
X69935000Y-44717760D01*
X70865000Y-44717760D01*
X70865000Y-44882240D01*
X70897089Y-45043560D01*
X70960033Y-45195521D01*
X71051413Y-45332281D01*
X71167719Y-45448587D01*
X71304479Y-45539967D01*
X71456440Y-45602911D01*
X71617760Y-45635000D01*
X71782240Y-45635000D01*
X71943560Y-45602911D01*
X72095521Y-45539967D01*
X72232281Y-45448587D01*
X72348587Y-45332281D01*
X72439967Y-45195521D01*
X72502911Y-45043560D01*
X72535000Y-44882240D01*
X72535000Y-44717760D01*
X73465000Y-44717760D01*
X73465000Y-44882240D01*
X73497089Y-45043560D01*
X73560033Y-45195521D01*
X73651413Y-45332281D01*
X73767719Y-45448587D01*
X73904479Y-45539967D01*
X74056440Y-45602911D01*
X74217760Y-45635000D01*
X74382240Y-45635000D01*
X74543560Y-45602911D01*
X74695521Y-45539967D01*
X74832281Y-45448587D01*
X74948587Y-45332281D01*
X75039967Y-45195521D01*
X75102911Y-45043560D01*
X75135000Y-44882240D01*
X75135000Y-44717760D01*
X75102911Y-44556440D01*
X75039967Y-44404479D01*
X74948587Y-44267719D01*
X74832281Y-44151413D01*
X74695521Y-44060033D01*
X74543560Y-43997089D01*
X74382240Y-43965000D01*
X74217760Y-43965000D01*
X74056440Y-43997089D01*
X73904479Y-44060033D01*
X73767719Y-44151413D01*
X73651413Y-44267719D01*
X73560033Y-44404479D01*
X73497089Y-44556440D01*
X73465000Y-44717760D01*
X72535000Y-44717760D01*
X72502911Y-44556440D01*
X72439967Y-44404479D01*
X72348587Y-44267719D01*
X72232281Y-44151413D01*
X72095521Y-44060033D01*
X71943560Y-43997089D01*
X71782240Y-43965000D01*
X71617760Y-43965000D01*
X71456440Y-43997089D01*
X71304479Y-44060033D01*
X71167719Y-44151413D01*
X71051413Y-44267719D01*
X70960033Y-44404479D01*
X70897089Y-44556440D01*
X70865000Y-44717760D01*
X69935000Y-44717760D01*
X69902911Y-44556440D01*
X69839967Y-44404479D01*
X69748587Y-44267719D01*
X69632281Y-44151413D01*
X69495521Y-44060033D01*
X69343560Y-43997089D01*
X69182240Y-43965000D01*
X69017760Y-43965000D01*
X68856440Y-43997089D01*
X68704479Y-44060033D01*
X68567719Y-44151413D01*
X68451413Y-44267719D01*
X68360033Y-44404479D01*
X68297089Y-44556440D01*
X68265000Y-44717760D01*
X67335000Y-44717760D01*
X67302911Y-44556440D01*
X67239967Y-44404479D01*
X67148587Y-44267719D01*
X67032281Y-44151413D01*
X66895521Y-44060033D01*
X66743560Y-43997089D01*
X66582240Y-43965000D01*
X66417760Y-43965000D01*
X66256440Y-43997089D01*
X66104479Y-44060033D01*
X65967719Y-44151413D01*
X65851413Y-44267719D01*
X65760033Y-44404479D01*
X65697089Y-44556440D01*
X65665000Y-44717760D01*
X64735000Y-44717760D01*
X64702911Y-44556440D01*
X64639967Y-44404479D01*
X64548587Y-44267719D01*
X64432281Y-44151413D01*
X64295521Y-44060033D01*
X64143560Y-43997089D01*
X63982240Y-43965000D01*
X63817760Y-43965000D01*
X63656440Y-43997089D01*
X63504479Y-44060033D01*
X63367719Y-44151413D01*
X63251413Y-44267719D01*
X63160033Y-44404479D01*
X63097089Y-44556440D01*
X63065000Y-44717760D01*
X62135000Y-44717760D01*
X62102911Y-44556440D01*
X62039967Y-44404479D01*
X61948587Y-44267719D01*
X61832281Y-44151413D01*
X61695521Y-44060033D01*
X61543560Y-43997089D01*
X61382240Y-43965000D01*
X61217760Y-43965000D01*
X61056440Y-43997089D01*
X60904479Y-44060033D01*
X60767719Y-44151413D01*
X60651413Y-44267719D01*
X60560033Y-44404479D01*
X60497089Y-44556440D01*
X60465000Y-44717760D01*
X59535000Y-44717760D01*
X59502911Y-44556440D01*
X59439967Y-44404479D01*
X59348587Y-44267719D01*
X59232281Y-44151413D01*
X59095521Y-44060033D01*
X58943560Y-43997089D01*
X58782240Y-43965000D01*
X58617760Y-43965000D01*
X58456440Y-43997089D01*
X58304479Y-44060033D01*
X58167719Y-44151413D01*
X58051413Y-44267719D01*
X57960033Y-44404479D01*
X57897089Y-44556440D01*
X57865000Y-44717760D01*
X56935000Y-44717760D01*
X56902911Y-44556440D01*
X56839967Y-44404479D01*
X56748587Y-44267719D01*
X56632281Y-44151413D01*
X56495521Y-44060033D01*
X56343560Y-43997089D01*
X56182240Y-43965000D01*
X56017760Y-43965000D01*
X55856440Y-43997089D01*
X55704479Y-44060033D01*
X55567719Y-44151413D01*
X55451413Y-44267719D01*
X55360033Y-44404479D01*
X55297089Y-44556440D01*
X55265000Y-44717760D01*
X54335000Y-44717760D01*
X54302911Y-44556440D01*
X54239967Y-44404479D01*
X54148587Y-44267719D01*
X54032281Y-44151413D01*
X53895521Y-44060033D01*
X53743560Y-43997089D01*
X53582240Y-43965000D01*
X53417760Y-43965000D01*
X53256440Y-43997089D01*
X53104479Y-44060033D01*
X52967719Y-44151413D01*
X52851413Y-44267719D01*
X52760033Y-44404479D01*
X52697089Y-44556440D01*
X52665000Y-44717760D01*
X51735000Y-44717760D01*
X51702911Y-44556440D01*
X51639967Y-44404479D01*
X51548587Y-44267719D01*
X51432281Y-44151413D01*
X51295521Y-44060033D01*
X51143560Y-43997089D01*
X50982240Y-43965000D01*
X50817760Y-43965000D01*
X50656440Y-43997089D01*
X50504479Y-44060033D01*
X50367719Y-44151413D01*
X50251413Y-44267719D01*
X50160033Y-44404479D01*
X50097089Y-44556440D01*
X50065000Y-44717760D01*
X49135000Y-44717760D01*
X49102911Y-44556440D01*
X49039967Y-44404479D01*
X48948587Y-44267719D01*
X48832281Y-44151413D01*
X48695521Y-44060033D01*
X48543560Y-43997089D01*
X48382240Y-43965000D01*
X48217760Y-43965000D01*
X48056440Y-43997089D01*
X47904479Y-44060033D01*
X47767719Y-44151413D01*
X47651413Y-44267719D01*
X47560033Y-44404479D01*
X47497089Y-44556440D01*
X47465000Y-44717760D01*
X46535000Y-44717760D01*
X46502911Y-44556440D01*
X46439967Y-44404479D01*
X46348587Y-44267719D01*
X46232281Y-44151413D01*
X46095521Y-44060033D01*
X45943560Y-43997089D01*
X45782240Y-43965000D01*
X45617760Y-43965000D01*
X45456440Y-43997089D01*
X45304479Y-44060033D01*
X45167719Y-44151413D01*
X45051413Y-44267719D01*
X44960033Y-44404479D01*
X44897089Y-44556440D01*
X44865000Y-44717760D01*
X40685000Y-44717760D01*
X40685000Y-39517760D01*
X44865000Y-39517760D01*
X44865000Y-39682240D01*
X44897089Y-39843560D01*
X44960033Y-39995521D01*
X45051413Y-40132281D01*
X45167719Y-40248587D01*
X45304479Y-40339967D01*
X45456440Y-40402911D01*
X45617760Y-40435000D01*
X45782240Y-40435000D01*
X45943560Y-40402911D01*
X46095521Y-40339967D01*
X46232281Y-40248587D01*
X46348587Y-40132281D01*
X46439967Y-39995521D01*
X46502911Y-39843560D01*
X46535000Y-39682240D01*
X46535000Y-39517760D01*
X47465000Y-39517760D01*
X47465000Y-39682240D01*
X47497089Y-39843560D01*
X47560033Y-39995521D01*
X47651413Y-40132281D01*
X47767719Y-40248587D01*
X47904479Y-40339967D01*
X48056440Y-40402911D01*
X48217760Y-40435000D01*
X48382240Y-40435000D01*
X48543560Y-40402911D01*
X48695521Y-40339967D01*
X48832281Y-40248587D01*
X48948587Y-40132281D01*
X49039967Y-39995521D01*
X49102911Y-39843560D01*
X49135000Y-39682240D01*
X49135000Y-39517760D01*
X50065000Y-39517760D01*
X50065000Y-39682240D01*
X50097089Y-39843560D01*
X50160033Y-39995521D01*
X50251413Y-40132281D01*
X50367719Y-40248587D01*
X50504479Y-40339967D01*
X50656440Y-40402911D01*
X50817760Y-40435000D01*
X50982240Y-40435000D01*
X51143560Y-40402911D01*
X51295521Y-40339967D01*
X51432281Y-40248587D01*
X51548587Y-40132281D01*
X51639967Y-39995521D01*
X51702911Y-39843560D01*
X51735000Y-39682240D01*
X51735000Y-39517760D01*
X52665000Y-39517760D01*
X52665000Y-39682240D01*
X52697089Y-39843560D01*
X52760033Y-39995521D01*
X52851413Y-40132281D01*
X52967719Y-40248587D01*
X53104479Y-40339967D01*
X53256440Y-40402911D01*
X53417760Y-40435000D01*
X53582240Y-40435000D01*
X53743560Y-40402911D01*
X53895521Y-40339967D01*
X54032281Y-40248587D01*
X54148587Y-40132281D01*
X54239967Y-39995521D01*
X54302911Y-39843560D01*
X54335000Y-39682240D01*
X54335000Y-39517760D01*
X55265000Y-39517760D01*
X55265000Y-39682240D01*
X55297089Y-39843560D01*
X55360033Y-39995521D01*
X55451413Y-40132281D01*
X55567719Y-40248587D01*
X55704479Y-40339967D01*
X55856440Y-40402911D01*
X56017760Y-40435000D01*
X56182240Y-40435000D01*
X56343560Y-40402911D01*
X56495521Y-40339967D01*
X56632281Y-40248587D01*
X56748587Y-40132281D01*
X56839967Y-39995521D01*
X56902911Y-39843560D01*
X56935000Y-39682240D01*
X56935000Y-39517760D01*
X57865000Y-39517760D01*
X57865000Y-39682240D01*
X57897089Y-39843560D01*
X57960033Y-39995521D01*
X58051413Y-40132281D01*
X58167719Y-40248587D01*
X58304479Y-40339967D01*
X58456440Y-40402911D01*
X58617760Y-40435000D01*
X58782240Y-40435000D01*
X58943560Y-40402911D01*
X59095521Y-40339967D01*
X59232281Y-40248587D01*
X59348587Y-40132281D01*
X59439967Y-39995521D01*
X59502911Y-39843560D01*
X59535000Y-39682240D01*
X59535000Y-39517760D01*
X60465000Y-39517760D01*
X60465000Y-39682240D01*
X60497089Y-39843560D01*
X60560033Y-39995521D01*
X60651413Y-40132281D01*
X60767719Y-40248587D01*
X60904479Y-40339967D01*
X61056440Y-40402911D01*
X61217760Y-40435000D01*
X61382240Y-40435000D01*
X61543560Y-40402911D01*
X61695521Y-40339967D01*
X61832281Y-40248587D01*
X61948587Y-40132281D01*
X62039967Y-39995521D01*
X62102911Y-39843560D01*
X62135000Y-39682240D01*
X62135000Y-39517760D01*
X63065000Y-39517760D01*
X63065000Y-39682240D01*
X63097089Y-39843560D01*
X63160033Y-39995521D01*
X63251413Y-40132281D01*
X63367719Y-40248587D01*
X63504479Y-40339967D01*
X63656440Y-40402911D01*
X63817760Y-40435000D01*
X63982240Y-40435000D01*
X64143560Y-40402911D01*
X64295521Y-40339967D01*
X64432281Y-40248587D01*
X64548587Y-40132281D01*
X64639967Y-39995521D01*
X64702911Y-39843560D01*
X64735000Y-39682240D01*
X64735000Y-39517760D01*
X65665000Y-39517760D01*
X65665000Y-39682240D01*
X65697089Y-39843560D01*
X65760033Y-39995521D01*
X65851413Y-40132281D01*
X65967719Y-40248587D01*
X66104479Y-40339967D01*
X66256440Y-40402911D01*
X66417760Y-40435000D01*
X66582240Y-40435000D01*
X66743560Y-40402911D01*
X66895521Y-40339967D01*
X67032281Y-40248587D01*
X67148587Y-40132281D01*
X67239967Y-39995521D01*
X67302911Y-39843560D01*
X67335000Y-39682240D01*
X67335000Y-39517760D01*
X68265000Y-39517760D01*
X68265000Y-39682240D01*
X68297089Y-39843560D01*
X68360033Y-39995521D01*
X68451413Y-40132281D01*
X68567719Y-40248587D01*
X68704479Y-40339967D01*
X68856440Y-40402911D01*
X69017760Y-40435000D01*
X69182240Y-40435000D01*
X69343560Y-40402911D01*
X69495521Y-40339967D01*
X69632281Y-40248587D01*
X69748587Y-40132281D01*
X69839967Y-39995521D01*
X69902911Y-39843560D01*
X69935000Y-39682240D01*
X69935000Y-39517760D01*
X70865000Y-39517760D01*
X70865000Y-39682240D01*
X70897089Y-39843560D01*
X70960033Y-39995521D01*
X71051413Y-40132281D01*
X71167719Y-40248587D01*
X71304479Y-40339967D01*
X71456440Y-40402911D01*
X71617760Y-40435000D01*
X71782240Y-40435000D01*
X71943560Y-40402911D01*
X72095521Y-40339967D01*
X72232281Y-40248587D01*
X72348587Y-40132281D01*
X72439967Y-39995521D01*
X72502911Y-39843560D01*
X72535000Y-39682240D01*
X72535000Y-39517760D01*
X73465000Y-39517760D01*
X73465000Y-39682240D01*
X73497089Y-39843560D01*
X73560033Y-39995521D01*
X73651413Y-40132281D01*
X73767719Y-40248587D01*
X73904479Y-40339967D01*
X74056440Y-40402911D01*
X74217760Y-40435000D01*
X74382240Y-40435000D01*
X74543560Y-40402911D01*
X74695521Y-40339967D01*
X74832281Y-40248587D01*
X74948587Y-40132281D01*
X75039967Y-39995521D01*
X75102911Y-39843560D01*
X75135000Y-39682240D01*
X75135000Y-39517760D01*
X75102911Y-39356440D01*
X75039967Y-39204479D01*
X74948587Y-39067719D01*
X74832281Y-38951413D01*
X74695521Y-38860033D01*
X74543560Y-38797089D01*
X74382240Y-38765000D01*
X74217760Y-38765000D01*
X74056440Y-38797089D01*
X73904479Y-38860033D01*
X73767719Y-38951413D01*
X73651413Y-39067719D01*
X73560033Y-39204479D01*
X73497089Y-39356440D01*
X73465000Y-39517760D01*
X72535000Y-39517760D01*
X72502911Y-39356440D01*
X72439967Y-39204479D01*
X72348587Y-39067719D01*
X72232281Y-38951413D01*
X72095521Y-38860033D01*
X71943560Y-38797089D01*
X71782240Y-38765000D01*
X71617760Y-38765000D01*
X71456440Y-38797089D01*
X71304479Y-38860033D01*
X71167719Y-38951413D01*
X71051413Y-39067719D01*
X70960033Y-39204479D01*
X70897089Y-39356440D01*
X70865000Y-39517760D01*
X69935000Y-39517760D01*
X69902911Y-39356440D01*
X69839967Y-39204479D01*
X69748587Y-39067719D01*
X69632281Y-38951413D01*
X69495521Y-38860033D01*
X69343560Y-38797089D01*
X69182240Y-38765000D01*
X69017760Y-38765000D01*
X68856440Y-38797089D01*
X68704479Y-38860033D01*
X68567719Y-38951413D01*
X68451413Y-39067719D01*
X68360033Y-39204479D01*
X68297089Y-39356440D01*
X68265000Y-39517760D01*
X67335000Y-39517760D01*
X67302911Y-39356440D01*
X67239967Y-39204479D01*
X67148587Y-39067719D01*
X67032281Y-38951413D01*
X66895521Y-38860033D01*
X66743560Y-38797089D01*
X66582240Y-38765000D01*
X66417760Y-38765000D01*
X66256440Y-38797089D01*
X66104479Y-38860033D01*
X65967719Y-38951413D01*
X65851413Y-39067719D01*
X65760033Y-39204479D01*
X65697089Y-39356440D01*
X65665000Y-39517760D01*
X64735000Y-39517760D01*
X64702911Y-39356440D01*
X64639967Y-39204479D01*
X64548587Y-39067719D01*
X64432281Y-38951413D01*
X64295521Y-38860033D01*
X64143560Y-38797089D01*
X63982240Y-38765000D01*
X63817760Y-38765000D01*
X63656440Y-38797089D01*
X63504479Y-38860033D01*
X63367719Y-38951413D01*
X63251413Y-39067719D01*
X63160033Y-39204479D01*
X63097089Y-39356440D01*
X63065000Y-39517760D01*
X62135000Y-39517760D01*
X62102911Y-39356440D01*
X62039967Y-39204479D01*
X61948587Y-39067719D01*
X61832281Y-38951413D01*
X61695521Y-38860033D01*
X61543560Y-38797089D01*
X61382240Y-38765000D01*
X61217760Y-38765000D01*
X61056440Y-38797089D01*
X60904479Y-38860033D01*
X60767719Y-38951413D01*
X60651413Y-39067719D01*
X60560033Y-39204479D01*
X60497089Y-39356440D01*
X60465000Y-39517760D01*
X59535000Y-39517760D01*
X59502911Y-39356440D01*
X59439967Y-39204479D01*
X59348587Y-39067719D01*
X59232281Y-38951413D01*
X59095521Y-38860033D01*
X58943560Y-38797089D01*
X58782240Y-38765000D01*
X58617760Y-38765000D01*
X58456440Y-38797089D01*
X58304479Y-38860033D01*
X58167719Y-38951413D01*
X58051413Y-39067719D01*
X57960033Y-39204479D01*
X57897089Y-39356440D01*
X57865000Y-39517760D01*
X56935000Y-39517760D01*
X56902911Y-39356440D01*
X56839967Y-39204479D01*
X56748587Y-39067719D01*
X56632281Y-38951413D01*
X56495521Y-38860033D01*
X56343560Y-38797089D01*
X56182240Y-38765000D01*
X56017760Y-38765000D01*
X55856440Y-38797089D01*
X55704479Y-38860033D01*
X55567719Y-38951413D01*
X55451413Y-39067719D01*
X55360033Y-39204479D01*
X55297089Y-39356440D01*
X55265000Y-39517760D01*
X54335000Y-39517760D01*
X54302911Y-39356440D01*
X54239967Y-39204479D01*
X54148587Y-39067719D01*
X54032281Y-38951413D01*
X53895521Y-38860033D01*
X53743560Y-38797089D01*
X53582240Y-38765000D01*
X53417760Y-38765000D01*
X53256440Y-38797089D01*
X53104479Y-38860033D01*
X52967719Y-38951413D01*
X52851413Y-39067719D01*
X52760033Y-39204479D01*
X52697089Y-39356440D01*
X52665000Y-39517760D01*
X51735000Y-39517760D01*
X51702911Y-39356440D01*
X51639967Y-39204479D01*
X51548587Y-39067719D01*
X51432281Y-38951413D01*
X51295521Y-38860033D01*
X51143560Y-38797089D01*
X50982240Y-38765000D01*
X50817760Y-38765000D01*
X50656440Y-38797089D01*
X50504479Y-38860033D01*
X50367719Y-38951413D01*
X50251413Y-39067719D01*
X50160033Y-39204479D01*
X50097089Y-39356440D01*
X50065000Y-39517760D01*
X49135000Y-39517760D01*
X49102911Y-39356440D01*
X49039967Y-39204479D01*
X48948587Y-39067719D01*
X48832281Y-38951413D01*
X48695521Y-38860033D01*
X48543560Y-38797089D01*
X48382240Y-38765000D01*
X48217760Y-38765000D01*
X48056440Y-38797089D01*
X47904479Y-38860033D01*
X47767719Y-38951413D01*
X47651413Y-39067719D01*
X47560033Y-39204479D01*
X47497089Y-39356440D01*
X47465000Y-39517760D01*
X46535000Y-39517760D01*
X46502911Y-39356440D01*
X46439967Y-39204479D01*
X46348587Y-39067719D01*
X46232281Y-38951413D01*
X46095521Y-38860033D01*
X45943560Y-38797089D01*
X45782240Y-38765000D01*
X45617760Y-38765000D01*
X45456440Y-38797089D01*
X45304479Y-38860033D01*
X45167719Y-38951413D01*
X45051413Y-39067719D01*
X44960033Y-39204479D01*
X44897089Y-39356440D01*
X44865000Y-39517760D01*
X40685000Y-39517760D01*
X40685000Y-34631946D01*
X41263081Y-34631946D01*
X41263081Y-35368054D01*
X41406689Y-36090019D01*
X41688386Y-36770095D01*
X42097346Y-37382147D01*
X42617853Y-37902654D01*
X43229905Y-38311614D01*
X43909981Y-38593311D01*
X44631946Y-38736919D01*
X45368054Y-38736919D01*
X46090019Y-38593311D01*
X46770095Y-38311614D01*
X47382147Y-37902654D01*
X47902654Y-37382147D01*
X48311614Y-36770095D01*
X48593311Y-36090019D01*
X48736919Y-35368054D01*
X48736919Y-34631946D01*
X48674424Y-34317760D01*
X50065000Y-34317760D01*
X50065000Y-34482240D01*
X50097089Y-34643560D01*
X50160033Y-34795521D01*
X50251413Y-34932281D01*
X50367719Y-35048587D01*
X50504479Y-35139967D01*
X50656440Y-35202911D01*
X50817760Y-35235000D01*
X50982240Y-35235000D01*
X51143560Y-35202911D01*
X51295521Y-35139967D01*
X51432281Y-35048587D01*
X51548587Y-34932281D01*
X51639967Y-34795521D01*
X51702911Y-34643560D01*
X51735000Y-34482240D01*
X51735000Y-34317760D01*
X52665000Y-34317760D01*
X52665000Y-34482240D01*
X52697089Y-34643560D01*
X52760033Y-34795521D01*
X52851413Y-34932281D01*
X52967719Y-35048587D01*
X53104479Y-35139967D01*
X53256440Y-35202911D01*
X53417760Y-35235000D01*
X53582240Y-35235000D01*
X53743560Y-35202911D01*
X53895521Y-35139967D01*
X54032281Y-35048587D01*
X54148587Y-34932281D01*
X54239967Y-34795521D01*
X54302911Y-34643560D01*
X54335000Y-34482240D01*
X54335000Y-34317760D01*
X55265000Y-34317760D01*
X55265000Y-34482240D01*
X55297089Y-34643560D01*
X55360033Y-34795521D01*
X55451413Y-34932281D01*
X55567719Y-35048587D01*
X55704479Y-35139967D01*
X55856440Y-35202911D01*
X56017760Y-35235000D01*
X56182240Y-35235000D01*
X56343560Y-35202911D01*
X56495521Y-35139967D01*
X56632281Y-35048587D01*
X56748587Y-34932281D01*
X56839967Y-34795521D01*
X56902911Y-34643560D01*
X56935000Y-34482240D01*
X56935000Y-34317760D01*
X57865000Y-34317760D01*
X57865000Y-34482240D01*
X57897089Y-34643560D01*
X57960033Y-34795521D01*
X58051413Y-34932281D01*
X58167719Y-35048587D01*
X58304479Y-35139967D01*
X58456440Y-35202911D01*
X58617760Y-35235000D01*
X58782240Y-35235000D01*
X58943560Y-35202911D01*
X59095521Y-35139967D01*
X59232281Y-35048587D01*
X59348587Y-34932281D01*
X59439967Y-34795521D01*
X59502911Y-34643560D01*
X59535000Y-34482240D01*
X59535000Y-34317760D01*
X60465000Y-34317760D01*
X60465000Y-34482240D01*
X60497089Y-34643560D01*
X60560033Y-34795521D01*
X60651413Y-34932281D01*
X60767719Y-35048587D01*
X60904479Y-35139967D01*
X61056440Y-35202911D01*
X61217760Y-35235000D01*
X61382240Y-35235000D01*
X61543560Y-35202911D01*
X61695521Y-35139967D01*
X61832281Y-35048587D01*
X61948587Y-34932281D01*
X62039967Y-34795521D01*
X62102911Y-34643560D01*
X62135000Y-34482240D01*
X62135000Y-34317760D01*
X63065000Y-34317760D01*
X63065000Y-34482240D01*
X63097089Y-34643560D01*
X63160033Y-34795521D01*
X63251413Y-34932281D01*
X63367719Y-35048587D01*
X63504479Y-35139967D01*
X63656440Y-35202911D01*
X63817760Y-35235000D01*
X63982240Y-35235000D01*
X64143560Y-35202911D01*
X64295521Y-35139967D01*
X64432281Y-35048587D01*
X64548587Y-34932281D01*
X64639967Y-34795521D01*
X64702911Y-34643560D01*
X64735000Y-34482240D01*
X64735000Y-34317760D01*
X65665000Y-34317760D01*
X65665000Y-34482240D01*
X65697089Y-34643560D01*
X65760033Y-34795521D01*
X65851413Y-34932281D01*
X65967719Y-35048587D01*
X66104479Y-35139967D01*
X66256440Y-35202911D01*
X66417760Y-35235000D01*
X66582240Y-35235000D01*
X66743560Y-35202911D01*
X66895521Y-35139967D01*
X67032281Y-35048587D01*
X67148587Y-34932281D01*
X67239967Y-34795521D01*
X67302911Y-34643560D01*
X67335000Y-34482240D01*
X67335000Y-34317760D01*
X68265000Y-34317760D01*
X68265000Y-34482240D01*
X68297089Y-34643560D01*
X68360033Y-34795521D01*
X68451413Y-34932281D01*
X68567719Y-35048587D01*
X68704479Y-35139967D01*
X68856440Y-35202911D01*
X69017760Y-35235000D01*
X69182240Y-35235000D01*
X69343560Y-35202911D01*
X69495521Y-35139967D01*
X69632281Y-35048587D01*
X69748587Y-34932281D01*
X69839967Y-34795521D01*
X69902911Y-34643560D01*
X69905221Y-34631946D01*
X71263081Y-34631946D01*
X71263081Y-35368054D01*
X71406689Y-36090019D01*
X71688386Y-36770095D01*
X72097346Y-37382147D01*
X72617853Y-37902654D01*
X73229905Y-38311614D01*
X73909981Y-38593311D01*
X74631946Y-38736919D01*
X75368054Y-38736919D01*
X76090019Y-38593311D01*
X76770095Y-38311614D01*
X77382147Y-37902654D01*
X77902654Y-37382147D01*
X78311614Y-36770095D01*
X78593311Y-36090019D01*
X78736919Y-35368054D01*
X78736919Y-34631946D01*
X78593311Y-33909981D01*
X78311614Y-33229905D01*
X77902654Y-32617853D01*
X77382147Y-32097346D01*
X76770095Y-31688386D01*
X76090019Y-31406689D01*
X75368054Y-31263081D01*
X74631946Y-31263081D01*
X73909981Y-31406689D01*
X73229905Y-31688386D01*
X72617853Y-32097346D01*
X72097346Y-32617853D01*
X71688386Y-33229905D01*
X71406689Y-33909981D01*
X71263081Y-34631946D01*
X69905221Y-34631946D01*
X69935000Y-34482240D01*
X69935000Y-34317760D01*
X69902911Y-34156440D01*
X69839967Y-34004479D01*
X69748587Y-33867719D01*
X69632281Y-33751413D01*
X69495521Y-33660033D01*
X69343560Y-33597089D01*
X69182240Y-33565000D01*
X69017760Y-33565000D01*
X68856440Y-33597089D01*
X68704479Y-33660033D01*
X68567719Y-33751413D01*
X68451413Y-33867719D01*
X68360033Y-34004479D01*
X68297089Y-34156440D01*
X68265000Y-34317760D01*
X67335000Y-34317760D01*
X67302911Y-34156440D01*
X67239967Y-34004479D01*
X67148587Y-33867719D01*
X67032281Y-33751413D01*
X66895521Y-33660033D01*
X66743560Y-33597089D01*
X66582240Y-33565000D01*
X66417760Y-33565000D01*
X66256440Y-33597089D01*
X66104479Y-33660033D01*
X65967719Y-33751413D01*
X65851413Y-33867719D01*
X65760033Y-34004479D01*
X65697089Y-34156440D01*
X65665000Y-34317760D01*
X64735000Y-34317760D01*
X64702911Y-34156440D01*
X64639967Y-34004479D01*
X64548587Y-33867719D01*
X64432281Y-33751413D01*
X64295521Y-33660033D01*
X64143560Y-33597089D01*
X63982240Y-33565000D01*
X63817760Y-33565000D01*
X63656440Y-33597089D01*
X63504479Y-33660033D01*
X63367719Y-33751413D01*
X63251413Y-33867719D01*
X63160033Y-34004479D01*
X63097089Y-34156440D01*
X63065000Y-34317760D01*
X62135000Y-34317760D01*
X62102911Y-34156440D01*
X62039967Y-34004479D01*
X61948587Y-33867719D01*
X61832281Y-33751413D01*
X61695521Y-33660033D01*
X61543560Y-33597089D01*
X61382240Y-33565000D01*
X61217760Y-33565000D01*
X61056440Y-33597089D01*
X60904479Y-33660033D01*
X60767719Y-33751413D01*
X60651413Y-33867719D01*
X60560033Y-34004479D01*
X60497089Y-34156440D01*
X60465000Y-34317760D01*
X59535000Y-34317760D01*
X59502911Y-34156440D01*
X59439967Y-34004479D01*
X59348587Y-33867719D01*
X59232281Y-33751413D01*
X59095521Y-33660033D01*
X58943560Y-33597089D01*
X58782240Y-33565000D01*
X58617760Y-33565000D01*
X58456440Y-33597089D01*
X58304479Y-33660033D01*
X58167719Y-33751413D01*
X58051413Y-33867719D01*
X57960033Y-34004479D01*
X57897089Y-34156440D01*
X57865000Y-34317760D01*
X56935000Y-34317760D01*
X56902911Y-34156440D01*
X56839967Y-34004479D01*
X56748587Y-33867719D01*
X56632281Y-33751413D01*
X56495521Y-33660033D01*
X56343560Y-33597089D01*
X56182240Y-33565000D01*
X56017760Y-33565000D01*
X55856440Y-33597089D01*
X55704479Y-33660033D01*
X55567719Y-33751413D01*
X55451413Y-33867719D01*
X55360033Y-34004479D01*
X55297089Y-34156440D01*
X55265000Y-34317760D01*
X54335000Y-34317760D01*
X54302911Y-34156440D01*
X54239967Y-34004479D01*
X54148587Y-33867719D01*
X54032281Y-33751413D01*
X53895521Y-33660033D01*
X53743560Y-33597089D01*
X53582240Y-33565000D01*
X53417760Y-33565000D01*
X53256440Y-33597089D01*
X53104479Y-33660033D01*
X52967719Y-33751413D01*
X52851413Y-33867719D01*
X52760033Y-34004479D01*
X52697089Y-34156440D01*
X52665000Y-34317760D01*
X51735000Y-34317760D01*
X51702911Y-34156440D01*
X51639967Y-34004479D01*
X51548587Y-33867719D01*
X51432281Y-33751413D01*
X51295521Y-33660033D01*
X51143560Y-33597089D01*
X50982240Y-33565000D01*
X50817760Y-33565000D01*
X50656440Y-33597089D01*
X50504479Y-33660033D01*
X50367719Y-33751413D01*
X50251413Y-33867719D01*
X50160033Y-34004479D01*
X50097089Y-34156440D01*
X50065000Y-34317760D01*
X48674424Y-34317760D01*
X48593311Y-33909981D01*
X48311614Y-33229905D01*
X47902654Y-32617853D01*
X47382147Y-32097346D01*
X46770095Y-31688386D01*
X46090019Y-31406689D01*
X45368054Y-31263081D01*
X44631946Y-31263081D01*
X43909981Y-31406689D01*
X43229905Y-31688386D01*
X42617853Y-32097346D01*
X42097346Y-32617853D01*
X41688386Y-33229905D01*
X41406689Y-33909981D01*
X41263081Y-34631946D01*
X40685000Y-34631946D01*
X40685000Y-28118061D01*
X57065000Y-28118061D01*
X57065000Y-28321939D01*
X57104774Y-28521898D01*
X57182795Y-28710256D01*
X57296063Y-28879774D01*
X57440226Y-29023937D01*
X57609744Y-29137205D01*
X57798102Y-29215226D01*
X57998061Y-29255000D01*
X58201939Y-29255000D01*
X58401898Y-29215226D01*
X58590256Y-29137205D01*
X58759774Y-29023937D01*
X58903937Y-28879774D01*
X59017205Y-28710256D01*
X59095226Y-28521898D01*
X59135000Y-28321939D01*
X59135000Y-28118061D01*
X59133011Y-28108061D01*
X60075000Y-28108061D01*
X60075000Y-28311939D01*
X60114774Y-28511898D01*
X60192795Y-28700256D01*
X60306063Y-28869774D01*
X60450226Y-29013937D01*
X60619744Y-29127205D01*
X60808102Y-29205226D01*
X61008061Y-29245000D01*
X61211939Y-29245000D01*
X61411898Y-29205226D01*
X61600256Y-29127205D01*
X61769774Y-29013937D01*
X61913937Y-28869774D01*
X62027205Y-28700256D01*
X62105226Y-28511898D01*
X62145000Y-28311939D01*
X62145000Y-28108061D01*
X62141022Y-28088061D01*
X63095000Y-28088061D01*
X63095000Y-28291939D01*
X63134774Y-28491898D01*
X63212795Y-28680256D01*
X63326063Y-28849774D01*
X63470226Y-28993937D01*
X63639744Y-29107205D01*
X63828102Y-29185226D01*
X64028061Y-29225000D01*
X64231939Y-29225000D01*
X64431898Y-29185226D01*
X64620256Y-29107205D01*
X64789774Y-28993937D01*
X64933937Y-28849774D01*
X65047205Y-28680256D01*
X65125226Y-28491898D01*
X65165000Y-28291939D01*
X65165000Y-28088061D01*
X65125226Y-27888102D01*
X65047205Y-27699744D01*
X64933937Y-27530226D01*
X64789774Y-27386063D01*
X64620256Y-27272795D01*
X64431898Y-27194774D01*
X64231939Y-27155000D01*
X64028061Y-27155000D01*
X63828102Y-27194774D01*
X63639744Y-27272795D01*
X63470226Y-27386063D01*
X63326063Y-27530226D01*
X63212795Y-27699744D01*
X63134774Y-27888102D01*
X63095000Y-28088061D01*
X62141022Y-28088061D01*
X62105226Y-27908102D01*
X62027205Y-27719744D01*
X61913937Y-27550226D01*
X61769774Y-27406063D01*
X61600256Y-27292795D01*
X61411898Y-27214774D01*
X61211939Y-27175000D01*
X61008061Y-27175000D01*
X60808102Y-27214774D01*
X60619744Y-27292795D01*
X60450226Y-27406063D01*
X60306063Y-27550226D01*
X60192795Y-27719744D01*
X60114774Y-27908102D01*
X60075000Y-28108061D01*
X59133011Y-28108061D01*
X59095226Y-27918102D01*
X59017205Y-27729744D01*
X58903937Y-27560226D01*
X58759774Y-27416063D01*
X58590256Y-27302795D01*
X58401898Y-27224774D01*
X58201939Y-27185000D01*
X57998061Y-27185000D01*
X57798102Y-27224774D01*
X57609744Y-27302795D01*
X57440226Y-27416063D01*
X57296063Y-27560226D01*
X57182795Y-27729744D01*
X57104774Y-27918102D01*
X57065000Y-28118061D01*
X40685000Y-28118061D01*
X40685000Y-25033505D01*
X40732312Y-24550984D01*
X40808673Y-24298061D01*
X43565000Y-24298061D01*
X43565000Y-24501939D01*
X43604774Y-24701898D01*
X43682795Y-24890256D01*
X43796063Y-25059774D01*
X43940226Y-25203937D01*
X44109744Y-25317205D01*
X44298102Y-25395226D01*
X44498061Y-25435000D01*
X44701939Y-25435000D01*
X44901898Y-25395226D01*
X45090256Y-25317205D01*
X45259774Y-25203937D01*
X45403937Y-25059774D01*
X45517205Y-24890256D01*
X45595226Y-24701898D01*
X45635000Y-24501939D01*
X45635000Y-24298061D01*
X47565000Y-24298061D01*
X47565000Y-24501939D01*
X47604774Y-24701898D01*
X47682795Y-24890256D01*
X47796063Y-25059774D01*
X47940226Y-25203937D01*
X48109744Y-25317205D01*
X48298102Y-25395226D01*
X48498061Y-25435000D01*
X48701939Y-25435000D01*
X48901898Y-25395226D01*
X49090256Y-25317205D01*
X49259774Y-25203937D01*
X49403937Y-25059774D01*
X49517205Y-24890256D01*
X49595226Y-24701898D01*
X49635000Y-24501939D01*
X49635000Y-24298061D01*
X70965000Y-24298061D01*
X70965000Y-24501939D01*
X71004774Y-24701898D01*
X71082795Y-24890256D01*
X71196063Y-25059774D01*
X71340226Y-25203937D01*
X71509744Y-25317205D01*
X71698102Y-25395226D01*
X71898061Y-25435000D01*
X72101939Y-25435000D01*
X72301898Y-25395226D01*
X72490256Y-25317205D01*
X72659774Y-25203937D01*
X72803937Y-25059774D01*
X72917205Y-24890256D01*
X72995226Y-24701898D01*
X73035000Y-24501939D01*
X73035000Y-24298061D01*
X74965000Y-24298061D01*
X74965000Y-24501939D01*
X75004774Y-24701898D01*
X75082795Y-24890256D01*
X75196063Y-25059774D01*
X75340226Y-25203937D01*
X75509744Y-25317205D01*
X75698102Y-25395226D01*
X75898061Y-25435000D01*
X76101939Y-25435000D01*
X76301898Y-25395226D01*
X76490256Y-25317205D01*
X76659774Y-25203937D01*
X76803937Y-25059774D01*
X76917205Y-24890256D01*
X76995226Y-24701898D01*
X77035000Y-24501939D01*
X77035000Y-24298061D01*
X76995226Y-24098102D01*
X76917205Y-23909744D01*
X76803937Y-23740226D01*
X76659774Y-23596063D01*
X76490256Y-23482795D01*
X76301898Y-23404774D01*
X76101939Y-23365000D01*
X75898061Y-23365000D01*
X75698102Y-23404774D01*
X75509744Y-23482795D01*
X75340226Y-23596063D01*
X75196063Y-23740226D01*
X75082795Y-23909744D01*
X75004774Y-24098102D01*
X74965000Y-24298061D01*
X73035000Y-24298061D01*
X72995226Y-24098102D01*
X72917205Y-23909744D01*
X72803937Y-23740226D01*
X72659774Y-23596063D01*
X72490256Y-23482795D01*
X72301898Y-23404774D01*
X72101939Y-23365000D01*
X71898061Y-23365000D01*
X71698102Y-23404774D01*
X71509744Y-23482795D01*
X71340226Y-23596063D01*
X71196063Y-23740226D01*
X71082795Y-23909744D01*
X71004774Y-24098102D01*
X70965000Y-24298061D01*
X49635000Y-24298061D01*
X49595226Y-24098102D01*
X49517205Y-23909744D01*
X49403937Y-23740226D01*
X49259774Y-23596063D01*
X49090256Y-23482795D01*
X48901898Y-23404774D01*
X48701939Y-23365000D01*
X48498061Y-23365000D01*
X48298102Y-23404774D01*
X48109744Y-23482795D01*
X47940226Y-23596063D01*
X47796063Y-23740226D01*
X47682795Y-23909744D01*
X47604774Y-24098102D01*
X47565000Y-24298061D01*
X45635000Y-24298061D01*
X45595226Y-24098102D01*
X45517205Y-23909744D01*
X45403937Y-23740226D01*
X45259774Y-23596063D01*
X45090256Y-23482795D01*
X44901898Y-23404774D01*
X44701939Y-23365000D01*
X44498061Y-23365000D01*
X44298102Y-23404774D01*
X44109744Y-23482795D01*
X43940226Y-23596063D01*
X43796063Y-23740226D01*
X43682795Y-23909744D01*
X43604774Y-24098102D01*
X43565000Y-24298061D01*
X40808673Y-24298061D01*
X40862714Y-24119070D01*
X41074524Y-23720715D01*
X41359675Y-23371086D01*
X41707303Y-23083503D01*
X42104177Y-22868914D01*
X42535161Y-22735502D01*
X43015654Y-22685000D01*
X76966495Y-22685000D01*
X77449016Y-22732312D01*
G37*
G04 #@! TD.AperFunction*
M02*
