G04 #@! TF.GenerationSoftware,KiCad,Pcbnew,(5.1.9-0-10_14)*
G04 #@! TF.CreationDate,2021-05-04T01:16:58-07:00*
G04 #@! TF.ProjectId,LED_array,4c45445f-6172-4726-9179-2e6b69636164,rev?*
G04 #@! TF.SameCoordinates,Original*
G04 #@! TF.FileFunction,Legend,Bot*
G04 #@! TF.FilePolarity,Positive*
%FSLAX46Y46*%
G04 Gerber Fmt 4.6, Leading zero omitted, Abs format (unit mm)*
G04 Created by KiCad (PCBNEW (5.1.9-0-10_14)) date 2021-05-04 01:16:58*
%MOMM*%
%LPD*%
G01*
G04 APERTURE LIST*
%ADD10C,0.150000*%
G04 APERTURE END LIST*
D10*
X69990476Y-58077380D02*
X69990476Y-57077380D01*
X69752380Y-57077380D01*
X69609523Y-57125000D01*
X69514285Y-57220238D01*
X69466666Y-57315476D01*
X69419047Y-57505952D01*
X69419047Y-57648809D01*
X69466666Y-57839285D01*
X69514285Y-57934523D01*
X69609523Y-58029761D01*
X69752380Y-58077380D01*
X69990476Y-58077380D01*
X68609523Y-58029761D02*
X68704761Y-58077380D01*
X68895238Y-58077380D01*
X68990476Y-58029761D01*
X69038095Y-57934523D01*
X69038095Y-57553571D01*
X68990476Y-57458333D01*
X68895238Y-57410714D01*
X68704761Y-57410714D01*
X68609523Y-57458333D01*
X68561904Y-57553571D01*
X68561904Y-57648809D01*
X69038095Y-57744047D01*
X68180952Y-58029761D02*
X68085714Y-58077380D01*
X67895238Y-58077380D01*
X67800000Y-58029761D01*
X67752380Y-57934523D01*
X67752380Y-57886904D01*
X67800000Y-57791666D01*
X67895238Y-57744047D01*
X68038095Y-57744047D01*
X68133333Y-57696428D01*
X68180952Y-57601190D01*
X68180952Y-57553571D01*
X68133333Y-57458333D01*
X68038095Y-57410714D01*
X67895238Y-57410714D01*
X67800000Y-57458333D01*
X67323809Y-58077380D02*
X67323809Y-57410714D01*
X67323809Y-57077380D02*
X67371428Y-57125000D01*
X67323809Y-57172619D01*
X67276190Y-57125000D01*
X67323809Y-57077380D01*
X67323809Y-57172619D01*
X66419047Y-57410714D02*
X66419047Y-58220238D01*
X66466666Y-58315476D01*
X66514285Y-58363095D01*
X66609523Y-58410714D01*
X66752380Y-58410714D01*
X66847619Y-58363095D01*
X66419047Y-58029761D02*
X66514285Y-58077380D01*
X66704761Y-58077380D01*
X66800000Y-58029761D01*
X66847619Y-57982142D01*
X66895238Y-57886904D01*
X66895238Y-57601190D01*
X66847619Y-57505952D01*
X66800000Y-57458333D01*
X66704761Y-57410714D01*
X66514285Y-57410714D01*
X66419047Y-57458333D01*
X65942857Y-57410714D02*
X65942857Y-58077380D01*
X65942857Y-57505952D02*
X65895238Y-57458333D01*
X65800000Y-57410714D01*
X65657142Y-57410714D01*
X65561904Y-57458333D01*
X65514285Y-57553571D01*
X65514285Y-58077380D01*
X64657142Y-58029761D02*
X64752380Y-58077380D01*
X64942857Y-58077380D01*
X65038095Y-58029761D01*
X65085714Y-57934523D01*
X65085714Y-57553571D01*
X65038095Y-57458333D01*
X64942857Y-57410714D01*
X64752380Y-57410714D01*
X64657142Y-57458333D01*
X64609523Y-57553571D01*
X64609523Y-57648809D01*
X65085714Y-57744047D01*
X63752380Y-58077380D02*
X63752380Y-57077380D01*
X63752380Y-58029761D02*
X63847619Y-58077380D01*
X64038095Y-58077380D01*
X64133333Y-58029761D01*
X64180952Y-57982142D01*
X64228571Y-57886904D01*
X64228571Y-57601190D01*
X64180952Y-57505952D01*
X64133333Y-57458333D01*
X64038095Y-57410714D01*
X63847619Y-57410714D01*
X63752380Y-57458333D01*
X62514285Y-58077380D02*
X62514285Y-57077380D01*
X62514285Y-57458333D02*
X62419047Y-57410714D01*
X62228571Y-57410714D01*
X62133333Y-57458333D01*
X62085714Y-57505952D01*
X62038095Y-57601190D01*
X62038095Y-57886904D01*
X62085714Y-57982142D01*
X62133333Y-58029761D01*
X62228571Y-58077380D01*
X62419047Y-58077380D01*
X62514285Y-58029761D01*
X61704761Y-57410714D02*
X61466666Y-58077380D01*
X61228571Y-57410714D02*
X61466666Y-58077380D01*
X61561904Y-58315476D01*
X61609523Y-58363095D01*
X61704761Y-58410714D01*
X59514285Y-58077380D02*
X59847619Y-57601190D01*
X60085714Y-58077380D02*
X60085714Y-57077380D01*
X59704761Y-57077380D01*
X59609523Y-57125000D01*
X59561904Y-57172619D01*
X59514285Y-57267857D01*
X59514285Y-57410714D01*
X59561904Y-57505952D01*
X59609523Y-57553571D01*
X59704761Y-57601190D01*
X60085714Y-57601190D01*
X59085714Y-58077380D02*
X59085714Y-57410714D01*
X59085714Y-57077380D02*
X59133333Y-57125000D01*
X59085714Y-57172619D01*
X59038095Y-57125000D01*
X59085714Y-57077380D01*
X59085714Y-57172619D01*
X58609523Y-57410714D02*
X58609523Y-58077380D01*
X58609523Y-57505952D02*
X58561904Y-57458333D01*
X58466666Y-57410714D01*
X58323809Y-57410714D01*
X58228571Y-57458333D01*
X58180952Y-57553571D01*
X58180952Y-58077380D01*
X57704761Y-57410714D02*
X57704761Y-58077380D01*
X57704761Y-57505952D02*
X57657142Y-57458333D01*
X57561904Y-57410714D01*
X57419047Y-57410714D01*
X57323809Y-57458333D01*
X57276190Y-57553571D01*
X57276190Y-58077380D01*
X56800000Y-58077380D02*
X56800000Y-57410714D01*
X56800000Y-57077380D02*
X56847619Y-57125000D01*
X56800000Y-57172619D01*
X56752380Y-57125000D01*
X56800000Y-57077380D01*
X56800000Y-57172619D01*
X55228571Y-57553571D02*
X55085714Y-57601190D01*
X55038095Y-57648809D01*
X54990476Y-57744047D01*
X54990476Y-57886904D01*
X55038095Y-57982142D01*
X55085714Y-58029761D01*
X55180952Y-58077380D01*
X55561904Y-58077380D01*
X55561904Y-57077380D01*
X55228571Y-57077380D01*
X55133333Y-57125000D01*
X55085714Y-57172619D01*
X55038095Y-57267857D01*
X55038095Y-57363095D01*
X55085714Y-57458333D01*
X55133333Y-57505952D01*
X55228571Y-57553571D01*
X55561904Y-57553571D01*
X54561904Y-58077380D02*
X54561904Y-57077380D01*
X54133333Y-58077380D02*
X54133333Y-57553571D01*
X54180952Y-57458333D01*
X54276190Y-57410714D01*
X54419047Y-57410714D01*
X54514285Y-57458333D01*
X54561904Y-57505952D01*
X53228571Y-58077380D02*
X53228571Y-57553571D01*
X53276190Y-57458333D01*
X53371428Y-57410714D01*
X53561904Y-57410714D01*
X53657142Y-57458333D01*
X53228571Y-58029761D02*
X53323809Y-58077380D01*
X53561904Y-58077380D01*
X53657142Y-58029761D01*
X53704761Y-57934523D01*
X53704761Y-57839285D01*
X53657142Y-57744047D01*
X53561904Y-57696428D01*
X53323809Y-57696428D01*
X53228571Y-57648809D01*
X52752380Y-57410714D02*
X52752380Y-58077380D01*
X52752380Y-57505952D02*
X52704761Y-57458333D01*
X52609523Y-57410714D01*
X52466666Y-57410714D01*
X52371428Y-57458333D01*
X52323809Y-57553571D01*
X52323809Y-58077380D01*
X51895238Y-58029761D02*
X51800000Y-58077380D01*
X51609523Y-58077380D01*
X51514285Y-58029761D01*
X51466666Y-57934523D01*
X51466666Y-57886904D01*
X51514285Y-57791666D01*
X51609523Y-57744047D01*
X51752380Y-57744047D01*
X51847619Y-57696428D01*
X51895238Y-57601190D01*
X51895238Y-57553571D01*
X51847619Y-57458333D01*
X51752380Y-57410714D01*
X51609523Y-57410714D01*
X51514285Y-57458333D01*
X50609523Y-58077380D02*
X50609523Y-57553571D01*
X50657142Y-57458333D01*
X50752380Y-57410714D01*
X50942857Y-57410714D01*
X51038095Y-57458333D01*
X50609523Y-58029761D02*
X50704761Y-58077380D01*
X50942857Y-58077380D01*
X51038095Y-58029761D01*
X51085714Y-57934523D01*
X51085714Y-57839285D01*
X51038095Y-57744047D01*
X50942857Y-57696428D01*
X50704761Y-57696428D01*
X50609523Y-57648809D01*
X49990476Y-58077380D02*
X50085714Y-58029761D01*
X50133333Y-57934523D01*
X50133333Y-57077380D01*
X49609523Y-58077380D02*
X49609523Y-57410714D01*
X49609523Y-57077380D02*
X49657142Y-57125000D01*
X49609523Y-57172619D01*
X49561904Y-57125000D01*
X49609523Y-57077380D01*
X49609523Y-57172619D01*
X73085714Y-58727380D02*
X72847619Y-59727380D01*
X72657142Y-59013095D01*
X72466666Y-59727380D01*
X72228571Y-58727380D01*
X71847619Y-59727380D02*
X71847619Y-59060714D01*
X71847619Y-58727380D02*
X71895238Y-58775000D01*
X71847619Y-58822619D01*
X71800000Y-58775000D01*
X71847619Y-58727380D01*
X71847619Y-58822619D01*
X71514285Y-59060714D02*
X71133333Y-59060714D01*
X71371428Y-58727380D02*
X71371428Y-59584523D01*
X71323809Y-59679761D01*
X71228571Y-59727380D01*
X71133333Y-59727380D01*
X70800000Y-59727380D02*
X70800000Y-58727380D01*
X70371428Y-59727380D02*
X70371428Y-59203571D01*
X70419047Y-59108333D01*
X70514285Y-59060714D01*
X70657142Y-59060714D01*
X70752380Y-59108333D01*
X70800000Y-59155952D01*
X69133333Y-59727380D02*
X69133333Y-59060714D01*
X69133333Y-59155952D02*
X69085714Y-59108333D01*
X68990476Y-59060714D01*
X68847619Y-59060714D01*
X68752380Y-59108333D01*
X68704761Y-59203571D01*
X68704761Y-59727380D01*
X68704761Y-59203571D02*
X68657142Y-59108333D01*
X68561904Y-59060714D01*
X68419047Y-59060714D01*
X68323809Y-59108333D01*
X68276190Y-59203571D01*
X68276190Y-59727380D01*
X67800000Y-59727380D02*
X67800000Y-59060714D01*
X67800000Y-58727380D02*
X67847619Y-58775000D01*
X67800000Y-58822619D01*
X67752380Y-58775000D01*
X67800000Y-58727380D01*
X67800000Y-58822619D01*
X67323809Y-59060714D02*
X67323809Y-59727380D01*
X67323809Y-59155952D02*
X67276190Y-59108333D01*
X67180952Y-59060714D01*
X67038095Y-59060714D01*
X66942857Y-59108333D01*
X66895238Y-59203571D01*
X66895238Y-59727380D01*
X66276190Y-59727380D02*
X66371428Y-59679761D01*
X66419047Y-59632142D01*
X66466666Y-59536904D01*
X66466666Y-59251190D01*
X66419047Y-59155952D01*
X66371428Y-59108333D01*
X66276190Y-59060714D01*
X66133333Y-59060714D01*
X66038095Y-59108333D01*
X65990476Y-59155952D01*
X65942857Y-59251190D01*
X65942857Y-59536904D01*
X65990476Y-59632142D01*
X66038095Y-59679761D01*
X66133333Y-59727380D01*
X66276190Y-59727380D01*
X65514285Y-59727380D02*
X65514285Y-59060714D01*
X65514285Y-59251190D02*
X65466666Y-59155952D01*
X65419047Y-59108333D01*
X65323809Y-59060714D01*
X65228571Y-59060714D01*
X63752380Y-59679761D02*
X63847619Y-59727380D01*
X64038095Y-59727380D01*
X64133333Y-59679761D01*
X64180952Y-59584523D01*
X64180952Y-59203571D01*
X64133333Y-59108333D01*
X64038095Y-59060714D01*
X63847619Y-59060714D01*
X63752380Y-59108333D01*
X63704761Y-59203571D01*
X63704761Y-59298809D01*
X64180952Y-59394047D01*
X62847619Y-59727380D02*
X62847619Y-58727380D01*
X62847619Y-59679761D02*
X62942857Y-59727380D01*
X63133333Y-59727380D01*
X63228571Y-59679761D01*
X63276190Y-59632142D01*
X63323809Y-59536904D01*
X63323809Y-59251190D01*
X63276190Y-59155952D01*
X63228571Y-59108333D01*
X63133333Y-59060714D01*
X62942857Y-59060714D01*
X62847619Y-59108333D01*
X62371428Y-59727380D02*
X62371428Y-59060714D01*
X62371428Y-58727380D02*
X62419047Y-58775000D01*
X62371428Y-58822619D01*
X62323809Y-58775000D01*
X62371428Y-58727380D01*
X62371428Y-58822619D01*
X62038095Y-59060714D02*
X61657142Y-59060714D01*
X61895238Y-58727380D02*
X61895238Y-59584523D01*
X61847619Y-59679761D01*
X61752380Y-59727380D01*
X61657142Y-59727380D01*
X61371428Y-59679761D02*
X61276190Y-59727380D01*
X61085714Y-59727380D01*
X60990476Y-59679761D01*
X60942857Y-59584523D01*
X60942857Y-59536904D01*
X60990476Y-59441666D01*
X61085714Y-59394047D01*
X61228571Y-59394047D01*
X61323809Y-59346428D01*
X61371428Y-59251190D01*
X61371428Y-59203571D01*
X61323809Y-59108333D01*
X61228571Y-59060714D01*
X61085714Y-59060714D01*
X60990476Y-59108333D01*
X59895238Y-59060714D02*
X59514285Y-59060714D01*
X59752380Y-59727380D02*
X59752380Y-58870238D01*
X59704761Y-58775000D01*
X59609523Y-58727380D01*
X59514285Y-58727380D01*
X59180952Y-59727380D02*
X59180952Y-59060714D01*
X59180952Y-59251190D02*
X59133333Y-59155952D01*
X59085714Y-59108333D01*
X58990476Y-59060714D01*
X58895238Y-59060714D01*
X58419047Y-59727380D02*
X58514285Y-59679761D01*
X58561904Y-59632142D01*
X58609523Y-59536904D01*
X58609523Y-59251190D01*
X58561904Y-59155952D01*
X58514285Y-59108333D01*
X58419047Y-59060714D01*
X58276190Y-59060714D01*
X58180952Y-59108333D01*
X58133333Y-59155952D01*
X58085714Y-59251190D01*
X58085714Y-59536904D01*
X58133333Y-59632142D01*
X58180952Y-59679761D01*
X58276190Y-59727380D01*
X58419047Y-59727380D01*
X57657142Y-59727380D02*
X57657142Y-59060714D01*
X57657142Y-59155952D02*
X57609523Y-59108333D01*
X57514285Y-59060714D01*
X57371428Y-59060714D01*
X57276190Y-59108333D01*
X57228571Y-59203571D01*
X57228571Y-59727380D01*
X57228571Y-59203571D02*
X57180952Y-59108333D01*
X57085714Y-59060714D01*
X56942857Y-59060714D01*
X56847619Y-59108333D01*
X56800000Y-59203571D01*
X56800000Y-59727380D01*
X55561904Y-59727380D02*
X55561904Y-58727380D01*
X55561904Y-59203571D02*
X54990476Y-59203571D01*
X54990476Y-59727380D02*
X54990476Y-58727380D01*
X54371428Y-59727380D02*
X54466666Y-59679761D01*
X54514285Y-59632142D01*
X54561904Y-59536904D01*
X54561904Y-59251190D01*
X54514285Y-59155952D01*
X54466666Y-59108333D01*
X54371428Y-59060714D01*
X54228571Y-59060714D01*
X54133333Y-59108333D01*
X54085714Y-59155952D01*
X54038095Y-59251190D01*
X54038095Y-59536904D01*
X54085714Y-59632142D01*
X54133333Y-59679761D01*
X54228571Y-59727380D01*
X54371428Y-59727380D01*
X53609523Y-59060714D02*
X53609523Y-59727380D01*
X53609523Y-59155952D02*
X53561904Y-59108333D01*
X53466666Y-59060714D01*
X53323809Y-59060714D01*
X53228571Y-59108333D01*
X53180952Y-59203571D01*
X53180952Y-59727380D01*
X52276190Y-59060714D02*
X52276190Y-59870238D01*
X52323809Y-59965476D01*
X52371428Y-60013095D01*
X52466666Y-60060714D01*
X52609523Y-60060714D01*
X52704761Y-60013095D01*
X52276190Y-59679761D02*
X52371428Y-59727380D01*
X52561904Y-59727380D01*
X52657142Y-59679761D01*
X52704761Y-59632142D01*
X52752380Y-59536904D01*
X52752380Y-59251190D01*
X52704761Y-59155952D01*
X52657142Y-59108333D01*
X52561904Y-59060714D01*
X52371428Y-59060714D01*
X52276190Y-59108333D01*
X51371428Y-59060714D02*
X51371428Y-60060714D01*
X51371428Y-59679761D02*
X51466666Y-59727380D01*
X51657142Y-59727380D01*
X51752380Y-59679761D01*
X51800000Y-59632142D01*
X51847619Y-59536904D01*
X51847619Y-59251190D01*
X51800000Y-59155952D01*
X51752380Y-59108333D01*
X51657142Y-59060714D01*
X51466666Y-59060714D01*
X51371428Y-59108333D01*
X50466666Y-59060714D02*
X50466666Y-59727380D01*
X50895238Y-59060714D02*
X50895238Y-59584523D01*
X50847619Y-59679761D01*
X50752380Y-59727380D01*
X50609523Y-59727380D01*
X50514285Y-59679761D01*
X50466666Y-59632142D01*
X49561904Y-59727380D02*
X49561904Y-59203571D01*
X49609523Y-59108333D01*
X49704761Y-59060714D01*
X49895238Y-59060714D01*
X49990476Y-59108333D01*
X49561904Y-59679761D02*
X49657142Y-59727380D01*
X49895238Y-59727380D01*
X49990476Y-59679761D01*
X50038095Y-59584523D01*
X50038095Y-59489285D01*
X49990476Y-59394047D01*
X49895238Y-59346428D01*
X49657142Y-59346428D01*
X49561904Y-59298809D01*
X49085714Y-59060714D02*
X49085714Y-59727380D01*
X49085714Y-59155952D02*
X49038095Y-59108333D01*
X48942857Y-59060714D01*
X48800000Y-59060714D01*
X48704761Y-59108333D01*
X48657142Y-59203571D01*
X48657142Y-59727380D01*
X46942857Y-59727380D02*
X47419047Y-59727380D01*
X47419047Y-58727380D01*
X46609523Y-59727380D02*
X46609523Y-59060714D01*
X46609523Y-58727380D02*
X46657142Y-58775000D01*
X46609523Y-58822619D01*
X46561904Y-58775000D01*
X46609523Y-58727380D01*
X46609523Y-58822619D01*
X72038095Y-61377380D02*
X72038095Y-60377380D01*
X71657142Y-60377380D01*
X71561904Y-60425000D01*
X71514285Y-60472619D01*
X71466666Y-60567857D01*
X71466666Y-60710714D01*
X71514285Y-60805952D01*
X71561904Y-60853571D01*
X71657142Y-60901190D01*
X72038095Y-60901190D01*
X71038095Y-61377380D02*
X71038095Y-60710714D01*
X71038095Y-60901190D02*
X70990476Y-60805952D01*
X70942857Y-60758333D01*
X70847619Y-60710714D01*
X70752380Y-60710714D01*
X69990476Y-61377380D02*
X69990476Y-60853571D01*
X70038095Y-60758333D01*
X70133333Y-60710714D01*
X70323809Y-60710714D01*
X70419047Y-60758333D01*
X69990476Y-61329761D02*
X70085714Y-61377380D01*
X70323809Y-61377380D01*
X70419047Y-61329761D01*
X70466666Y-61234523D01*
X70466666Y-61139285D01*
X70419047Y-61044047D01*
X70323809Y-60996428D01*
X70085714Y-60996428D01*
X69990476Y-60948809D01*
X69514285Y-61377380D02*
X69514285Y-60377380D01*
X69419047Y-60996428D02*
X69133333Y-61377380D01*
X69133333Y-60710714D02*
X69514285Y-61091666D01*
X68276190Y-61377380D02*
X68276190Y-60853571D01*
X68323809Y-60758333D01*
X68419047Y-60710714D01*
X68609523Y-60710714D01*
X68704761Y-60758333D01*
X68276190Y-61329761D02*
X68371428Y-61377380D01*
X68609523Y-61377380D01*
X68704761Y-61329761D01*
X68752380Y-61234523D01*
X68752380Y-61139285D01*
X68704761Y-61044047D01*
X68609523Y-60996428D01*
X68371428Y-60996428D01*
X68276190Y-60948809D01*
X67847619Y-61329761D02*
X67752380Y-61377380D01*
X67561904Y-61377380D01*
X67466666Y-61329761D01*
X67419047Y-61234523D01*
X67419047Y-61186904D01*
X67466666Y-61091666D01*
X67561904Y-61044047D01*
X67704761Y-61044047D01*
X67800000Y-60996428D01*
X67847619Y-60901190D01*
X67847619Y-60853571D01*
X67800000Y-60758333D01*
X67704761Y-60710714D01*
X67561904Y-60710714D01*
X67466666Y-60758333D01*
X66990476Y-61377380D02*
X66990476Y-60377380D01*
X66561904Y-61377380D02*
X66561904Y-60853571D01*
X66609523Y-60758333D01*
X66704761Y-60710714D01*
X66847619Y-60710714D01*
X66942857Y-60758333D01*
X66990476Y-60805952D01*
X64847619Y-61377380D02*
X65323809Y-61377380D01*
X65323809Y-60377380D01*
X64085714Y-61377380D02*
X64085714Y-60853571D01*
X64133333Y-60758333D01*
X64228571Y-60710714D01*
X64419047Y-60710714D01*
X64514285Y-60758333D01*
X64085714Y-61329761D02*
X64180952Y-61377380D01*
X64419047Y-61377380D01*
X64514285Y-61329761D01*
X64561904Y-61234523D01*
X64561904Y-61139285D01*
X64514285Y-61044047D01*
X64419047Y-60996428D01*
X64180952Y-60996428D01*
X64085714Y-60948809D01*
X63609523Y-61377380D02*
X63609523Y-60377380D01*
X63609523Y-60758333D02*
X63514285Y-60710714D01*
X63323809Y-60710714D01*
X63228571Y-60758333D01*
X63180952Y-60805952D01*
X63133333Y-60901190D01*
X63133333Y-61186904D01*
X63180952Y-61282142D01*
X63228571Y-61329761D01*
X63323809Y-61377380D01*
X63514285Y-61377380D01*
X63609523Y-61329761D01*
X62657142Y-61329761D02*
X62657142Y-61377380D01*
X62704761Y-61472619D01*
X62752380Y-61520238D01*
X61514285Y-61329761D02*
X61371428Y-61377380D01*
X61133333Y-61377380D01*
X61038095Y-61329761D01*
X60990476Y-61282142D01*
X60942857Y-61186904D01*
X60942857Y-61091666D01*
X60990476Y-60996428D01*
X61038095Y-60948809D01*
X61133333Y-60901190D01*
X61323809Y-60853571D01*
X61419047Y-60805952D01*
X61466666Y-60758333D01*
X61514285Y-60663095D01*
X61514285Y-60567857D01*
X61466666Y-60472619D01*
X61419047Y-60425000D01*
X61323809Y-60377380D01*
X61085714Y-60377380D01*
X60942857Y-60425000D01*
X60657142Y-60710714D02*
X60276190Y-60710714D01*
X60514285Y-60377380D02*
X60514285Y-61234523D01*
X60466666Y-61329761D01*
X60371428Y-61377380D01*
X60276190Y-61377380D01*
X59514285Y-61377380D02*
X59514285Y-60853571D01*
X59561904Y-60758333D01*
X59657142Y-60710714D01*
X59847619Y-60710714D01*
X59942857Y-60758333D01*
X59514285Y-61329761D02*
X59609523Y-61377380D01*
X59847619Y-61377380D01*
X59942857Y-61329761D01*
X59990476Y-61234523D01*
X59990476Y-61139285D01*
X59942857Y-61044047D01*
X59847619Y-60996428D01*
X59609523Y-60996428D01*
X59514285Y-60948809D01*
X59038095Y-60710714D02*
X59038095Y-61377380D01*
X59038095Y-60805952D02*
X58990476Y-60758333D01*
X58895238Y-60710714D01*
X58752380Y-60710714D01*
X58657142Y-60758333D01*
X58609523Y-60853571D01*
X58609523Y-61377380D01*
X58276190Y-60710714D02*
X57895238Y-60710714D01*
X58133333Y-61377380D02*
X58133333Y-60520238D01*
X58085714Y-60425000D01*
X57990476Y-60377380D01*
X57895238Y-60377380D01*
X57419047Y-61377380D02*
X57514285Y-61329761D01*
X57561904Y-61282142D01*
X57609523Y-61186904D01*
X57609523Y-60901190D01*
X57561904Y-60805952D01*
X57514285Y-60758333D01*
X57419047Y-60710714D01*
X57276190Y-60710714D01*
X57180952Y-60758333D01*
X57133333Y-60805952D01*
X57085714Y-60901190D01*
X57085714Y-61186904D01*
X57133333Y-61282142D01*
X57180952Y-61329761D01*
X57276190Y-61377380D01*
X57419047Y-61377380D01*
X56657142Y-61377380D02*
X56657142Y-60710714D01*
X56657142Y-60901190D02*
X56609523Y-60805952D01*
X56561904Y-60758333D01*
X56466666Y-60710714D01*
X56371428Y-60710714D01*
X55609523Y-61377380D02*
X55609523Y-60377380D01*
X55609523Y-61329761D02*
X55704761Y-61377380D01*
X55895238Y-61377380D01*
X55990476Y-61329761D01*
X56038095Y-61282142D01*
X56085714Y-61186904D01*
X56085714Y-60901190D01*
X56038095Y-60805952D01*
X55990476Y-60758333D01*
X55895238Y-60710714D01*
X55704761Y-60710714D01*
X55609523Y-60758333D01*
X54371428Y-60377380D02*
X54371428Y-61186904D01*
X54323809Y-61282142D01*
X54276190Y-61329761D01*
X54180952Y-61377380D01*
X53990476Y-61377380D01*
X53895238Y-61329761D01*
X53847619Y-61282142D01*
X53800000Y-61186904D01*
X53800000Y-60377380D01*
X53323809Y-60710714D02*
X53323809Y-61377380D01*
X53323809Y-60805952D02*
X53276190Y-60758333D01*
X53180952Y-60710714D01*
X53038095Y-60710714D01*
X52942857Y-60758333D01*
X52895238Y-60853571D01*
X52895238Y-61377380D01*
X52419047Y-61377380D02*
X52419047Y-60710714D01*
X52419047Y-60377380D02*
X52466666Y-60425000D01*
X52419047Y-60472619D01*
X52371428Y-60425000D01*
X52419047Y-60377380D01*
X52419047Y-60472619D01*
X52038095Y-60710714D02*
X51800000Y-61377380D01*
X51561904Y-60710714D01*
X50800000Y-61329761D02*
X50895238Y-61377380D01*
X51085714Y-61377380D01*
X51180952Y-61329761D01*
X51228571Y-61234523D01*
X51228571Y-60853571D01*
X51180952Y-60758333D01*
X51085714Y-60710714D01*
X50895238Y-60710714D01*
X50800000Y-60758333D01*
X50752380Y-60853571D01*
X50752380Y-60948809D01*
X51228571Y-61044047D01*
X50323809Y-61377380D02*
X50323809Y-60710714D01*
X50323809Y-60901190D02*
X50276190Y-60805952D01*
X50228571Y-60758333D01*
X50133333Y-60710714D01*
X50038095Y-60710714D01*
X49752380Y-61329761D02*
X49657142Y-61377380D01*
X49466666Y-61377380D01*
X49371428Y-61329761D01*
X49323809Y-61234523D01*
X49323809Y-61186904D01*
X49371428Y-61091666D01*
X49466666Y-61044047D01*
X49609523Y-61044047D01*
X49704761Y-60996428D01*
X49752380Y-60901190D01*
X49752380Y-60853571D01*
X49704761Y-60758333D01*
X49609523Y-60710714D01*
X49466666Y-60710714D01*
X49371428Y-60758333D01*
X48895238Y-61377380D02*
X48895238Y-60710714D01*
X48895238Y-60377380D02*
X48942857Y-60425000D01*
X48895238Y-60472619D01*
X48847619Y-60425000D01*
X48895238Y-60377380D01*
X48895238Y-60472619D01*
X48561904Y-60710714D02*
X48180952Y-60710714D01*
X48419047Y-60377380D02*
X48419047Y-61234523D01*
X48371428Y-61329761D01*
X48276190Y-61377380D01*
X48180952Y-61377380D01*
X47942857Y-60710714D02*
X47704761Y-61377380D01*
X47466666Y-60710714D02*
X47704761Y-61377380D01*
X47800000Y-61615476D01*
X47847619Y-61663095D01*
X47942857Y-61710714D01*
X64228571Y-62027380D02*
X64133333Y-62027380D01*
X64038095Y-62075000D01*
X63990476Y-62122619D01*
X63942857Y-62217857D01*
X63895238Y-62408333D01*
X63895238Y-62646428D01*
X63942857Y-62836904D01*
X63990476Y-62932142D01*
X64038095Y-62979761D01*
X64133333Y-63027380D01*
X64228571Y-63027380D01*
X64323809Y-62979761D01*
X64371428Y-62932142D01*
X64419047Y-62836904D01*
X64466666Y-62646428D01*
X64466666Y-62408333D01*
X64419047Y-62217857D01*
X64371428Y-62122619D01*
X64323809Y-62075000D01*
X64228571Y-62027380D01*
X63038095Y-62360714D02*
X63038095Y-63027380D01*
X63276190Y-61979761D02*
X63514285Y-62694047D01*
X62895238Y-62694047D01*
X61800000Y-61979761D02*
X62657142Y-63265476D01*
X60942857Y-63027380D02*
X61514285Y-63027380D01*
X61228571Y-63027380D02*
X61228571Y-62027380D01*
X61323809Y-62170238D01*
X61419047Y-62265476D01*
X61514285Y-62313095D01*
X60561904Y-62122619D02*
X60514285Y-62075000D01*
X60419047Y-62027380D01*
X60180952Y-62027380D01*
X60085714Y-62075000D01*
X60038095Y-62122619D01*
X59990476Y-62217857D01*
X59990476Y-62313095D01*
X60038095Y-62455952D01*
X60609523Y-63027380D01*
X59990476Y-63027380D01*
X58847619Y-61979761D02*
X59704761Y-63265476D01*
X58561904Y-62122619D02*
X58514285Y-62075000D01*
X58419047Y-62027380D01*
X58180952Y-62027380D01*
X58085714Y-62075000D01*
X58038095Y-62122619D01*
X57990476Y-62217857D01*
X57990476Y-62313095D01*
X58038095Y-62455952D01*
X58609523Y-63027380D01*
X57990476Y-63027380D01*
X57371428Y-62027380D02*
X57276190Y-62027380D01*
X57180952Y-62075000D01*
X57133333Y-62122619D01*
X57085714Y-62217857D01*
X57038095Y-62408333D01*
X57038095Y-62646428D01*
X57085714Y-62836904D01*
X57133333Y-62932142D01*
X57180952Y-62979761D01*
X57276190Y-63027380D01*
X57371428Y-63027380D01*
X57466666Y-62979761D01*
X57514285Y-62932142D01*
X57561904Y-62836904D01*
X57609523Y-62646428D01*
X57609523Y-62408333D01*
X57561904Y-62217857D01*
X57514285Y-62122619D01*
X57466666Y-62075000D01*
X57371428Y-62027380D01*
X56657142Y-62122619D02*
X56609523Y-62075000D01*
X56514285Y-62027380D01*
X56276190Y-62027380D01*
X56180952Y-62075000D01*
X56133333Y-62122619D01*
X56085714Y-62217857D01*
X56085714Y-62313095D01*
X56133333Y-62455952D01*
X56704761Y-63027380D01*
X56085714Y-63027380D01*
X55133333Y-63027380D02*
X55704761Y-63027380D01*
X55419047Y-63027380D02*
X55419047Y-62027380D01*
X55514285Y-62170238D01*
X55609523Y-62265476D01*
X55704761Y-62313095D01*
M02*
