M48
; DRILL file {KiCad (5.1.9-0-10_14)} date Tuesday, May 04, 2021 at 01:16:55 AM
; FORMAT={-:-/ absolute / inch / decimal}
; #@! TF.CreationDate,2021-05-04T01:16:55-07:00
; #@! TF.GenerationSoftware,Kicad,Pcbnew,(5.1.9-0-10_14)
; #@! TF.FileFunction,Plated,1,4,PTH
FMAT,2
INCH
T1C0.0079
T2C0.0157
%
G90
G05
T1
X1.7992Y-1.5591
X1.7992Y-1.6614
X1.7992Y-1.7638
X1.7992Y-1.8661
X1.7992Y-1.9685
X1.7992Y-2.0709
X1.7992Y-2.1732
X1.7992Y-2.2756
X1.7992Y-2.378
X1.9016Y-1.5591
X1.9016Y-1.6614
X1.9016Y-1.7638
X1.9016Y-1.8661
X1.9016Y-1.9685
X1.9016Y-2.0709
X1.9016Y-2.1732
X1.9016Y-2.2756
X1.9016Y-2.378
X2.0039Y-1.3543
X2.0039Y-1.4571
X2.0039Y-1.5591
X2.0039Y-1.6618
X2.0039Y-1.7638
X2.0039Y-1.8665
X2.0039Y-1.9685
X2.0039Y-2.0713
X2.0039Y-2.1732
X2.0039Y-2.276
X2.0039Y-2.378
X2.0039Y-2.4807
X2.0039Y-2.5827
X2.1063Y-1.3543
X2.1063Y-1.4571
X2.1063Y-1.5591
X2.1063Y-1.6618
X2.1063Y-1.7638
X2.1063Y-1.8665
X2.1063Y-1.9685
X2.1063Y-2.0713
X2.1063Y-2.1732
X2.1063Y-2.276
X2.1063Y-2.378
X2.1063Y-2.4807
X2.1063Y-2.5827
X2.2087Y-1.3543
X2.2087Y-1.4571
X2.2087Y-1.5591
X2.2087Y-1.6618
X2.2087Y-1.7638
X2.2087Y-1.8665
X2.2087Y-1.9685
X2.2087Y-2.0713
X2.2087Y-2.1732
X2.2087Y-2.276
X2.2087Y-2.378
X2.2087Y-2.4807
X2.2087Y-2.5827
X2.311Y-1.3543
X2.311Y-1.4571
X2.311Y-1.5591
X2.311Y-1.6618
X2.311Y-1.7638
X2.311Y-1.8665
X2.311Y-1.9685
X2.311Y-2.0713
X2.311Y-2.1732
X2.311Y-2.276
X2.311Y-2.378
X2.311Y-2.4807
X2.311Y-2.5827
X2.4134Y-1.3543
X2.4134Y-1.4571
X2.4134Y-1.5591
X2.4134Y-1.6618
X2.4134Y-1.7638
X2.4134Y-1.8665
X2.4134Y-1.9685
X2.4134Y-2.0713
X2.4134Y-2.1732
X2.4134Y-2.276
X2.4134Y-2.378
X2.4134Y-2.4807
X2.4134Y-2.5827
X2.5157Y-1.3543
X2.5157Y-1.4571
X2.5157Y-1.5591
X2.5157Y-1.6618
X2.5157Y-1.7638
X2.5157Y-1.8665
X2.5157Y-1.9685
X2.5157Y-2.0713
X2.5157Y-2.1732
X2.5157Y-2.276
X2.5157Y-2.378
X2.5157Y-2.4807
X2.5157Y-2.5827
X2.6181Y-1.3543
X2.6181Y-1.4571
X2.6181Y-1.5591
X2.6181Y-1.6618
X2.6181Y-1.7638
X2.6181Y-1.8665
X2.6181Y-1.9685
X2.6181Y-2.0713
X2.6181Y-2.1732
X2.6181Y-2.276
X2.6181Y-2.378
X2.6181Y-2.4807
X2.6181Y-2.5827
X2.7205Y-1.3543
X2.7205Y-1.4571
X2.7205Y-1.5591
X2.7205Y-1.6618
X2.7205Y-1.7638
X2.7205Y-1.8665
X2.7205Y-1.9685
X2.7205Y-2.0713
X2.7205Y-2.1732
X2.7205Y-2.276
X2.7205Y-2.378
X2.7205Y-2.4807
X2.7205Y-2.5827
X2.8228Y-1.5591
X2.8228Y-1.6614
X2.8228Y-1.7638
X2.8228Y-1.8661
X2.8228Y-1.9685
X2.8228Y-2.0709
X2.8228Y-2.1732
X2.8228Y-2.2756
X2.8228Y-2.378
X2.9252Y-1.5591
X2.9252Y-1.6614
X2.9252Y-1.7638
X2.9252Y-1.8661
X2.9252Y-1.9685
X2.9252Y-2.0709
X2.9252Y-2.1732
X2.9252Y-2.2756
X2.9252Y-2.378
T2
X1.7559Y-0.9606
X1.7559Y-1.1654
X1.9134Y-0.9606
X1.9134Y-1.1654
X2.2287Y-1.1106
X2.2874Y-1.111
X2.4059Y-1.1106
X2.5248Y-1.1098
X2.8346Y-0.9606
X2.8346Y-1.1654
X2.9921Y-0.9606
X2.9921Y-1.1654
T0
M30
