G04 #@! TF.GenerationSoftware,KiCad,Pcbnew,(5.1.9-0-10_14)*
G04 #@! TF.CreationDate,2021-04-12T02:05:24-07:00*
G04 #@! TF.ProjectId,LED_array,4c45445f-6172-4726-9179-2e6b69636164,rev?*
G04 #@! TF.SameCoordinates,Original*
G04 #@! TF.FileFunction,Legend,Top*
G04 #@! TF.FilePolarity,Positive*
%FSLAX46Y46*%
G04 Gerber Fmt 4.6, Leading zero omitted, Abs format (unit mm)*
G04 Created by KiCad (PCBNEW (5.1.9-0-10_14)) date 2021-04-12 02:05:24*
%MOMM*%
%LPD*%
G01*
G04 APERTURE LIST*
%ADD10C,0.150000*%
%ADD11C,0.127000*%
%ADD12C,0.120000*%
%ADD13C,0.200000*%
%ADD14C,0.100000*%
G04 APERTURE END LIST*
D10*
X48742857Y-68104761D02*
X48885714Y-68152380D01*
X49123809Y-68152380D01*
X49219047Y-68104761D01*
X49266666Y-68057142D01*
X49314285Y-67961904D01*
X49314285Y-67866666D01*
X49266666Y-67771428D01*
X49219047Y-67723809D01*
X49123809Y-67676190D01*
X48933333Y-67628571D01*
X48838095Y-67580952D01*
X48790476Y-67533333D01*
X48742857Y-67438095D01*
X48742857Y-67342857D01*
X48790476Y-67247619D01*
X48838095Y-67200000D01*
X48933333Y-67152380D01*
X49171428Y-67152380D01*
X49314285Y-67200000D01*
X50171428Y-67485714D02*
X50171428Y-68485714D01*
X50171428Y-68104761D02*
X50076190Y-68152380D01*
X49885714Y-68152380D01*
X49790476Y-68104761D01*
X49742857Y-68057142D01*
X49695238Y-67961904D01*
X49695238Y-67676190D01*
X49742857Y-67580952D01*
X49790476Y-67533333D01*
X49885714Y-67485714D01*
X50076190Y-67485714D01*
X50171428Y-67533333D01*
X51076190Y-67485714D02*
X51076190Y-68152380D01*
X50647619Y-67485714D02*
X50647619Y-68009523D01*
X50695238Y-68104761D01*
X50790476Y-68152380D01*
X50933333Y-68152380D01*
X51028571Y-68104761D01*
X51076190Y-68057142D01*
X51552380Y-68152380D02*
X51552380Y-67485714D01*
X51552380Y-67152380D02*
X51504761Y-67200000D01*
X51552380Y-67247619D01*
X51600000Y-67200000D01*
X51552380Y-67152380D01*
X51552380Y-67247619D01*
X52457142Y-68152380D02*
X52457142Y-67152380D01*
X52457142Y-68104761D02*
X52361904Y-68152380D01*
X52171428Y-68152380D01*
X52076190Y-68104761D01*
X52028571Y-68057142D01*
X51980952Y-67961904D01*
X51980952Y-67676190D01*
X52028571Y-67580952D01*
X52076190Y-67533333D01*
X52171428Y-67485714D01*
X52361904Y-67485714D01*
X52457142Y-67533333D01*
X54123809Y-68152380D02*
X54123809Y-67628571D01*
X54076190Y-67533333D01*
X53980952Y-67485714D01*
X53790476Y-67485714D01*
X53695238Y-67533333D01*
X54123809Y-68104761D02*
X54028571Y-68152380D01*
X53790476Y-68152380D01*
X53695238Y-68104761D01*
X53647619Y-68009523D01*
X53647619Y-67914285D01*
X53695238Y-67819047D01*
X53790476Y-67771428D01*
X54028571Y-67771428D01*
X54123809Y-67723809D01*
X54600000Y-67485714D02*
X54600000Y-68152380D01*
X54600000Y-67580952D02*
X54647619Y-67533333D01*
X54742857Y-67485714D01*
X54885714Y-67485714D01*
X54980952Y-67533333D01*
X55028571Y-67628571D01*
X55028571Y-68152380D01*
X55933333Y-68152380D02*
X55933333Y-67152380D01*
X55933333Y-68104761D02*
X55838095Y-68152380D01*
X55647619Y-68152380D01*
X55552380Y-68104761D01*
X55504761Y-68057142D01*
X55457142Y-67961904D01*
X55457142Y-67676190D01*
X55504761Y-67580952D01*
X55552380Y-67533333D01*
X55647619Y-67485714D01*
X55838095Y-67485714D01*
X55933333Y-67533333D01*
X57361904Y-67152380D02*
X57552380Y-67152380D01*
X57647619Y-67200000D01*
X57742857Y-67295238D01*
X57790476Y-67485714D01*
X57790476Y-67819047D01*
X57742857Y-68009523D01*
X57647619Y-68104761D01*
X57552380Y-68152380D01*
X57361904Y-68152380D01*
X57266666Y-68104761D01*
X57171428Y-68009523D01*
X57123809Y-67819047D01*
X57123809Y-67485714D01*
X57171428Y-67295238D01*
X57266666Y-67200000D01*
X57361904Y-67152380D01*
X58647619Y-68104761D02*
X58552380Y-68152380D01*
X58361904Y-68152380D01*
X58266666Y-68104761D01*
X58219047Y-68057142D01*
X58171428Y-67961904D01*
X58171428Y-67676190D01*
X58219047Y-67580952D01*
X58266666Y-67533333D01*
X58361904Y-67485714D01*
X58552380Y-67485714D01*
X58647619Y-67533333D01*
X58933333Y-67485714D02*
X59314285Y-67485714D01*
X59076190Y-67152380D02*
X59076190Y-68009523D01*
X59123809Y-68104761D01*
X59219047Y-68152380D01*
X59314285Y-68152380D01*
X59790476Y-68152380D02*
X59695238Y-68104761D01*
X59647619Y-68057142D01*
X59600000Y-67961904D01*
X59600000Y-67676190D01*
X59647619Y-67580952D01*
X59695238Y-67533333D01*
X59790476Y-67485714D01*
X59933333Y-67485714D01*
X60028571Y-67533333D01*
X60076190Y-67580952D01*
X60123809Y-67676190D01*
X60123809Y-67961904D01*
X60076190Y-68057142D01*
X60028571Y-68104761D01*
X59933333Y-68152380D01*
X59790476Y-68152380D01*
X60552380Y-67485714D02*
X60552380Y-68485714D01*
X60552380Y-67533333D02*
X60647619Y-67485714D01*
X60838095Y-67485714D01*
X60933333Y-67533333D01*
X60980952Y-67580952D01*
X61028571Y-67676190D01*
X61028571Y-67961904D01*
X60980952Y-68057142D01*
X60933333Y-68104761D01*
X60838095Y-68152380D01*
X60647619Y-68152380D01*
X60552380Y-68104761D01*
X61457142Y-68152380D02*
X61457142Y-67485714D01*
X61457142Y-67152380D02*
X61409523Y-67200000D01*
X61457142Y-67247619D01*
X61504761Y-67200000D01*
X61457142Y-67152380D01*
X61457142Y-67247619D01*
X63171428Y-68152380D02*
X62695238Y-68152380D01*
X62695238Y-67152380D01*
X63504761Y-67628571D02*
X63838095Y-67628571D01*
X63980952Y-68152380D02*
X63504761Y-68152380D01*
X63504761Y-67152380D01*
X63980952Y-67152380D01*
X64409523Y-68152380D02*
X64409523Y-67152380D01*
X64647619Y-67152380D01*
X64790476Y-67200000D01*
X64885714Y-67295238D01*
X64933333Y-67390476D01*
X64980952Y-67580952D01*
X64980952Y-67723809D01*
X64933333Y-67914285D01*
X64885714Y-68009523D01*
X64790476Y-68104761D01*
X64647619Y-68152380D01*
X64409523Y-68152380D01*
X66171428Y-68152380D02*
X66171428Y-67485714D01*
X66171428Y-67580952D02*
X66219047Y-67533333D01*
X66314285Y-67485714D01*
X66457142Y-67485714D01*
X66552380Y-67533333D01*
X66600000Y-67628571D01*
X66600000Y-68152380D01*
X66600000Y-67628571D02*
X66647619Y-67533333D01*
X66742857Y-67485714D01*
X66885714Y-67485714D01*
X66980952Y-67533333D01*
X67028571Y-67628571D01*
X67028571Y-68152380D01*
X67933333Y-68152380D02*
X67933333Y-67628571D01*
X67885714Y-67533333D01*
X67790476Y-67485714D01*
X67600000Y-67485714D01*
X67504761Y-67533333D01*
X67933333Y-68104761D02*
X67838095Y-68152380D01*
X67600000Y-68152380D01*
X67504761Y-68104761D01*
X67457142Y-68009523D01*
X67457142Y-67914285D01*
X67504761Y-67819047D01*
X67600000Y-67771428D01*
X67838095Y-67771428D01*
X67933333Y-67723809D01*
X68266666Y-67485714D02*
X68647619Y-67485714D01*
X68409523Y-67152380D02*
X68409523Y-68009523D01*
X68457142Y-68104761D01*
X68552380Y-68152380D01*
X68647619Y-68152380D01*
X68980952Y-68152380D02*
X68980952Y-67485714D01*
X68980952Y-67676190D02*
X69028571Y-67580952D01*
X69076190Y-67533333D01*
X69171428Y-67485714D01*
X69266666Y-67485714D01*
X69600000Y-68152380D02*
X69600000Y-67485714D01*
X69600000Y-67152380D02*
X69552380Y-67200000D01*
X69600000Y-67247619D01*
X69647619Y-67200000D01*
X69600000Y-67152380D01*
X69600000Y-67247619D01*
X69980952Y-68152380D02*
X70504761Y-67485714D01*
X69980952Y-67485714D02*
X70504761Y-68152380D01*
D11*
X64810000Y-30740000D02*
X65110000Y-31240000D01*
X64510000Y-31240000D02*
X64810000Y-30740000D01*
X65110000Y-31240000D02*
X64510000Y-31240000D01*
X53585000Y-30090000D02*
X53585000Y-25770000D01*
X67135000Y-25770000D02*
X67135000Y-30090000D01*
X65770000Y-23650000D02*
X54950000Y-23650000D01*
X67135000Y-30090000D02*
X64730000Y-30090000D01*
X55990000Y-30090000D02*
X53585000Y-30090000D01*
D12*
X49510000Y-27711252D02*
X49510000Y-26288748D01*
X47690000Y-27711252D02*
X47690000Y-26288748D01*
X76910000Y-27711252D02*
X76910000Y-26288748D01*
X75090000Y-27711252D02*
X75090000Y-26288748D01*
X45510000Y-27711252D02*
X45510000Y-26288748D01*
X43690000Y-27711252D02*
X43690000Y-26288748D01*
X72910000Y-27711252D02*
X72910000Y-26288748D01*
X71090000Y-27711252D02*
X71090000Y-26288748D01*
X62342742Y-32067500D02*
X62817258Y-32067500D01*
X62342742Y-33112500D02*
X62817258Y-33112500D01*
X58182742Y-32047500D02*
X58657258Y-32047500D01*
X58182742Y-33092500D02*
X58657258Y-33092500D01*
D13*
X59876666Y-26392380D02*
X59876666Y-27106666D01*
X59829047Y-27249523D01*
X59733809Y-27344761D01*
X59590952Y-27392380D01*
X59495714Y-27392380D01*
X60876666Y-27392380D02*
X60305238Y-27392380D01*
X60590952Y-27392380D02*
X60590952Y-26392380D01*
X60495714Y-26535238D01*
X60400476Y-26630476D01*
X60305238Y-26678095D01*
D14*
X44474428Y-40460228D02*
X44131571Y-40460228D01*
X44303000Y-40460228D02*
X44303000Y-39860228D01*
X44245857Y-39945942D01*
X44188714Y-40003085D01*
X44131571Y-40031657D01*
D10*
X47107142Y-27166666D02*
X47154761Y-27214285D01*
X47202380Y-27357142D01*
X47202380Y-27452380D01*
X47154761Y-27595238D01*
X47059523Y-27690476D01*
X46964285Y-27738095D01*
X46773809Y-27785714D01*
X46630952Y-27785714D01*
X46440476Y-27738095D01*
X46345238Y-27690476D01*
X46250000Y-27595238D01*
X46202380Y-27452380D01*
X46202380Y-27357142D01*
X46250000Y-27214285D01*
X46297619Y-27166666D01*
X46535714Y-26309523D02*
X47202380Y-26309523D01*
X46154761Y-26547619D02*
X46869047Y-26785714D01*
X46869047Y-26166666D01*
X74507142Y-27166666D02*
X74554761Y-27214285D01*
X74602380Y-27357142D01*
X74602380Y-27452380D01*
X74554761Y-27595238D01*
X74459523Y-27690476D01*
X74364285Y-27738095D01*
X74173809Y-27785714D01*
X74030952Y-27785714D01*
X73840476Y-27738095D01*
X73745238Y-27690476D01*
X73650000Y-27595238D01*
X73602380Y-27452380D01*
X73602380Y-27357142D01*
X73650000Y-27214285D01*
X73697619Y-27166666D01*
X73602380Y-26833333D02*
X73602380Y-26214285D01*
X73983333Y-26547619D01*
X73983333Y-26404761D01*
X74030952Y-26309523D01*
X74078571Y-26261904D01*
X74173809Y-26214285D01*
X74411904Y-26214285D01*
X74507142Y-26261904D01*
X74554761Y-26309523D01*
X74602380Y-26404761D01*
X74602380Y-26690476D01*
X74554761Y-26785714D01*
X74507142Y-26833333D01*
X43107142Y-27166666D02*
X43154761Y-27214285D01*
X43202380Y-27357142D01*
X43202380Y-27452380D01*
X43154761Y-27595238D01*
X43059523Y-27690476D01*
X42964285Y-27738095D01*
X42773809Y-27785714D01*
X42630952Y-27785714D01*
X42440476Y-27738095D01*
X42345238Y-27690476D01*
X42250000Y-27595238D01*
X42202380Y-27452380D01*
X42202380Y-27357142D01*
X42250000Y-27214285D01*
X42297619Y-27166666D01*
X42297619Y-26785714D02*
X42250000Y-26738095D01*
X42202380Y-26642857D01*
X42202380Y-26404761D01*
X42250000Y-26309523D01*
X42297619Y-26261904D01*
X42392857Y-26214285D01*
X42488095Y-26214285D01*
X42630952Y-26261904D01*
X43202380Y-26833333D01*
X43202380Y-26214285D01*
X70507142Y-27166666D02*
X70554761Y-27214285D01*
X70602380Y-27357142D01*
X70602380Y-27452380D01*
X70554761Y-27595238D01*
X70459523Y-27690476D01*
X70364285Y-27738095D01*
X70173809Y-27785714D01*
X70030952Y-27785714D01*
X69840476Y-27738095D01*
X69745238Y-27690476D01*
X69650000Y-27595238D01*
X69602380Y-27452380D01*
X69602380Y-27357142D01*
X69650000Y-27214285D01*
X69697619Y-27166666D01*
X70602380Y-26214285D02*
X70602380Y-26785714D01*
X70602380Y-26500000D02*
X69602380Y-26500000D01*
X69745238Y-26595238D01*
X69840476Y-26690476D01*
X69888095Y-26785714D01*
X65133333Y-33152380D02*
X64800000Y-32676190D01*
X64561904Y-33152380D02*
X64561904Y-32152380D01*
X64942857Y-32152380D01*
X65038095Y-32200000D01*
X65085714Y-32247619D01*
X65133333Y-32342857D01*
X65133333Y-32485714D01*
X65085714Y-32580952D01*
X65038095Y-32628571D01*
X64942857Y-32676190D01*
X64561904Y-32676190D01*
X65514285Y-32247619D02*
X65561904Y-32200000D01*
X65657142Y-32152380D01*
X65895238Y-32152380D01*
X65990476Y-32200000D01*
X66038095Y-32247619D01*
X66085714Y-32342857D01*
X66085714Y-32438095D01*
X66038095Y-32580952D01*
X65466666Y-33152380D01*
X66085714Y-33152380D01*
X55633333Y-33052380D02*
X55300000Y-32576190D01*
X55061904Y-33052380D02*
X55061904Y-32052380D01*
X55442857Y-32052380D01*
X55538095Y-32100000D01*
X55585714Y-32147619D01*
X55633333Y-32242857D01*
X55633333Y-32385714D01*
X55585714Y-32480952D01*
X55538095Y-32528571D01*
X55442857Y-32576190D01*
X55061904Y-32576190D01*
X56585714Y-33052380D02*
X56014285Y-33052380D01*
X56300000Y-33052380D02*
X56300000Y-32052380D01*
X56204761Y-32195238D01*
X56109523Y-32290476D01*
X56014285Y-32338095D01*
M02*
