G04 #@! TF.GenerationSoftware,KiCad,Pcbnew,(5.1.9-0-10_14)*
G04 #@! TF.CreationDate,2021-04-12T02:32:52-07:00*
G04 #@! TF.ProjectId,LED_array,4c45445f-6172-4726-9179-2e6b69636164,rev?*
G04 #@! TF.SameCoordinates,Original*
G04 #@! TF.FileFunction,Copper,L1,Top*
G04 #@! TF.FilePolarity,Positive*
%FSLAX46Y46*%
G04 Gerber Fmt 4.6, Leading zero omitted, Abs format (unit mm)*
G04 Created by KiCad (PCBNEW (5.1.9-0-10_14)) date 2021-04-12 02:32:52*
%MOMM*%
%LPD*%
G01*
G04 APERTURE LIST*
G04 #@! TA.AperFunction,SMDPad,CuDef*
%ADD10R,1.250000X1.800000*%
G04 #@! TD*
G04 #@! TA.AperFunction,SMDPad,CuDef*
%ADD11R,0.600000X1.600000*%
G04 #@! TD*
G04 #@! TA.AperFunction,SMDPad,CuDef*
%ADD12R,0.450000X0.850000*%
G04 #@! TD*
G04 #@! TA.AperFunction,SMDPad,CuDef*
%ADD13R,0.450000X0.650000*%
G04 #@! TD*
G04 #@! TA.AperFunction,ViaPad*
%ADD14C,0.800000*%
G04 #@! TD*
G04 #@! TA.AperFunction,ViaPad*
%ADD15C,0.400000*%
G04 #@! TD*
G04 #@! TA.AperFunction,Conductor*
%ADD16C,0.300000*%
G04 #@! TD*
G04 #@! TA.AperFunction,Conductor*
%ADD17C,0.800000*%
G04 #@! TD*
G04 #@! TA.AperFunction,Conductor*
%ADD18C,0.200000*%
G04 #@! TD*
G04 #@! TA.AperFunction,Conductor*
%ADD19C,0.127000*%
G04 #@! TD*
G04 #@! TA.AperFunction,Conductor*
%ADD20C,0.250000*%
G04 #@! TD*
G04 APERTURE END LIST*
D10*
X66715000Y-24550000D03*
D11*
X56610000Y-30040000D03*
X58110000Y-30040000D03*
X59610000Y-30040000D03*
X61110000Y-30040000D03*
X62610000Y-30040000D03*
D10*
X54005000Y-24550000D03*
D11*
X64110000Y-30040000D03*
D12*
X69100000Y-63700000D03*
D13*
X68300000Y-63600000D03*
X69900000Y-63600000D03*
X69100000Y-65000000D03*
X68300000Y-65000000D03*
X69900000Y-65000000D03*
D12*
X50900000Y-36300000D03*
D13*
X51700000Y-36400000D03*
X50100000Y-36400000D03*
X50900000Y-35000000D03*
X51700000Y-35000000D03*
X50100000Y-35000000D03*
D12*
X53500000Y-36300000D03*
D13*
X54300000Y-36400000D03*
X52700000Y-36400000D03*
X53500000Y-35000000D03*
X54300000Y-35000000D03*
X52700000Y-35000000D03*
D12*
X56100000Y-36300000D03*
D13*
X56900000Y-36400000D03*
X55300000Y-36400000D03*
X56100000Y-35000000D03*
X56900000Y-35000000D03*
X55300000Y-35000000D03*
D12*
X58700000Y-36300000D03*
D13*
X59500000Y-36400000D03*
X57900000Y-36400000D03*
X58700000Y-35000000D03*
X59500000Y-35000000D03*
X57900000Y-35000000D03*
D12*
X61300000Y-36300000D03*
D13*
X62100000Y-36400000D03*
X60500000Y-36400000D03*
X61300000Y-35000000D03*
X62100000Y-35000000D03*
X60500000Y-35000000D03*
D12*
X63900000Y-36300000D03*
D13*
X64700000Y-36400000D03*
X63100000Y-36400000D03*
X63900000Y-35000000D03*
X64700000Y-35000000D03*
X63100000Y-35000000D03*
D12*
X66500000Y-36300000D03*
D13*
X67300000Y-36400000D03*
X65700000Y-36400000D03*
X66500000Y-35000000D03*
X67300000Y-35000000D03*
X65700000Y-35000000D03*
D12*
X69100000Y-36300000D03*
D13*
X69900000Y-36400000D03*
X68300000Y-36400000D03*
X69100000Y-35000000D03*
X69900000Y-35000000D03*
X68300000Y-35000000D03*
D12*
X69100000Y-37700000D03*
D13*
X68300000Y-37600000D03*
X69900000Y-37600000D03*
X69100000Y-39000000D03*
X68300000Y-39000000D03*
X69900000Y-39000000D03*
D12*
X66500000Y-37700000D03*
D13*
X65700000Y-37600000D03*
X67300000Y-37600000D03*
X66500000Y-39000000D03*
X65700000Y-39000000D03*
X67300000Y-39000000D03*
D12*
X63900000Y-37700000D03*
D13*
X63100000Y-37600000D03*
X64700000Y-37600000D03*
X63900000Y-39000000D03*
X63100000Y-39000000D03*
X64700000Y-39000000D03*
D12*
X61300000Y-37700000D03*
D13*
X60500000Y-37600000D03*
X62100000Y-37600000D03*
X61300000Y-39000000D03*
X60500000Y-39000000D03*
X62100000Y-39000000D03*
D12*
X58700000Y-37700000D03*
D13*
X57900000Y-37600000D03*
X59500000Y-37600000D03*
X58700000Y-39000000D03*
X57900000Y-39000000D03*
X59500000Y-39000000D03*
D12*
X56100000Y-37700000D03*
D13*
X55300000Y-37600000D03*
X56900000Y-37600000D03*
X56100000Y-39000000D03*
X55300000Y-39000000D03*
X56900000Y-39000000D03*
D12*
X53500000Y-37700000D03*
D13*
X52700000Y-37600000D03*
X54300000Y-37600000D03*
X53500000Y-39000000D03*
X52700000Y-39000000D03*
X54300000Y-39000000D03*
D12*
X50900000Y-37700000D03*
D13*
X50100000Y-37600000D03*
X51700000Y-37600000D03*
X50900000Y-39000000D03*
X50100000Y-39000000D03*
X51700000Y-39000000D03*
D12*
X45700000Y-41500000D03*
D13*
X46500000Y-41600000D03*
X44900000Y-41600000D03*
X45700000Y-40200000D03*
X46500000Y-40200000D03*
X44900000Y-40200000D03*
D12*
X48300000Y-41500000D03*
D13*
X49100000Y-41600000D03*
X47500000Y-41600000D03*
X48300000Y-40200000D03*
X49100000Y-40200000D03*
X47500000Y-40200000D03*
D12*
X50900000Y-41500000D03*
D13*
X51700000Y-41600000D03*
X50100000Y-41600000D03*
X50900000Y-40200000D03*
X51700000Y-40200000D03*
X50100000Y-40200000D03*
D12*
X53500000Y-41500000D03*
D13*
X54300000Y-41600000D03*
X52700000Y-41600000D03*
X53500000Y-40200000D03*
X54300000Y-40200000D03*
X52700000Y-40200000D03*
D12*
X56100000Y-41500000D03*
D13*
X56900000Y-41600000D03*
X55300000Y-41600000D03*
X56100000Y-40200000D03*
X56900000Y-40200000D03*
X55300000Y-40200000D03*
D12*
X58700000Y-41500000D03*
D13*
X59500000Y-41600000D03*
X57900000Y-41600000D03*
X58700000Y-40200000D03*
X59500000Y-40200000D03*
X57900000Y-40200000D03*
D12*
X61300000Y-41500000D03*
D13*
X62100000Y-41600000D03*
X60500000Y-41600000D03*
X61300000Y-40200000D03*
X62100000Y-40200000D03*
X60500000Y-40200000D03*
D12*
X63900000Y-41500000D03*
D13*
X64700000Y-41600000D03*
X63100000Y-41600000D03*
X63900000Y-40200000D03*
X64700000Y-40200000D03*
X63100000Y-40200000D03*
D12*
X66500000Y-41500000D03*
D13*
X67300000Y-41600000D03*
X65700000Y-41600000D03*
X66500000Y-40200000D03*
X67300000Y-40200000D03*
X65700000Y-40200000D03*
D12*
X69100000Y-41500000D03*
D13*
X69900000Y-41600000D03*
X68300000Y-41600000D03*
X69100000Y-40200000D03*
X69900000Y-40200000D03*
X68300000Y-40200000D03*
D12*
X71700000Y-41500000D03*
D13*
X72500000Y-41600000D03*
X70900000Y-41600000D03*
X71700000Y-40200000D03*
X72500000Y-40200000D03*
X70900000Y-40200000D03*
D12*
X74300000Y-41500000D03*
D13*
X75100000Y-41600000D03*
X73500000Y-41600000D03*
X74300000Y-40200000D03*
X75100000Y-40200000D03*
X73500000Y-40200000D03*
D12*
X74300000Y-42900000D03*
D13*
X73500000Y-42800000D03*
X75100000Y-42800000D03*
X74300000Y-44200000D03*
X73500000Y-44200000D03*
X75100000Y-44200000D03*
D12*
X71700000Y-42900000D03*
D13*
X70900000Y-42800000D03*
X72500000Y-42800000D03*
X71700000Y-44200000D03*
X70900000Y-44200000D03*
X72500000Y-44200000D03*
D12*
X69100000Y-42900000D03*
D13*
X68300000Y-42800000D03*
X69900000Y-42800000D03*
X69100000Y-44200000D03*
X68300000Y-44200000D03*
X69900000Y-44200000D03*
D12*
X66500000Y-42900000D03*
D13*
X65700000Y-42800000D03*
X67300000Y-42800000D03*
X66500000Y-44200000D03*
X65700000Y-44200000D03*
X67300000Y-44200000D03*
D12*
X63900000Y-42900000D03*
D13*
X63100000Y-42800000D03*
X64700000Y-42800000D03*
X63900000Y-44200000D03*
X63100000Y-44200000D03*
X64700000Y-44200000D03*
D12*
X61300000Y-42900000D03*
D13*
X60500000Y-42800000D03*
X62100000Y-42800000D03*
X61300000Y-44200000D03*
X60500000Y-44200000D03*
X62100000Y-44200000D03*
D12*
X58700000Y-42900000D03*
D13*
X57900000Y-42800000D03*
X59500000Y-42800000D03*
X58700000Y-44200000D03*
X57900000Y-44200000D03*
X59500000Y-44200000D03*
D12*
X56100000Y-42900000D03*
D13*
X55300000Y-42800000D03*
X56900000Y-42800000D03*
X56100000Y-44200000D03*
X55300000Y-44200000D03*
X56900000Y-44200000D03*
D12*
X53500000Y-42900000D03*
D13*
X52700000Y-42800000D03*
X54300000Y-42800000D03*
X53500000Y-44200000D03*
X52700000Y-44200000D03*
X54300000Y-44200000D03*
D12*
X50900000Y-42900000D03*
D13*
X50100000Y-42800000D03*
X51700000Y-42800000D03*
X50900000Y-44200000D03*
X50100000Y-44200000D03*
X51700000Y-44200000D03*
D12*
X48300000Y-42900000D03*
D13*
X47500000Y-42800000D03*
X49100000Y-42800000D03*
X48300000Y-44200000D03*
X47500000Y-44200000D03*
X49100000Y-44200000D03*
D12*
X45700000Y-42900000D03*
D13*
X44900000Y-42800000D03*
X46500000Y-42800000D03*
X45700000Y-44200000D03*
X44900000Y-44200000D03*
X46500000Y-44200000D03*
D12*
X45700000Y-46700000D03*
D13*
X46500000Y-46800000D03*
X44900000Y-46800000D03*
X45700000Y-45400000D03*
X46500000Y-45400000D03*
X44900000Y-45400000D03*
D12*
X48300000Y-46700000D03*
D13*
X49100000Y-46800000D03*
X47500000Y-46800000D03*
X48300000Y-45400000D03*
X49100000Y-45400000D03*
X47500000Y-45400000D03*
D12*
X50900000Y-46700000D03*
D13*
X51700000Y-46800000D03*
X50100000Y-46800000D03*
X50900000Y-45400000D03*
X51700000Y-45400000D03*
X50100000Y-45400000D03*
D12*
X53500000Y-46700000D03*
D13*
X54300000Y-46800000D03*
X52700000Y-46800000D03*
X53500000Y-45400000D03*
X54300000Y-45400000D03*
X52700000Y-45400000D03*
D12*
X56100000Y-46700000D03*
D13*
X56900000Y-46800000D03*
X55300000Y-46800000D03*
X56100000Y-45400000D03*
X56900000Y-45400000D03*
X55300000Y-45400000D03*
D12*
X58700000Y-46700000D03*
D13*
X59500000Y-46800000D03*
X57900000Y-46800000D03*
X58700000Y-45400000D03*
X59500000Y-45400000D03*
X57900000Y-45400000D03*
D12*
X61300000Y-46700000D03*
D13*
X62100000Y-46800000D03*
X60500000Y-46800000D03*
X61300000Y-45400000D03*
X62100000Y-45400000D03*
X60500000Y-45400000D03*
D12*
X63900000Y-46700000D03*
D13*
X64700000Y-46800000D03*
X63100000Y-46800000D03*
X63900000Y-45400000D03*
X64700000Y-45400000D03*
X63100000Y-45400000D03*
D12*
X66500000Y-46700000D03*
D13*
X67300000Y-46800000D03*
X65700000Y-46800000D03*
X66500000Y-45400000D03*
X67300000Y-45400000D03*
X65700000Y-45400000D03*
D12*
X69100000Y-46700000D03*
D13*
X69900000Y-46800000D03*
X68300000Y-46800000D03*
X69100000Y-45400000D03*
X69900000Y-45400000D03*
X68300000Y-45400000D03*
D12*
X71700000Y-46700000D03*
D13*
X72500000Y-46800000D03*
X70900000Y-46800000D03*
X71700000Y-45400000D03*
X72500000Y-45400000D03*
X70900000Y-45400000D03*
D12*
X74300000Y-46700000D03*
D13*
X75100000Y-46800000D03*
X73500000Y-46800000D03*
X74300000Y-45400000D03*
X75100000Y-45400000D03*
X73500000Y-45400000D03*
D12*
X74300000Y-48100000D03*
D13*
X73500000Y-48000000D03*
X75100000Y-48000000D03*
X74300000Y-49400000D03*
X73500000Y-49400000D03*
X75100000Y-49400000D03*
D12*
X71700000Y-48100000D03*
D13*
X70900000Y-48000000D03*
X72500000Y-48000000D03*
X71700000Y-49400000D03*
X70900000Y-49400000D03*
X72500000Y-49400000D03*
D12*
X69100000Y-48100000D03*
D13*
X68300000Y-48000000D03*
X69900000Y-48000000D03*
X69100000Y-49400000D03*
X68300000Y-49400000D03*
X69900000Y-49400000D03*
D12*
X66500000Y-48100000D03*
D13*
X65700000Y-48000000D03*
X67300000Y-48000000D03*
X66500000Y-49400000D03*
X65700000Y-49400000D03*
X67300000Y-49400000D03*
D12*
X63900000Y-48100000D03*
D13*
X63100000Y-48000000D03*
X64700000Y-48000000D03*
X63900000Y-49400000D03*
X63100000Y-49400000D03*
X64700000Y-49400000D03*
D12*
X61300000Y-48100000D03*
D13*
X60500000Y-48000000D03*
X62100000Y-48000000D03*
X61300000Y-49400000D03*
X60500000Y-49400000D03*
X62100000Y-49400000D03*
D12*
X58700000Y-48100000D03*
D13*
X57900000Y-48000000D03*
X59500000Y-48000000D03*
X58700000Y-49400000D03*
X57900000Y-49400000D03*
X59500000Y-49400000D03*
D12*
X56100000Y-48100000D03*
D13*
X55300000Y-48000000D03*
X56900000Y-48000000D03*
X56100000Y-49400000D03*
X55300000Y-49400000D03*
X56900000Y-49400000D03*
D12*
X53500000Y-48100000D03*
D13*
X52700000Y-48000000D03*
X54300000Y-48000000D03*
X53500000Y-49400000D03*
X52700000Y-49400000D03*
X54300000Y-49400000D03*
D12*
X50900000Y-48100000D03*
D13*
X50100000Y-48000000D03*
X51700000Y-48000000D03*
X50900000Y-49400000D03*
X50100000Y-49400000D03*
X51700000Y-49400000D03*
D12*
X48300000Y-48100000D03*
D13*
X47500000Y-48000000D03*
X49100000Y-48000000D03*
X48300000Y-49400000D03*
X47500000Y-49400000D03*
X49100000Y-49400000D03*
D12*
X45700000Y-48100000D03*
D13*
X44900000Y-48000000D03*
X46500000Y-48000000D03*
X45700000Y-49400000D03*
X44900000Y-49400000D03*
X46500000Y-49400000D03*
D12*
X45700000Y-51900000D03*
D13*
X46500000Y-52000000D03*
X44900000Y-52000000D03*
X45700000Y-50600000D03*
X46500000Y-50600000D03*
X44900000Y-50600000D03*
D12*
X48300000Y-51900000D03*
D13*
X49100000Y-52000000D03*
X47500000Y-52000000D03*
X48300000Y-50600000D03*
X49100000Y-50600000D03*
X47500000Y-50600000D03*
D12*
X50900000Y-51900000D03*
D13*
X51700000Y-52000000D03*
X50100000Y-52000000D03*
X50900000Y-50600000D03*
X51700000Y-50600000D03*
X50100000Y-50600000D03*
D12*
X53500000Y-51900000D03*
D13*
X54300000Y-52000000D03*
X52700000Y-52000000D03*
X53500000Y-50600000D03*
X54300000Y-50600000D03*
X52700000Y-50600000D03*
D12*
X56100000Y-51900000D03*
D13*
X56900000Y-52000000D03*
X55300000Y-52000000D03*
X56100000Y-50600000D03*
X56900000Y-50600000D03*
X55300000Y-50600000D03*
D12*
X58700000Y-51900000D03*
D13*
X59500000Y-52000000D03*
X57900000Y-52000000D03*
X58700000Y-50600000D03*
X59500000Y-50600000D03*
X57900000Y-50600000D03*
D12*
X61300000Y-51900000D03*
D13*
X62100000Y-52000000D03*
X60500000Y-52000000D03*
X61300000Y-50600000D03*
X62100000Y-50600000D03*
X60500000Y-50600000D03*
D12*
X63900000Y-51900000D03*
D13*
X64700000Y-52000000D03*
X63100000Y-52000000D03*
X63900000Y-50600000D03*
X64700000Y-50600000D03*
X63100000Y-50600000D03*
D12*
X66500000Y-51900000D03*
D13*
X67300000Y-52000000D03*
X65700000Y-52000000D03*
X66500000Y-50600000D03*
X67300000Y-50600000D03*
X65700000Y-50600000D03*
D12*
X69100000Y-51900000D03*
D13*
X69900000Y-52000000D03*
X68300000Y-52000000D03*
X69100000Y-50600000D03*
X69900000Y-50600000D03*
X68300000Y-50600000D03*
D12*
X71700000Y-51900000D03*
D13*
X72500000Y-52000000D03*
X70900000Y-52000000D03*
X71700000Y-50600000D03*
X72500000Y-50600000D03*
X70900000Y-50600000D03*
D12*
X74300000Y-51900000D03*
D13*
X75100000Y-52000000D03*
X73500000Y-52000000D03*
X74300000Y-50600000D03*
X75100000Y-50600000D03*
X73500000Y-50600000D03*
D12*
X74300000Y-53300000D03*
D13*
X73500000Y-53200000D03*
X75100000Y-53200000D03*
X74300000Y-54600000D03*
X73500000Y-54600000D03*
X75100000Y-54600000D03*
D12*
X71700000Y-53300000D03*
D13*
X70900000Y-53200000D03*
X72500000Y-53200000D03*
X71700000Y-54600000D03*
X70900000Y-54600000D03*
X72500000Y-54600000D03*
D12*
X69100000Y-53300000D03*
D13*
X68300000Y-53200000D03*
X69900000Y-53200000D03*
X69100000Y-54600000D03*
X68300000Y-54600000D03*
X69900000Y-54600000D03*
D12*
X66500000Y-53300000D03*
D13*
X65700000Y-53200000D03*
X67300000Y-53200000D03*
X66500000Y-54600000D03*
X65700000Y-54600000D03*
X67300000Y-54600000D03*
D12*
X63900000Y-53300000D03*
D13*
X63100000Y-53200000D03*
X64700000Y-53200000D03*
X63900000Y-54600000D03*
X63100000Y-54600000D03*
X64700000Y-54600000D03*
D12*
X61300000Y-53300000D03*
D13*
X60500000Y-53200000D03*
X62100000Y-53200000D03*
X61300000Y-54600000D03*
X60500000Y-54600000D03*
X62100000Y-54600000D03*
D12*
X58700000Y-53300000D03*
D13*
X57900000Y-53200000D03*
X59500000Y-53200000D03*
X58700000Y-54600000D03*
X57900000Y-54600000D03*
X59500000Y-54600000D03*
D12*
X56100000Y-53300000D03*
D13*
X55300000Y-53200000D03*
X56900000Y-53200000D03*
X56100000Y-54600000D03*
X55300000Y-54600000D03*
X56900000Y-54600000D03*
D12*
X53500000Y-53300000D03*
D13*
X52700000Y-53200000D03*
X54300000Y-53200000D03*
X53500000Y-54600000D03*
X52700000Y-54600000D03*
X54300000Y-54600000D03*
D12*
X50900000Y-53300000D03*
D13*
X50100000Y-53200000D03*
X51700000Y-53200000D03*
X50900000Y-54600000D03*
X50100000Y-54600000D03*
X51700000Y-54600000D03*
D12*
X48300000Y-53300000D03*
D13*
X47500000Y-53200000D03*
X49100000Y-53200000D03*
X48300000Y-54600000D03*
X47500000Y-54600000D03*
X49100000Y-54600000D03*
D12*
X45700000Y-53300000D03*
D13*
X44900000Y-53200000D03*
X46500000Y-53200000D03*
X45700000Y-54600000D03*
X44900000Y-54600000D03*
X46500000Y-54600000D03*
D12*
X45700000Y-57100000D03*
D13*
X46500000Y-57200000D03*
X44900000Y-57200000D03*
X45700000Y-55800000D03*
X46500000Y-55800000D03*
X44900000Y-55800000D03*
D12*
X48300000Y-57100000D03*
D13*
X49100000Y-57200000D03*
X47500000Y-57200000D03*
X48300000Y-55800000D03*
X49100000Y-55800000D03*
X47500000Y-55800000D03*
D12*
X50900000Y-57100000D03*
D13*
X51700000Y-57200000D03*
X50100000Y-57200000D03*
X50900000Y-55800000D03*
X51700000Y-55800000D03*
X50100000Y-55800000D03*
D12*
X53500000Y-57100000D03*
D13*
X54300000Y-57200000D03*
X52700000Y-57200000D03*
X53500000Y-55800000D03*
X54300000Y-55800000D03*
X52700000Y-55800000D03*
D12*
X56100000Y-57100000D03*
D13*
X56900000Y-57200000D03*
X55300000Y-57200000D03*
X56100000Y-55800000D03*
X56900000Y-55800000D03*
X55300000Y-55800000D03*
D12*
X58700000Y-57100000D03*
D13*
X59500000Y-57200000D03*
X57900000Y-57200000D03*
X58700000Y-55800000D03*
X59500000Y-55800000D03*
X57900000Y-55800000D03*
D12*
X61300000Y-57100000D03*
D13*
X62100000Y-57200000D03*
X60500000Y-57200000D03*
X61300000Y-55800000D03*
X62100000Y-55800000D03*
X60500000Y-55800000D03*
D12*
X63900000Y-57100000D03*
D13*
X64700000Y-57200000D03*
X63100000Y-57200000D03*
X63900000Y-55800000D03*
X64700000Y-55800000D03*
X63100000Y-55800000D03*
D12*
X66500000Y-57100000D03*
D13*
X67300000Y-57200000D03*
X65700000Y-57200000D03*
X66500000Y-55800000D03*
X67300000Y-55800000D03*
X65700000Y-55800000D03*
D12*
X69100000Y-57100000D03*
D13*
X69900000Y-57200000D03*
X68300000Y-57200000D03*
X69100000Y-55800000D03*
X69900000Y-55800000D03*
X68300000Y-55800000D03*
D12*
X71700000Y-57100000D03*
D13*
X72500000Y-57200000D03*
X70900000Y-57200000D03*
X71700000Y-55800000D03*
X72500000Y-55800000D03*
X70900000Y-55800000D03*
D12*
X74300000Y-57100000D03*
D13*
X75100000Y-57200000D03*
X73500000Y-57200000D03*
X74300000Y-55800000D03*
X75100000Y-55800000D03*
X73500000Y-55800000D03*
D12*
X74300000Y-58500000D03*
D13*
X73500000Y-58400000D03*
X75100000Y-58400000D03*
X74300000Y-59800000D03*
X73500000Y-59800000D03*
X75100000Y-59800000D03*
D12*
X71700000Y-58500000D03*
D13*
X70900000Y-58400000D03*
X72500000Y-58400000D03*
X71700000Y-59800000D03*
X70900000Y-59800000D03*
X72500000Y-59800000D03*
D12*
X69100000Y-58500000D03*
D13*
X68300000Y-58400000D03*
X69900000Y-58400000D03*
X69100000Y-59800000D03*
X68300000Y-59800000D03*
X69900000Y-59800000D03*
D12*
X66500000Y-58500000D03*
D13*
X65700000Y-58400000D03*
X67300000Y-58400000D03*
X66500000Y-59800000D03*
X65700000Y-59800000D03*
X67300000Y-59800000D03*
D12*
X63900000Y-58500000D03*
D13*
X63100000Y-58400000D03*
X64700000Y-58400000D03*
X63900000Y-59800000D03*
X63100000Y-59800000D03*
X64700000Y-59800000D03*
D12*
X61300000Y-58500000D03*
D13*
X60500000Y-58400000D03*
X62100000Y-58400000D03*
X61300000Y-59800000D03*
X60500000Y-59800000D03*
X62100000Y-59800000D03*
D12*
X58700000Y-58500000D03*
D13*
X57900000Y-58400000D03*
X59500000Y-58400000D03*
X58700000Y-59800000D03*
X57900000Y-59800000D03*
X59500000Y-59800000D03*
D12*
X56100000Y-58500000D03*
D13*
X55300000Y-58400000D03*
X56900000Y-58400000D03*
X56100000Y-59800000D03*
X55300000Y-59800000D03*
X56900000Y-59800000D03*
D12*
X53500000Y-58500000D03*
D13*
X52700000Y-58400000D03*
X54300000Y-58400000D03*
X53500000Y-59800000D03*
X52700000Y-59800000D03*
X54300000Y-59800000D03*
D12*
X50900000Y-58500000D03*
D13*
X50100000Y-58400000D03*
X51700000Y-58400000D03*
X50900000Y-59800000D03*
X50100000Y-59800000D03*
X51700000Y-59800000D03*
D12*
X48300000Y-58500000D03*
D13*
X47500000Y-58400000D03*
X49100000Y-58400000D03*
X48300000Y-59800000D03*
X47500000Y-59800000D03*
X49100000Y-59800000D03*
D12*
X45700000Y-58500000D03*
D13*
X44900000Y-58400000D03*
X46500000Y-58400000D03*
X45700000Y-59800000D03*
X44900000Y-59800000D03*
X46500000Y-59800000D03*
D12*
X50900000Y-62300000D03*
D13*
X51700000Y-62400000D03*
X50100000Y-62400000D03*
X50900000Y-61000000D03*
X51700000Y-61000000D03*
X50100000Y-61000000D03*
D12*
X53500000Y-62300000D03*
D13*
X54300000Y-62400000D03*
X52700000Y-62400000D03*
X53500000Y-61000000D03*
X54300000Y-61000000D03*
X52700000Y-61000000D03*
D12*
X56100000Y-62300000D03*
D13*
X56900000Y-62400000D03*
X55300000Y-62400000D03*
X56100000Y-61000000D03*
X56900000Y-61000000D03*
X55300000Y-61000000D03*
D12*
X58700000Y-62300000D03*
D13*
X59500000Y-62400000D03*
X57900000Y-62400000D03*
X58700000Y-61000000D03*
X59500000Y-61000000D03*
X57900000Y-61000000D03*
D12*
X61300000Y-62300000D03*
D13*
X62100000Y-62400000D03*
X60500000Y-62400000D03*
X61300000Y-61000000D03*
X62100000Y-61000000D03*
X60500000Y-61000000D03*
D12*
X63900000Y-62300000D03*
D13*
X64700000Y-62400000D03*
X63100000Y-62400000D03*
X63900000Y-61000000D03*
X64700000Y-61000000D03*
X63100000Y-61000000D03*
D12*
X66500000Y-62300000D03*
D13*
X67300000Y-62400000D03*
X65700000Y-62400000D03*
X66500000Y-61000000D03*
X67300000Y-61000000D03*
X65700000Y-61000000D03*
D12*
X69100000Y-62300000D03*
D13*
X69900000Y-62400000D03*
X68300000Y-62400000D03*
X69100000Y-61000000D03*
X69900000Y-61000000D03*
X68300000Y-61000000D03*
D12*
X66500000Y-63700000D03*
D13*
X65700000Y-63600000D03*
X67300000Y-63600000D03*
X66500000Y-65000000D03*
X65700000Y-65000000D03*
X67300000Y-65000000D03*
D12*
X63900000Y-63700000D03*
D13*
X63100000Y-63600000D03*
X64700000Y-63600000D03*
X63900000Y-65000000D03*
X63100000Y-65000000D03*
X64700000Y-65000000D03*
D12*
X61300000Y-63700000D03*
D13*
X60500000Y-63600000D03*
X62100000Y-63600000D03*
X61300000Y-65000000D03*
X60500000Y-65000000D03*
X62100000Y-65000000D03*
D12*
X58700000Y-63700000D03*
D13*
X57900000Y-63600000D03*
X59500000Y-63600000D03*
X58700000Y-65000000D03*
X57900000Y-65000000D03*
X59500000Y-65000000D03*
D12*
X56100000Y-63700000D03*
D13*
X55300000Y-63600000D03*
X56900000Y-63600000D03*
X56100000Y-65000000D03*
X55300000Y-65000000D03*
X56900000Y-65000000D03*
D12*
X53500000Y-63700000D03*
D13*
X52700000Y-63600000D03*
X54300000Y-63600000D03*
X53500000Y-65000000D03*
X52700000Y-65000000D03*
X54300000Y-65000000D03*
X51700000Y-65000000D03*
X50100000Y-65000000D03*
X50900000Y-65000000D03*
X51700000Y-63600000D03*
X50100000Y-63600000D03*
D12*
X50900000Y-63700000D03*
G04 #@! TA.AperFunction,SMDPad,CuDef*
G36*
G01*
X49250001Y-26100000D02*
X47949999Y-26100000D01*
G75*
G02*
X47700000Y-25850001I0J249999D01*
G01*
X47700000Y-25199999D01*
G75*
G02*
X47949999Y-24950000I249999J0D01*
G01*
X49250001Y-24950000D01*
G75*
G02*
X49500000Y-25199999I0J-249999D01*
G01*
X49500000Y-25850001D01*
G75*
G02*
X49250001Y-26100000I-249999J0D01*
G01*
G37*
G04 #@! TD.AperFunction*
G04 #@! TA.AperFunction,SMDPad,CuDef*
G36*
G01*
X49250001Y-29050000D02*
X47949999Y-29050000D01*
G75*
G02*
X47700000Y-28800001I0J249999D01*
G01*
X47700000Y-28149999D01*
G75*
G02*
X47949999Y-27900000I249999J0D01*
G01*
X49250001Y-27900000D01*
G75*
G02*
X49500000Y-28149999I0J-249999D01*
G01*
X49500000Y-28800001D01*
G75*
G02*
X49250001Y-29050000I-249999J0D01*
G01*
G37*
G04 #@! TD.AperFunction*
G04 #@! TA.AperFunction,SMDPad,CuDef*
G36*
G01*
X76650001Y-26100000D02*
X75349999Y-26100000D01*
G75*
G02*
X75100000Y-25850001I0J249999D01*
G01*
X75100000Y-25199999D01*
G75*
G02*
X75349999Y-24950000I249999J0D01*
G01*
X76650001Y-24950000D01*
G75*
G02*
X76900000Y-25199999I0J-249999D01*
G01*
X76900000Y-25850001D01*
G75*
G02*
X76650001Y-26100000I-249999J0D01*
G01*
G37*
G04 #@! TD.AperFunction*
G04 #@! TA.AperFunction,SMDPad,CuDef*
G36*
G01*
X76650001Y-29050000D02*
X75349999Y-29050000D01*
G75*
G02*
X75100000Y-28800001I0J249999D01*
G01*
X75100000Y-28149999D01*
G75*
G02*
X75349999Y-27900000I249999J0D01*
G01*
X76650001Y-27900000D01*
G75*
G02*
X76900000Y-28149999I0J-249999D01*
G01*
X76900000Y-28800001D01*
G75*
G02*
X76650001Y-29050000I-249999J0D01*
G01*
G37*
G04 #@! TD.AperFunction*
G04 #@! TA.AperFunction,SMDPad,CuDef*
G36*
G01*
X45250001Y-26100000D02*
X43949999Y-26100000D01*
G75*
G02*
X43700000Y-25850001I0J249999D01*
G01*
X43700000Y-25199999D01*
G75*
G02*
X43949999Y-24950000I249999J0D01*
G01*
X45250001Y-24950000D01*
G75*
G02*
X45500000Y-25199999I0J-249999D01*
G01*
X45500000Y-25850001D01*
G75*
G02*
X45250001Y-26100000I-249999J0D01*
G01*
G37*
G04 #@! TD.AperFunction*
G04 #@! TA.AperFunction,SMDPad,CuDef*
G36*
G01*
X45250001Y-29050000D02*
X43949999Y-29050000D01*
G75*
G02*
X43700000Y-28800001I0J249999D01*
G01*
X43700000Y-28149999D01*
G75*
G02*
X43949999Y-27900000I249999J0D01*
G01*
X45250001Y-27900000D01*
G75*
G02*
X45500000Y-28149999I0J-249999D01*
G01*
X45500000Y-28800001D01*
G75*
G02*
X45250001Y-29050000I-249999J0D01*
G01*
G37*
G04 #@! TD.AperFunction*
G04 #@! TA.AperFunction,SMDPad,CuDef*
G36*
G01*
X72650001Y-26100000D02*
X71349999Y-26100000D01*
G75*
G02*
X71100000Y-25850001I0J249999D01*
G01*
X71100000Y-25199999D01*
G75*
G02*
X71349999Y-24950000I249999J0D01*
G01*
X72650001Y-24950000D01*
G75*
G02*
X72900000Y-25199999I0J-249999D01*
G01*
X72900000Y-25850001D01*
G75*
G02*
X72650001Y-26100000I-249999J0D01*
G01*
G37*
G04 #@! TD.AperFunction*
G04 #@! TA.AperFunction,SMDPad,CuDef*
G36*
G01*
X72650001Y-29050000D02*
X71349999Y-29050000D01*
G75*
G02*
X71100000Y-28800001I0J249999D01*
G01*
X71100000Y-28149999D01*
G75*
G02*
X71349999Y-27900000I249999J0D01*
G01*
X72650001Y-27900000D01*
G75*
G02*
X72900000Y-28149999I0J-249999D01*
G01*
X72900000Y-28800001D01*
G75*
G02*
X72650001Y-29050000I-249999J0D01*
G01*
G37*
G04 #@! TD.AperFunction*
G04 #@! TA.AperFunction,SMDPad,CuDef*
G36*
G01*
X63005000Y-32865000D02*
X63005000Y-32315000D01*
G75*
G02*
X63205000Y-32115000I200000J0D01*
G01*
X63605000Y-32115000D01*
G75*
G02*
X63805000Y-32315000I0J-200000D01*
G01*
X63805000Y-32865000D01*
G75*
G02*
X63605000Y-33065000I-200000J0D01*
G01*
X63205000Y-33065000D01*
G75*
G02*
X63005000Y-32865000I0J200000D01*
G01*
G37*
G04 #@! TD.AperFunction*
G04 #@! TA.AperFunction,SMDPad,CuDef*
G36*
G01*
X61355000Y-32865000D02*
X61355000Y-32315000D01*
G75*
G02*
X61555000Y-32115000I200000J0D01*
G01*
X61955000Y-32115000D01*
G75*
G02*
X62155000Y-32315000I0J-200000D01*
G01*
X62155000Y-32865000D01*
G75*
G02*
X61955000Y-33065000I-200000J0D01*
G01*
X61555000Y-33065000D01*
G75*
G02*
X61355000Y-32865000I0J200000D01*
G01*
G37*
G04 #@! TD.AperFunction*
G04 #@! TA.AperFunction,SMDPad,CuDef*
G36*
G01*
X58845000Y-32845000D02*
X58845000Y-32295000D01*
G75*
G02*
X59045000Y-32095000I200000J0D01*
G01*
X59445000Y-32095000D01*
G75*
G02*
X59645000Y-32295000I0J-200000D01*
G01*
X59645000Y-32845000D01*
G75*
G02*
X59445000Y-33045000I-200000J0D01*
G01*
X59045000Y-33045000D01*
G75*
G02*
X58845000Y-32845000I0J200000D01*
G01*
G37*
G04 #@! TD.AperFunction*
G04 #@! TA.AperFunction,SMDPad,CuDef*
G36*
G01*
X57195000Y-32845000D02*
X57195000Y-32295000D01*
G75*
G02*
X57395000Y-32095000I200000J0D01*
G01*
X57795000Y-32095000D01*
G75*
G02*
X57995000Y-32295000I0J-200000D01*
G01*
X57995000Y-32845000D01*
G75*
G02*
X57795000Y-33045000I-200000J0D01*
G01*
X57395000Y-33045000D01*
G75*
G02*
X57195000Y-32845000I0J200000D01*
G01*
G37*
G04 #@! TD.AperFunction*
D14*
X76000000Y-24400000D03*
X72000000Y-24400000D03*
X44600000Y-24400000D03*
X48600000Y-24400000D03*
X58100000Y-28220000D03*
X61110000Y-28210000D03*
X64130000Y-28190000D03*
D15*
X71700000Y-39600000D03*
X45700000Y-39600000D03*
X50900000Y-34400000D03*
X53500000Y-34400000D03*
X56100000Y-34400000D03*
X58700000Y-34400000D03*
X61300000Y-34400000D03*
X63900000Y-34400000D03*
X66500000Y-34400000D03*
X69100000Y-34400000D03*
X50900000Y-39600000D03*
X53500000Y-39600000D03*
X56100000Y-39600000D03*
X58700000Y-39600000D03*
X61300000Y-39600000D03*
X63900000Y-39600000D03*
X66500000Y-39600000D03*
X69100000Y-39600000D03*
X50900000Y-44800000D03*
X53500000Y-44800000D03*
X56100000Y-44800000D03*
X58700000Y-44800000D03*
X61300000Y-44800000D03*
X63900000Y-44800000D03*
X66500000Y-44800000D03*
X69100000Y-44800000D03*
X50900000Y-50000000D03*
X53500000Y-50000000D03*
X56100000Y-50000000D03*
X58700000Y-50000000D03*
X61300000Y-50000000D03*
X63900000Y-50000000D03*
X66500000Y-50000000D03*
X69100000Y-50000000D03*
X50900000Y-55200000D03*
X53500000Y-55200000D03*
X56100000Y-55200000D03*
X58700000Y-55200000D03*
X61300000Y-55200000D03*
X63900000Y-55200000D03*
X66500000Y-55200000D03*
X69100000Y-55200000D03*
X50900000Y-60400000D03*
X53500000Y-60400000D03*
X56100000Y-60400000D03*
X58700000Y-60400000D03*
X61300000Y-60400000D03*
X63900000Y-60400000D03*
X66500000Y-60400000D03*
X69100000Y-60400000D03*
X50900000Y-65600000D03*
X53500000Y-65600000D03*
X56100000Y-65600000D03*
X58700000Y-65600000D03*
X61300000Y-65600000D03*
X63900000Y-65600000D03*
X66500000Y-65600000D03*
X69100000Y-65600000D03*
X48300000Y-39600000D03*
X45700000Y-44800000D03*
X48300000Y-44800000D03*
X45700000Y-50000000D03*
X48300000Y-50000000D03*
X45700000Y-55200000D03*
X48300000Y-55200000D03*
X45700000Y-60400000D03*
X48300000Y-60400000D03*
X74300000Y-39600000D03*
X71700000Y-44800000D03*
X74300000Y-44800000D03*
X71700000Y-50000000D03*
X74300000Y-50000000D03*
X71700000Y-55200000D03*
X74300000Y-55200000D03*
X71700000Y-60400000D03*
X74300000Y-60400000D03*
D14*
X56610000Y-28210000D03*
D15*
X71700000Y-42200000D03*
X45700000Y-42200000D03*
X50900000Y-37010000D03*
X53500000Y-37010000D03*
X56100000Y-37010000D03*
X58700000Y-37010000D03*
X61300000Y-37010000D03*
X63900000Y-37010000D03*
X66500000Y-37010000D03*
X69100000Y-37010000D03*
X50900000Y-42210000D03*
X53500000Y-42210000D03*
X56100000Y-42210000D03*
X58700000Y-42210000D03*
X61300000Y-42210000D03*
X63900000Y-42210000D03*
X66500000Y-42210000D03*
X69100000Y-42210000D03*
X50900000Y-47410000D03*
X53500000Y-47410000D03*
X56100000Y-47410000D03*
X58700000Y-47410000D03*
X61300000Y-47410000D03*
X63900000Y-47410000D03*
X66500000Y-47410000D03*
X69100000Y-47410000D03*
X50900000Y-52610000D03*
X53500000Y-52610000D03*
X56100000Y-52610000D03*
X58700000Y-52610000D03*
X61300000Y-52610000D03*
X63900000Y-52610000D03*
X66500000Y-52610000D03*
X69100000Y-52610000D03*
X50900000Y-57810000D03*
X53500000Y-57810000D03*
X56100000Y-57810000D03*
X58700000Y-57810000D03*
X61300000Y-57810000D03*
X63900000Y-57810000D03*
X66500000Y-57810000D03*
X69100000Y-57810000D03*
X50900000Y-63010000D03*
X53500000Y-63010000D03*
X56100000Y-63010000D03*
X58700000Y-63010000D03*
X61300000Y-63010000D03*
X63900000Y-63010000D03*
X66500000Y-63010000D03*
X69100000Y-63010000D03*
X48300000Y-42200000D03*
X45700000Y-47400000D03*
X48300000Y-47400000D03*
X45700000Y-52600000D03*
X48300000Y-52600000D03*
X45700000Y-57800000D03*
X48300000Y-57800000D03*
X74300000Y-42200000D03*
X71700000Y-47400000D03*
X74300000Y-47400000D03*
X71700000Y-52600000D03*
X74300000Y-52600000D03*
X71700000Y-57800000D03*
X74300000Y-57800000D03*
D14*
X76000000Y-29600000D03*
X72000000Y-29600000D03*
X48600000Y-29600000D03*
X44600000Y-29600000D03*
D16*
X50900000Y-34300000D02*
X50900000Y-34300000D01*
X53500000Y-34300000D02*
X53500000Y-35000000D01*
X56100000Y-34300000D02*
X56100000Y-35000000D01*
X58700000Y-34300000D02*
X58700000Y-35000000D01*
X61300000Y-34300000D02*
X61300000Y-35000000D01*
X63900000Y-34300000D02*
X63900000Y-35000000D01*
X66500000Y-34300000D02*
X66500000Y-35000000D01*
X69100000Y-34300000D02*
X69100000Y-35000000D01*
X69100000Y-39000000D02*
X69100000Y-39700000D01*
X66500000Y-39000000D02*
X66500000Y-39700000D01*
X63900000Y-39000000D02*
X63900000Y-39700000D01*
X61300000Y-39000000D02*
X61300000Y-39700000D01*
X58700000Y-39000000D02*
X58700000Y-39700000D01*
X56100000Y-39000000D02*
X56100000Y-39700000D01*
X53500000Y-39000000D02*
X53500000Y-39700000D01*
X50900000Y-39000000D02*
X50900000Y-39700000D01*
X45700000Y-39500000D02*
X45700000Y-40200000D01*
X48300000Y-39500000D02*
X48300000Y-40200000D01*
X50900000Y-39500000D02*
X50900000Y-40200000D01*
X53500000Y-39500000D02*
X53500000Y-40200000D01*
X56100000Y-39500000D02*
X56100000Y-40200000D01*
X58700000Y-39500000D02*
X58700000Y-40200000D01*
X61300000Y-39500000D02*
X61300000Y-40200000D01*
X63900000Y-39500000D02*
X63900000Y-40200000D01*
X66500000Y-39500000D02*
X66500000Y-40200000D01*
X69100000Y-39500000D02*
X69100000Y-40200000D01*
X71700000Y-39500000D02*
X71700000Y-40200000D01*
X74300000Y-39500000D02*
X74300000Y-40200000D01*
X74300000Y-44200000D02*
X74300000Y-44900000D01*
X71700000Y-44200000D02*
X71700000Y-44900000D01*
X69100000Y-44200000D02*
X69100000Y-44900000D01*
X66500000Y-44200000D02*
X66500000Y-44900000D01*
X63900000Y-44200000D02*
X63900000Y-44900000D01*
X61300000Y-44200000D02*
X61300000Y-44900000D01*
X58700000Y-44200000D02*
X58700000Y-44900000D01*
X56100000Y-44200000D02*
X56100000Y-44900000D01*
X53500000Y-44200000D02*
X53500000Y-44900000D01*
X50900000Y-44200000D02*
X50900000Y-44900000D01*
X48300000Y-44200000D02*
X48300000Y-44900000D01*
X45700000Y-44200000D02*
X45700000Y-44900000D01*
X45700000Y-44700000D02*
X45700000Y-45400000D01*
X48300000Y-44700000D02*
X48300000Y-45400000D01*
X50900000Y-44700000D02*
X50900000Y-45400000D01*
X53500000Y-44700000D02*
X53500000Y-45400000D01*
X56100000Y-44700000D02*
X56100000Y-45400000D01*
X58700000Y-44700000D02*
X58700000Y-45400000D01*
X61300000Y-44700000D02*
X61300000Y-45400000D01*
X63900000Y-44700000D02*
X63900000Y-45400000D01*
X66500000Y-44700000D02*
X66500000Y-45400000D01*
X69100000Y-44700000D02*
X69100000Y-45400000D01*
X71700000Y-44700000D02*
X71700000Y-45400000D01*
X74300000Y-44700000D02*
X74300000Y-45400000D01*
X74300000Y-49400000D02*
X74300000Y-50100000D01*
X71700000Y-49400000D02*
X71700000Y-50100000D01*
X69100000Y-49400000D02*
X69100000Y-50100000D01*
X66500000Y-49400000D02*
X66500000Y-50100000D01*
X63900000Y-49400000D02*
X63900000Y-50100000D01*
X61300000Y-49400000D02*
X61300000Y-50100000D01*
X58700000Y-49400000D02*
X58700000Y-50100000D01*
X56100000Y-49400000D02*
X56100000Y-50100000D01*
X53500000Y-49400000D02*
X53500000Y-50100000D01*
X50900000Y-49400000D02*
X50900000Y-50100000D01*
X48300000Y-49400000D02*
X48300000Y-50100000D01*
X45700000Y-49400000D02*
X45700000Y-50100000D01*
X45700000Y-49900000D02*
X45700000Y-50600000D01*
X48300000Y-49900000D02*
X48300000Y-50600000D01*
X50900000Y-49900000D02*
X50900000Y-50600000D01*
X53500000Y-49900000D02*
X53500000Y-50600000D01*
X56100000Y-49900000D02*
X56100000Y-50600000D01*
X58700000Y-49900000D02*
X58700000Y-50600000D01*
X61300000Y-49900000D02*
X61300000Y-50600000D01*
X63900000Y-49900000D02*
X63900000Y-50600000D01*
X66500000Y-49900000D02*
X66500000Y-50600000D01*
X69100000Y-49900000D02*
X69100000Y-50600000D01*
X71700000Y-49900000D02*
X71700000Y-50600000D01*
X74300000Y-49900000D02*
X74300000Y-50600000D01*
X74300000Y-54600000D02*
X74300000Y-55300000D01*
X71700000Y-54600000D02*
X71700000Y-55300000D01*
X69100000Y-54600000D02*
X69100000Y-55300000D01*
X66500000Y-54600000D02*
X66500000Y-55300000D01*
X63900000Y-54600000D02*
X63900000Y-55300000D01*
X61300000Y-54600000D02*
X61300000Y-55300000D01*
X58700000Y-54600000D02*
X58700000Y-55300000D01*
X56100000Y-54600000D02*
X56100000Y-55300000D01*
X53500000Y-54600000D02*
X53500000Y-55300000D01*
X50900000Y-54600000D02*
X50900000Y-55300000D01*
X48300000Y-54600000D02*
X48300000Y-55300000D01*
X45700000Y-54600000D02*
X45700000Y-55300000D01*
X45700000Y-55100000D02*
X45700000Y-55800000D01*
X48300000Y-55100000D02*
X48300000Y-55800000D01*
X50900000Y-55100000D02*
X50900000Y-55800000D01*
X53500000Y-55100000D02*
X53500000Y-55800000D01*
X56100000Y-55100000D02*
X56100000Y-55800000D01*
X58700000Y-55100000D02*
X58700000Y-55800000D01*
X61300000Y-55100000D02*
X61300000Y-55800000D01*
X63900000Y-55100000D02*
X63900000Y-55800000D01*
X66500000Y-55100000D02*
X66500000Y-55800000D01*
X69100000Y-55100000D02*
X69100000Y-55800000D01*
X71700000Y-55100000D02*
X71700000Y-55800000D01*
X74300000Y-55100000D02*
X74300000Y-55800000D01*
X74300000Y-59800000D02*
X74300000Y-60500000D01*
X71700000Y-59800000D02*
X71700000Y-60500000D01*
X69100000Y-59800000D02*
X69100000Y-60500000D01*
X66500000Y-59800000D02*
X66500000Y-60500000D01*
X63900000Y-59800000D02*
X63900000Y-60500000D01*
X61300000Y-59800000D02*
X61300000Y-60500000D01*
X58700000Y-59800000D02*
X58700000Y-60500000D01*
X56100000Y-59800000D02*
X56100000Y-60500000D01*
X53500000Y-59800000D02*
X53500000Y-60500000D01*
X50900000Y-59800000D02*
X50900000Y-60500000D01*
X48300000Y-59800000D02*
X48300000Y-60500000D01*
X45700000Y-59800000D02*
X45700000Y-60500000D01*
X50900000Y-60300000D02*
X50900000Y-61000000D01*
X53500000Y-60300000D02*
X53500000Y-61000000D01*
X56100000Y-60300000D02*
X56100000Y-61000000D01*
X58700000Y-60300000D02*
X58700000Y-61000000D01*
X61300000Y-60300000D02*
X61300000Y-61000000D01*
X63900000Y-60300000D02*
X63900000Y-61000000D01*
X66500000Y-60300000D02*
X66500000Y-61000000D01*
X69100000Y-60300000D02*
X69100000Y-61000000D01*
X69100000Y-65000000D02*
X69100000Y-65700000D01*
X66500000Y-65000000D02*
X66500000Y-65700000D01*
X63900000Y-65000000D02*
X63900000Y-65700000D01*
X61300000Y-65000000D02*
X61300000Y-65700000D01*
X58700000Y-65000000D02*
X58700000Y-65700000D01*
X56100000Y-65000000D02*
X56100000Y-65700000D01*
X53500000Y-65000000D02*
X53500000Y-65700000D01*
X50900000Y-65000000D02*
X50900000Y-65700000D01*
X50900000Y-34300000D02*
X50900000Y-35000000D01*
D17*
X44600000Y-24400000D02*
X44600000Y-25525000D01*
X48600000Y-24400000D02*
X48600000Y-25525000D01*
X72000000Y-24400000D02*
X72000000Y-25525000D01*
X76000000Y-24400000D02*
X76000000Y-25525000D01*
X64110000Y-28210000D02*
X64130000Y-28190000D01*
X64110000Y-29740000D02*
X64110000Y-28210000D01*
X61110000Y-29740000D02*
X61110000Y-28210000D01*
X58110000Y-28230000D02*
X58100000Y-28220000D01*
X58110000Y-29740000D02*
X58110000Y-28230000D01*
D16*
X50900000Y-36300000D02*
X50900000Y-37100000D01*
X53500000Y-36300000D02*
X53500000Y-37100000D01*
X56100000Y-36300000D02*
X56100000Y-37100000D01*
X58700000Y-36300000D02*
X58700000Y-37100000D01*
X61300000Y-36300000D02*
X61300000Y-37100000D01*
X63900000Y-36300000D02*
X63900000Y-37100000D01*
X66500000Y-36300000D02*
X66500000Y-37100000D01*
X69100000Y-36300000D02*
X69100000Y-37100000D01*
X69100000Y-36900000D02*
X69100000Y-37700000D01*
X66500000Y-36900000D02*
X66500000Y-37700000D01*
X63900000Y-36900000D02*
X63900000Y-37700000D01*
X61300000Y-36900000D02*
X61300000Y-37700000D01*
X58700000Y-36900000D02*
X58700000Y-37700000D01*
X56100000Y-36900000D02*
X56100000Y-37700000D01*
X53500000Y-36900000D02*
X53500000Y-37700000D01*
X50900000Y-36900000D02*
X50900000Y-37700000D01*
X45700000Y-41500000D02*
X45700000Y-42300000D01*
X48300000Y-41500000D02*
X48300000Y-42300000D01*
X50900000Y-41500000D02*
X50900000Y-42300000D01*
X53500000Y-41500000D02*
X53500000Y-42300000D01*
X56100000Y-41500000D02*
X56100000Y-42300000D01*
X58700000Y-41500000D02*
X58700000Y-42300000D01*
X61300000Y-41500000D02*
X61300000Y-42300000D01*
X63900000Y-41500000D02*
X63900000Y-42300000D01*
X66500000Y-41500000D02*
X66500000Y-42300000D01*
X69100000Y-41500000D02*
X69100000Y-42300000D01*
X71700000Y-41500000D02*
X71700000Y-42300000D01*
X74300000Y-41500000D02*
X74300000Y-42300000D01*
X74300000Y-42100000D02*
X74300000Y-42900000D01*
X71700000Y-42100000D02*
X71700000Y-42900000D01*
X69100000Y-42100000D02*
X69100000Y-42900000D01*
X66500000Y-42100000D02*
X66500000Y-42900000D01*
X63900000Y-42100000D02*
X63900000Y-42900000D01*
X61300000Y-42100000D02*
X61300000Y-42900000D01*
X58700000Y-42100000D02*
X58700000Y-42900000D01*
X56100000Y-42100000D02*
X56100000Y-42900000D01*
X53500000Y-42100000D02*
X53500000Y-42900000D01*
X50900000Y-42100000D02*
X50900000Y-42900000D01*
X48300000Y-42100000D02*
X48300000Y-42900000D01*
X45700000Y-42100000D02*
X45700000Y-42900000D01*
X45700000Y-46700000D02*
X45700000Y-47500000D01*
X48300000Y-46700000D02*
X48300000Y-47500000D01*
X50900000Y-46700000D02*
X50900000Y-47500000D01*
X53500000Y-46700000D02*
X53500000Y-47500000D01*
X56100000Y-46700000D02*
X56100000Y-47500000D01*
X58700000Y-46700000D02*
X58700000Y-47500000D01*
X61300000Y-46700000D02*
X61300000Y-47500000D01*
X63900000Y-46700000D02*
X63900000Y-47500000D01*
X66500000Y-46700000D02*
X66500000Y-47500000D01*
X69100000Y-46700000D02*
X69100000Y-47500000D01*
X71700000Y-46700000D02*
X71700000Y-47500000D01*
X74300000Y-46700000D02*
X74300000Y-47500000D01*
X74300000Y-47300000D02*
X74300000Y-48100000D01*
X71700000Y-47300000D02*
X71700000Y-48100000D01*
X69100000Y-47300000D02*
X69100000Y-48100000D01*
X66500000Y-47300000D02*
X66500000Y-48100000D01*
X63900000Y-47300000D02*
X63900000Y-48100000D01*
X61300000Y-47300000D02*
X61300000Y-48100000D01*
X58700000Y-47300000D02*
X58700000Y-48100000D01*
X56100000Y-47300000D02*
X56100000Y-48100000D01*
X53500000Y-47300000D02*
X53500000Y-48100000D01*
X50900000Y-47300000D02*
X50900000Y-48100000D01*
X48300000Y-47300000D02*
X48300000Y-48100000D01*
X45700000Y-47300000D02*
X45700000Y-48100000D01*
X45700000Y-51900000D02*
X45700000Y-52700000D01*
X48300000Y-51900000D02*
X48300000Y-52700000D01*
X50900000Y-51900000D02*
X50900000Y-52700000D01*
X53500000Y-51900000D02*
X53500000Y-52700000D01*
X56100000Y-51900000D02*
X56100000Y-52700000D01*
X58700000Y-51900000D02*
X58700000Y-52700000D01*
X61300000Y-51900000D02*
X61300000Y-52700000D01*
X63900000Y-51900000D02*
X63900000Y-52700000D01*
X66500000Y-51900000D02*
X66500000Y-52700000D01*
X69100000Y-51900000D02*
X69100000Y-52700000D01*
X71700000Y-51900000D02*
X71700000Y-52700000D01*
X74300000Y-51900000D02*
X74300000Y-52700000D01*
X74300000Y-52500000D02*
X74300000Y-53300000D01*
X71700000Y-52500000D02*
X71700000Y-53300000D01*
X69100000Y-52500000D02*
X69100000Y-53300000D01*
X66500000Y-52500000D02*
X66500000Y-53300000D01*
X63900000Y-52500000D02*
X63900000Y-53300000D01*
X61300000Y-52500000D02*
X61300000Y-53300000D01*
X58700000Y-52500000D02*
X58700000Y-53300000D01*
X56100000Y-52500000D02*
X56100000Y-53300000D01*
X53500000Y-52500000D02*
X53500000Y-53300000D01*
X50900000Y-52500000D02*
X50900000Y-53300000D01*
X48300000Y-52500000D02*
X48300000Y-53300000D01*
X45700000Y-52500000D02*
X45700000Y-53300000D01*
X45700000Y-57100000D02*
X45700000Y-57900000D01*
X48300000Y-57100000D02*
X48300000Y-57900000D01*
X50900000Y-57100000D02*
X50900000Y-57900000D01*
X53500000Y-57100000D02*
X53500000Y-57900000D01*
X56100000Y-57100000D02*
X56100000Y-57900000D01*
X58700000Y-57100000D02*
X58700000Y-57900000D01*
X61300000Y-57100000D02*
X61300000Y-57900000D01*
X63900000Y-57100000D02*
X63900000Y-57900000D01*
X66500000Y-57100000D02*
X66500000Y-57900000D01*
X69100000Y-57100000D02*
X69100000Y-57900000D01*
X71700000Y-57100000D02*
X71700000Y-57900000D01*
X74300000Y-57100000D02*
X74300000Y-57900000D01*
X74300000Y-57700000D02*
X74300000Y-58500000D01*
X71700000Y-57700000D02*
X71700000Y-58500000D01*
X69100000Y-57700000D02*
X69100000Y-58500000D01*
X66500000Y-57700000D02*
X66500000Y-58500000D01*
X63900000Y-57700000D02*
X63900000Y-58500000D01*
X61300000Y-57700000D02*
X61300000Y-58500000D01*
X58700000Y-57700000D02*
X58700000Y-58500000D01*
X56100000Y-57700000D02*
X56100000Y-58500000D01*
X53500000Y-57700000D02*
X53500000Y-58500000D01*
X50900000Y-57700000D02*
X50900000Y-58500000D01*
X48300000Y-57700000D02*
X48300000Y-58500000D01*
X45700000Y-57700000D02*
X45700000Y-58500000D01*
X50900000Y-62300000D02*
X50900000Y-63100000D01*
X53500000Y-62300000D02*
X53500000Y-63100000D01*
X56100000Y-62300000D02*
X56100000Y-63100000D01*
X58700000Y-62300000D02*
X58700000Y-63100000D01*
X61300000Y-62300000D02*
X61300000Y-63100000D01*
X63900000Y-62300000D02*
X63900000Y-63100000D01*
X66500000Y-62300000D02*
X66500000Y-63100000D01*
X69100000Y-62300000D02*
X69100000Y-63100000D01*
X69100000Y-62900000D02*
X69100000Y-63700000D01*
X66500000Y-62900000D02*
X66500000Y-63700000D01*
X63900000Y-62900000D02*
X63900000Y-63700000D01*
X61300000Y-62900000D02*
X61300000Y-63700000D01*
X58700000Y-62900000D02*
X58700000Y-63700000D01*
X56100000Y-62900000D02*
X56100000Y-63700000D01*
X53500000Y-62900000D02*
X53500000Y-63700000D01*
X50900000Y-62900000D02*
X50900000Y-63700000D01*
D17*
X56610000Y-29740000D02*
X56610000Y-28210000D01*
D18*
X51321818Y-33345010D02*
X50100000Y-34566828D01*
X50100000Y-34566828D02*
X50100000Y-35000000D01*
X60999990Y-33345010D02*
X51321818Y-33345010D01*
X61755000Y-32590000D02*
X60999990Y-33345010D01*
D19*
X50120000Y-36400000D02*
X50100000Y-36400000D01*
X57595000Y-32570000D02*
X57595000Y-32645000D01*
D18*
X49647999Y-35947999D02*
X50100000Y-36400000D01*
X49647999Y-34556369D02*
X49647999Y-35947999D01*
X51634368Y-32570000D02*
X49647999Y-34556369D01*
X57595000Y-32570000D02*
X51634368Y-32570000D01*
X51700000Y-35000000D02*
X52700000Y-35000000D01*
X51700000Y-36400000D02*
X52700000Y-36400000D01*
X54300000Y-35000000D02*
X55300000Y-35000000D01*
X54300000Y-36400000D02*
X55300000Y-36400000D01*
X54300000Y-65000000D02*
X55300000Y-65000000D01*
X54300000Y-63600000D02*
X55300000Y-63600000D01*
X51700000Y-65000000D02*
X52700000Y-65000000D01*
X51700000Y-63600000D02*
X52700000Y-63600000D01*
X56900000Y-35000000D02*
X57900000Y-35000000D01*
X56900000Y-36400000D02*
X57900000Y-36400000D01*
X59500000Y-35000000D02*
X60500000Y-35000000D01*
X59500000Y-36400000D02*
X60500000Y-36400000D01*
X62100000Y-35000000D02*
X63100000Y-35000000D01*
X62100000Y-36400000D02*
X63100000Y-36400000D01*
X67300000Y-39000000D02*
X68300000Y-39000000D01*
X67300000Y-37600000D02*
X68300000Y-37600000D01*
X64700000Y-39000000D02*
X65700000Y-39000000D01*
X64700000Y-37600000D02*
X65700000Y-37600000D01*
X62100000Y-39000000D02*
X63100000Y-39000000D01*
X62100000Y-37600000D02*
X63100000Y-37600000D01*
X59500000Y-39000000D02*
X60500000Y-39000000D01*
X59500000Y-37600000D02*
X60500000Y-37600000D01*
X56900000Y-39000000D02*
X57900000Y-39000000D01*
X56900000Y-37600000D02*
X57900000Y-37600000D01*
X54300000Y-39000000D02*
X55300000Y-39000000D01*
X54300000Y-37600000D02*
X55300000Y-37600000D01*
X51700000Y-39000000D02*
X52700000Y-39000000D01*
X51700000Y-37600000D02*
X52700000Y-37600000D01*
X44900000Y-39675000D02*
X44900000Y-40200000D01*
X45575000Y-39000000D02*
X44900000Y-39675000D01*
X50100000Y-39000000D02*
X45575000Y-39000000D01*
X50100000Y-37600000D02*
X50100000Y-37830000D01*
X50100000Y-37830000D02*
X49350000Y-38580000D01*
X49350000Y-38580000D02*
X45440000Y-38580000D01*
X45440000Y-38580000D02*
X44270000Y-39750000D01*
X44270000Y-40970000D02*
X44900000Y-41600000D01*
X44270000Y-39750000D02*
X44270000Y-40970000D01*
X46500000Y-40200000D02*
X47500000Y-40200000D01*
X46500000Y-41600000D02*
X47500000Y-41600000D01*
X49100000Y-40200000D02*
X50100000Y-40200000D01*
X49100000Y-41600000D02*
X50100000Y-41600000D01*
X51700000Y-40200000D02*
X52700000Y-40200000D01*
X51700000Y-41600000D02*
X52700000Y-41600000D01*
X54300000Y-40200000D02*
X55300000Y-40200000D01*
X54300000Y-41600000D02*
X55300000Y-41600000D01*
X56900000Y-40200000D02*
X57900000Y-40200000D01*
X56900000Y-41600000D02*
X57900000Y-41600000D01*
X59500000Y-40200000D02*
X60500000Y-40200000D01*
X59500000Y-41600000D02*
X60500000Y-41600000D01*
X62100000Y-40200000D02*
X63100000Y-40200000D01*
X62100000Y-41600000D02*
X63100000Y-41600000D01*
X64700000Y-40200000D02*
X65700000Y-40200000D01*
X64700000Y-41600000D02*
X65700000Y-41600000D01*
X67300000Y-40200000D02*
X68300000Y-40200000D01*
X67300000Y-41600000D02*
X68300000Y-41600000D01*
X69900000Y-40200000D02*
X70900000Y-40200000D01*
X69900000Y-41600000D02*
X70900000Y-41600000D01*
X72500000Y-40200000D02*
X73500000Y-40200000D01*
X72500000Y-41600000D02*
X73500000Y-41600000D01*
X75552001Y-43747999D02*
X75100000Y-44200000D01*
X75552001Y-40652001D02*
X75552001Y-43747999D01*
X75100000Y-40200000D02*
X75552001Y-40652001D01*
X75100000Y-41600000D02*
X75100000Y-42800000D01*
X72500000Y-44200000D02*
X73500000Y-44200000D01*
X72500000Y-42800000D02*
X73500000Y-42800000D01*
X69900000Y-44200000D02*
X70900000Y-44200000D01*
X69900000Y-42800000D02*
X70900000Y-42800000D01*
X67300000Y-44200000D02*
X68300000Y-44200000D01*
X67300000Y-42800000D02*
X68300000Y-42800000D01*
X64700000Y-44200000D02*
X65700000Y-44200000D01*
X64700000Y-42800000D02*
X65700000Y-42800000D01*
X62100000Y-44200000D02*
X63100000Y-44200000D01*
X62100000Y-42800000D02*
X63100000Y-42800000D01*
X59500000Y-44200000D02*
X60500000Y-44200000D01*
X59500000Y-42800000D02*
X60500000Y-42800000D01*
X56900000Y-44200000D02*
X57900000Y-44200000D01*
X56900000Y-42800000D02*
X57900000Y-42800000D01*
X54300000Y-44200000D02*
X55300000Y-44200000D01*
X54300000Y-42800000D02*
X55300000Y-42800000D01*
X51700000Y-44200000D02*
X52700000Y-44200000D01*
X51700000Y-42800000D02*
X52700000Y-42800000D01*
X49100000Y-44200000D02*
X50100000Y-44200000D01*
X49100000Y-42800000D02*
X50100000Y-42800000D01*
X46500000Y-44200000D02*
X47500000Y-44200000D01*
X46500000Y-42800000D02*
X47500000Y-42800000D01*
X44900000Y-44200000D02*
X44900000Y-45400000D01*
X44447999Y-46347999D02*
X44900000Y-46800000D01*
X44447999Y-43252001D02*
X44447999Y-46347999D01*
X44900000Y-42800000D02*
X44447999Y-43252001D01*
X46500000Y-45400000D02*
X47500000Y-45400000D01*
X46500000Y-46800000D02*
X47500000Y-46800000D01*
X49100000Y-45400000D02*
X50100000Y-45400000D01*
X49100000Y-46800000D02*
X50100000Y-46800000D01*
X51700000Y-45400000D02*
X52700000Y-45400000D01*
X51700000Y-46800000D02*
X52700000Y-46800000D01*
X54300000Y-45400000D02*
X55300000Y-45400000D01*
X54300000Y-46800000D02*
X55300000Y-46800000D01*
X56900000Y-45400000D02*
X57900000Y-45400000D01*
X56900000Y-46800000D02*
X57900000Y-46800000D01*
X59500000Y-45400000D02*
X60500000Y-45400000D01*
X59500000Y-46800000D02*
X60500000Y-46800000D01*
X62100000Y-45400000D02*
X63100000Y-45400000D01*
X62100000Y-46800000D02*
X63100000Y-46800000D01*
X64700000Y-45400000D02*
X65700000Y-45400000D01*
X64700000Y-46800000D02*
X65700000Y-46800000D01*
X67300000Y-45400000D02*
X68300000Y-45400000D01*
X67300000Y-46800000D02*
X68300000Y-46800000D01*
X69900000Y-45400000D02*
X70900000Y-45400000D01*
X69900000Y-46800000D02*
X70900000Y-46800000D01*
X72500000Y-45400000D02*
X73500000Y-45400000D01*
X72500000Y-46800000D02*
X73500000Y-46800000D01*
X75552001Y-48947999D02*
X75100000Y-49400000D01*
X75552001Y-45852001D02*
X75552001Y-48947999D01*
X75100000Y-45400000D02*
X75552001Y-45852001D01*
X75100000Y-46800000D02*
X75100000Y-48000000D01*
X72500000Y-49400000D02*
X73500000Y-49400000D01*
X72500000Y-48000000D02*
X73500000Y-48000000D01*
X69900000Y-49400000D02*
X70900000Y-49400000D01*
X69900000Y-48000000D02*
X70900000Y-48000000D01*
X67300000Y-49400000D02*
X68300000Y-49400000D01*
X67300000Y-48000000D02*
X68300000Y-48000000D01*
X64700000Y-49400000D02*
X65700000Y-49400000D01*
X64700000Y-48000000D02*
X65700000Y-48000000D01*
X62100000Y-49400000D02*
X63100000Y-49400000D01*
X62100000Y-48000000D02*
X63100000Y-48000000D01*
X59500000Y-49400000D02*
X60500000Y-49400000D01*
X59500000Y-48000000D02*
X60500000Y-48000000D01*
X56900000Y-49400000D02*
X57900000Y-49400000D01*
X56900000Y-48000000D02*
X57900000Y-48000000D01*
X54300000Y-49400000D02*
X55300000Y-49400000D01*
X54300000Y-48000000D02*
X55300000Y-48000000D01*
X51700000Y-49400000D02*
X52700000Y-49400000D01*
X51700000Y-48000000D02*
X52700000Y-48000000D01*
X49100000Y-49400000D02*
X50100000Y-49400000D01*
X49100000Y-48000000D02*
X50100000Y-48000000D01*
X46500000Y-49400000D02*
X47500000Y-49400000D01*
X46500000Y-48000000D02*
X47500000Y-48000000D01*
X44900000Y-49400000D02*
X44900000Y-50600000D01*
X44447999Y-51547999D02*
X44900000Y-52000000D01*
X44447999Y-48452001D02*
X44447999Y-51547999D01*
X44900000Y-48000000D02*
X44447999Y-48452001D01*
X46500000Y-50600000D02*
X47500000Y-50600000D01*
X46500000Y-52000000D02*
X47500000Y-52000000D01*
X49100000Y-50600000D02*
X50100000Y-50600000D01*
X49100000Y-52000000D02*
X50100000Y-52000000D01*
X51700000Y-50600000D02*
X52700000Y-50600000D01*
X51700000Y-52000000D02*
X52700000Y-52000000D01*
X54300000Y-50600000D02*
X55300000Y-50600000D01*
X54300000Y-52000000D02*
X55300000Y-52000000D01*
X56900000Y-50600000D02*
X57900000Y-50600000D01*
X56900000Y-52000000D02*
X57900000Y-52000000D01*
X59500000Y-50600000D02*
X60500000Y-50600000D01*
X59500000Y-52000000D02*
X60500000Y-52000000D01*
X62100000Y-50600000D02*
X63100000Y-50600000D01*
X62100000Y-52000000D02*
X63100000Y-52000000D01*
X64700000Y-50600000D02*
X65700000Y-50600000D01*
X64700000Y-52000000D02*
X65700000Y-52000000D01*
X67300000Y-50600000D02*
X68300000Y-50600000D01*
X67300000Y-52000000D02*
X68300000Y-52000000D01*
X69900000Y-50600000D02*
X70900000Y-50600000D01*
X69900000Y-52000000D02*
X70900000Y-52000000D01*
X72500000Y-50600000D02*
X73500000Y-50600000D01*
X72500000Y-52000000D02*
X73500000Y-52000000D01*
X75552001Y-51052001D02*
X75100000Y-50600000D01*
X75552001Y-54147999D02*
X75552001Y-51052001D01*
X75100000Y-54600000D02*
X75552001Y-54147999D01*
X75100000Y-52000000D02*
X75100000Y-53200000D01*
X72500000Y-54600000D02*
X73500000Y-54600000D01*
X72500000Y-53200000D02*
X73500000Y-53200000D01*
X69900000Y-54600000D02*
X70900000Y-54600000D01*
X69900000Y-53200000D02*
X70900000Y-53200000D01*
X67300000Y-54600000D02*
X68300000Y-54600000D01*
X67300000Y-53200000D02*
X68300000Y-53200000D01*
X64700000Y-54600000D02*
X65700000Y-54600000D01*
X64700000Y-53200000D02*
X65700000Y-53200000D01*
X62100000Y-54600000D02*
X63100000Y-54600000D01*
X62100000Y-53200000D02*
X63100000Y-53200000D01*
X59500000Y-54600000D02*
X60500000Y-54600000D01*
X59500000Y-53200000D02*
X60500000Y-53200000D01*
X56900000Y-54600000D02*
X57900000Y-54600000D01*
X56900000Y-53200000D02*
X57900000Y-53200000D01*
X54300000Y-54600000D02*
X55300000Y-54600000D01*
X54300000Y-53200000D02*
X55300000Y-53200000D01*
X51700000Y-54600000D02*
X52700000Y-54600000D01*
X51700000Y-53200000D02*
X52700000Y-53200000D01*
X49100000Y-54600000D02*
X50100000Y-54600000D01*
X49100000Y-53200000D02*
X50100000Y-53200000D01*
X46500000Y-54600000D02*
X47500000Y-54600000D01*
X46500000Y-53200000D02*
X47500000Y-53200000D01*
X44900000Y-54600000D02*
X44900000Y-55800000D01*
X44447999Y-53652001D02*
X44447999Y-56997999D01*
X44900000Y-53200000D02*
X44447999Y-53652001D01*
X44650000Y-57200000D02*
X44900000Y-57200000D01*
X44447999Y-56997999D02*
X44650000Y-57200000D01*
X46500000Y-55800000D02*
X47500000Y-55800000D01*
X46500000Y-57200000D02*
X47500000Y-57200000D01*
X49100000Y-55800000D02*
X50100000Y-55800000D01*
X49100000Y-57200000D02*
X50100000Y-57200000D01*
X51700000Y-55800000D02*
X52700000Y-55800000D01*
X51700000Y-57200000D02*
X52700000Y-57200000D01*
X54300000Y-55800000D02*
X55300000Y-55800000D01*
X54300000Y-57200000D02*
X55300000Y-57200000D01*
X56900000Y-55800000D02*
X57900000Y-55800000D01*
X56900000Y-57200000D02*
X57900000Y-57200000D01*
X59500000Y-55800000D02*
X60500000Y-55800000D01*
X59500000Y-57200000D02*
X60500000Y-57200000D01*
X62100000Y-55800000D02*
X63100000Y-55800000D01*
X62100000Y-57200000D02*
X63100000Y-57200000D01*
X72500000Y-55800000D02*
X73500000Y-55800000D01*
X72500000Y-57200000D02*
X73500000Y-57200000D01*
X75552001Y-59347999D02*
X75100000Y-59800000D01*
X75552001Y-56252001D02*
X75552001Y-59347999D01*
X75100000Y-55800000D02*
X75552001Y-56252001D01*
X75100000Y-58400000D02*
X75100000Y-57410000D01*
X75100000Y-57410000D02*
X75100000Y-57200000D01*
X72500000Y-59800000D02*
X73500000Y-59800000D01*
X72500000Y-58400000D02*
X73500000Y-58400000D01*
X69900000Y-59800000D02*
X70900000Y-59800000D01*
X69900000Y-58400000D02*
X70900000Y-58400000D01*
X67300000Y-59800000D02*
X68300000Y-59800000D01*
X67300000Y-58400000D02*
X68300000Y-58400000D01*
X64700000Y-59800000D02*
X65700000Y-59800000D01*
X64700000Y-58400000D02*
X65700000Y-58400000D01*
X62100000Y-59800000D02*
X63100000Y-59800000D01*
X62100000Y-58400000D02*
X63100000Y-58400000D01*
X59500000Y-59800000D02*
X60500000Y-59800000D01*
X59500000Y-58400000D02*
X60500000Y-58400000D01*
X56900000Y-59800000D02*
X57900000Y-59800000D01*
X56900000Y-58400000D02*
X57900000Y-58400000D01*
X54300000Y-59800000D02*
X55300000Y-59800000D01*
X54300000Y-58400000D02*
X55300000Y-58400000D01*
X51700000Y-59800000D02*
X52700000Y-59800000D01*
X51700000Y-58400000D02*
X52700000Y-58400000D01*
X49100000Y-59800000D02*
X50100000Y-59800000D01*
X49100000Y-58400000D02*
X50100000Y-58400000D01*
X46500000Y-59800000D02*
X47500000Y-59800000D01*
X46500000Y-58400000D02*
X47500000Y-58400000D01*
X44900000Y-59800000D02*
X44570000Y-59800000D01*
X44570000Y-59800000D02*
X44120000Y-60250000D01*
X44120000Y-60250000D02*
X44120000Y-60770000D01*
X44350000Y-61000000D02*
X50100000Y-61000000D01*
X44120000Y-60770000D02*
X44350000Y-61000000D01*
X49269951Y-61569951D02*
X50100000Y-62400000D01*
X43792990Y-60905451D02*
X44457490Y-61569951D01*
X43792990Y-59507010D02*
X43792990Y-60905451D01*
X44457490Y-61569951D02*
X49269951Y-61569951D01*
X44900000Y-58400000D02*
X43792990Y-59507010D01*
X51700000Y-61000000D02*
X52700000Y-61000000D01*
X51700000Y-62400000D02*
X52700000Y-62400000D01*
X54300000Y-61000000D02*
X55300000Y-61000000D01*
X54300000Y-62400000D02*
X55300000Y-62400000D01*
X56900000Y-61000000D02*
X57900000Y-61000000D01*
X56900000Y-62400000D02*
X57900000Y-62400000D01*
X59500000Y-61000000D02*
X60500000Y-61000000D01*
X59500000Y-62400000D02*
X60500000Y-62400000D01*
X62100000Y-61000000D02*
X63100000Y-61000000D01*
X62100000Y-62400000D02*
X63100000Y-62400000D01*
X64700000Y-61000000D02*
X65700000Y-61000000D01*
X64700000Y-62400000D02*
X65700000Y-62400000D01*
X67300000Y-61000000D02*
X68300000Y-61000000D01*
X67300000Y-62400000D02*
X68300000Y-62400000D01*
X70352001Y-64547999D02*
X69900000Y-65000000D01*
X70352001Y-61452001D02*
X70352001Y-64547999D01*
X69900000Y-61000000D02*
X70352001Y-61452001D01*
X69900000Y-62400000D02*
X69900000Y-63600000D01*
X67300000Y-65000000D02*
X68300000Y-65000000D01*
X67300000Y-63600000D02*
X68300000Y-63600000D01*
X64700000Y-65000000D02*
X65700000Y-65000000D01*
X64700000Y-63600000D02*
X65700000Y-63600000D01*
X62100000Y-65000000D02*
X63100000Y-65000000D01*
X62100000Y-63600000D02*
X63100000Y-63600000D01*
X59500000Y-65000000D02*
X60500000Y-65000000D01*
X59500000Y-63600000D02*
X60500000Y-63600000D01*
X56900000Y-65000000D02*
X57900000Y-65000000D01*
X56900000Y-63600000D02*
X57900000Y-63600000D01*
X64700000Y-35000000D02*
X65700000Y-35000000D01*
X64700000Y-36400000D02*
X65700000Y-36400000D01*
X67300000Y-35000000D02*
X68300000Y-35000000D01*
X67300000Y-36400000D02*
X68300000Y-36400000D01*
X70352001Y-35452001D02*
X69900000Y-35000000D01*
X70352001Y-38547999D02*
X70352001Y-35452001D01*
X69900000Y-39000000D02*
X70352001Y-38547999D01*
X69900000Y-36400000D02*
X69900000Y-37600000D01*
X64700000Y-55800000D02*
X65700000Y-55800000D01*
X64700000Y-57200000D02*
X65700000Y-57200000D01*
X67300000Y-55800000D02*
X68300000Y-55800000D01*
X67300000Y-57200000D02*
X68300000Y-57200000D01*
X69900000Y-55800000D02*
X70900000Y-55800000D01*
X69900000Y-57200000D02*
X70900000Y-57200000D01*
D20*
X62610000Y-31795000D02*
X63405000Y-32590000D01*
X62610000Y-29740000D02*
X62610000Y-31795000D01*
X59610000Y-32205000D02*
X59245000Y-32570000D01*
X59610000Y-29740000D02*
X59610000Y-32205000D01*
D17*
X44600000Y-28475000D02*
X44600000Y-29600000D01*
X48600000Y-29600000D02*
X48600000Y-28475000D01*
X72000000Y-29600000D02*
X72000000Y-28475000D01*
X76000000Y-28475000D02*
X76000000Y-29600000D01*
M02*
