G04 #@! TF.GenerationSoftware,KiCad,Pcbnew,(5.1.9-0-10_14)*
G04 #@! TF.CreationDate,2021-04-12T02:32:52-07:00*
G04 #@! TF.ProjectId,LED_array,4c45445f-6172-4726-9179-2e6b69636164,rev?*
G04 #@! TF.SameCoordinates,Original*
G04 #@! TF.FileFunction,Copper,L3,Inr*
G04 #@! TF.FilePolarity,Positive*
%FSLAX46Y46*%
G04 Gerber Fmt 4.6, Leading zero omitted, Abs format (unit mm)*
G04 Created by KiCad (PCBNEW (5.1.9-0-10_14)) date 2021-04-12 02:32:52*
%MOMM*%
%LPD*%
G01*
G04 APERTURE LIST*
G04 #@! TA.AperFunction,ViaPad*
%ADD10C,0.800000*%
G04 #@! TD*
G04 #@! TA.AperFunction,ViaPad*
%ADD11C,0.400000*%
G04 #@! TD*
G04 APERTURE END LIST*
D10*
X76000000Y-24400000D03*
X72000000Y-24400000D03*
X44600000Y-24400000D03*
X48600000Y-24400000D03*
X58100000Y-28220000D03*
X61110000Y-28210000D03*
X64130000Y-28190000D03*
D11*
X71700000Y-39600000D03*
X45700000Y-39600000D03*
X50900000Y-34400000D03*
X53500000Y-34400000D03*
X56100000Y-34400000D03*
X58700000Y-34400000D03*
X61300000Y-34400000D03*
X63900000Y-34400000D03*
X66500000Y-34400000D03*
X69100000Y-34400000D03*
X50900000Y-39600000D03*
X53500000Y-39600000D03*
X56100000Y-39600000D03*
X58700000Y-39600000D03*
X61300000Y-39600000D03*
X63900000Y-39600000D03*
X66500000Y-39600000D03*
X69100000Y-39600000D03*
X50900000Y-44800000D03*
X53500000Y-44800000D03*
X56100000Y-44800000D03*
X58700000Y-44800000D03*
X61300000Y-44800000D03*
X63900000Y-44800000D03*
X66500000Y-44800000D03*
X69100000Y-44800000D03*
X50900000Y-50000000D03*
X53500000Y-50000000D03*
X56100000Y-50000000D03*
X58700000Y-50000000D03*
X61300000Y-50000000D03*
X63900000Y-50000000D03*
X66500000Y-50000000D03*
X69100000Y-50000000D03*
X50900000Y-55200000D03*
X53500000Y-55200000D03*
X56100000Y-55200000D03*
X58700000Y-55200000D03*
X61300000Y-55200000D03*
X63900000Y-55200000D03*
X66500000Y-55200000D03*
X69100000Y-55200000D03*
X50900000Y-60400000D03*
X53500000Y-60400000D03*
X56100000Y-60400000D03*
X58700000Y-60400000D03*
X61300000Y-60400000D03*
X63900000Y-60400000D03*
X66500000Y-60400000D03*
X69100000Y-60400000D03*
X50900000Y-65600000D03*
X53500000Y-65600000D03*
X56100000Y-65600000D03*
X58700000Y-65600000D03*
X61300000Y-65600000D03*
X63900000Y-65600000D03*
X66500000Y-65600000D03*
X69100000Y-65600000D03*
X48300000Y-39600000D03*
X45700000Y-44800000D03*
X48300000Y-44800000D03*
X45700000Y-50000000D03*
X48300000Y-50000000D03*
X45700000Y-55200000D03*
X48300000Y-55200000D03*
X45700000Y-60400000D03*
X48300000Y-60400000D03*
X74300000Y-39600000D03*
X71700000Y-44800000D03*
X74300000Y-44800000D03*
X71700000Y-50000000D03*
X74300000Y-50000000D03*
X71700000Y-55200000D03*
X74300000Y-55200000D03*
X71700000Y-60400000D03*
X74300000Y-60400000D03*
D10*
X56610000Y-28210000D03*
D11*
X71700000Y-42200000D03*
X45700000Y-42200000D03*
X50900000Y-37010000D03*
X53500000Y-37010000D03*
X56100000Y-37010000D03*
X58700000Y-37010000D03*
X61300000Y-37010000D03*
X63900000Y-37010000D03*
X66500000Y-37010000D03*
X69100000Y-37010000D03*
X50900000Y-42210000D03*
X53500000Y-42210000D03*
X56100000Y-42210000D03*
X58700000Y-42210000D03*
X61300000Y-42210000D03*
X63900000Y-42210000D03*
X66500000Y-42210000D03*
X69100000Y-42210000D03*
X50900000Y-47410000D03*
X53500000Y-47410000D03*
X56100000Y-47410000D03*
X58700000Y-47410000D03*
X61300000Y-47410000D03*
X63900000Y-47410000D03*
X66500000Y-47410000D03*
X69100000Y-47410000D03*
X50900000Y-52610000D03*
X53500000Y-52610000D03*
X56100000Y-52610000D03*
X58700000Y-52610000D03*
X61300000Y-52610000D03*
X63900000Y-52610000D03*
X66500000Y-52610000D03*
X69100000Y-52610000D03*
X50900000Y-57810000D03*
X53500000Y-57810000D03*
X56100000Y-57810000D03*
X58700000Y-57810000D03*
X61300000Y-57810000D03*
X63900000Y-57810000D03*
X66500000Y-57810000D03*
X69100000Y-57810000D03*
X50900000Y-63010000D03*
X53500000Y-63010000D03*
X56100000Y-63010000D03*
X58700000Y-63010000D03*
X61300000Y-63010000D03*
X63900000Y-63010000D03*
X66500000Y-63010000D03*
X69100000Y-63010000D03*
X48300000Y-42200000D03*
X45700000Y-47400000D03*
X48300000Y-47400000D03*
X45700000Y-52600000D03*
X48300000Y-52600000D03*
X45700000Y-57800000D03*
X48300000Y-57800000D03*
X74300000Y-42200000D03*
X71700000Y-47400000D03*
X74300000Y-47400000D03*
X71700000Y-52600000D03*
X74300000Y-52600000D03*
X71700000Y-57800000D03*
X74300000Y-57800000D03*
D10*
X76000000Y-29600000D03*
X72000000Y-29600000D03*
X48600000Y-29600000D03*
X44600000Y-29600000D03*
M02*
