G04 #@! TF.GenerationSoftware,KiCad,Pcbnew,(5.1.9-0-10_14)*
G04 #@! TF.CreationDate,2022-03-05T13:35:39-08:00*
G04 #@! TF.ProjectId,LED_array,4c45445f-6172-4726-9179-2e6b69636164,rev?*
G04 #@! TF.SameCoordinates,Original*
G04 #@! TF.FileFunction,Copper,L1,Top*
G04 #@! TF.FilePolarity,Positive*
%FSLAX46Y46*%
G04 Gerber Fmt 4.6, Leading zero omitted, Abs format (unit mm)*
G04 Created by KiCad (PCBNEW (5.1.9-0-10_14)) date 2022-03-05 13:35:39*
%MOMM*%
%LPD*%
G01*
G04 APERTURE LIST*
G04 #@! TA.AperFunction,SMDPad,CuDef*
%ADD10R,0.350000X0.700000*%
G04 #@! TD*
G04 #@! TA.AperFunction,ComponentPad*
%ADD11C,0.650000*%
G04 #@! TD*
G04 #@! TA.AperFunction,ComponentPad*
%ADD12O,1.000000X2.000000*%
G04 #@! TD*
G04 #@! TA.AperFunction,SMDPad,CuDef*
%ADD13R,0.450000X0.850000*%
G04 #@! TD*
G04 #@! TA.AperFunction,SMDPad,CuDef*
%ADD14R,0.450000X0.650000*%
G04 #@! TD*
G04 #@! TA.AperFunction,ViaPad*
%ADD15C,0.800000*%
G04 #@! TD*
G04 #@! TA.AperFunction,ViaPad*
%ADD16C,0.400000*%
G04 #@! TD*
G04 #@! TA.AperFunction,Conductor*
%ADD17C,0.300000*%
G04 #@! TD*
G04 #@! TA.AperFunction,Conductor*
%ADD18C,0.800000*%
G04 #@! TD*
G04 #@! TA.AperFunction,Conductor*
%ADD19C,0.250000*%
G04 #@! TD*
G04 #@! TA.AperFunction,Conductor*
%ADD20C,0.150000*%
G04 #@! TD*
G04 #@! TA.AperFunction,Conductor*
%ADD21C,0.200000*%
G04 #@! TD*
G04 #@! TA.AperFunction,Conductor*
%ADD22C,0.127000*%
G04 #@! TD*
G04 APERTURE END LIST*
D10*
X66750000Y-28070000D03*
X66250000Y-28070000D03*
X65750000Y-28070000D03*
X65250000Y-28070000D03*
X64750000Y-28070000D03*
X64250000Y-28070000D03*
X63750000Y-28070000D03*
X63250000Y-28070000D03*
X62750000Y-28070000D03*
X62250000Y-28070000D03*
X61750000Y-28070000D03*
X61250000Y-28070000D03*
D11*
X60950000Y-26950000D03*
X61600000Y-26250000D03*
X62400000Y-26250000D03*
X62800000Y-26950000D03*
X63200000Y-26250000D03*
X63600000Y-26950000D03*
X64400000Y-26950000D03*
X64800000Y-26250000D03*
X65200000Y-26950000D03*
X65600000Y-26250000D03*
X66400000Y-26250000D03*
X67050000Y-26950000D03*
D12*
X68500000Y-27750000D03*
X59500000Y-27750000D03*
X68500000Y-22150000D03*
X59500000Y-22150000D03*
D13*
X69100000Y-63700000D03*
D14*
X68300000Y-63600000D03*
X69900000Y-63600000D03*
X69100000Y-65000000D03*
X68300000Y-65000000D03*
X69900000Y-65000000D03*
D13*
X50900000Y-36300000D03*
D14*
X51700000Y-36400000D03*
X50100000Y-36400000D03*
X50900000Y-35000000D03*
X51700000Y-35000000D03*
X50100000Y-35000000D03*
D13*
X53500000Y-36300000D03*
D14*
X54300000Y-36400000D03*
X52700000Y-36400000D03*
X53500000Y-35000000D03*
X54300000Y-35000000D03*
X52700000Y-35000000D03*
D13*
X56100000Y-36300000D03*
D14*
X56900000Y-36400000D03*
X55300000Y-36400000D03*
X56100000Y-35000000D03*
X56900000Y-35000000D03*
X55300000Y-35000000D03*
D13*
X58700000Y-36300000D03*
D14*
X59500000Y-36400000D03*
X57900000Y-36400000D03*
X58700000Y-35000000D03*
X59500000Y-35000000D03*
X57900000Y-35000000D03*
D13*
X61300000Y-36300000D03*
D14*
X62100000Y-36400000D03*
X60500000Y-36400000D03*
X61300000Y-35000000D03*
X62100000Y-35000000D03*
X60500000Y-35000000D03*
D13*
X63900000Y-36300000D03*
D14*
X64700000Y-36400000D03*
X63100000Y-36400000D03*
X63900000Y-35000000D03*
X64700000Y-35000000D03*
X63100000Y-35000000D03*
D13*
X66500000Y-36300000D03*
D14*
X67300000Y-36400000D03*
X65700000Y-36400000D03*
X66500000Y-35000000D03*
X67300000Y-35000000D03*
X65700000Y-35000000D03*
D13*
X69100000Y-36300000D03*
D14*
X69900000Y-36400000D03*
X68300000Y-36400000D03*
X69100000Y-35000000D03*
X69900000Y-35000000D03*
X68300000Y-35000000D03*
D13*
X69100000Y-37700000D03*
D14*
X68300000Y-37600000D03*
X69900000Y-37600000D03*
X69100000Y-39000000D03*
X68300000Y-39000000D03*
X69900000Y-39000000D03*
D13*
X66500000Y-37700000D03*
D14*
X65700000Y-37600000D03*
X67300000Y-37600000D03*
X66500000Y-39000000D03*
X65700000Y-39000000D03*
X67300000Y-39000000D03*
D13*
X63900000Y-37700000D03*
D14*
X63100000Y-37600000D03*
X64700000Y-37600000D03*
X63900000Y-39000000D03*
X63100000Y-39000000D03*
X64700000Y-39000000D03*
D13*
X61300000Y-37700000D03*
D14*
X60500000Y-37600000D03*
X62100000Y-37600000D03*
X61300000Y-39000000D03*
X60500000Y-39000000D03*
X62100000Y-39000000D03*
D13*
X58700000Y-37700000D03*
D14*
X57900000Y-37600000D03*
X59500000Y-37600000D03*
X58700000Y-39000000D03*
X57900000Y-39000000D03*
X59500000Y-39000000D03*
D13*
X56100000Y-37700000D03*
D14*
X55300000Y-37600000D03*
X56900000Y-37600000D03*
X56100000Y-39000000D03*
X55300000Y-39000000D03*
X56900000Y-39000000D03*
D13*
X53500000Y-37700000D03*
D14*
X52700000Y-37600000D03*
X54300000Y-37600000D03*
X53500000Y-39000000D03*
X52700000Y-39000000D03*
X54300000Y-39000000D03*
D13*
X50900000Y-37700000D03*
D14*
X50100000Y-37600000D03*
X51700000Y-37600000D03*
X50900000Y-39000000D03*
X50100000Y-39000000D03*
X51700000Y-39000000D03*
D13*
X45700000Y-41500000D03*
D14*
X46500000Y-41600000D03*
X44900000Y-41600000D03*
X45700000Y-40200000D03*
X46500000Y-40200000D03*
X44900000Y-40200000D03*
D13*
X48300000Y-41500000D03*
D14*
X49100000Y-41600000D03*
X47500000Y-41600000D03*
X48300000Y-40200000D03*
X49100000Y-40200000D03*
X47500000Y-40200000D03*
D13*
X50900000Y-41500000D03*
D14*
X51700000Y-41600000D03*
X50100000Y-41600000D03*
X50900000Y-40200000D03*
X51700000Y-40200000D03*
X50100000Y-40200000D03*
D13*
X53500000Y-41500000D03*
D14*
X54300000Y-41600000D03*
X52700000Y-41600000D03*
X53500000Y-40200000D03*
X54300000Y-40200000D03*
X52700000Y-40200000D03*
D13*
X56100000Y-41500000D03*
D14*
X56900000Y-41600000D03*
X55300000Y-41600000D03*
X56100000Y-40200000D03*
X56900000Y-40200000D03*
X55300000Y-40200000D03*
D13*
X58700000Y-41500000D03*
D14*
X59500000Y-41600000D03*
X57900000Y-41600000D03*
X58700000Y-40200000D03*
X59500000Y-40200000D03*
X57900000Y-40200000D03*
D13*
X61300000Y-41500000D03*
D14*
X62100000Y-41600000D03*
X60500000Y-41600000D03*
X61300000Y-40200000D03*
X62100000Y-40200000D03*
X60500000Y-40200000D03*
D13*
X63900000Y-41500000D03*
D14*
X64700000Y-41600000D03*
X63100000Y-41600000D03*
X63900000Y-40200000D03*
X64700000Y-40200000D03*
X63100000Y-40200000D03*
D13*
X66500000Y-41500000D03*
D14*
X67300000Y-41600000D03*
X65700000Y-41600000D03*
X66500000Y-40200000D03*
X67300000Y-40200000D03*
X65700000Y-40200000D03*
D13*
X69100000Y-41500000D03*
D14*
X69900000Y-41600000D03*
X68300000Y-41600000D03*
X69100000Y-40200000D03*
X69900000Y-40200000D03*
X68300000Y-40200000D03*
D13*
X71700000Y-41500000D03*
D14*
X72500000Y-41600000D03*
X70900000Y-41600000D03*
X71700000Y-40200000D03*
X72500000Y-40200000D03*
X70900000Y-40200000D03*
D13*
X74300000Y-41500000D03*
D14*
X75100000Y-41600000D03*
X73500000Y-41600000D03*
X74300000Y-40200000D03*
X75100000Y-40200000D03*
X73500000Y-40200000D03*
D13*
X74300000Y-42900000D03*
D14*
X73500000Y-42800000D03*
X75100000Y-42800000D03*
X74300000Y-44200000D03*
X73500000Y-44200000D03*
X75100000Y-44200000D03*
D13*
X71700000Y-42900000D03*
D14*
X70900000Y-42800000D03*
X72500000Y-42800000D03*
X71700000Y-44200000D03*
X70900000Y-44200000D03*
X72500000Y-44200000D03*
D13*
X69100000Y-42900000D03*
D14*
X68300000Y-42800000D03*
X69900000Y-42800000D03*
X69100000Y-44200000D03*
X68300000Y-44200000D03*
X69900000Y-44200000D03*
D13*
X66500000Y-42900000D03*
D14*
X65700000Y-42800000D03*
X67300000Y-42800000D03*
X66500000Y-44200000D03*
X65700000Y-44200000D03*
X67300000Y-44200000D03*
D13*
X63900000Y-42900000D03*
D14*
X63100000Y-42800000D03*
X64700000Y-42800000D03*
X63900000Y-44200000D03*
X63100000Y-44200000D03*
X64700000Y-44200000D03*
D13*
X61300000Y-42900000D03*
D14*
X60500000Y-42800000D03*
X62100000Y-42800000D03*
X61300000Y-44200000D03*
X60500000Y-44200000D03*
X62100000Y-44200000D03*
D13*
X58700000Y-42900000D03*
D14*
X57900000Y-42800000D03*
X59500000Y-42800000D03*
X58700000Y-44200000D03*
X57900000Y-44200000D03*
X59500000Y-44200000D03*
D13*
X56100000Y-42900000D03*
D14*
X55300000Y-42800000D03*
X56900000Y-42800000D03*
X56100000Y-44200000D03*
X55300000Y-44200000D03*
X56900000Y-44200000D03*
D13*
X53500000Y-42900000D03*
D14*
X52700000Y-42800000D03*
X54300000Y-42800000D03*
X53500000Y-44200000D03*
X52700000Y-44200000D03*
X54300000Y-44200000D03*
D13*
X50900000Y-42900000D03*
D14*
X50100000Y-42800000D03*
X51700000Y-42800000D03*
X50900000Y-44200000D03*
X50100000Y-44200000D03*
X51700000Y-44200000D03*
D13*
X48300000Y-42900000D03*
D14*
X47500000Y-42800000D03*
X49100000Y-42800000D03*
X48300000Y-44200000D03*
X47500000Y-44200000D03*
X49100000Y-44200000D03*
D13*
X45700000Y-42900000D03*
D14*
X44900000Y-42800000D03*
X46500000Y-42800000D03*
X45700000Y-44200000D03*
X44900000Y-44200000D03*
X46500000Y-44200000D03*
D13*
X45700000Y-46700000D03*
D14*
X46500000Y-46800000D03*
X44900000Y-46800000D03*
X45700000Y-45400000D03*
X46500000Y-45400000D03*
X44900000Y-45400000D03*
D13*
X48300000Y-46700000D03*
D14*
X49100000Y-46800000D03*
X47500000Y-46800000D03*
X48300000Y-45400000D03*
X49100000Y-45400000D03*
X47500000Y-45400000D03*
D13*
X50900000Y-46700000D03*
D14*
X51700000Y-46800000D03*
X50100000Y-46800000D03*
X50900000Y-45400000D03*
X51700000Y-45400000D03*
X50100000Y-45400000D03*
D13*
X53500000Y-46700000D03*
D14*
X54300000Y-46800000D03*
X52700000Y-46800000D03*
X53500000Y-45400000D03*
X54300000Y-45400000D03*
X52700000Y-45400000D03*
D13*
X56100000Y-46700000D03*
D14*
X56900000Y-46800000D03*
X55300000Y-46800000D03*
X56100000Y-45400000D03*
X56900000Y-45400000D03*
X55300000Y-45400000D03*
D13*
X58700000Y-46700000D03*
D14*
X59500000Y-46800000D03*
X57900000Y-46800000D03*
X58700000Y-45400000D03*
X59500000Y-45400000D03*
X57900000Y-45400000D03*
D13*
X61300000Y-46700000D03*
D14*
X62100000Y-46800000D03*
X60500000Y-46800000D03*
X61300000Y-45400000D03*
X62100000Y-45400000D03*
X60500000Y-45400000D03*
D13*
X63900000Y-46700000D03*
D14*
X64700000Y-46800000D03*
X63100000Y-46800000D03*
X63900000Y-45400000D03*
X64700000Y-45400000D03*
X63100000Y-45400000D03*
D13*
X66500000Y-46700000D03*
D14*
X67300000Y-46800000D03*
X65700000Y-46800000D03*
X66500000Y-45400000D03*
X67300000Y-45400000D03*
X65700000Y-45400000D03*
D13*
X69100000Y-46700000D03*
D14*
X69900000Y-46800000D03*
X68300000Y-46800000D03*
X69100000Y-45400000D03*
X69900000Y-45400000D03*
X68300000Y-45400000D03*
D13*
X71700000Y-46700000D03*
D14*
X72500000Y-46800000D03*
X70900000Y-46800000D03*
X71700000Y-45400000D03*
X72500000Y-45400000D03*
X70900000Y-45400000D03*
D13*
X74300000Y-46700000D03*
D14*
X75100000Y-46800000D03*
X73500000Y-46800000D03*
X74300000Y-45400000D03*
X75100000Y-45400000D03*
X73500000Y-45400000D03*
D13*
X74300000Y-48100000D03*
D14*
X73500000Y-48000000D03*
X75100000Y-48000000D03*
X74300000Y-49400000D03*
X73500000Y-49400000D03*
X75100000Y-49400000D03*
D13*
X71700000Y-48100000D03*
D14*
X70900000Y-48000000D03*
X72500000Y-48000000D03*
X71700000Y-49400000D03*
X70900000Y-49400000D03*
X72500000Y-49400000D03*
D13*
X69100000Y-48100000D03*
D14*
X68300000Y-48000000D03*
X69900000Y-48000000D03*
X69100000Y-49400000D03*
X68300000Y-49400000D03*
X69900000Y-49400000D03*
D13*
X66500000Y-48100000D03*
D14*
X65700000Y-48000000D03*
X67300000Y-48000000D03*
X66500000Y-49400000D03*
X65700000Y-49400000D03*
X67300000Y-49400000D03*
D13*
X63900000Y-48100000D03*
D14*
X63100000Y-48000000D03*
X64700000Y-48000000D03*
X63900000Y-49400000D03*
X63100000Y-49400000D03*
X64700000Y-49400000D03*
D13*
X61300000Y-48100000D03*
D14*
X60500000Y-48000000D03*
X62100000Y-48000000D03*
X61300000Y-49400000D03*
X60500000Y-49400000D03*
X62100000Y-49400000D03*
D13*
X58700000Y-48100000D03*
D14*
X57900000Y-48000000D03*
X59500000Y-48000000D03*
X58700000Y-49400000D03*
X57900000Y-49400000D03*
X59500000Y-49400000D03*
D13*
X56100000Y-48100000D03*
D14*
X55300000Y-48000000D03*
X56900000Y-48000000D03*
X56100000Y-49400000D03*
X55300000Y-49400000D03*
X56900000Y-49400000D03*
D13*
X53500000Y-48100000D03*
D14*
X52700000Y-48000000D03*
X54300000Y-48000000D03*
X53500000Y-49400000D03*
X52700000Y-49400000D03*
X54300000Y-49400000D03*
D13*
X50900000Y-48100000D03*
D14*
X50100000Y-48000000D03*
X51700000Y-48000000D03*
X50900000Y-49400000D03*
X50100000Y-49400000D03*
X51700000Y-49400000D03*
D13*
X48300000Y-48100000D03*
D14*
X47500000Y-48000000D03*
X49100000Y-48000000D03*
X48300000Y-49400000D03*
X47500000Y-49400000D03*
X49100000Y-49400000D03*
D13*
X45700000Y-48100000D03*
D14*
X44900000Y-48000000D03*
X46500000Y-48000000D03*
X45700000Y-49400000D03*
X44900000Y-49400000D03*
X46500000Y-49400000D03*
D13*
X45700000Y-51900000D03*
D14*
X46500000Y-52000000D03*
X44900000Y-52000000D03*
X45700000Y-50600000D03*
X46500000Y-50600000D03*
X44900000Y-50600000D03*
D13*
X48300000Y-51900000D03*
D14*
X49100000Y-52000000D03*
X47500000Y-52000000D03*
X48300000Y-50600000D03*
X49100000Y-50600000D03*
X47500000Y-50600000D03*
D13*
X50900000Y-51900000D03*
D14*
X51700000Y-52000000D03*
X50100000Y-52000000D03*
X50900000Y-50600000D03*
X51700000Y-50600000D03*
X50100000Y-50600000D03*
D13*
X53500000Y-51900000D03*
D14*
X54300000Y-52000000D03*
X52700000Y-52000000D03*
X53500000Y-50600000D03*
X54300000Y-50600000D03*
X52700000Y-50600000D03*
D13*
X56100000Y-51900000D03*
D14*
X56900000Y-52000000D03*
X55300000Y-52000000D03*
X56100000Y-50600000D03*
X56900000Y-50600000D03*
X55300000Y-50600000D03*
D13*
X58700000Y-51900000D03*
D14*
X59500000Y-52000000D03*
X57900000Y-52000000D03*
X58700000Y-50600000D03*
X59500000Y-50600000D03*
X57900000Y-50600000D03*
D13*
X61300000Y-51900000D03*
D14*
X62100000Y-52000000D03*
X60500000Y-52000000D03*
X61300000Y-50600000D03*
X62100000Y-50600000D03*
X60500000Y-50600000D03*
D13*
X63900000Y-51900000D03*
D14*
X64700000Y-52000000D03*
X63100000Y-52000000D03*
X63900000Y-50600000D03*
X64700000Y-50600000D03*
X63100000Y-50600000D03*
D13*
X66500000Y-51900000D03*
D14*
X67300000Y-52000000D03*
X65700000Y-52000000D03*
X66500000Y-50600000D03*
X67300000Y-50600000D03*
X65700000Y-50600000D03*
D13*
X69100000Y-51900000D03*
D14*
X69900000Y-52000000D03*
X68300000Y-52000000D03*
X69100000Y-50600000D03*
X69900000Y-50600000D03*
X68300000Y-50600000D03*
D13*
X71700000Y-51900000D03*
D14*
X72500000Y-52000000D03*
X70900000Y-52000000D03*
X71700000Y-50600000D03*
X72500000Y-50600000D03*
X70900000Y-50600000D03*
D13*
X74300000Y-51900000D03*
D14*
X75100000Y-52000000D03*
X73500000Y-52000000D03*
X74300000Y-50600000D03*
X75100000Y-50600000D03*
X73500000Y-50600000D03*
D13*
X74300000Y-53300000D03*
D14*
X73500000Y-53200000D03*
X75100000Y-53200000D03*
X74300000Y-54600000D03*
X73500000Y-54600000D03*
X75100000Y-54600000D03*
D13*
X71700000Y-53300000D03*
D14*
X70900000Y-53200000D03*
X72500000Y-53200000D03*
X71700000Y-54600000D03*
X70900000Y-54600000D03*
X72500000Y-54600000D03*
D13*
X69100000Y-53300000D03*
D14*
X68300000Y-53200000D03*
X69900000Y-53200000D03*
X69100000Y-54600000D03*
X68300000Y-54600000D03*
X69900000Y-54600000D03*
D13*
X66500000Y-53300000D03*
D14*
X65700000Y-53200000D03*
X67300000Y-53200000D03*
X66500000Y-54600000D03*
X65700000Y-54600000D03*
X67300000Y-54600000D03*
D13*
X63900000Y-53300000D03*
D14*
X63100000Y-53200000D03*
X64700000Y-53200000D03*
X63900000Y-54600000D03*
X63100000Y-54600000D03*
X64700000Y-54600000D03*
D13*
X61300000Y-53300000D03*
D14*
X60500000Y-53200000D03*
X62100000Y-53200000D03*
X61300000Y-54600000D03*
X60500000Y-54600000D03*
X62100000Y-54600000D03*
D13*
X58700000Y-53300000D03*
D14*
X57900000Y-53200000D03*
X59500000Y-53200000D03*
X58700000Y-54600000D03*
X57900000Y-54600000D03*
X59500000Y-54600000D03*
D13*
X56100000Y-53300000D03*
D14*
X55300000Y-53200000D03*
X56900000Y-53200000D03*
X56100000Y-54600000D03*
X55300000Y-54600000D03*
X56900000Y-54600000D03*
D13*
X53500000Y-53300000D03*
D14*
X52700000Y-53200000D03*
X54300000Y-53200000D03*
X53500000Y-54600000D03*
X52700000Y-54600000D03*
X54300000Y-54600000D03*
D13*
X50900000Y-53300000D03*
D14*
X50100000Y-53200000D03*
X51700000Y-53200000D03*
X50900000Y-54600000D03*
X50100000Y-54600000D03*
X51700000Y-54600000D03*
D13*
X48300000Y-53300000D03*
D14*
X47500000Y-53200000D03*
X49100000Y-53200000D03*
X48300000Y-54600000D03*
X47500000Y-54600000D03*
X49100000Y-54600000D03*
D13*
X45700000Y-53300000D03*
D14*
X44900000Y-53200000D03*
X46500000Y-53200000D03*
X45700000Y-54600000D03*
X44900000Y-54600000D03*
X46500000Y-54600000D03*
D13*
X45700000Y-57100000D03*
D14*
X46500000Y-57200000D03*
X44900000Y-57200000D03*
X45700000Y-55800000D03*
X46500000Y-55800000D03*
X44900000Y-55800000D03*
D13*
X48300000Y-57100000D03*
D14*
X49100000Y-57200000D03*
X47500000Y-57200000D03*
X48300000Y-55800000D03*
X49100000Y-55800000D03*
X47500000Y-55800000D03*
D13*
X50900000Y-57100000D03*
D14*
X51700000Y-57200000D03*
X50100000Y-57200000D03*
X50900000Y-55800000D03*
X51700000Y-55800000D03*
X50100000Y-55800000D03*
D13*
X53500000Y-57100000D03*
D14*
X54300000Y-57200000D03*
X52700000Y-57200000D03*
X53500000Y-55800000D03*
X54300000Y-55800000D03*
X52700000Y-55800000D03*
D13*
X56100000Y-57100000D03*
D14*
X56900000Y-57200000D03*
X55300000Y-57200000D03*
X56100000Y-55800000D03*
X56900000Y-55800000D03*
X55300000Y-55800000D03*
D13*
X58700000Y-57100000D03*
D14*
X59500000Y-57200000D03*
X57900000Y-57200000D03*
X58700000Y-55800000D03*
X59500000Y-55800000D03*
X57900000Y-55800000D03*
D13*
X61300000Y-57100000D03*
D14*
X62100000Y-57200000D03*
X60500000Y-57200000D03*
X61300000Y-55800000D03*
X62100000Y-55800000D03*
X60500000Y-55800000D03*
D13*
X63900000Y-57100000D03*
D14*
X64700000Y-57200000D03*
X63100000Y-57200000D03*
X63900000Y-55800000D03*
X64700000Y-55800000D03*
X63100000Y-55800000D03*
D13*
X66500000Y-57100000D03*
D14*
X67300000Y-57200000D03*
X65700000Y-57200000D03*
X66500000Y-55800000D03*
X67300000Y-55800000D03*
X65700000Y-55800000D03*
D13*
X69100000Y-57100000D03*
D14*
X69900000Y-57200000D03*
X68300000Y-57200000D03*
X69100000Y-55800000D03*
X69900000Y-55800000D03*
X68300000Y-55800000D03*
D13*
X71700000Y-57100000D03*
D14*
X72500000Y-57200000D03*
X70900000Y-57200000D03*
X71700000Y-55800000D03*
X72500000Y-55800000D03*
X70900000Y-55800000D03*
D13*
X74300000Y-57100000D03*
D14*
X75100000Y-57200000D03*
X73500000Y-57200000D03*
X74300000Y-55800000D03*
X75100000Y-55800000D03*
X73500000Y-55800000D03*
D13*
X74300000Y-58500000D03*
D14*
X73500000Y-58400000D03*
X75100000Y-58400000D03*
X74300000Y-59800000D03*
X73500000Y-59800000D03*
X75100000Y-59800000D03*
D13*
X71700000Y-58500000D03*
D14*
X70900000Y-58400000D03*
X72500000Y-58400000D03*
X71700000Y-59800000D03*
X70900000Y-59800000D03*
X72500000Y-59800000D03*
D13*
X69100000Y-58500000D03*
D14*
X68300000Y-58400000D03*
X69900000Y-58400000D03*
X69100000Y-59800000D03*
X68300000Y-59800000D03*
X69900000Y-59800000D03*
D13*
X66500000Y-58500000D03*
D14*
X65700000Y-58400000D03*
X67300000Y-58400000D03*
X66500000Y-59800000D03*
X65700000Y-59800000D03*
X67300000Y-59800000D03*
D13*
X63900000Y-58500000D03*
D14*
X63100000Y-58400000D03*
X64700000Y-58400000D03*
X63900000Y-59800000D03*
X63100000Y-59800000D03*
X64700000Y-59800000D03*
D13*
X61300000Y-58500000D03*
D14*
X60500000Y-58400000D03*
X62100000Y-58400000D03*
X61300000Y-59800000D03*
X60500000Y-59800000D03*
X62100000Y-59800000D03*
D13*
X58700000Y-58500000D03*
D14*
X57900000Y-58400000D03*
X59500000Y-58400000D03*
X58700000Y-59800000D03*
X57900000Y-59800000D03*
X59500000Y-59800000D03*
D13*
X56100000Y-58500000D03*
D14*
X55300000Y-58400000D03*
X56900000Y-58400000D03*
X56100000Y-59800000D03*
X55300000Y-59800000D03*
X56900000Y-59800000D03*
D13*
X53500000Y-58500000D03*
D14*
X52700000Y-58400000D03*
X54300000Y-58400000D03*
X53500000Y-59800000D03*
X52700000Y-59800000D03*
X54300000Y-59800000D03*
D13*
X50900000Y-58500000D03*
D14*
X50100000Y-58400000D03*
X51700000Y-58400000D03*
X50900000Y-59800000D03*
X50100000Y-59800000D03*
X51700000Y-59800000D03*
D13*
X48300000Y-58500000D03*
D14*
X47500000Y-58400000D03*
X49100000Y-58400000D03*
X48300000Y-59800000D03*
X47500000Y-59800000D03*
X49100000Y-59800000D03*
D13*
X45700000Y-58500000D03*
D14*
X44900000Y-58400000D03*
X46500000Y-58400000D03*
X45700000Y-59800000D03*
X44900000Y-59800000D03*
X46500000Y-59800000D03*
D13*
X50900000Y-62300000D03*
D14*
X51700000Y-62400000D03*
X50100000Y-62400000D03*
X50900000Y-61000000D03*
X51700000Y-61000000D03*
X50100000Y-61000000D03*
D13*
X53500000Y-62300000D03*
D14*
X54300000Y-62400000D03*
X52700000Y-62400000D03*
X53500000Y-61000000D03*
X54300000Y-61000000D03*
X52700000Y-61000000D03*
D13*
X56100000Y-62300000D03*
D14*
X56900000Y-62400000D03*
X55300000Y-62400000D03*
X56100000Y-61000000D03*
X56900000Y-61000000D03*
X55300000Y-61000000D03*
D13*
X58700000Y-62300000D03*
D14*
X59500000Y-62400000D03*
X57900000Y-62400000D03*
X58700000Y-61000000D03*
X59500000Y-61000000D03*
X57900000Y-61000000D03*
D13*
X61300000Y-62300000D03*
D14*
X62100000Y-62400000D03*
X60500000Y-62400000D03*
X61300000Y-61000000D03*
X62100000Y-61000000D03*
X60500000Y-61000000D03*
D13*
X63900000Y-62300000D03*
D14*
X64700000Y-62400000D03*
X63100000Y-62400000D03*
X63900000Y-61000000D03*
X64700000Y-61000000D03*
X63100000Y-61000000D03*
D13*
X66500000Y-62300000D03*
D14*
X67300000Y-62400000D03*
X65700000Y-62400000D03*
X66500000Y-61000000D03*
X67300000Y-61000000D03*
X65700000Y-61000000D03*
D13*
X69100000Y-62300000D03*
D14*
X69900000Y-62400000D03*
X68300000Y-62400000D03*
X69100000Y-61000000D03*
X69900000Y-61000000D03*
X68300000Y-61000000D03*
D13*
X66500000Y-63700000D03*
D14*
X65700000Y-63600000D03*
X67300000Y-63600000D03*
X66500000Y-65000000D03*
X65700000Y-65000000D03*
X67300000Y-65000000D03*
D13*
X63900000Y-63700000D03*
D14*
X63100000Y-63600000D03*
X64700000Y-63600000D03*
X63900000Y-65000000D03*
X63100000Y-65000000D03*
X64700000Y-65000000D03*
D13*
X61300000Y-63700000D03*
D14*
X60500000Y-63600000D03*
X62100000Y-63600000D03*
X61300000Y-65000000D03*
X60500000Y-65000000D03*
X62100000Y-65000000D03*
D13*
X58700000Y-63700000D03*
D14*
X57900000Y-63600000D03*
X59500000Y-63600000D03*
X58700000Y-65000000D03*
X57900000Y-65000000D03*
X59500000Y-65000000D03*
D13*
X56100000Y-63700000D03*
D14*
X55300000Y-63600000D03*
X56900000Y-63600000D03*
X56100000Y-65000000D03*
X55300000Y-65000000D03*
X56900000Y-65000000D03*
D13*
X53500000Y-63700000D03*
D14*
X52700000Y-63600000D03*
X54300000Y-63600000D03*
X53500000Y-65000000D03*
X52700000Y-65000000D03*
X54300000Y-65000000D03*
X51700000Y-65000000D03*
X50100000Y-65000000D03*
X50900000Y-65000000D03*
X51700000Y-63600000D03*
X50100000Y-63600000D03*
D13*
X50900000Y-63700000D03*
G04 #@! TA.AperFunction,SMDPad,CuDef*
G36*
G01*
X52250001Y-24100000D02*
X50949999Y-24100000D01*
G75*
G02*
X50700000Y-23850001I0J249999D01*
G01*
X50700000Y-23199999D01*
G75*
G02*
X50949999Y-22950000I249999J0D01*
G01*
X52250001Y-22950000D01*
G75*
G02*
X52500000Y-23199999I0J-249999D01*
G01*
X52500000Y-23850001D01*
G75*
G02*
X52250001Y-24100000I-249999J0D01*
G01*
G37*
G04 #@! TD.AperFunction*
G04 #@! TA.AperFunction,SMDPad,CuDef*
G36*
G01*
X52250001Y-27050000D02*
X50949999Y-27050000D01*
G75*
G02*
X50700000Y-26800001I0J249999D01*
G01*
X50700000Y-26149999D01*
G75*
G02*
X50949999Y-25900000I249999J0D01*
G01*
X52250001Y-25900000D01*
G75*
G02*
X52500000Y-26149999I0J-249999D01*
G01*
X52500000Y-26800001D01*
G75*
G02*
X52250001Y-27050000I-249999J0D01*
G01*
G37*
G04 #@! TD.AperFunction*
G04 #@! TA.AperFunction,SMDPad,CuDef*
G36*
G01*
X76650001Y-24100000D02*
X75349999Y-24100000D01*
G75*
G02*
X75100000Y-23850001I0J249999D01*
G01*
X75100000Y-23199999D01*
G75*
G02*
X75349999Y-22950000I249999J0D01*
G01*
X76650001Y-22950000D01*
G75*
G02*
X76900000Y-23199999I0J-249999D01*
G01*
X76900000Y-23850001D01*
G75*
G02*
X76650001Y-24100000I-249999J0D01*
G01*
G37*
G04 #@! TD.AperFunction*
G04 #@! TA.AperFunction,SMDPad,CuDef*
G36*
G01*
X76650001Y-27050000D02*
X75349999Y-27050000D01*
G75*
G02*
X75100000Y-26800001I0J249999D01*
G01*
X75100000Y-26149999D01*
G75*
G02*
X75349999Y-25900000I249999J0D01*
G01*
X76650001Y-25900000D01*
G75*
G02*
X76900000Y-26149999I0J-249999D01*
G01*
X76900000Y-26800001D01*
G75*
G02*
X76650001Y-27050000I-249999J0D01*
G01*
G37*
G04 #@! TD.AperFunction*
G04 #@! TA.AperFunction,SMDPad,CuDef*
G36*
G01*
X48250001Y-24100000D02*
X46949999Y-24100000D01*
G75*
G02*
X46700000Y-23850001I0J249999D01*
G01*
X46700000Y-23199999D01*
G75*
G02*
X46949999Y-22950000I249999J0D01*
G01*
X48250001Y-22950000D01*
G75*
G02*
X48500000Y-23199999I0J-249999D01*
G01*
X48500000Y-23850001D01*
G75*
G02*
X48250001Y-24100000I-249999J0D01*
G01*
G37*
G04 #@! TD.AperFunction*
G04 #@! TA.AperFunction,SMDPad,CuDef*
G36*
G01*
X48250001Y-27050000D02*
X46949999Y-27050000D01*
G75*
G02*
X46700000Y-26800001I0J249999D01*
G01*
X46700000Y-26149999D01*
G75*
G02*
X46949999Y-25900000I249999J0D01*
G01*
X48250001Y-25900000D01*
G75*
G02*
X48500000Y-26149999I0J-249999D01*
G01*
X48500000Y-26800001D01*
G75*
G02*
X48250001Y-27050000I-249999J0D01*
G01*
G37*
G04 #@! TD.AperFunction*
G04 #@! TA.AperFunction,SMDPad,CuDef*
G36*
G01*
X72650001Y-24100000D02*
X71349999Y-24100000D01*
G75*
G02*
X71100000Y-23850001I0J249999D01*
G01*
X71100000Y-23199999D01*
G75*
G02*
X71349999Y-22950000I249999J0D01*
G01*
X72650001Y-22950000D01*
G75*
G02*
X72900000Y-23199999I0J-249999D01*
G01*
X72900000Y-23850001D01*
G75*
G02*
X72650001Y-24100000I-249999J0D01*
G01*
G37*
G04 #@! TD.AperFunction*
G04 #@! TA.AperFunction,SMDPad,CuDef*
G36*
G01*
X72650001Y-27050000D02*
X71349999Y-27050000D01*
G75*
G02*
X71100000Y-26800001I0J249999D01*
G01*
X71100000Y-26149999D01*
G75*
G02*
X71349999Y-25900000I249999J0D01*
G01*
X72650001Y-25900000D01*
G75*
G02*
X72900000Y-26149999I0J-249999D01*
G01*
X72900000Y-26800001D01*
G75*
G02*
X72650001Y-27050000I-249999J0D01*
G01*
G37*
G04 #@! TD.AperFunction*
G04 #@! TA.AperFunction,SMDPad,CuDef*
G36*
G01*
X63005000Y-32865000D02*
X63005000Y-32315000D01*
G75*
G02*
X63205000Y-32115000I200000J0D01*
G01*
X63605000Y-32115000D01*
G75*
G02*
X63805000Y-32315000I0J-200000D01*
G01*
X63805000Y-32865000D01*
G75*
G02*
X63605000Y-33065000I-200000J0D01*
G01*
X63205000Y-33065000D01*
G75*
G02*
X63005000Y-32865000I0J200000D01*
G01*
G37*
G04 #@! TD.AperFunction*
G04 #@! TA.AperFunction,SMDPad,CuDef*
G36*
G01*
X61355000Y-32865000D02*
X61355000Y-32315000D01*
G75*
G02*
X61555000Y-32115000I200000J0D01*
G01*
X61955000Y-32115000D01*
G75*
G02*
X62155000Y-32315000I0J-200000D01*
G01*
X62155000Y-32865000D01*
G75*
G02*
X61955000Y-33065000I-200000J0D01*
G01*
X61555000Y-33065000D01*
G75*
G02*
X61355000Y-32865000I0J200000D01*
G01*
G37*
G04 #@! TD.AperFunction*
G04 #@! TA.AperFunction,SMDPad,CuDef*
G36*
G01*
X58845000Y-32845000D02*
X58845000Y-32295000D01*
G75*
G02*
X59045000Y-32095000I200000J0D01*
G01*
X59445000Y-32095000D01*
G75*
G02*
X59645000Y-32295000I0J-200000D01*
G01*
X59645000Y-32845000D01*
G75*
G02*
X59445000Y-33045000I-200000J0D01*
G01*
X59045000Y-33045000D01*
G75*
G02*
X58845000Y-32845000I0J200000D01*
G01*
G37*
G04 #@! TD.AperFunction*
G04 #@! TA.AperFunction,SMDPad,CuDef*
G36*
G01*
X57195000Y-32845000D02*
X57195000Y-32295000D01*
G75*
G02*
X57395000Y-32095000I200000J0D01*
G01*
X57795000Y-32095000D01*
G75*
G02*
X57995000Y-32295000I0J-200000D01*
G01*
X57995000Y-32845000D01*
G75*
G02*
X57795000Y-33045000I-200000J0D01*
G01*
X57395000Y-33045000D01*
G75*
G02*
X57195000Y-32845000I0J200000D01*
G01*
G37*
G04 #@! TD.AperFunction*
D15*
X66750000Y-29250000D03*
X76000000Y-22400000D03*
X72000000Y-22400000D03*
X47600000Y-22400000D03*
X51600000Y-22400000D03*
X52000000Y-29000000D03*
X49000000Y-29000000D03*
X46000000Y-29000000D03*
D16*
X71700000Y-39600000D03*
X45700000Y-39600000D03*
X50900000Y-34400000D03*
X53500000Y-34400000D03*
X56100000Y-34400000D03*
X58700000Y-34400000D03*
X61300000Y-34400000D03*
X63900000Y-34400000D03*
X66500000Y-34400000D03*
X69100000Y-34400000D03*
X50900000Y-39600000D03*
X53500000Y-39600000D03*
X56100000Y-39600000D03*
X58700000Y-39600000D03*
X61300000Y-39600000D03*
X63900000Y-39600000D03*
X66500000Y-39600000D03*
X69100000Y-39600000D03*
X50900000Y-44800000D03*
X53500000Y-44800000D03*
X56100000Y-44800000D03*
X58700000Y-44800000D03*
X61300000Y-44800000D03*
X63900000Y-44800000D03*
X66500000Y-44800000D03*
X69100000Y-44800000D03*
X50900000Y-50000000D03*
X53500000Y-50000000D03*
X56100000Y-50000000D03*
X58700000Y-50000000D03*
X61300000Y-50000000D03*
X63900000Y-50000000D03*
X66500000Y-50000000D03*
X69100000Y-50000000D03*
X50900000Y-55200000D03*
X53500000Y-55200000D03*
X56100000Y-55200000D03*
X58700000Y-55200000D03*
X61300000Y-55200000D03*
X63900000Y-55200000D03*
X66500000Y-55200000D03*
X69100000Y-55200000D03*
X50900000Y-60400000D03*
X53500000Y-60400000D03*
X56100000Y-60400000D03*
X58700000Y-60400000D03*
X61300000Y-60400000D03*
X63900000Y-60400000D03*
X66500000Y-60400000D03*
X69100000Y-60400000D03*
X50900000Y-65600000D03*
X53500000Y-65600000D03*
X56100000Y-65600000D03*
X58700000Y-65600000D03*
X61300000Y-65600000D03*
X63900000Y-65600000D03*
X66500000Y-65600000D03*
X69100000Y-65600000D03*
X48300000Y-39600000D03*
X45700000Y-44800000D03*
X48300000Y-44800000D03*
X45700000Y-50000000D03*
X48300000Y-50000000D03*
X45700000Y-55200000D03*
X48300000Y-55200000D03*
X45700000Y-60400000D03*
X48300000Y-60400000D03*
X74300000Y-39600000D03*
X71700000Y-44800000D03*
X74300000Y-44800000D03*
X71700000Y-50000000D03*
X74300000Y-50000000D03*
X71700000Y-55200000D03*
X74300000Y-55200000D03*
X71700000Y-60400000D03*
X74300000Y-60400000D03*
D15*
X61250000Y-29250000D03*
X65250000Y-29250000D03*
X62750000Y-29250000D03*
X53500000Y-29000000D03*
D16*
X71700000Y-42200000D03*
X45700000Y-42200000D03*
X50900000Y-37010000D03*
X53500000Y-37010000D03*
X56100000Y-37010000D03*
X58700000Y-37010000D03*
X61300000Y-37010000D03*
X63900000Y-37010000D03*
X66500000Y-37010000D03*
X69100000Y-37010000D03*
X50900000Y-42210000D03*
X53500000Y-42210000D03*
X56100000Y-42210000D03*
X58700000Y-42210000D03*
X61300000Y-42210000D03*
X63900000Y-42210000D03*
X66500000Y-42210000D03*
X69100000Y-42210000D03*
X50900000Y-47410000D03*
X53500000Y-47410000D03*
X56100000Y-47410000D03*
X58700000Y-47410000D03*
X61300000Y-47410000D03*
X63900000Y-47410000D03*
X66500000Y-47410000D03*
X69100000Y-47410000D03*
X50900000Y-52610000D03*
X53500000Y-52610000D03*
X56100000Y-52610000D03*
X58700000Y-52610000D03*
X61300000Y-52610000D03*
X63900000Y-52610000D03*
X66500000Y-52610000D03*
X69100000Y-52610000D03*
X50900000Y-57810000D03*
X53500000Y-57810000D03*
X56100000Y-57810000D03*
X58700000Y-57810000D03*
X61300000Y-57810000D03*
X63900000Y-57810000D03*
X66500000Y-57810000D03*
X69100000Y-57810000D03*
X50900000Y-63010000D03*
X53500000Y-63010000D03*
X56100000Y-63010000D03*
X58700000Y-63010000D03*
X61300000Y-63010000D03*
X63900000Y-63010000D03*
X66500000Y-63010000D03*
X69100000Y-63010000D03*
X48300000Y-42200000D03*
X45700000Y-47400000D03*
X48300000Y-47400000D03*
X45700000Y-52600000D03*
X48300000Y-52600000D03*
X45700000Y-57800000D03*
X48300000Y-57800000D03*
X74300000Y-42200000D03*
X71700000Y-47400000D03*
X74300000Y-47400000D03*
X71700000Y-52600000D03*
X74300000Y-52600000D03*
X71700000Y-57800000D03*
X74300000Y-57800000D03*
D15*
X76000000Y-27600000D03*
X72000000Y-27600000D03*
X53000000Y-26000000D03*
X49000000Y-26000000D03*
X64250000Y-30750000D03*
X60250000Y-32570000D03*
X47500000Y-29500000D03*
D17*
X50900000Y-34300000D02*
X50900000Y-34300000D01*
X53500000Y-34300000D02*
X53500000Y-35000000D01*
X56100000Y-34300000D02*
X56100000Y-35000000D01*
X58700000Y-34300000D02*
X58700000Y-35000000D01*
X61300000Y-34300000D02*
X61300000Y-35000000D01*
X63900000Y-34300000D02*
X63900000Y-35000000D01*
X66500000Y-34300000D02*
X66500000Y-35000000D01*
X69100000Y-34300000D02*
X69100000Y-35000000D01*
X69100000Y-39000000D02*
X69100000Y-39700000D01*
X66500000Y-39000000D02*
X66500000Y-39700000D01*
X63900000Y-39000000D02*
X63900000Y-39700000D01*
X61300000Y-39000000D02*
X61300000Y-39700000D01*
X58700000Y-39000000D02*
X58700000Y-39700000D01*
X56100000Y-39000000D02*
X56100000Y-39700000D01*
X53500000Y-39000000D02*
X53500000Y-39700000D01*
X50900000Y-39000000D02*
X50900000Y-39700000D01*
X45700000Y-39500000D02*
X45700000Y-40200000D01*
X48300000Y-39500000D02*
X48300000Y-40200000D01*
X50900000Y-39500000D02*
X50900000Y-40200000D01*
X53500000Y-39500000D02*
X53500000Y-40200000D01*
X56100000Y-39500000D02*
X56100000Y-40200000D01*
X58700000Y-39500000D02*
X58700000Y-40200000D01*
X61300000Y-39500000D02*
X61300000Y-40200000D01*
X63900000Y-39500000D02*
X63900000Y-40200000D01*
X66500000Y-39500000D02*
X66500000Y-40200000D01*
X69100000Y-39500000D02*
X69100000Y-40200000D01*
X71700000Y-39500000D02*
X71700000Y-40200000D01*
X74300000Y-39500000D02*
X74300000Y-40200000D01*
X74300000Y-44200000D02*
X74300000Y-44900000D01*
X71700000Y-44200000D02*
X71700000Y-44900000D01*
X69100000Y-44200000D02*
X69100000Y-44900000D01*
X66500000Y-44200000D02*
X66500000Y-44900000D01*
X63900000Y-44200000D02*
X63900000Y-44900000D01*
X61300000Y-44200000D02*
X61300000Y-44900000D01*
X58700000Y-44200000D02*
X58700000Y-44900000D01*
X56100000Y-44200000D02*
X56100000Y-44900000D01*
X53500000Y-44200000D02*
X53500000Y-44900000D01*
X50900000Y-44200000D02*
X50900000Y-44900000D01*
X48300000Y-44200000D02*
X48300000Y-44900000D01*
X45700000Y-44200000D02*
X45700000Y-44900000D01*
X45700000Y-44700000D02*
X45700000Y-45400000D01*
X48300000Y-44700000D02*
X48300000Y-45400000D01*
X50900000Y-44700000D02*
X50900000Y-45400000D01*
X53500000Y-44700000D02*
X53500000Y-45400000D01*
X56100000Y-44700000D02*
X56100000Y-45400000D01*
X58700000Y-44700000D02*
X58700000Y-45400000D01*
X61300000Y-44700000D02*
X61300000Y-45400000D01*
X63900000Y-44700000D02*
X63900000Y-45400000D01*
X66500000Y-44700000D02*
X66500000Y-45400000D01*
X69100000Y-44700000D02*
X69100000Y-45400000D01*
X71700000Y-44700000D02*
X71700000Y-45400000D01*
X74300000Y-44700000D02*
X74300000Y-45400000D01*
X74300000Y-49400000D02*
X74300000Y-50100000D01*
X71700000Y-49400000D02*
X71700000Y-50100000D01*
X69100000Y-49400000D02*
X69100000Y-50100000D01*
X66500000Y-49400000D02*
X66500000Y-50100000D01*
X63900000Y-49400000D02*
X63900000Y-50100000D01*
X61300000Y-49400000D02*
X61300000Y-50100000D01*
X58700000Y-49400000D02*
X58700000Y-50100000D01*
X56100000Y-49400000D02*
X56100000Y-50100000D01*
X53500000Y-49400000D02*
X53500000Y-50100000D01*
X50900000Y-49400000D02*
X50900000Y-50100000D01*
X48300000Y-49400000D02*
X48300000Y-50100000D01*
X45700000Y-49400000D02*
X45700000Y-50100000D01*
X45700000Y-49900000D02*
X45700000Y-50600000D01*
X48300000Y-49900000D02*
X48300000Y-50600000D01*
X50900000Y-49900000D02*
X50900000Y-50600000D01*
X53500000Y-49900000D02*
X53500000Y-50600000D01*
X56100000Y-49900000D02*
X56100000Y-50600000D01*
X58700000Y-49900000D02*
X58700000Y-50600000D01*
X61300000Y-49900000D02*
X61300000Y-50600000D01*
X63900000Y-49900000D02*
X63900000Y-50600000D01*
X66500000Y-49900000D02*
X66500000Y-50600000D01*
X69100000Y-49900000D02*
X69100000Y-50600000D01*
X71700000Y-49900000D02*
X71700000Y-50600000D01*
X74300000Y-49900000D02*
X74300000Y-50600000D01*
X74300000Y-54600000D02*
X74300000Y-55300000D01*
X71700000Y-54600000D02*
X71700000Y-55300000D01*
X69100000Y-54600000D02*
X69100000Y-55300000D01*
X66500000Y-54600000D02*
X66500000Y-55300000D01*
X63900000Y-54600000D02*
X63900000Y-55300000D01*
X61300000Y-54600000D02*
X61300000Y-55300000D01*
X58700000Y-54600000D02*
X58700000Y-55300000D01*
X56100000Y-54600000D02*
X56100000Y-55300000D01*
X53500000Y-54600000D02*
X53500000Y-55300000D01*
X50900000Y-54600000D02*
X50900000Y-55300000D01*
X48300000Y-54600000D02*
X48300000Y-55300000D01*
X45700000Y-54600000D02*
X45700000Y-55300000D01*
X45700000Y-55100000D02*
X45700000Y-55800000D01*
X48300000Y-55100000D02*
X48300000Y-55800000D01*
X50900000Y-55100000D02*
X50900000Y-55800000D01*
X53500000Y-55100000D02*
X53500000Y-55800000D01*
X56100000Y-55100000D02*
X56100000Y-55800000D01*
X58700000Y-55100000D02*
X58700000Y-55800000D01*
X61300000Y-55100000D02*
X61300000Y-55800000D01*
X63900000Y-55100000D02*
X63900000Y-55800000D01*
X66500000Y-55100000D02*
X66500000Y-55800000D01*
X69100000Y-55100000D02*
X69100000Y-55800000D01*
X71700000Y-55100000D02*
X71700000Y-55800000D01*
X74300000Y-55100000D02*
X74300000Y-55800000D01*
X74300000Y-59800000D02*
X74300000Y-60500000D01*
X71700000Y-59800000D02*
X71700000Y-60500000D01*
X69100000Y-59800000D02*
X69100000Y-60500000D01*
X66500000Y-59800000D02*
X66500000Y-60500000D01*
X63900000Y-59800000D02*
X63900000Y-60500000D01*
X61300000Y-59800000D02*
X61300000Y-60500000D01*
X58700000Y-59800000D02*
X58700000Y-60500000D01*
X56100000Y-59800000D02*
X56100000Y-60500000D01*
X53500000Y-59800000D02*
X53500000Y-60500000D01*
X50900000Y-59800000D02*
X50900000Y-60500000D01*
X48300000Y-59800000D02*
X48300000Y-60500000D01*
X45700000Y-59800000D02*
X45700000Y-60500000D01*
X50900000Y-60300000D02*
X50900000Y-61000000D01*
X53500000Y-60300000D02*
X53500000Y-61000000D01*
X56100000Y-60300000D02*
X56100000Y-61000000D01*
X58700000Y-60300000D02*
X58700000Y-61000000D01*
X61300000Y-60300000D02*
X61300000Y-61000000D01*
X63900000Y-60300000D02*
X63900000Y-61000000D01*
X66500000Y-60300000D02*
X66500000Y-61000000D01*
X69100000Y-60300000D02*
X69100000Y-61000000D01*
X69100000Y-65000000D02*
X69100000Y-65700000D01*
X66500000Y-65000000D02*
X66500000Y-65700000D01*
X63900000Y-65000000D02*
X63900000Y-65700000D01*
X61300000Y-65000000D02*
X61300000Y-65700000D01*
X58700000Y-65000000D02*
X58700000Y-65700000D01*
X56100000Y-65000000D02*
X56100000Y-65700000D01*
X53500000Y-65000000D02*
X53500000Y-65700000D01*
X50900000Y-65000000D02*
X50900000Y-65700000D01*
X50900000Y-34300000D02*
X50900000Y-35000000D01*
D18*
X47600000Y-22400000D02*
X47600000Y-23525000D01*
X51600000Y-22400000D02*
X51600000Y-23525000D01*
X72000000Y-22400000D02*
X72000000Y-23525000D01*
X76000000Y-22400000D02*
X76000000Y-23525000D01*
D19*
X61250000Y-28070000D02*
X61250000Y-29250000D01*
X66750000Y-28070000D02*
X66750000Y-29250000D01*
D17*
X50900000Y-36300000D02*
X50900000Y-37100000D01*
X53500000Y-36300000D02*
X53500000Y-37100000D01*
X56100000Y-36300000D02*
X56100000Y-37100000D01*
X58700000Y-36300000D02*
X58700000Y-37100000D01*
X61300000Y-36300000D02*
X61300000Y-37100000D01*
X63900000Y-36300000D02*
X63900000Y-37100000D01*
X66500000Y-36300000D02*
X66500000Y-37100000D01*
X69100000Y-36300000D02*
X69100000Y-37100000D01*
X69100000Y-36900000D02*
X69100000Y-37700000D01*
X66500000Y-36900000D02*
X66500000Y-37700000D01*
X63900000Y-36900000D02*
X63900000Y-37700000D01*
X61300000Y-36900000D02*
X61300000Y-37700000D01*
X58700000Y-36900000D02*
X58700000Y-37700000D01*
X56100000Y-36900000D02*
X56100000Y-37700000D01*
X53500000Y-36900000D02*
X53500000Y-37700000D01*
X50900000Y-36900000D02*
X50900000Y-37700000D01*
X45700000Y-41500000D02*
X45700000Y-42300000D01*
X48300000Y-41500000D02*
X48300000Y-42300000D01*
X50900000Y-41500000D02*
X50900000Y-42300000D01*
X53500000Y-41500000D02*
X53500000Y-42300000D01*
X56100000Y-41500000D02*
X56100000Y-42300000D01*
X58700000Y-41500000D02*
X58700000Y-42300000D01*
X61300000Y-41500000D02*
X61300000Y-42300000D01*
X63900000Y-41500000D02*
X63900000Y-42300000D01*
X66500000Y-41500000D02*
X66500000Y-42300000D01*
X69100000Y-41500000D02*
X69100000Y-42300000D01*
X71700000Y-41500000D02*
X71700000Y-42300000D01*
X74300000Y-41500000D02*
X74300000Y-42300000D01*
X74300000Y-42100000D02*
X74300000Y-42900000D01*
X71700000Y-42100000D02*
X71700000Y-42900000D01*
X69100000Y-42100000D02*
X69100000Y-42900000D01*
X66500000Y-42100000D02*
X66500000Y-42900000D01*
X63900000Y-42100000D02*
X63900000Y-42900000D01*
X61300000Y-42100000D02*
X61300000Y-42900000D01*
X58700000Y-42100000D02*
X58700000Y-42900000D01*
X56100000Y-42100000D02*
X56100000Y-42900000D01*
X53500000Y-42100000D02*
X53500000Y-42900000D01*
X50900000Y-42100000D02*
X50900000Y-42900000D01*
X48300000Y-42100000D02*
X48300000Y-42900000D01*
X45700000Y-42100000D02*
X45700000Y-42900000D01*
X45700000Y-46700000D02*
X45700000Y-47500000D01*
X48300000Y-46700000D02*
X48300000Y-47500000D01*
X50900000Y-46700000D02*
X50900000Y-47500000D01*
X53500000Y-46700000D02*
X53500000Y-47500000D01*
X56100000Y-46700000D02*
X56100000Y-47500000D01*
X58700000Y-46700000D02*
X58700000Y-47500000D01*
X61300000Y-46700000D02*
X61300000Y-47500000D01*
X63900000Y-46700000D02*
X63900000Y-47500000D01*
X66500000Y-46700000D02*
X66500000Y-47500000D01*
X69100000Y-46700000D02*
X69100000Y-47500000D01*
X71700000Y-46700000D02*
X71700000Y-47500000D01*
X74300000Y-46700000D02*
X74300000Y-47500000D01*
X74300000Y-47300000D02*
X74300000Y-48100000D01*
X71700000Y-47300000D02*
X71700000Y-48100000D01*
X69100000Y-47300000D02*
X69100000Y-48100000D01*
X66500000Y-47300000D02*
X66500000Y-48100000D01*
X63900000Y-47300000D02*
X63900000Y-48100000D01*
X61300000Y-47300000D02*
X61300000Y-48100000D01*
X58700000Y-47300000D02*
X58700000Y-48100000D01*
X56100000Y-47300000D02*
X56100000Y-48100000D01*
X53500000Y-47300000D02*
X53500000Y-48100000D01*
X50900000Y-47300000D02*
X50900000Y-48100000D01*
X48300000Y-47300000D02*
X48300000Y-48100000D01*
X45700000Y-47300000D02*
X45700000Y-48100000D01*
X45700000Y-51900000D02*
X45700000Y-52700000D01*
X48300000Y-51900000D02*
X48300000Y-52700000D01*
X50900000Y-51900000D02*
X50900000Y-52700000D01*
X53500000Y-51900000D02*
X53500000Y-52700000D01*
X56100000Y-51900000D02*
X56100000Y-52700000D01*
X58700000Y-51900000D02*
X58700000Y-52700000D01*
X61300000Y-51900000D02*
X61300000Y-52700000D01*
X63900000Y-51900000D02*
X63900000Y-52700000D01*
X66500000Y-51900000D02*
X66500000Y-52700000D01*
X69100000Y-51900000D02*
X69100000Y-52700000D01*
X71700000Y-51900000D02*
X71700000Y-52700000D01*
X74300000Y-51900000D02*
X74300000Y-52700000D01*
X74300000Y-52500000D02*
X74300000Y-53300000D01*
X71700000Y-52500000D02*
X71700000Y-53300000D01*
X69100000Y-52500000D02*
X69100000Y-53300000D01*
X66500000Y-52500000D02*
X66500000Y-53300000D01*
X63900000Y-52500000D02*
X63900000Y-53300000D01*
X61300000Y-52500000D02*
X61300000Y-53300000D01*
X58700000Y-52500000D02*
X58700000Y-53300000D01*
X56100000Y-52500000D02*
X56100000Y-53300000D01*
X53500000Y-52500000D02*
X53500000Y-53300000D01*
X50900000Y-52500000D02*
X50900000Y-53300000D01*
X48300000Y-52500000D02*
X48300000Y-53300000D01*
X45700000Y-52500000D02*
X45700000Y-53300000D01*
X45700000Y-57100000D02*
X45700000Y-57900000D01*
X48300000Y-57100000D02*
X48300000Y-57900000D01*
X50900000Y-57100000D02*
X50900000Y-57900000D01*
X53500000Y-57100000D02*
X53500000Y-57900000D01*
X56100000Y-57100000D02*
X56100000Y-57900000D01*
X58700000Y-57100000D02*
X58700000Y-57900000D01*
X61300000Y-57100000D02*
X61300000Y-57900000D01*
X63900000Y-57100000D02*
X63900000Y-57900000D01*
X66500000Y-57100000D02*
X66500000Y-57900000D01*
X69100000Y-57100000D02*
X69100000Y-57900000D01*
X71700000Y-57100000D02*
X71700000Y-57900000D01*
X74300000Y-57100000D02*
X74300000Y-57900000D01*
X74300000Y-57700000D02*
X74300000Y-58500000D01*
X71700000Y-57700000D02*
X71700000Y-58500000D01*
X69100000Y-57700000D02*
X69100000Y-58500000D01*
X66500000Y-57700000D02*
X66500000Y-58500000D01*
X63900000Y-57700000D02*
X63900000Y-58500000D01*
X61300000Y-57700000D02*
X61300000Y-58500000D01*
X58700000Y-57700000D02*
X58700000Y-58500000D01*
X56100000Y-57700000D02*
X56100000Y-58500000D01*
X53500000Y-57700000D02*
X53500000Y-58500000D01*
X50900000Y-57700000D02*
X50900000Y-58500000D01*
X48300000Y-57700000D02*
X48300000Y-58500000D01*
X45700000Y-57700000D02*
X45700000Y-58500000D01*
X50900000Y-62300000D02*
X50900000Y-63100000D01*
X53500000Y-62300000D02*
X53500000Y-63100000D01*
X56100000Y-62300000D02*
X56100000Y-63100000D01*
X58700000Y-62300000D02*
X58700000Y-63100000D01*
X61300000Y-62300000D02*
X61300000Y-63100000D01*
X63900000Y-62300000D02*
X63900000Y-63100000D01*
X66500000Y-62300000D02*
X66500000Y-63100000D01*
X69100000Y-62300000D02*
X69100000Y-63100000D01*
X69100000Y-62900000D02*
X69100000Y-63700000D01*
X66500000Y-62900000D02*
X66500000Y-63700000D01*
X63900000Y-62900000D02*
X63900000Y-63700000D01*
X61300000Y-62900000D02*
X61300000Y-63700000D01*
X58700000Y-62900000D02*
X58700000Y-63700000D01*
X56100000Y-62900000D02*
X56100000Y-63700000D01*
X53500000Y-62900000D02*
X53500000Y-63700000D01*
X50900000Y-62900000D02*
X50900000Y-63700000D01*
D18*
X72000000Y-27600000D02*
X72000000Y-26475000D01*
X76000000Y-26475000D02*
X76000000Y-27600000D01*
X48525000Y-26475000D02*
X49000000Y-26000000D01*
X47600000Y-26475000D02*
X48525000Y-26475000D01*
X52525000Y-26475000D02*
X53000000Y-26000000D01*
X51600000Y-26475000D02*
X52525000Y-26475000D01*
D19*
X62750000Y-28070000D02*
X62750000Y-29250000D01*
X65250000Y-28070000D02*
X65250000Y-29250000D01*
D20*
X62750000Y-27000000D02*
X62800000Y-26950000D01*
X62750000Y-28070000D02*
X62750000Y-27000000D01*
X65250000Y-27000000D02*
X65200000Y-26950000D01*
X65250000Y-28070000D02*
X65250000Y-27000000D01*
D21*
X51321818Y-33345010D02*
X50100000Y-34566828D01*
X50100000Y-34566828D02*
X50100000Y-35000000D01*
X60999990Y-33345010D02*
X51321818Y-33345010D01*
X61755000Y-32590000D02*
X60999990Y-33345010D01*
D22*
X50120000Y-36400000D02*
X50100000Y-36400000D01*
X57595000Y-32570000D02*
X57595000Y-32645000D01*
D21*
X49647999Y-35947999D02*
X50100000Y-36400000D01*
X49647999Y-34556369D02*
X49647999Y-35947999D01*
X51634368Y-32570000D02*
X49647999Y-34556369D01*
X57595000Y-32570000D02*
X51634368Y-32570000D01*
X51700000Y-35000000D02*
X52700000Y-35000000D01*
X51700000Y-36400000D02*
X52700000Y-36400000D01*
X54300000Y-35000000D02*
X55300000Y-35000000D01*
X54300000Y-36400000D02*
X55300000Y-36400000D01*
X54300000Y-65000000D02*
X55300000Y-65000000D01*
X54300000Y-63600000D02*
X55300000Y-63600000D01*
X51700000Y-65000000D02*
X52700000Y-65000000D01*
X51700000Y-63600000D02*
X52700000Y-63600000D01*
X56900000Y-35000000D02*
X57900000Y-35000000D01*
X56900000Y-36400000D02*
X57900000Y-36400000D01*
X59500000Y-35000000D02*
X60500000Y-35000000D01*
X59500000Y-36400000D02*
X60500000Y-36400000D01*
X62100000Y-35000000D02*
X63100000Y-35000000D01*
X62100000Y-36400000D02*
X63100000Y-36400000D01*
X67300000Y-39000000D02*
X68300000Y-39000000D01*
X67300000Y-37600000D02*
X68300000Y-37600000D01*
X64700000Y-39000000D02*
X65700000Y-39000000D01*
X64700000Y-37600000D02*
X65700000Y-37600000D01*
X62100000Y-39000000D02*
X63100000Y-39000000D01*
X62100000Y-37600000D02*
X63100000Y-37600000D01*
X59500000Y-39000000D02*
X60500000Y-39000000D01*
X59500000Y-37600000D02*
X60500000Y-37600000D01*
X56900000Y-39000000D02*
X57900000Y-39000000D01*
X56900000Y-37600000D02*
X57900000Y-37600000D01*
X54300000Y-39000000D02*
X55300000Y-39000000D01*
X54300000Y-37600000D02*
X55300000Y-37600000D01*
X51700000Y-39000000D02*
X52700000Y-39000000D01*
X51700000Y-37600000D02*
X52700000Y-37600000D01*
X44900000Y-39675000D02*
X44900000Y-40200000D01*
X45575000Y-39000000D02*
X44900000Y-39675000D01*
X50100000Y-39000000D02*
X45575000Y-39000000D01*
X50100000Y-37600000D02*
X50100000Y-37830000D01*
X50100000Y-37830000D02*
X49350000Y-38580000D01*
X49350000Y-38580000D02*
X45440000Y-38580000D01*
X45440000Y-38580000D02*
X44270000Y-39750000D01*
X44270000Y-40970000D02*
X44900000Y-41600000D01*
X44270000Y-39750000D02*
X44270000Y-40970000D01*
X46500000Y-40200000D02*
X47500000Y-40200000D01*
X46500000Y-41600000D02*
X47500000Y-41600000D01*
X49100000Y-40200000D02*
X50100000Y-40200000D01*
X49100000Y-41600000D02*
X50100000Y-41600000D01*
X51700000Y-40200000D02*
X52700000Y-40200000D01*
X51700000Y-41600000D02*
X52700000Y-41600000D01*
X54300000Y-40200000D02*
X55300000Y-40200000D01*
X54300000Y-41600000D02*
X55300000Y-41600000D01*
X56900000Y-40200000D02*
X57900000Y-40200000D01*
X56900000Y-41600000D02*
X57900000Y-41600000D01*
X59500000Y-40200000D02*
X60500000Y-40200000D01*
X59500000Y-41600000D02*
X60500000Y-41600000D01*
X62100000Y-40200000D02*
X63100000Y-40200000D01*
X62100000Y-41600000D02*
X63100000Y-41600000D01*
X64700000Y-40200000D02*
X65700000Y-40200000D01*
X64700000Y-41600000D02*
X65700000Y-41600000D01*
X67300000Y-40200000D02*
X68300000Y-40200000D01*
X67300000Y-41600000D02*
X68300000Y-41600000D01*
X69900000Y-40200000D02*
X70900000Y-40200000D01*
X69900000Y-41600000D02*
X70900000Y-41600000D01*
X72500000Y-40200000D02*
X73500000Y-40200000D01*
X72500000Y-41600000D02*
X73500000Y-41600000D01*
X75552001Y-43747999D02*
X75100000Y-44200000D01*
X75552001Y-40652001D02*
X75552001Y-43747999D01*
X75100000Y-40200000D02*
X75552001Y-40652001D01*
X75100000Y-41600000D02*
X75100000Y-42800000D01*
X72500000Y-44200000D02*
X73500000Y-44200000D01*
X72500000Y-42800000D02*
X73500000Y-42800000D01*
X69900000Y-44200000D02*
X70900000Y-44200000D01*
X69900000Y-42800000D02*
X70900000Y-42800000D01*
X67300000Y-44200000D02*
X68300000Y-44200000D01*
X67300000Y-42800000D02*
X68300000Y-42800000D01*
X64700000Y-44200000D02*
X65700000Y-44200000D01*
X64700000Y-42800000D02*
X65700000Y-42800000D01*
X62100000Y-44200000D02*
X63100000Y-44200000D01*
X62100000Y-42800000D02*
X63100000Y-42800000D01*
X59500000Y-44200000D02*
X60500000Y-44200000D01*
X59500000Y-42800000D02*
X60500000Y-42800000D01*
X56900000Y-44200000D02*
X57900000Y-44200000D01*
X56900000Y-42800000D02*
X57900000Y-42800000D01*
X54300000Y-44200000D02*
X55300000Y-44200000D01*
X54300000Y-42800000D02*
X55300000Y-42800000D01*
X51700000Y-44200000D02*
X52700000Y-44200000D01*
X51700000Y-42800000D02*
X52700000Y-42800000D01*
X49100000Y-44200000D02*
X50100000Y-44200000D01*
X49100000Y-42800000D02*
X50100000Y-42800000D01*
X46500000Y-44200000D02*
X47500000Y-44200000D01*
X46500000Y-42800000D02*
X47500000Y-42800000D01*
X44900000Y-44200000D02*
X44900000Y-45400000D01*
X44447999Y-46347999D02*
X44900000Y-46800000D01*
X44447999Y-43252001D02*
X44447999Y-46347999D01*
X44900000Y-42800000D02*
X44447999Y-43252001D01*
X46500000Y-45400000D02*
X47500000Y-45400000D01*
X46500000Y-46800000D02*
X47500000Y-46800000D01*
X49100000Y-45400000D02*
X50100000Y-45400000D01*
X49100000Y-46800000D02*
X50100000Y-46800000D01*
X51700000Y-45400000D02*
X52700000Y-45400000D01*
X51700000Y-46800000D02*
X52700000Y-46800000D01*
X54300000Y-45400000D02*
X55300000Y-45400000D01*
X54300000Y-46800000D02*
X55300000Y-46800000D01*
X56900000Y-45400000D02*
X57900000Y-45400000D01*
X56900000Y-46800000D02*
X57900000Y-46800000D01*
X59500000Y-45400000D02*
X60500000Y-45400000D01*
X59500000Y-46800000D02*
X60500000Y-46800000D01*
X62100000Y-45400000D02*
X63100000Y-45400000D01*
X62100000Y-46800000D02*
X63100000Y-46800000D01*
X64700000Y-45400000D02*
X65700000Y-45400000D01*
X64700000Y-46800000D02*
X65700000Y-46800000D01*
X67300000Y-45400000D02*
X68300000Y-45400000D01*
X67300000Y-46800000D02*
X68300000Y-46800000D01*
X69900000Y-45400000D02*
X70900000Y-45400000D01*
X69900000Y-46800000D02*
X70900000Y-46800000D01*
X72500000Y-45400000D02*
X73500000Y-45400000D01*
X72500000Y-46800000D02*
X73500000Y-46800000D01*
X75552001Y-48947999D02*
X75100000Y-49400000D01*
X75552001Y-45852001D02*
X75552001Y-48947999D01*
X75100000Y-45400000D02*
X75552001Y-45852001D01*
X75100000Y-46800000D02*
X75100000Y-48000000D01*
X72500000Y-49400000D02*
X73500000Y-49400000D01*
X72500000Y-48000000D02*
X73500000Y-48000000D01*
X69900000Y-49400000D02*
X70900000Y-49400000D01*
X69900000Y-48000000D02*
X70900000Y-48000000D01*
X67300000Y-49400000D02*
X68300000Y-49400000D01*
X67300000Y-48000000D02*
X68300000Y-48000000D01*
X64700000Y-49400000D02*
X65700000Y-49400000D01*
X64700000Y-48000000D02*
X65700000Y-48000000D01*
X62100000Y-49400000D02*
X63100000Y-49400000D01*
X62100000Y-48000000D02*
X63100000Y-48000000D01*
X59500000Y-49400000D02*
X60500000Y-49400000D01*
X59500000Y-48000000D02*
X60500000Y-48000000D01*
X56900000Y-49400000D02*
X57900000Y-49400000D01*
X56900000Y-48000000D02*
X57900000Y-48000000D01*
X54300000Y-49400000D02*
X55300000Y-49400000D01*
X54300000Y-48000000D02*
X55300000Y-48000000D01*
X51700000Y-49400000D02*
X52700000Y-49400000D01*
X51700000Y-48000000D02*
X52700000Y-48000000D01*
X49100000Y-49400000D02*
X50100000Y-49400000D01*
X49100000Y-48000000D02*
X50100000Y-48000000D01*
X46500000Y-49400000D02*
X47500000Y-49400000D01*
X46500000Y-48000000D02*
X47500000Y-48000000D01*
X44900000Y-49400000D02*
X44900000Y-50600000D01*
X44447999Y-51547999D02*
X44900000Y-52000000D01*
X44447999Y-48452001D02*
X44447999Y-51547999D01*
X44900000Y-48000000D02*
X44447999Y-48452001D01*
X46500000Y-50600000D02*
X47500000Y-50600000D01*
X46500000Y-52000000D02*
X47500000Y-52000000D01*
X49100000Y-50600000D02*
X50100000Y-50600000D01*
X49100000Y-52000000D02*
X50100000Y-52000000D01*
X51700000Y-50600000D02*
X52700000Y-50600000D01*
X51700000Y-52000000D02*
X52700000Y-52000000D01*
X54300000Y-50600000D02*
X55300000Y-50600000D01*
X54300000Y-52000000D02*
X55300000Y-52000000D01*
X56900000Y-50600000D02*
X57900000Y-50600000D01*
X56900000Y-52000000D02*
X57900000Y-52000000D01*
X59500000Y-50600000D02*
X60500000Y-50600000D01*
X59500000Y-52000000D02*
X60500000Y-52000000D01*
X62100000Y-50600000D02*
X63100000Y-50600000D01*
X62100000Y-52000000D02*
X63100000Y-52000000D01*
X64700000Y-50600000D02*
X65700000Y-50600000D01*
X64700000Y-52000000D02*
X65700000Y-52000000D01*
X67300000Y-50600000D02*
X68300000Y-50600000D01*
X67300000Y-52000000D02*
X68300000Y-52000000D01*
X69900000Y-50600000D02*
X70900000Y-50600000D01*
X69900000Y-52000000D02*
X70900000Y-52000000D01*
X72500000Y-50600000D02*
X73500000Y-50600000D01*
X72500000Y-52000000D02*
X73500000Y-52000000D01*
X75552001Y-51052001D02*
X75100000Y-50600000D01*
X75552001Y-54147999D02*
X75552001Y-51052001D01*
X75100000Y-54600000D02*
X75552001Y-54147999D01*
X75100000Y-52000000D02*
X75100000Y-53200000D01*
X72500000Y-54600000D02*
X73500000Y-54600000D01*
X72500000Y-53200000D02*
X73500000Y-53200000D01*
X69900000Y-54600000D02*
X70900000Y-54600000D01*
X69900000Y-53200000D02*
X70900000Y-53200000D01*
X67300000Y-54600000D02*
X68300000Y-54600000D01*
X67300000Y-53200000D02*
X68300000Y-53200000D01*
X64700000Y-54600000D02*
X65700000Y-54600000D01*
X64700000Y-53200000D02*
X65700000Y-53200000D01*
X62100000Y-54600000D02*
X63100000Y-54600000D01*
X62100000Y-53200000D02*
X63100000Y-53200000D01*
X59500000Y-54600000D02*
X60500000Y-54600000D01*
X59500000Y-53200000D02*
X60500000Y-53200000D01*
X56900000Y-54600000D02*
X57900000Y-54600000D01*
X56900000Y-53200000D02*
X57900000Y-53200000D01*
X54300000Y-54600000D02*
X55300000Y-54600000D01*
X54300000Y-53200000D02*
X55300000Y-53200000D01*
X51700000Y-54600000D02*
X52700000Y-54600000D01*
X51700000Y-53200000D02*
X52700000Y-53200000D01*
X49100000Y-54600000D02*
X50100000Y-54600000D01*
X49100000Y-53200000D02*
X50100000Y-53200000D01*
X46500000Y-54600000D02*
X47500000Y-54600000D01*
X46500000Y-53200000D02*
X47500000Y-53200000D01*
X44900000Y-54600000D02*
X44900000Y-55800000D01*
X44447999Y-53652001D02*
X44447999Y-56997999D01*
X44900000Y-53200000D02*
X44447999Y-53652001D01*
X44650000Y-57200000D02*
X44900000Y-57200000D01*
X44447999Y-56997999D02*
X44650000Y-57200000D01*
X46500000Y-55800000D02*
X47500000Y-55800000D01*
X46500000Y-57200000D02*
X47500000Y-57200000D01*
X49100000Y-55800000D02*
X50100000Y-55800000D01*
X49100000Y-57200000D02*
X50100000Y-57200000D01*
X51700000Y-55800000D02*
X52700000Y-55800000D01*
X51700000Y-57200000D02*
X52700000Y-57200000D01*
X54300000Y-55800000D02*
X55300000Y-55800000D01*
X54300000Y-57200000D02*
X55300000Y-57200000D01*
X56900000Y-55800000D02*
X57900000Y-55800000D01*
X56900000Y-57200000D02*
X57900000Y-57200000D01*
X59500000Y-55800000D02*
X60500000Y-55800000D01*
X59500000Y-57200000D02*
X60500000Y-57200000D01*
X62100000Y-55800000D02*
X63100000Y-55800000D01*
X62100000Y-57200000D02*
X63100000Y-57200000D01*
X72500000Y-55800000D02*
X73500000Y-55800000D01*
X72500000Y-57200000D02*
X73500000Y-57200000D01*
X75552001Y-59347999D02*
X75100000Y-59800000D01*
X75552001Y-56252001D02*
X75552001Y-59347999D01*
X75100000Y-55800000D02*
X75552001Y-56252001D01*
X75100000Y-58400000D02*
X75100000Y-57410000D01*
X75100000Y-57410000D02*
X75100000Y-57200000D01*
X72500000Y-59800000D02*
X73500000Y-59800000D01*
X72500000Y-58400000D02*
X73500000Y-58400000D01*
X69900000Y-59800000D02*
X70900000Y-59800000D01*
X69900000Y-58400000D02*
X70900000Y-58400000D01*
X67300000Y-59800000D02*
X68300000Y-59800000D01*
X67300000Y-58400000D02*
X68300000Y-58400000D01*
X64700000Y-59800000D02*
X65700000Y-59800000D01*
X64700000Y-58400000D02*
X65700000Y-58400000D01*
X62100000Y-59800000D02*
X63100000Y-59800000D01*
X62100000Y-58400000D02*
X63100000Y-58400000D01*
X59500000Y-59800000D02*
X60500000Y-59800000D01*
X59500000Y-58400000D02*
X60500000Y-58400000D01*
X56900000Y-59800000D02*
X57900000Y-59800000D01*
X56900000Y-58400000D02*
X57900000Y-58400000D01*
X54300000Y-59800000D02*
X55300000Y-59800000D01*
X54300000Y-58400000D02*
X55300000Y-58400000D01*
X51700000Y-59800000D02*
X52700000Y-59800000D01*
X51700000Y-58400000D02*
X52700000Y-58400000D01*
X49100000Y-59800000D02*
X50100000Y-59800000D01*
X49100000Y-58400000D02*
X50100000Y-58400000D01*
X46500000Y-59800000D02*
X47500000Y-59800000D01*
X46500000Y-58400000D02*
X47500000Y-58400000D01*
X44900000Y-59800000D02*
X44570000Y-59800000D01*
X44570000Y-59800000D02*
X44120000Y-60250000D01*
X44120000Y-60250000D02*
X44120000Y-60770000D01*
X44350000Y-61000000D02*
X50100000Y-61000000D01*
X44120000Y-60770000D02*
X44350000Y-61000000D01*
X49269951Y-61569951D02*
X50100000Y-62400000D01*
X43792990Y-60905451D02*
X44457490Y-61569951D01*
X43792990Y-59507010D02*
X43792990Y-60905451D01*
X44457490Y-61569951D02*
X49269951Y-61569951D01*
X44900000Y-58400000D02*
X43792990Y-59507010D01*
X51700000Y-61000000D02*
X52700000Y-61000000D01*
X51700000Y-62400000D02*
X52700000Y-62400000D01*
X54300000Y-61000000D02*
X55300000Y-61000000D01*
X54300000Y-62400000D02*
X55300000Y-62400000D01*
X56900000Y-61000000D02*
X57900000Y-61000000D01*
X56900000Y-62400000D02*
X57900000Y-62400000D01*
X59500000Y-61000000D02*
X60500000Y-61000000D01*
X59500000Y-62400000D02*
X60500000Y-62400000D01*
X62100000Y-61000000D02*
X63100000Y-61000000D01*
X62100000Y-62400000D02*
X63100000Y-62400000D01*
X64700000Y-61000000D02*
X65700000Y-61000000D01*
X64700000Y-62400000D02*
X65700000Y-62400000D01*
X67300000Y-61000000D02*
X68300000Y-61000000D01*
X67300000Y-62400000D02*
X68300000Y-62400000D01*
X70352001Y-64547999D02*
X69900000Y-65000000D01*
X70352001Y-61452001D02*
X70352001Y-64547999D01*
X69900000Y-61000000D02*
X70352001Y-61452001D01*
X69900000Y-62400000D02*
X69900000Y-63600000D01*
X67300000Y-65000000D02*
X68300000Y-65000000D01*
X67300000Y-63600000D02*
X68300000Y-63600000D01*
X64700000Y-65000000D02*
X65700000Y-65000000D01*
X64700000Y-63600000D02*
X65700000Y-63600000D01*
X62100000Y-65000000D02*
X63100000Y-65000000D01*
X62100000Y-63600000D02*
X63100000Y-63600000D01*
X59500000Y-65000000D02*
X60500000Y-65000000D01*
X59500000Y-63600000D02*
X60500000Y-63600000D01*
X56900000Y-65000000D02*
X57900000Y-65000000D01*
X56900000Y-63600000D02*
X57900000Y-63600000D01*
X64700000Y-35000000D02*
X65700000Y-35000000D01*
X64700000Y-36400000D02*
X65700000Y-36400000D01*
X67300000Y-35000000D02*
X68300000Y-35000000D01*
X67300000Y-36400000D02*
X68300000Y-36400000D01*
X70352001Y-35452001D02*
X69900000Y-35000000D01*
X70352001Y-38547999D02*
X70352001Y-35452001D01*
X69900000Y-39000000D02*
X70352001Y-38547999D01*
X69900000Y-36400000D02*
X69900000Y-37600000D01*
X64700000Y-55800000D02*
X65700000Y-55800000D01*
X64700000Y-57200000D02*
X65700000Y-57200000D01*
X67300000Y-55800000D02*
X68300000Y-55800000D01*
X67300000Y-57200000D02*
X68300000Y-57200000D01*
X69900000Y-55800000D02*
X70900000Y-55800000D01*
X69900000Y-57200000D02*
X70900000Y-57200000D01*
X59245000Y-32570000D02*
X60250000Y-32570000D01*
X64250000Y-28070000D02*
X64250000Y-30750000D01*
X63405000Y-30558998D02*
X63405000Y-32590000D01*
X63750000Y-30213998D02*
X63405000Y-30558998D01*
X63750000Y-28070000D02*
X63750000Y-30213998D01*
X47500000Y-29500000D02*
X48000000Y-30000000D01*
X62846002Y-30000000D02*
X63405000Y-30558998D01*
X48000000Y-30000000D02*
X62846002Y-30000000D01*
X69300010Y-28581374D02*
X65291384Y-32590000D01*
X68006383Y-25624999D02*
X69300010Y-26918626D01*
X64499999Y-25624999D02*
X68006383Y-25624999D01*
X65291384Y-32590000D02*
X63405000Y-32590000D01*
X64174999Y-25949999D02*
X64499999Y-25624999D01*
X64174999Y-26550001D02*
X64174999Y-25949999D01*
X64400000Y-26775002D02*
X64174999Y-26550001D01*
X69300010Y-26918626D02*
X69300010Y-28581374D01*
X64400000Y-26950000D02*
X64400000Y-26775002D01*
M02*
