M48
; DRILL file {KiCad (5.1.9-0-10_14)} date Saturday, March 05, 2022 at 01:35:36 PM
; FORMAT={-:-/ absolute / inch / decimal}
; #@! TF.CreationDate,2022-03-05T13:35:36-08:00
; #@! TF.GenerationSoftware,Kicad,Pcbnew,(5.1.9-0-10_14)
; #@! TF.FileFunction,Plated,1,4,PTH
FMAT,2
INCH
T1C0.0079
T2C0.0157
T3C0.0197
%
G90
G05
T1
X1.7992Y-1.5591
X1.7992Y-1.6614
X1.7992Y-1.7638
X1.7992Y-1.8661
X1.7992Y-1.9685
X1.7992Y-2.0709
X1.7992Y-2.1732
X1.7992Y-2.2756
X1.7992Y-2.378
X1.9016Y-1.5591
X1.9016Y-1.6614
X1.9016Y-1.7638
X1.9016Y-1.8661
X1.9016Y-1.9685
X1.9016Y-2.0709
X1.9016Y-2.1732
X1.9016Y-2.2756
X1.9016Y-2.378
X2.0039Y-1.3543
X2.0039Y-1.4571
X2.0039Y-1.5591
X2.0039Y-1.6618
X2.0039Y-1.7638
X2.0039Y-1.8665
X2.0039Y-1.9685
X2.0039Y-2.0713
X2.0039Y-2.1732
X2.0039Y-2.276
X2.0039Y-2.378
X2.0039Y-2.4807
X2.0039Y-2.5827
X2.1063Y-1.3543
X2.1063Y-1.4571
X2.1063Y-1.5591
X2.1063Y-1.6618
X2.1063Y-1.7638
X2.1063Y-1.8665
X2.1063Y-1.9685
X2.1063Y-2.0713
X2.1063Y-2.1732
X2.1063Y-2.276
X2.1063Y-2.378
X2.1063Y-2.4807
X2.1063Y-2.5827
X2.2087Y-1.3543
X2.2087Y-1.4571
X2.2087Y-1.5591
X2.2087Y-1.6618
X2.2087Y-1.7638
X2.2087Y-1.8665
X2.2087Y-1.9685
X2.2087Y-2.0713
X2.2087Y-2.1732
X2.2087Y-2.276
X2.2087Y-2.378
X2.2087Y-2.4807
X2.2087Y-2.5827
X2.311Y-1.3543
X2.311Y-1.4571
X2.311Y-1.5591
X2.311Y-1.6618
X2.311Y-1.7638
X2.311Y-1.8665
X2.311Y-1.9685
X2.311Y-2.0713
X2.311Y-2.1732
X2.311Y-2.276
X2.311Y-2.378
X2.311Y-2.4807
X2.311Y-2.5827
X2.4134Y-1.3543
X2.4134Y-1.4571
X2.4134Y-1.5591
X2.4134Y-1.6618
X2.4134Y-1.7638
X2.4134Y-1.8665
X2.4134Y-1.9685
X2.4134Y-2.0713
X2.4134Y-2.1732
X2.4134Y-2.276
X2.4134Y-2.378
X2.4134Y-2.4807
X2.4134Y-2.5827
X2.5157Y-1.3543
X2.5157Y-1.4571
X2.5157Y-1.5591
X2.5157Y-1.6618
X2.5157Y-1.7638
X2.5157Y-1.8665
X2.5157Y-1.9685
X2.5157Y-2.0713
X2.5157Y-2.1732
X2.5157Y-2.276
X2.5157Y-2.378
X2.5157Y-2.4807
X2.5157Y-2.5827
X2.6181Y-1.3543
X2.6181Y-1.4571
X2.6181Y-1.5591
X2.6181Y-1.6618
X2.6181Y-1.7638
X2.6181Y-1.8665
X2.6181Y-1.9685
X2.6181Y-2.0713
X2.6181Y-2.1732
X2.6181Y-2.276
X2.6181Y-2.378
X2.6181Y-2.4807
X2.6181Y-2.5827
X2.7205Y-1.3543
X2.7205Y-1.4571
X2.7205Y-1.5591
X2.7205Y-1.6618
X2.7205Y-1.7638
X2.7205Y-1.8665
X2.7205Y-1.9685
X2.7205Y-2.0713
X2.7205Y-2.1732
X2.7205Y-2.276
X2.7205Y-2.378
X2.7205Y-2.4807
X2.7205Y-2.5827
X2.8228Y-1.5591
X2.8228Y-1.6614
X2.8228Y-1.7638
X2.8228Y-1.8661
X2.8228Y-1.9685
X2.8228Y-2.0709
X2.8228Y-2.1732
X2.8228Y-2.2756
X2.8228Y-2.378
X2.9252Y-1.5591
X2.9252Y-1.6614
X2.9252Y-1.7638
X2.9252Y-1.8661
X2.9252Y-1.9685
X2.9252Y-2.0709
X2.9252Y-2.1732
X2.9252Y-2.2756
X2.9252Y-2.378
T2
X1.811Y-1.1417
X1.8701Y-1.1614
X1.874Y-0.8819
X1.9291Y-1.0236
X1.9291Y-1.1417
X2.0315Y-0.8819
X2.0472Y-1.1417
X2.0866Y-1.0236
X2.1063Y-1.1417
X2.372Y-1.2823
X2.3996Y-1.061
X2.4114Y-1.1516
X2.4252Y-1.0335
X2.4567Y-1.0335
X2.4705Y-1.1516
X2.4724Y-1.061
X2.4882Y-1.0335
X2.5039Y-1.061
X2.5295Y-1.2106
X2.5354Y-1.061
X2.5512Y-1.0335
X2.5669Y-1.061
X2.5689Y-1.1516
X2.5827Y-1.0335
X2.6142Y-1.0335
X2.628Y-1.1516
X2.6398Y-1.061
X2.8346Y-0.8819
X2.8346Y-1.0866
X2.9921Y-0.8819
X2.9921Y-1.0866
T3
G00X2.3425Y-0.8878
M15
G01X2.3425Y-0.8563
M16
G05
G00X2.3425Y-1.1043
M15
G01X2.3425Y-1.0807
M16
G05
G00X2.6969Y-0.8878
M15
G01X2.6969Y-0.8563
M16
G05
G00X2.6969Y-1.1043
M15
G01X2.6969Y-1.0807
M16
G05
T0
M30
