G04 #@! TF.GenerationSoftware,KiCad,Pcbnew,(5.1.9-0-10_14)*
G04 #@! TF.CreationDate,2022-03-05T13:35:39-08:00*
G04 #@! TF.ProjectId,LED_array,4c45445f-6172-4726-9179-2e6b69636164,rev?*
G04 #@! TF.SameCoordinates,Original*
G04 #@! TF.FileFunction,Legend,Top*
G04 #@! TF.FilePolarity,Positive*
%FSLAX46Y46*%
G04 Gerber Fmt 4.6, Leading zero omitted, Abs format (unit mm)*
G04 Created by KiCad (PCBNEW (5.1.9-0-10_14)) date 2022-03-05 13:35:39*
%MOMM*%
%LPD*%
G01*
G04 APERTURE LIST*
%ADD10C,0.150000*%
%ADD11C,0.127000*%
%ADD12C,0.200000*%
%ADD13C,0.120000*%
%ADD14C,0.100000*%
G04 APERTURE END LIST*
D10*
X48464285Y-68404761D02*
X48607142Y-68452380D01*
X48845238Y-68452380D01*
X48940476Y-68404761D01*
X48988095Y-68357142D01*
X49035714Y-68261904D01*
X49035714Y-68166666D01*
X48988095Y-68071428D01*
X48940476Y-68023809D01*
X48845238Y-67976190D01*
X48654761Y-67928571D01*
X48559523Y-67880952D01*
X48511904Y-67833333D01*
X48464285Y-67738095D01*
X48464285Y-67642857D01*
X48511904Y-67547619D01*
X48559523Y-67500000D01*
X48654761Y-67452380D01*
X48892857Y-67452380D01*
X49035714Y-67500000D01*
X49892857Y-67785714D02*
X49892857Y-68785714D01*
X49892857Y-68404761D02*
X49797619Y-68452380D01*
X49607142Y-68452380D01*
X49511904Y-68404761D01*
X49464285Y-68357142D01*
X49416666Y-68261904D01*
X49416666Y-67976190D01*
X49464285Y-67880952D01*
X49511904Y-67833333D01*
X49607142Y-67785714D01*
X49797619Y-67785714D01*
X49892857Y-67833333D01*
X50797619Y-67785714D02*
X50797619Y-68452380D01*
X50369047Y-67785714D02*
X50369047Y-68309523D01*
X50416666Y-68404761D01*
X50511904Y-68452380D01*
X50654761Y-68452380D01*
X50750000Y-68404761D01*
X50797619Y-68357142D01*
X51273809Y-68452380D02*
X51273809Y-67785714D01*
X51273809Y-67452380D02*
X51226190Y-67500000D01*
X51273809Y-67547619D01*
X51321428Y-67500000D01*
X51273809Y-67452380D01*
X51273809Y-67547619D01*
X52178571Y-68452380D02*
X52178571Y-67452380D01*
X52178571Y-68404761D02*
X52083333Y-68452380D01*
X51892857Y-68452380D01*
X51797619Y-68404761D01*
X51750000Y-68357142D01*
X51702380Y-68261904D01*
X51702380Y-67976190D01*
X51750000Y-67880952D01*
X51797619Y-67833333D01*
X51892857Y-67785714D01*
X52083333Y-67785714D01*
X52178571Y-67833333D01*
X53369047Y-67404761D02*
X52511904Y-68690476D01*
X53892857Y-67452380D02*
X54083333Y-67452380D01*
X54178571Y-67500000D01*
X54273809Y-67595238D01*
X54321428Y-67785714D01*
X54321428Y-68119047D01*
X54273809Y-68309523D01*
X54178571Y-68404761D01*
X54083333Y-68452380D01*
X53892857Y-68452380D01*
X53797619Y-68404761D01*
X53702380Y-68309523D01*
X53654761Y-68119047D01*
X53654761Y-67785714D01*
X53702380Y-67595238D01*
X53797619Y-67500000D01*
X53892857Y-67452380D01*
X55178571Y-68404761D02*
X55083333Y-68452380D01*
X54892857Y-68452380D01*
X54797619Y-68404761D01*
X54750000Y-68357142D01*
X54702380Y-68261904D01*
X54702380Y-67976190D01*
X54750000Y-67880952D01*
X54797619Y-67833333D01*
X54892857Y-67785714D01*
X55083333Y-67785714D01*
X55178571Y-67833333D01*
X55464285Y-67785714D02*
X55845238Y-67785714D01*
X55607142Y-67452380D02*
X55607142Y-68309523D01*
X55654761Y-68404761D01*
X55750000Y-68452380D01*
X55845238Y-68452380D01*
X56321428Y-68452380D02*
X56226190Y-68404761D01*
X56178571Y-68357142D01*
X56130952Y-68261904D01*
X56130952Y-67976190D01*
X56178571Y-67880952D01*
X56226190Y-67833333D01*
X56321428Y-67785714D01*
X56464285Y-67785714D01*
X56559523Y-67833333D01*
X56607142Y-67880952D01*
X56654761Y-67976190D01*
X56654761Y-68261904D01*
X56607142Y-68357142D01*
X56559523Y-68404761D01*
X56464285Y-68452380D01*
X56321428Y-68452380D01*
X57083333Y-67785714D02*
X57083333Y-68785714D01*
X57083333Y-67833333D02*
X57178571Y-67785714D01*
X57369047Y-67785714D01*
X57464285Y-67833333D01*
X57511904Y-67880952D01*
X57559523Y-67976190D01*
X57559523Y-68261904D01*
X57511904Y-68357142D01*
X57464285Y-68404761D01*
X57369047Y-68452380D01*
X57178571Y-68452380D01*
X57083333Y-68404761D01*
X57988095Y-68452380D02*
X57988095Y-67785714D01*
X57988095Y-67452380D02*
X57940476Y-67500000D01*
X57988095Y-67547619D01*
X58035714Y-67500000D01*
X57988095Y-67452380D01*
X57988095Y-67547619D01*
X62749999Y-68452380D02*
X62273809Y-68452380D01*
X62273809Y-67452380D01*
X63083333Y-67928571D02*
X63416666Y-67928571D01*
X63559523Y-68452380D02*
X63083333Y-68452380D01*
X63083333Y-67452380D01*
X63559523Y-67452380D01*
X63988095Y-68452380D02*
X63988095Y-67452380D01*
X64226190Y-67452380D01*
X64369047Y-67500000D01*
X64464285Y-67595238D01*
X64511904Y-67690476D01*
X64559523Y-67880952D01*
X64559523Y-68023809D01*
X64511904Y-68214285D01*
X64464285Y-68309523D01*
X64369047Y-68404761D01*
X64226190Y-68452380D01*
X63988095Y-68452380D01*
X65750000Y-68452380D02*
X65750000Y-67785714D01*
X65750000Y-67880952D02*
X65797619Y-67833333D01*
X65892857Y-67785714D01*
X66035714Y-67785714D01*
X66130952Y-67833333D01*
X66178571Y-67928571D01*
X66178571Y-68452380D01*
X66178571Y-67928571D02*
X66226190Y-67833333D01*
X66321428Y-67785714D01*
X66464285Y-67785714D01*
X66559523Y-67833333D01*
X66607142Y-67928571D01*
X66607142Y-68452380D01*
X67511904Y-68452380D02*
X67511904Y-67928571D01*
X67464285Y-67833333D01*
X67369047Y-67785714D01*
X67178571Y-67785714D01*
X67083333Y-67833333D01*
X67511904Y-68404761D02*
X67416666Y-68452380D01*
X67178571Y-68452380D01*
X67083333Y-68404761D01*
X67035714Y-68309523D01*
X67035714Y-68214285D01*
X67083333Y-68119047D01*
X67178571Y-68071428D01*
X67416666Y-68071428D01*
X67511904Y-68023809D01*
X67845238Y-67785714D02*
X68226190Y-67785714D01*
X67988095Y-67452380D02*
X67988095Y-68309523D01*
X68035714Y-68404761D01*
X68130952Y-68452380D01*
X68226190Y-68452380D01*
X68559523Y-68452380D02*
X68559523Y-67785714D01*
X68559523Y-67976190D02*
X68607142Y-67880952D01*
X68654761Y-67833333D01*
X68750000Y-67785714D01*
X68845238Y-67785714D01*
X69178571Y-68452380D02*
X69178571Y-67785714D01*
X69178571Y-67452380D02*
X69130952Y-67500000D01*
X69178571Y-67547619D01*
X69226190Y-67500000D01*
X69178571Y-67452380D01*
X69178571Y-67547619D01*
X69559523Y-68452380D02*
X70083333Y-67785714D01*
X69559523Y-67785714D02*
X70083333Y-68452380D01*
D11*
X59400000Y-23550000D02*
X59400000Y-26350000D01*
X68600000Y-26350000D02*
X68600000Y-23550000D01*
X68000000Y-21000000D02*
X60000000Y-21000000D01*
D12*
X66940920Y-29439420D02*
G75*
G03*
X66940920Y-29439420I-100000J0D01*
G01*
D13*
X50690000Y-25711252D02*
X50690000Y-24288748D01*
X52510000Y-25711252D02*
X52510000Y-24288748D01*
X75090000Y-25711252D02*
X75090000Y-24288748D01*
X76910000Y-25711252D02*
X76910000Y-24288748D01*
X46690000Y-25711252D02*
X46690000Y-24288748D01*
X48510000Y-25711252D02*
X48510000Y-24288748D01*
X71090000Y-25711252D02*
X71090000Y-24288748D01*
X72910000Y-25711252D02*
X72910000Y-24288748D01*
X62342742Y-33112500D02*
X62817258Y-33112500D01*
X62342742Y-32067500D02*
X62817258Y-32067500D01*
X58182742Y-33092500D02*
X58657258Y-33092500D01*
X58182742Y-32047500D02*
X58657258Y-32047500D01*
D10*
X47238095Y-47252380D02*
X47238095Y-46252380D01*
X47238095Y-46728571D02*
X47809523Y-46728571D01*
X47809523Y-47252380D02*
X47809523Y-46252380D01*
X48238095Y-46347619D02*
X48285714Y-46300000D01*
X48380952Y-46252380D01*
X48619047Y-46252380D01*
X48714285Y-46300000D01*
X48761904Y-46347619D01*
X48809523Y-46442857D01*
X48809523Y-46538095D01*
X48761904Y-46680952D01*
X48190476Y-47252380D01*
X48809523Y-47252380D01*
X59238095Y-65252380D02*
X59238095Y-64252380D01*
X59238095Y-64728571D02*
X59809523Y-64728571D01*
X59809523Y-65252380D02*
X59809523Y-64252380D01*
X60809523Y-65252380D02*
X60238095Y-65252380D01*
X60523809Y-65252380D02*
X60523809Y-64252380D01*
X60428571Y-64395238D01*
X60333333Y-64490476D01*
X60238095Y-64538095D01*
X65301461Y-30207953D02*
X65301461Y-30923481D01*
X65253759Y-31066587D01*
X65158355Y-31161991D01*
X65015250Y-31209693D01*
X64919846Y-31209693D01*
X65730778Y-30303356D02*
X65778480Y-30255655D01*
X65873884Y-30207953D01*
X66112394Y-30207953D01*
X66207797Y-30255655D01*
X66255499Y-30303356D01*
X66303201Y-30398760D01*
X66303201Y-30494164D01*
X66255499Y-30637270D01*
X65683076Y-31209693D01*
X66303201Y-31209693D01*
D14*
X44474428Y-40460228D02*
X44131571Y-40460228D01*
X44303000Y-40460228D02*
X44303000Y-39860228D01*
X44245857Y-39945942D01*
X44188714Y-40003085D01*
X44131571Y-40031657D01*
D10*
X50107142Y-25166666D02*
X50154761Y-25214285D01*
X50202380Y-25357142D01*
X50202380Y-25452380D01*
X50154761Y-25595238D01*
X50059523Y-25690476D01*
X49964285Y-25738095D01*
X49773809Y-25785714D01*
X49630952Y-25785714D01*
X49440476Y-25738095D01*
X49345238Y-25690476D01*
X49250000Y-25595238D01*
X49202380Y-25452380D01*
X49202380Y-25357142D01*
X49250000Y-25214285D01*
X49297619Y-25166666D01*
X49535714Y-24309523D02*
X50202380Y-24309523D01*
X49154761Y-24547619D02*
X49869047Y-24785714D01*
X49869047Y-24166666D01*
X74507142Y-25166666D02*
X74554761Y-25214285D01*
X74602380Y-25357142D01*
X74602380Y-25452380D01*
X74554761Y-25595238D01*
X74459523Y-25690476D01*
X74364285Y-25738095D01*
X74173809Y-25785714D01*
X74030952Y-25785714D01*
X73840476Y-25738095D01*
X73745238Y-25690476D01*
X73650000Y-25595238D01*
X73602380Y-25452380D01*
X73602380Y-25357142D01*
X73650000Y-25214285D01*
X73697619Y-25166666D01*
X73602380Y-24833333D02*
X73602380Y-24214285D01*
X73983333Y-24547619D01*
X73983333Y-24404761D01*
X74030952Y-24309523D01*
X74078571Y-24261904D01*
X74173809Y-24214285D01*
X74411904Y-24214285D01*
X74507142Y-24261904D01*
X74554761Y-24309523D01*
X74602380Y-24404761D01*
X74602380Y-24690476D01*
X74554761Y-24785714D01*
X74507142Y-24833333D01*
X46107142Y-25166666D02*
X46154761Y-25214285D01*
X46202380Y-25357142D01*
X46202380Y-25452380D01*
X46154761Y-25595238D01*
X46059523Y-25690476D01*
X45964285Y-25738095D01*
X45773809Y-25785714D01*
X45630952Y-25785714D01*
X45440476Y-25738095D01*
X45345238Y-25690476D01*
X45250000Y-25595238D01*
X45202380Y-25452380D01*
X45202380Y-25357142D01*
X45250000Y-25214285D01*
X45297619Y-25166666D01*
X45297619Y-24785714D02*
X45250000Y-24738095D01*
X45202380Y-24642857D01*
X45202380Y-24404761D01*
X45250000Y-24309523D01*
X45297619Y-24261904D01*
X45392857Y-24214285D01*
X45488095Y-24214285D01*
X45630952Y-24261904D01*
X46202380Y-24833333D01*
X46202380Y-24214285D01*
X70507142Y-25166666D02*
X70554761Y-25214285D01*
X70602380Y-25357142D01*
X70602380Y-25452380D01*
X70554761Y-25595238D01*
X70459523Y-25690476D01*
X70364285Y-25738095D01*
X70173809Y-25785714D01*
X70030952Y-25785714D01*
X69840476Y-25738095D01*
X69745238Y-25690476D01*
X69650000Y-25595238D01*
X69602380Y-25452380D01*
X69602380Y-25357142D01*
X69650000Y-25214285D01*
X69697619Y-25166666D01*
X70602380Y-24214285D02*
X70602380Y-24785714D01*
X70602380Y-24500000D02*
X69602380Y-24500000D01*
X69745238Y-24595238D01*
X69840476Y-24690476D01*
X69888095Y-24785714D01*
X65133333Y-33152380D02*
X64800000Y-32676190D01*
X64561904Y-33152380D02*
X64561904Y-32152380D01*
X64942857Y-32152380D01*
X65038095Y-32200000D01*
X65085714Y-32247619D01*
X65133333Y-32342857D01*
X65133333Y-32485714D01*
X65085714Y-32580952D01*
X65038095Y-32628571D01*
X64942857Y-32676190D01*
X64561904Y-32676190D01*
X65514285Y-32247619D02*
X65561904Y-32200000D01*
X65657142Y-32152380D01*
X65895238Y-32152380D01*
X65990476Y-32200000D01*
X66038095Y-32247619D01*
X66085714Y-32342857D01*
X66085714Y-32438095D01*
X66038095Y-32580952D01*
X65466666Y-33152380D01*
X66085714Y-33152380D01*
X55633333Y-33052380D02*
X55300000Y-32576190D01*
X55061904Y-33052380D02*
X55061904Y-32052380D01*
X55442857Y-32052380D01*
X55538095Y-32100000D01*
X55585714Y-32147619D01*
X55633333Y-32242857D01*
X55633333Y-32385714D01*
X55585714Y-32480952D01*
X55538095Y-32528571D01*
X55442857Y-32576190D01*
X55061904Y-32576190D01*
X56585714Y-33052380D02*
X56014285Y-33052380D01*
X56300000Y-33052380D02*
X56300000Y-32052380D01*
X56204761Y-32195238D01*
X56109523Y-32290476D01*
X56014285Y-32338095D01*
M02*
