G04 #@! TF.GenerationSoftware,KiCad,Pcbnew,(5.1.9-0-10_14)*
G04 #@! TF.CreationDate,2022-03-05T13:35:39-08:00*
G04 #@! TF.ProjectId,LED_array,4c45445f-6172-4726-9179-2e6b69636164,rev?*
G04 #@! TF.SameCoordinates,Original*
G04 #@! TF.FileFunction,Legend,Bot*
G04 #@! TF.FilePolarity,Positive*
%FSLAX46Y46*%
G04 Gerber Fmt 4.6, Leading zero omitted, Abs format (unit mm)*
G04 Created by KiCad (PCBNEW (5.1.9-0-10_14)) date 2022-03-05 13:35:39*
%MOMM*%
%LPD*%
G01*
G04 APERTURE LIST*
%ADD10C,0.150000*%
%ADD11C,0.127000*%
%ADD12C,0.200000*%
G04 APERTURE END LIST*
D10*
X64085714Y-58077380D02*
X64085714Y-57077380D01*
X64085714Y-57458333D02*
X63990476Y-57410714D01*
X63800000Y-57410714D01*
X63704761Y-57458333D01*
X63657142Y-57505952D01*
X63609523Y-57601190D01*
X63609523Y-57886904D01*
X63657142Y-57982142D01*
X63704761Y-58029761D01*
X63800000Y-58077380D01*
X63990476Y-58077380D01*
X64085714Y-58029761D01*
X63276190Y-57410714D02*
X63038095Y-58077380D01*
X62800000Y-57410714D02*
X63038095Y-58077380D01*
X63133333Y-58315476D01*
X63180952Y-58363095D01*
X63276190Y-58410714D01*
X61085714Y-58077380D02*
X61419047Y-57601190D01*
X61657142Y-58077380D02*
X61657142Y-57077380D01*
X61276190Y-57077380D01*
X61180952Y-57125000D01*
X61133333Y-57172619D01*
X61085714Y-57267857D01*
X61085714Y-57410714D01*
X61133333Y-57505952D01*
X61180952Y-57553571D01*
X61276190Y-57601190D01*
X61657142Y-57601190D01*
X60323809Y-57553571D02*
X60180952Y-57601190D01*
X60133333Y-57648809D01*
X60085714Y-57744047D01*
X60085714Y-57886904D01*
X60133333Y-57982142D01*
X60180952Y-58029761D01*
X60276190Y-58077380D01*
X60657142Y-58077380D01*
X60657142Y-57077380D01*
X60323809Y-57077380D01*
X60228571Y-57125000D01*
X60180952Y-57172619D01*
X60133333Y-57267857D01*
X60133333Y-57363095D01*
X60180952Y-57458333D01*
X60228571Y-57505952D01*
X60323809Y-57553571D01*
X60657142Y-57553571D01*
X58085714Y-58077380D02*
X58133333Y-58077380D01*
X58228571Y-58029761D01*
X58371428Y-57886904D01*
X58609523Y-57601190D01*
X58704761Y-57458333D01*
X58752380Y-57315476D01*
X58752380Y-57220238D01*
X58704761Y-57125000D01*
X58609523Y-57077380D01*
X58561904Y-57077380D01*
X58466666Y-57125000D01*
X58419047Y-57220238D01*
X58419047Y-57267857D01*
X58466666Y-57363095D01*
X58514285Y-57410714D01*
X58800000Y-57601190D01*
X58847619Y-57648809D01*
X58895238Y-57744047D01*
X58895238Y-57886904D01*
X58847619Y-57982142D01*
X58800000Y-58029761D01*
X58704761Y-58077380D01*
X58561904Y-58077380D01*
X58466666Y-58029761D01*
X58419047Y-57982142D01*
X58276190Y-57791666D01*
X58228571Y-57648809D01*
X58228571Y-57553571D01*
X56895238Y-58077380D02*
X56895238Y-57077380D01*
X56895238Y-57553571D02*
X56323809Y-57553571D01*
X56323809Y-58077380D02*
X56323809Y-57077380D01*
X55371428Y-58077380D02*
X55847619Y-58077380D01*
X55847619Y-57077380D01*
X72038095Y-59727380D02*
X72038095Y-58727380D01*
X71657142Y-58727380D01*
X71561904Y-58775000D01*
X71514285Y-58822619D01*
X71466666Y-58917857D01*
X71466666Y-59060714D01*
X71514285Y-59155952D01*
X71561904Y-59203571D01*
X71657142Y-59251190D01*
X72038095Y-59251190D01*
X71038095Y-59727380D02*
X71038095Y-59060714D01*
X71038095Y-59251190D02*
X70990476Y-59155952D01*
X70942857Y-59108333D01*
X70847619Y-59060714D01*
X70752380Y-59060714D01*
X69990476Y-59727380D02*
X69990476Y-59203571D01*
X70038095Y-59108333D01*
X70133333Y-59060714D01*
X70323809Y-59060714D01*
X70419047Y-59108333D01*
X69990476Y-59679761D02*
X70085714Y-59727380D01*
X70323809Y-59727380D01*
X70419047Y-59679761D01*
X70466666Y-59584523D01*
X70466666Y-59489285D01*
X70419047Y-59394047D01*
X70323809Y-59346428D01*
X70085714Y-59346428D01*
X69990476Y-59298809D01*
X69514285Y-59727380D02*
X69514285Y-58727380D01*
X69419047Y-59346428D02*
X69133333Y-59727380D01*
X69133333Y-59060714D02*
X69514285Y-59441666D01*
X68276190Y-59727380D02*
X68276190Y-59203571D01*
X68323809Y-59108333D01*
X68419047Y-59060714D01*
X68609523Y-59060714D01*
X68704761Y-59108333D01*
X68276190Y-59679761D02*
X68371428Y-59727380D01*
X68609523Y-59727380D01*
X68704761Y-59679761D01*
X68752380Y-59584523D01*
X68752380Y-59489285D01*
X68704761Y-59394047D01*
X68609523Y-59346428D01*
X68371428Y-59346428D01*
X68276190Y-59298809D01*
X67847619Y-59679761D02*
X67752380Y-59727380D01*
X67561904Y-59727380D01*
X67466666Y-59679761D01*
X67419047Y-59584523D01*
X67419047Y-59536904D01*
X67466666Y-59441666D01*
X67561904Y-59394047D01*
X67704761Y-59394047D01*
X67800000Y-59346428D01*
X67847619Y-59251190D01*
X67847619Y-59203571D01*
X67800000Y-59108333D01*
X67704761Y-59060714D01*
X67561904Y-59060714D01*
X67466666Y-59108333D01*
X66990476Y-59727380D02*
X66990476Y-58727380D01*
X66561904Y-59727380D02*
X66561904Y-59203571D01*
X66609523Y-59108333D01*
X66704761Y-59060714D01*
X66847619Y-59060714D01*
X66942857Y-59108333D01*
X66990476Y-59155952D01*
X64847619Y-59727380D02*
X65323809Y-59727380D01*
X65323809Y-58727380D01*
X64085714Y-59727380D02*
X64085714Y-59203571D01*
X64133333Y-59108333D01*
X64228571Y-59060714D01*
X64419047Y-59060714D01*
X64514285Y-59108333D01*
X64085714Y-59679761D02*
X64180952Y-59727380D01*
X64419047Y-59727380D01*
X64514285Y-59679761D01*
X64561904Y-59584523D01*
X64561904Y-59489285D01*
X64514285Y-59394047D01*
X64419047Y-59346428D01*
X64180952Y-59346428D01*
X64085714Y-59298809D01*
X63609523Y-59727380D02*
X63609523Y-58727380D01*
X63609523Y-59108333D02*
X63514285Y-59060714D01*
X63323809Y-59060714D01*
X63228571Y-59108333D01*
X63180952Y-59155952D01*
X63133333Y-59251190D01*
X63133333Y-59536904D01*
X63180952Y-59632142D01*
X63228571Y-59679761D01*
X63323809Y-59727380D01*
X63514285Y-59727380D01*
X63609523Y-59679761D01*
X62657142Y-59679761D02*
X62657142Y-59727380D01*
X62704761Y-59822619D01*
X62752380Y-59870238D01*
X61514285Y-59679761D02*
X61371428Y-59727380D01*
X61133333Y-59727380D01*
X61038095Y-59679761D01*
X60990476Y-59632142D01*
X60942857Y-59536904D01*
X60942857Y-59441666D01*
X60990476Y-59346428D01*
X61038095Y-59298809D01*
X61133333Y-59251190D01*
X61323809Y-59203571D01*
X61419047Y-59155952D01*
X61466666Y-59108333D01*
X61514285Y-59013095D01*
X61514285Y-58917857D01*
X61466666Y-58822619D01*
X61419047Y-58775000D01*
X61323809Y-58727380D01*
X61085714Y-58727380D01*
X60942857Y-58775000D01*
X60657142Y-59060714D02*
X60276190Y-59060714D01*
X60514285Y-58727380D02*
X60514285Y-59584523D01*
X60466666Y-59679761D01*
X60371428Y-59727380D01*
X60276190Y-59727380D01*
X59514285Y-59727380D02*
X59514285Y-59203571D01*
X59561904Y-59108333D01*
X59657142Y-59060714D01*
X59847619Y-59060714D01*
X59942857Y-59108333D01*
X59514285Y-59679761D02*
X59609523Y-59727380D01*
X59847619Y-59727380D01*
X59942857Y-59679761D01*
X59990476Y-59584523D01*
X59990476Y-59489285D01*
X59942857Y-59394047D01*
X59847619Y-59346428D01*
X59609523Y-59346428D01*
X59514285Y-59298809D01*
X59038095Y-59060714D02*
X59038095Y-59727380D01*
X59038095Y-59155952D02*
X58990476Y-59108333D01*
X58895238Y-59060714D01*
X58752380Y-59060714D01*
X58657142Y-59108333D01*
X58609523Y-59203571D01*
X58609523Y-59727380D01*
X58276190Y-59060714D02*
X57895238Y-59060714D01*
X58133333Y-59727380D02*
X58133333Y-58870238D01*
X58085714Y-58775000D01*
X57990476Y-58727380D01*
X57895238Y-58727380D01*
X57419047Y-59727380D02*
X57514285Y-59679761D01*
X57561904Y-59632142D01*
X57609523Y-59536904D01*
X57609523Y-59251190D01*
X57561904Y-59155952D01*
X57514285Y-59108333D01*
X57419047Y-59060714D01*
X57276190Y-59060714D01*
X57180952Y-59108333D01*
X57133333Y-59155952D01*
X57085714Y-59251190D01*
X57085714Y-59536904D01*
X57133333Y-59632142D01*
X57180952Y-59679761D01*
X57276190Y-59727380D01*
X57419047Y-59727380D01*
X56657142Y-59727380D02*
X56657142Y-59060714D01*
X56657142Y-59251190D02*
X56609523Y-59155952D01*
X56561904Y-59108333D01*
X56466666Y-59060714D01*
X56371428Y-59060714D01*
X55609523Y-59727380D02*
X55609523Y-58727380D01*
X55609523Y-59679761D02*
X55704761Y-59727380D01*
X55895238Y-59727380D01*
X55990476Y-59679761D01*
X56038095Y-59632142D01*
X56085714Y-59536904D01*
X56085714Y-59251190D01*
X56038095Y-59155952D01*
X55990476Y-59108333D01*
X55895238Y-59060714D01*
X55704761Y-59060714D01*
X55609523Y-59108333D01*
X54371428Y-58727380D02*
X54371428Y-59536904D01*
X54323809Y-59632142D01*
X54276190Y-59679761D01*
X54180952Y-59727380D01*
X53990476Y-59727380D01*
X53895238Y-59679761D01*
X53847619Y-59632142D01*
X53800000Y-59536904D01*
X53800000Y-58727380D01*
X53323809Y-59060714D02*
X53323809Y-59727380D01*
X53323809Y-59155952D02*
X53276190Y-59108333D01*
X53180952Y-59060714D01*
X53038095Y-59060714D01*
X52942857Y-59108333D01*
X52895238Y-59203571D01*
X52895238Y-59727380D01*
X52419047Y-59727380D02*
X52419047Y-59060714D01*
X52419047Y-58727380D02*
X52466666Y-58775000D01*
X52419047Y-58822619D01*
X52371428Y-58775000D01*
X52419047Y-58727380D01*
X52419047Y-58822619D01*
X52038095Y-59060714D02*
X51800000Y-59727380D01*
X51561904Y-59060714D01*
X50800000Y-59679761D02*
X50895238Y-59727380D01*
X51085714Y-59727380D01*
X51180952Y-59679761D01*
X51228571Y-59584523D01*
X51228571Y-59203571D01*
X51180952Y-59108333D01*
X51085714Y-59060714D01*
X50895238Y-59060714D01*
X50800000Y-59108333D01*
X50752380Y-59203571D01*
X50752380Y-59298809D01*
X51228571Y-59394047D01*
X50323809Y-59727380D02*
X50323809Y-59060714D01*
X50323809Y-59251190D02*
X50276190Y-59155952D01*
X50228571Y-59108333D01*
X50133333Y-59060714D01*
X50038095Y-59060714D01*
X49752380Y-59679761D02*
X49657142Y-59727380D01*
X49466666Y-59727380D01*
X49371428Y-59679761D01*
X49323809Y-59584523D01*
X49323809Y-59536904D01*
X49371428Y-59441666D01*
X49466666Y-59394047D01*
X49609523Y-59394047D01*
X49704761Y-59346428D01*
X49752380Y-59251190D01*
X49752380Y-59203571D01*
X49704761Y-59108333D01*
X49609523Y-59060714D01*
X49466666Y-59060714D01*
X49371428Y-59108333D01*
X48895238Y-59727380D02*
X48895238Y-59060714D01*
X48895238Y-58727380D02*
X48942857Y-58775000D01*
X48895238Y-58822619D01*
X48847619Y-58775000D01*
X48895238Y-58727380D01*
X48895238Y-58822619D01*
X48561904Y-59060714D02*
X48180952Y-59060714D01*
X48419047Y-58727380D02*
X48419047Y-59584523D01*
X48371428Y-59679761D01*
X48276190Y-59727380D01*
X48180952Y-59727380D01*
X47942857Y-59060714D02*
X47704761Y-59727380D01*
X47466666Y-59060714D02*
X47704761Y-59727380D01*
X47800000Y-59965476D01*
X47847619Y-60013095D01*
X47942857Y-60060714D01*
X65990476Y-60710714D02*
X65752380Y-61377380D01*
X65514285Y-60710714D01*
X64609523Y-61377380D02*
X65180952Y-61377380D01*
X64895238Y-61377380D02*
X64895238Y-60377380D01*
X64990476Y-60520238D01*
X65085714Y-60615476D01*
X65180952Y-60663095D01*
X64180952Y-61282142D02*
X64133333Y-61329761D01*
X64180952Y-61377380D01*
X64228571Y-61329761D01*
X64180952Y-61282142D01*
X64180952Y-61377380D01*
X64180952Y-60758333D02*
X64133333Y-60805952D01*
X64180952Y-60853571D01*
X64228571Y-60805952D01*
X64180952Y-60758333D01*
X64180952Y-60853571D01*
X62752380Y-60377380D02*
X62657142Y-60377380D01*
X62561904Y-60425000D01*
X62514285Y-60472619D01*
X62466666Y-60567857D01*
X62419047Y-60758333D01*
X62419047Y-60996428D01*
X62466666Y-61186904D01*
X62514285Y-61282142D01*
X62561904Y-61329761D01*
X62657142Y-61377380D01*
X62752380Y-61377380D01*
X62847619Y-61329761D01*
X62895238Y-61282142D01*
X62942857Y-61186904D01*
X62990476Y-60996428D01*
X62990476Y-60758333D01*
X62942857Y-60567857D01*
X62895238Y-60472619D01*
X62847619Y-60425000D01*
X62752380Y-60377380D01*
X61561904Y-60710714D02*
X61561904Y-61377380D01*
X61800000Y-60329761D02*
X62038095Y-61044047D01*
X61419047Y-61044047D01*
X60323809Y-60329761D02*
X61180952Y-61615476D01*
X59466666Y-61377380D02*
X60038095Y-61377380D01*
X59752380Y-61377380D02*
X59752380Y-60377380D01*
X59847619Y-60520238D01*
X59942857Y-60615476D01*
X60038095Y-60663095D01*
X59085714Y-60472619D02*
X59038095Y-60425000D01*
X58942857Y-60377380D01*
X58704761Y-60377380D01*
X58609523Y-60425000D01*
X58561904Y-60472619D01*
X58514285Y-60567857D01*
X58514285Y-60663095D01*
X58561904Y-60805952D01*
X59133333Y-61377380D01*
X58514285Y-61377380D01*
X57371428Y-60329761D02*
X58228571Y-61615476D01*
X57085714Y-60472619D02*
X57038095Y-60425000D01*
X56942857Y-60377380D01*
X56704761Y-60377380D01*
X56609523Y-60425000D01*
X56561904Y-60472619D01*
X56514285Y-60567857D01*
X56514285Y-60663095D01*
X56561904Y-60805952D01*
X57133333Y-61377380D01*
X56514285Y-61377380D01*
X55895238Y-60377380D02*
X55800000Y-60377380D01*
X55704761Y-60425000D01*
X55657142Y-60472619D01*
X55609523Y-60567857D01*
X55561904Y-60758333D01*
X55561904Y-60996428D01*
X55609523Y-61186904D01*
X55657142Y-61282142D01*
X55704761Y-61329761D01*
X55800000Y-61377380D01*
X55895238Y-61377380D01*
X55990476Y-61329761D01*
X56038095Y-61282142D01*
X56085714Y-61186904D01*
X56133333Y-60996428D01*
X56133333Y-60758333D01*
X56085714Y-60567857D01*
X56038095Y-60472619D01*
X55990476Y-60425000D01*
X55895238Y-60377380D01*
X55180952Y-60472619D02*
X55133333Y-60425000D01*
X55038095Y-60377380D01*
X54800000Y-60377380D01*
X54704761Y-60425000D01*
X54657142Y-60472619D01*
X54609523Y-60567857D01*
X54609523Y-60663095D01*
X54657142Y-60805952D01*
X55228571Y-61377380D01*
X54609523Y-61377380D01*
X53657142Y-61377380D02*
X54228571Y-61377380D01*
X53942857Y-61377380D02*
X53942857Y-60377380D01*
X54038095Y-60520238D01*
X54133333Y-60615476D01*
X54228571Y-60663095D01*
X65990476Y-62360714D02*
X65752380Y-63027380D01*
X65514285Y-62360714D01*
X65180952Y-62122619D02*
X65133333Y-62075000D01*
X65038095Y-62027380D01*
X64800000Y-62027380D01*
X64704761Y-62075000D01*
X64657142Y-62122619D01*
X64609523Y-62217857D01*
X64609523Y-62313095D01*
X64657142Y-62455952D01*
X65228571Y-63027380D01*
X64609523Y-63027380D01*
X64180952Y-62932142D02*
X64133333Y-62979761D01*
X64180952Y-63027380D01*
X64228571Y-62979761D01*
X64180952Y-62932142D01*
X64180952Y-63027380D01*
X64180952Y-62408333D02*
X64133333Y-62455952D01*
X64180952Y-62503571D01*
X64228571Y-62455952D01*
X64180952Y-62408333D01*
X64180952Y-62503571D01*
X62752380Y-62027380D02*
X62657142Y-62027380D01*
X62561904Y-62075000D01*
X62514285Y-62122619D01*
X62466666Y-62217857D01*
X62419047Y-62408333D01*
X62419047Y-62646428D01*
X62466666Y-62836904D01*
X62514285Y-62932142D01*
X62561904Y-62979761D01*
X62657142Y-63027380D01*
X62752380Y-63027380D01*
X62847619Y-62979761D01*
X62895238Y-62932142D01*
X62942857Y-62836904D01*
X62990476Y-62646428D01*
X62990476Y-62408333D01*
X62942857Y-62217857D01*
X62895238Y-62122619D01*
X62847619Y-62075000D01*
X62752380Y-62027380D01*
X62085714Y-62027380D02*
X61466666Y-62027380D01*
X61800000Y-62408333D01*
X61657142Y-62408333D01*
X61561904Y-62455952D01*
X61514285Y-62503571D01*
X61466666Y-62598809D01*
X61466666Y-62836904D01*
X61514285Y-62932142D01*
X61561904Y-62979761D01*
X61657142Y-63027380D01*
X61942857Y-63027380D01*
X62038095Y-62979761D01*
X62085714Y-62932142D01*
X60323809Y-61979761D02*
X61180952Y-63265476D01*
X59800000Y-62027380D02*
X59704761Y-62027380D01*
X59609523Y-62075000D01*
X59561904Y-62122619D01*
X59514285Y-62217857D01*
X59466666Y-62408333D01*
X59466666Y-62646428D01*
X59514285Y-62836904D01*
X59561904Y-62932142D01*
X59609523Y-62979761D01*
X59704761Y-63027380D01*
X59800000Y-63027380D01*
X59895238Y-62979761D01*
X59942857Y-62932142D01*
X59990476Y-62836904D01*
X60038095Y-62646428D01*
X60038095Y-62408333D01*
X59990476Y-62217857D01*
X59942857Y-62122619D01*
X59895238Y-62075000D01*
X59800000Y-62027380D01*
X58561904Y-62027380D02*
X59038095Y-62027380D01*
X59085714Y-62503571D01*
X59038095Y-62455952D01*
X58942857Y-62408333D01*
X58704761Y-62408333D01*
X58609523Y-62455952D01*
X58561904Y-62503571D01*
X58514285Y-62598809D01*
X58514285Y-62836904D01*
X58561904Y-62932142D01*
X58609523Y-62979761D01*
X58704761Y-63027380D01*
X58942857Y-63027380D01*
X59038095Y-62979761D01*
X59085714Y-62932142D01*
X57371428Y-61979761D02*
X58228571Y-63265476D01*
X57085714Y-62122619D02*
X57038095Y-62075000D01*
X56942857Y-62027380D01*
X56704761Y-62027380D01*
X56609523Y-62075000D01*
X56561904Y-62122619D01*
X56514285Y-62217857D01*
X56514285Y-62313095D01*
X56561904Y-62455952D01*
X57133333Y-63027380D01*
X56514285Y-63027380D01*
X55895238Y-62027380D02*
X55800000Y-62027380D01*
X55704761Y-62075000D01*
X55657142Y-62122619D01*
X55609523Y-62217857D01*
X55561904Y-62408333D01*
X55561904Y-62646428D01*
X55609523Y-62836904D01*
X55657142Y-62932142D01*
X55704761Y-62979761D01*
X55800000Y-63027380D01*
X55895238Y-63027380D01*
X55990476Y-62979761D01*
X56038095Y-62932142D01*
X56085714Y-62836904D01*
X56133333Y-62646428D01*
X56133333Y-62408333D01*
X56085714Y-62217857D01*
X56038095Y-62122619D01*
X55990476Y-62075000D01*
X55895238Y-62027380D01*
X55180952Y-62122619D02*
X55133333Y-62075000D01*
X55038095Y-62027380D01*
X54800000Y-62027380D01*
X54704761Y-62075000D01*
X54657142Y-62122619D01*
X54609523Y-62217857D01*
X54609523Y-62313095D01*
X54657142Y-62455952D01*
X55228571Y-63027380D01*
X54609523Y-63027380D01*
X54228571Y-62122619D02*
X54180952Y-62075000D01*
X54085714Y-62027380D01*
X53847619Y-62027380D01*
X53752380Y-62075000D01*
X53704761Y-62122619D01*
X53657142Y-62217857D01*
X53657142Y-62313095D01*
X53704761Y-62455952D01*
X54276190Y-63027380D01*
X53657142Y-63027380D01*
D11*
X54120000Y-27850000D02*
X56525000Y-27850000D01*
X42975000Y-27850000D02*
X45380000Y-27850000D01*
X44340000Y-21410000D02*
X55160000Y-21410000D01*
X42975000Y-23530000D02*
X42975000Y-27850000D01*
X56525000Y-27850000D02*
X56525000Y-23530000D01*
X45000000Y-29000000D02*
X45600000Y-29000000D01*
X45600000Y-29000000D02*
X45300000Y-28500000D01*
X45300000Y-28500000D02*
X45000000Y-29000000D01*
D12*
X50233333Y-24152380D02*
X50233333Y-24866666D01*
X50280952Y-25009523D01*
X50376190Y-25104761D01*
X50519047Y-25152380D01*
X50614285Y-25152380D01*
X49233333Y-25152380D02*
X49804761Y-25152380D01*
X49519047Y-25152380D02*
X49519047Y-24152380D01*
X49614285Y-24295238D01*
X49709523Y-24390476D01*
X49804761Y-24438095D01*
M02*
