G04 #@! TF.GenerationSoftware,KiCad,Pcbnew,(5.1.9-0-10_14)*
G04 #@! TF.CreationDate,2022-05-10T10:51:03-07:00*
G04 #@! TF.ProjectId,LED_array,4c45445f-6172-4726-9179-2e6b69636164,rev?*
G04 #@! TF.SameCoordinates,Original*
G04 #@! TF.FileFunction,Soldermask,Top*
G04 #@! TF.FilePolarity,Negative*
%FSLAX46Y46*%
G04 Gerber Fmt 4.6, Leading zero omitted, Abs format (unit mm)*
G04 Created by KiCad (PCBNEW (5.1.9-0-10_14)) date 2022-05-10 10:51:03*
%MOMM*%
%LPD*%
G01*
G04 APERTURE LIST*
%ADD10R,0.450000X0.650000*%
%ADD11R,0.450000X0.850000*%
%ADD12C,2.000000*%
%ADD13R,0.350000X0.700000*%
%ADD14C,0.650000*%
%ADD15O,1.000000X2.000000*%
G04 APERTURE END LIST*
D10*
X69900000Y-65000000D03*
X68300000Y-65000000D03*
D11*
X69100000Y-64900000D03*
D10*
X69900000Y-63600000D03*
X68300000Y-63600000D03*
X69100000Y-63600000D03*
X50100000Y-35000000D03*
X51700000Y-35000000D03*
D11*
X50900000Y-35100000D03*
D10*
X50100000Y-36400000D03*
X51700000Y-36400000D03*
X50900000Y-36400000D03*
X52700000Y-35000000D03*
X54300000Y-35000000D03*
D11*
X53500000Y-35100000D03*
D10*
X52700000Y-36400000D03*
X54300000Y-36400000D03*
X53500000Y-36400000D03*
X55300000Y-35000000D03*
X56900000Y-35000000D03*
D11*
X56100000Y-35100000D03*
D10*
X55300000Y-36400000D03*
X56900000Y-36400000D03*
X56100000Y-36400000D03*
X57900000Y-35000000D03*
X59500000Y-35000000D03*
D11*
X58700000Y-35100000D03*
D10*
X57900000Y-36400000D03*
X59500000Y-36400000D03*
X58700000Y-36400000D03*
X60500000Y-35000000D03*
X62100000Y-35000000D03*
D11*
X61300000Y-35100000D03*
D10*
X60500000Y-36400000D03*
X62100000Y-36400000D03*
X61300000Y-36400000D03*
X63100000Y-35000000D03*
X64700000Y-35000000D03*
D11*
X63900000Y-35100000D03*
D10*
X63100000Y-36400000D03*
X64700000Y-36400000D03*
X63900000Y-36400000D03*
X65700000Y-35000000D03*
X67300000Y-35000000D03*
D11*
X66500000Y-35100000D03*
D10*
X65700000Y-36400000D03*
X67300000Y-36400000D03*
X66500000Y-36400000D03*
X68300000Y-35000000D03*
X69900000Y-35000000D03*
D11*
X69100000Y-35100000D03*
D10*
X68300000Y-36400000D03*
X69900000Y-36400000D03*
X69100000Y-36400000D03*
X69900000Y-39000000D03*
X68300000Y-39000000D03*
D11*
X69100000Y-38900000D03*
D10*
X69900000Y-37600000D03*
X68300000Y-37600000D03*
X69100000Y-37600000D03*
X67300000Y-39000000D03*
X65700000Y-39000000D03*
D11*
X66500000Y-38900000D03*
D10*
X67300000Y-37600000D03*
X65700000Y-37600000D03*
X66500000Y-37600000D03*
X64700000Y-39000000D03*
X63100000Y-39000000D03*
D11*
X63900000Y-38900000D03*
D10*
X64700000Y-37600000D03*
X63100000Y-37600000D03*
X63900000Y-37600000D03*
X62100000Y-39000000D03*
X60500000Y-39000000D03*
D11*
X61300000Y-38900000D03*
D10*
X62100000Y-37600000D03*
X60500000Y-37600000D03*
X61300000Y-37600000D03*
X59500000Y-39000000D03*
X57900000Y-39000000D03*
D11*
X58700000Y-38900000D03*
D10*
X59500000Y-37600000D03*
X57900000Y-37600000D03*
X58700000Y-37600000D03*
X56900000Y-39000000D03*
X55300000Y-39000000D03*
D11*
X56100000Y-38900000D03*
D10*
X56900000Y-37600000D03*
X55300000Y-37600000D03*
X56100000Y-37600000D03*
X54300000Y-39000000D03*
X52700000Y-39000000D03*
D11*
X53500000Y-38900000D03*
D10*
X54300000Y-37600000D03*
X52700000Y-37600000D03*
X53500000Y-37600000D03*
X51700000Y-39000000D03*
X50100000Y-39000000D03*
D11*
X50900000Y-38900000D03*
D10*
X51700000Y-37600000D03*
X50100000Y-37600000D03*
X50900000Y-37600000D03*
X44900000Y-40200000D03*
X46500000Y-40200000D03*
D11*
X45700000Y-40300000D03*
D10*
X44900000Y-41600000D03*
X46500000Y-41600000D03*
X45700000Y-41600000D03*
X47500000Y-40200000D03*
X49100000Y-40200000D03*
D11*
X48300000Y-40300000D03*
D10*
X47500000Y-41600000D03*
X49100000Y-41600000D03*
X48300000Y-41600000D03*
X50100000Y-40200000D03*
X51700000Y-40200000D03*
D11*
X50900000Y-40300000D03*
D10*
X50100000Y-41600000D03*
X51700000Y-41600000D03*
X50900000Y-41600000D03*
X52700000Y-40200000D03*
X54300000Y-40200000D03*
D11*
X53500000Y-40300000D03*
D10*
X52700000Y-41600000D03*
X54300000Y-41600000D03*
X53500000Y-41600000D03*
X55300000Y-40200000D03*
X56900000Y-40200000D03*
D11*
X56100000Y-40300000D03*
D10*
X55300000Y-41600000D03*
X56900000Y-41600000D03*
X56100000Y-41600000D03*
X57900000Y-40200000D03*
X59500000Y-40200000D03*
D11*
X58700000Y-40300000D03*
D10*
X57900000Y-41600000D03*
X59500000Y-41600000D03*
X58700000Y-41600000D03*
X60500000Y-40200000D03*
X62100000Y-40200000D03*
D11*
X61300000Y-40300000D03*
D10*
X60500000Y-41600000D03*
X62100000Y-41600000D03*
X61300000Y-41600000D03*
X63100000Y-40200000D03*
X64700000Y-40200000D03*
D11*
X63900000Y-40300000D03*
D10*
X63100000Y-41600000D03*
X64700000Y-41600000D03*
X63900000Y-41600000D03*
X65700000Y-40200000D03*
X67300000Y-40200000D03*
D11*
X66500000Y-40300000D03*
D10*
X65700000Y-41600000D03*
X67300000Y-41600000D03*
X66500000Y-41600000D03*
X68300000Y-40200000D03*
X69900000Y-40200000D03*
D11*
X69100000Y-40300000D03*
D10*
X68300000Y-41600000D03*
X69900000Y-41600000D03*
X69100000Y-41600000D03*
X70900000Y-40200000D03*
X72500000Y-40200000D03*
D11*
X71700000Y-40300000D03*
D10*
X70900000Y-41600000D03*
X72500000Y-41600000D03*
X71700000Y-41600000D03*
X73500000Y-40200000D03*
X75100000Y-40200000D03*
D11*
X74300000Y-40300000D03*
D10*
X73500000Y-41600000D03*
X75100000Y-41600000D03*
X74300000Y-41600000D03*
X75100000Y-44200000D03*
X73500000Y-44200000D03*
D11*
X74300000Y-44100000D03*
D10*
X75100000Y-42800000D03*
X73500000Y-42800000D03*
X74300000Y-42800000D03*
X72500000Y-44200000D03*
X70900000Y-44200000D03*
D11*
X71700000Y-44100000D03*
D10*
X72500000Y-42800000D03*
X70900000Y-42800000D03*
X71700000Y-42800000D03*
X69900000Y-44200000D03*
X68300000Y-44200000D03*
D11*
X69100000Y-44100000D03*
D10*
X69900000Y-42800000D03*
X68300000Y-42800000D03*
X69100000Y-42800000D03*
X67300000Y-44200000D03*
X65700000Y-44200000D03*
D11*
X66500000Y-44100000D03*
D10*
X67300000Y-42800000D03*
X65700000Y-42800000D03*
X66500000Y-42800000D03*
X64700000Y-44200000D03*
X63100000Y-44200000D03*
D11*
X63900000Y-44100000D03*
D10*
X64700000Y-42800000D03*
X63100000Y-42800000D03*
X63900000Y-42800000D03*
X62100000Y-44200000D03*
X60500000Y-44200000D03*
D11*
X61300000Y-44100000D03*
D10*
X62100000Y-42800000D03*
X60500000Y-42800000D03*
X61300000Y-42800000D03*
X59500000Y-44200000D03*
X57900000Y-44200000D03*
D11*
X58700000Y-44100000D03*
D10*
X59500000Y-42800000D03*
X57900000Y-42800000D03*
X58700000Y-42800000D03*
X56900000Y-44200000D03*
X55300000Y-44200000D03*
D11*
X56100000Y-44100000D03*
D10*
X56900000Y-42800000D03*
X55300000Y-42800000D03*
X56100000Y-42800000D03*
X54300000Y-44200000D03*
X52700000Y-44200000D03*
D11*
X53500000Y-44100000D03*
D10*
X54300000Y-42800000D03*
X52700000Y-42800000D03*
X53500000Y-42800000D03*
X51700000Y-44200000D03*
X50100000Y-44200000D03*
D11*
X50900000Y-44100000D03*
D10*
X51700000Y-42800000D03*
X50100000Y-42800000D03*
X50900000Y-42800000D03*
X49100000Y-44200000D03*
X47500000Y-44200000D03*
D11*
X48300000Y-44100000D03*
D10*
X49100000Y-42800000D03*
X47500000Y-42800000D03*
X48300000Y-42800000D03*
X46500000Y-44200000D03*
X44900000Y-44200000D03*
D11*
X45700000Y-44100000D03*
D10*
X46500000Y-42800000D03*
X44900000Y-42800000D03*
X45700000Y-42800000D03*
X44900000Y-45400000D03*
X46500000Y-45400000D03*
D11*
X45700000Y-45500000D03*
D10*
X44900000Y-46800000D03*
X46500000Y-46800000D03*
X45700000Y-46800000D03*
X47500000Y-45400000D03*
X49100000Y-45400000D03*
D11*
X48300000Y-45500000D03*
D10*
X47500000Y-46800000D03*
X49100000Y-46800000D03*
X48300000Y-46800000D03*
X50100000Y-45400000D03*
X51700000Y-45400000D03*
D11*
X50900000Y-45500000D03*
D10*
X50100000Y-46800000D03*
X51700000Y-46800000D03*
X50900000Y-46800000D03*
X52700000Y-45400000D03*
X54300000Y-45400000D03*
D11*
X53500000Y-45500000D03*
D10*
X52700000Y-46800000D03*
X54300000Y-46800000D03*
X53500000Y-46800000D03*
X55300000Y-45400000D03*
X56900000Y-45400000D03*
D11*
X56100000Y-45500000D03*
D10*
X55300000Y-46800000D03*
X56900000Y-46800000D03*
X56100000Y-46800000D03*
X57900000Y-45400000D03*
X59500000Y-45400000D03*
D11*
X58700000Y-45500000D03*
D10*
X57900000Y-46800000D03*
X59500000Y-46800000D03*
X58700000Y-46800000D03*
X60500000Y-45400000D03*
X62100000Y-45400000D03*
D11*
X61300000Y-45500000D03*
D10*
X60500000Y-46800000D03*
X62100000Y-46800000D03*
X61300000Y-46800000D03*
X63100000Y-45400000D03*
X64700000Y-45400000D03*
D11*
X63900000Y-45500000D03*
D10*
X63100000Y-46800000D03*
X64700000Y-46800000D03*
X63900000Y-46800000D03*
X65700000Y-45400000D03*
X67300000Y-45400000D03*
D11*
X66500000Y-45500000D03*
D10*
X65700000Y-46800000D03*
X67300000Y-46800000D03*
X66500000Y-46800000D03*
X68300000Y-45400000D03*
X69900000Y-45400000D03*
D11*
X69100000Y-45500000D03*
D10*
X68300000Y-46800000D03*
X69900000Y-46800000D03*
X69100000Y-46800000D03*
X70900000Y-45400000D03*
X72500000Y-45400000D03*
D11*
X71700000Y-45500000D03*
D10*
X70900000Y-46800000D03*
X72500000Y-46800000D03*
X71700000Y-46800000D03*
X73500000Y-45400000D03*
X75100000Y-45400000D03*
D11*
X74300000Y-45500000D03*
D10*
X73500000Y-46800000D03*
X75100000Y-46800000D03*
X74300000Y-46800000D03*
X75100000Y-49400000D03*
X73500000Y-49400000D03*
D11*
X74300000Y-49300000D03*
D10*
X75100000Y-48000000D03*
X73500000Y-48000000D03*
X74300000Y-48000000D03*
X72500000Y-49400000D03*
X70900000Y-49400000D03*
D11*
X71700000Y-49300000D03*
D10*
X72500000Y-48000000D03*
X70900000Y-48000000D03*
X71700000Y-48000000D03*
X69900000Y-49400000D03*
X68300000Y-49400000D03*
D11*
X69100000Y-49300000D03*
D10*
X69900000Y-48000000D03*
X68300000Y-48000000D03*
X69100000Y-48000000D03*
X67300000Y-49400000D03*
X65700000Y-49400000D03*
D11*
X66500000Y-49300000D03*
D10*
X67300000Y-48000000D03*
X65700000Y-48000000D03*
X66500000Y-48000000D03*
X64700000Y-49400000D03*
X63100000Y-49400000D03*
D11*
X63900000Y-49300000D03*
D10*
X64700000Y-48000000D03*
X63100000Y-48000000D03*
X63900000Y-48000000D03*
X62100000Y-49400000D03*
X60500000Y-49400000D03*
D11*
X61300000Y-49300000D03*
D10*
X62100000Y-48000000D03*
X60500000Y-48000000D03*
X61300000Y-48000000D03*
X59500000Y-49400000D03*
X57900000Y-49400000D03*
D11*
X58700000Y-49300000D03*
D10*
X59500000Y-48000000D03*
X57900000Y-48000000D03*
X58700000Y-48000000D03*
X56900000Y-49400000D03*
X55300000Y-49400000D03*
D11*
X56100000Y-49300000D03*
D10*
X56900000Y-48000000D03*
X55300000Y-48000000D03*
X56100000Y-48000000D03*
X54300000Y-49400000D03*
X52700000Y-49400000D03*
D11*
X53500000Y-49300000D03*
D10*
X54300000Y-48000000D03*
X52700000Y-48000000D03*
X53500000Y-48000000D03*
X51700000Y-49400000D03*
X50100000Y-49400000D03*
D11*
X50900000Y-49300000D03*
D10*
X51700000Y-48000000D03*
X50100000Y-48000000D03*
X50900000Y-48000000D03*
X49100000Y-49400000D03*
X47500000Y-49400000D03*
D11*
X48300000Y-49300000D03*
D10*
X49100000Y-48000000D03*
X47500000Y-48000000D03*
X48300000Y-48000000D03*
X46500000Y-49400000D03*
X44900000Y-49400000D03*
D11*
X45700000Y-49300000D03*
D10*
X46500000Y-48000000D03*
X44900000Y-48000000D03*
X45700000Y-48000000D03*
X44900000Y-50600000D03*
X46500000Y-50600000D03*
D11*
X45700000Y-50700000D03*
D10*
X44900000Y-52000000D03*
X46500000Y-52000000D03*
X45700000Y-52000000D03*
X47500000Y-50600000D03*
X49100000Y-50600000D03*
D11*
X48300000Y-50700000D03*
D10*
X47500000Y-52000000D03*
X49100000Y-52000000D03*
X48300000Y-52000000D03*
X50100000Y-50600000D03*
X51700000Y-50600000D03*
D11*
X50900000Y-50700000D03*
D10*
X50100000Y-52000000D03*
X51700000Y-52000000D03*
X50900000Y-52000000D03*
X52700000Y-50600000D03*
X54300000Y-50600000D03*
D11*
X53500000Y-50700000D03*
D10*
X52700000Y-52000000D03*
X54300000Y-52000000D03*
X53500000Y-52000000D03*
X55300000Y-50600000D03*
X56900000Y-50600000D03*
D11*
X56100000Y-50700000D03*
D10*
X55300000Y-52000000D03*
X56900000Y-52000000D03*
X56100000Y-52000000D03*
X57900000Y-50600000D03*
X59500000Y-50600000D03*
D11*
X58700000Y-50700000D03*
D10*
X57900000Y-52000000D03*
X59500000Y-52000000D03*
X58700000Y-52000000D03*
X60500000Y-50600000D03*
X62100000Y-50600000D03*
D11*
X61300000Y-50700000D03*
D10*
X60500000Y-52000000D03*
X62100000Y-52000000D03*
X61300000Y-52000000D03*
X63100000Y-50600000D03*
X64700000Y-50600000D03*
D11*
X63900000Y-50700000D03*
D10*
X63100000Y-52000000D03*
X64700000Y-52000000D03*
X63900000Y-52000000D03*
X65700000Y-50600000D03*
X67300000Y-50600000D03*
D11*
X66500000Y-50700000D03*
D10*
X65700000Y-52000000D03*
X67300000Y-52000000D03*
X66500000Y-52000000D03*
X68300000Y-50600000D03*
X69900000Y-50600000D03*
D11*
X69100000Y-50700000D03*
D10*
X68300000Y-52000000D03*
X69900000Y-52000000D03*
X69100000Y-52000000D03*
X70900000Y-50600000D03*
X72500000Y-50600000D03*
D11*
X71700000Y-50700000D03*
D10*
X70900000Y-52000000D03*
X72500000Y-52000000D03*
X71700000Y-52000000D03*
X73500000Y-50600000D03*
X75100000Y-50600000D03*
D11*
X74300000Y-50700000D03*
D10*
X73500000Y-52000000D03*
X75100000Y-52000000D03*
X74300000Y-52000000D03*
X75100000Y-54600000D03*
X73500000Y-54600000D03*
D11*
X74300000Y-54500000D03*
D10*
X75100000Y-53200000D03*
X73500000Y-53200000D03*
X74300000Y-53200000D03*
X72500000Y-54600000D03*
X70900000Y-54600000D03*
D11*
X71700000Y-54500000D03*
D10*
X72500000Y-53200000D03*
X70900000Y-53200000D03*
X71700000Y-53200000D03*
X69900000Y-54600000D03*
X68300000Y-54600000D03*
D11*
X69100000Y-54500000D03*
D10*
X69900000Y-53200000D03*
X68300000Y-53200000D03*
X69100000Y-53200000D03*
X67300000Y-54600000D03*
X65700000Y-54600000D03*
D11*
X66500000Y-54500000D03*
D10*
X67300000Y-53200000D03*
X65700000Y-53200000D03*
X66500000Y-53200000D03*
X64700000Y-54600000D03*
X63100000Y-54600000D03*
D11*
X63900000Y-54500000D03*
D10*
X64700000Y-53200000D03*
X63100000Y-53200000D03*
X63900000Y-53200000D03*
X62100000Y-54600000D03*
X60500000Y-54600000D03*
D11*
X61300000Y-54500000D03*
D10*
X62100000Y-53200000D03*
X60500000Y-53200000D03*
X61300000Y-53200000D03*
X59500000Y-54600000D03*
X57900000Y-54600000D03*
D11*
X58700000Y-54500000D03*
D10*
X59500000Y-53200000D03*
X57900000Y-53200000D03*
X58700000Y-53200000D03*
X56900000Y-54600000D03*
X55300000Y-54600000D03*
D11*
X56100000Y-54500000D03*
D10*
X56900000Y-53200000D03*
X55300000Y-53200000D03*
X56100000Y-53200000D03*
X54300000Y-54600000D03*
X52700000Y-54600000D03*
D11*
X53500000Y-54500000D03*
D10*
X54300000Y-53200000D03*
X52700000Y-53200000D03*
X53500000Y-53200000D03*
X51700000Y-54600000D03*
X50100000Y-54600000D03*
D11*
X50900000Y-54500000D03*
D10*
X51700000Y-53200000D03*
X50100000Y-53200000D03*
X50900000Y-53200000D03*
X49100000Y-54600000D03*
X47500000Y-54600000D03*
D11*
X48300000Y-54500000D03*
D10*
X49100000Y-53200000D03*
X47500000Y-53200000D03*
X48300000Y-53200000D03*
X46500000Y-54600000D03*
X44900000Y-54600000D03*
D11*
X45700000Y-54500000D03*
D10*
X46500000Y-53200000D03*
X44900000Y-53200000D03*
X45700000Y-53200000D03*
X44900000Y-55800000D03*
X46500000Y-55800000D03*
D11*
X45700000Y-55900000D03*
D10*
X44900000Y-57200000D03*
X46500000Y-57200000D03*
X45700000Y-57200000D03*
X47500000Y-55800000D03*
X49100000Y-55800000D03*
D11*
X48300000Y-55900000D03*
D10*
X47500000Y-57200000D03*
X49100000Y-57200000D03*
X48300000Y-57200000D03*
X50100000Y-55800000D03*
X51700000Y-55800000D03*
D11*
X50900000Y-55900000D03*
D10*
X50100000Y-57200000D03*
X51700000Y-57200000D03*
X50900000Y-57200000D03*
X52700000Y-55800000D03*
X54300000Y-55800000D03*
D11*
X53500000Y-55900000D03*
D10*
X52700000Y-57200000D03*
X54300000Y-57200000D03*
X53500000Y-57200000D03*
X55300000Y-55800000D03*
X56900000Y-55800000D03*
D11*
X56100000Y-55900000D03*
D10*
X55300000Y-57200000D03*
X56900000Y-57200000D03*
X56100000Y-57200000D03*
X57900000Y-55800000D03*
X59500000Y-55800000D03*
D11*
X58700000Y-55900000D03*
D10*
X57900000Y-57200000D03*
X59500000Y-57200000D03*
X58700000Y-57200000D03*
X60500000Y-55800000D03*
X62100000Y-55800000D03*
D11*
X61300000Y-55900000D03*
D10*
X60500000Y-57200000D03*
X62100000Y-57200000D03*
X61300000Y-57200000D03*
X63100000Y-55800000D03*
X64700000Y-55800000D03*
D11*
X63900000Y-55900000D03*
D10*
X63100000Y-57200000D03*
X64700000Y-57200000D03*
X63900000Y-57200000D03*
X65700000Y-55800000D03*
X67300000Y-55800000D03*
D11*
X66500000Y-55900000D03*
D10*
X65700000Y-57200000D03*
X67300000Y-57200000D03*
X66500000Y-57200000D03*
X68300000Y-55800000D03*
X69900000Y-55800000D03*
D11*
X69100000Y-55900000D03*
D10*
X68300000Y-57200000D03*
X69900000Y-57200000D03*
X69100000Y-57200000D03*
X70900000Y-55800000D03*
X72500000Y-55800000D03*
D11*
X71700000Y-55900000D03*
D10*
X70900000Y-57200000D03*
X72500000Y-57200000D03*
X71700000Y-57200000D03*
X73500000Y-55800000D03*
X75100000Y-55800000D03*
D11*
X74300000Y-55900000D03*
D10*
X73500000Y-57200000D03*
X75100000Y-57200000D03*
X74300000Y-57200000D03*
X75100000Y-59800000D03*
X73500000Y-59800000D03*
D11*
X74300000Y-59700000D03*
D10*
X75100000Y-58400000D03*
X73500000Y-58400000D03*
X74300000Y-58400000D03*
X72500000Y-59800000D03*
X70900000Y-59800000D03*
D11*
X71700000Y-59700000D03*
D10*
X72500000Y-58400000D03*
X70900000Y-58400000D03*
X71700000Y-58400000D03*
X69900000Y-59800000D03*
X68300000Y-59800000D03*
D11*
X69100000Y-59700000D03*
D10*
X69900000Y-58400000D03*
X68300000Y-58400000D03*
X69100000Y-58400000D03*
X67300000Y-59800000D03*
X65700000Y-59800000D03*
D11*
X66500000Y-59700000D03*
D10*
X67300000Y-58400000D03*
X65700000Y-58400000D03*
X66500000Y-58400000D03*
X64700000Y-59800000D03*
X63100000Y-59800000D03*
D11*
X63900000Y-59700000D03*
D10*
X64700000Y-58400000D03*
X63100000Y-58400000D03*
X63900000Y-58400000D03*
X62100000Y-59800000D03*
X60500000Y-59800000D03*
D11*
X61300000Y-59700000D03*
D10*
X62100000Y-58400000D03*
X60500000Y-58400000D03*
X61300000Y-58400000D03*
X59500000Y-59800000D03*
X57900000Y-59800000D03*
D11*
X58700000Y-59700000D03*
D10*
X59500000Y-58400000D03*
X57900000Y-58400000D03*
X58700000Y-58400000D03*
X56900000Y-59800000D03*
X55300000Y-59800000D03*
D11*
X56100000Y-59700000D03*
D10*
X56900000Y-58400000D03*
X55300000Y-58400000D03*
X56100000Y-58400000D03*
X54300000Y-59800000D03*
X52700000Y-59800000D03*
D11*
X53500000Y-59700000D03*
D10*
X54300000Y-58400000D03*
X52700000Y-58400000D03*
X53500000Y-58400000D03*
X51700000Y-59800000D03*
X50100000Y-59800000D03*
D11*
X50900000Y-59700000D03*
D10*
X51700000Y-58400000D03*
X50100000Y-58400000D03*
X50900000Y-58400000D03*
X49100000Y-59800000D03*
X47500000Y-59800000D03*
D11*
X48300000Y-59700000D03*
D10*
X49100000Y-58400000D03*
X47500000Y-58400000D03*
X48300000Y-58400000D03*
X46500000Y-59800000D03*
X44900000Y-59800000D03*
D11*
X45700000Y-59700000D03*
D10*
X46500000Y-58400000D03*
X44900000Y-58400000D03*
X45700000Y-58400000D03*
X50100000Y-61000000D03*
X51700000Y-61000000D03*
D11*
X50900000Y-61100000D03*
D10*
X50100000Y-62400000D03*
X51700000Y-62400000D03*
X50900000Y-62400000D03*
X52700000Y-61000000D03*
X54300000Y-61000000D03*
D11*
X53500000Y-61100000D03*
D10*
X52700000Y-62400000D03*
X54300000Y-62400000D03*
X53500000Y-62400000D03*
X55300000Y-61000000D03*
X56900000Y-61000000D03*
D11*
X56100000Y-61100000D03*
D10*
X55300000Y-62400000D03*
X56900000Y-62400000D03*
X56100000Y-62400000D03*
X57900000Y-61000000D03*
X59500000Y-61000000D03*
D11*
X58700000Y-61100000D03*
D10*
X57900000Y-62400000D03*
X59500000Y-62400000D03*
X58700000Y-62400000D03*
X60500000Y-61000000D03*
X62100000Y-61000000D03*
D11*
X61300000Y-61100000D03*
D10*
X60500000Y-62400000D03*
X62100000Y-62400000D03*
X61300000Y-62400000D03*
X63100000Y-61000000D03*
X64700000Y-61000000D03*
D11*
X63900000Y-61100000D03*
D10*
X63100000Y-62400000D03*
X64700000Y-62400000D03*
X63900000Y-62400000D03*
X65700000Y-61000000D03*
X67300000Y-61000000D03*
D11*
X66500000Y-61100000D03*
D10*
X65700000Y-62400000D03*
X67300000Y-62400000D03*
X66500000Y-62400000D03*
X68300000Y-61000000D03*
X69900000Y-61000000D03*
D11*
X69100000Y-61100000D03*
D10*
X68300000Y-62400000D03*
X69900000Y-62400000D03*
X69100000Y-62400000D03*
X67300000Y-65000000D03*
X65700000Y-65000000D03*
D11*
X66500000Y-64900000D03*
D10*
X67300000Y-63600000D03*
X65700000Y-63600000D03*
X66500000Y-63600000D03*
X64700000Y-65000000D03*
X63100000Y-65000000D03*
D11*
X63900000Y-64900000D03*
D10*
X64700000Y-63600000D03*
X63100000Y-63600000D03*
X63900000Y-63600000D03*
X62100000Y-65000000D03*
X60500000Y-65000000D03*
D11*
X61300000Y-64900000D03*
D10*
X62100000Y-63600000D03*
X60500000Y-63600000D03*
X61300000Y-63600000D03*
X59500000Y-65000000D03*
X57900000Y-65000000D03*
D11*
X58700000Y-64900000D03*
D10*
X59500000Y-63600000D03*
X57900000Y-63600000D03*
X58700000Y-63600000D03*
X56900000Y-65000000D03*
X55300000Y-65000000D03*
D11*
X56100000Y-64900000D03*
D10*
X56900000Y-63600000D03*
X55300000Y-63600000D03*
X56100000Y-63600000D03*
X54300000Y-65000000D03*
X52700000Y-65000000D03*
D11*
X53500000Y-64900000D03*
D10*
X54300000Y-63600000D03*
X52700000Y-63600000D03*
X53500000Y-63600000D03*
X51700000Y-65000000D03*
X50100000Y-65000000D03*
D11*
X50900000Y-64900000D03*
D10*
X51700000Y-63600000D03*
X50100000Y-63600000D03*
X50900000Y-63600000D03*
D12*
X78000000Y-50000000D03*
X42000000Y-50000000D03*
X60000000Y-68000000D03*
D13*
X66750000Y-28070000D03*
X66250000Y-28070000D03*
X65750000Y-28070000D03*
X65250000Y-28070000D03*
X64750000Y-28070000D03*
X64250000Y-28070000D03*
X63750000Y-28070000D03*
X63250000Y-28070000D03*
X62750000Y-28070000D03*
X62250000Y-28070000D03*
X61750000Y-28070000D03*
X61250000Y-28070000D03*
D14*
X60950000Y-26950000D03*
X61600000Y-26250000D03*
X62400000Y-26250000D03*
X62800000Y-26950000D03*
X63200000Y-26250000D03*
X63600000Y-26950000D03*
X64400000Y-26950000D03*
X64800000Y-26250000D03*
X65200000Y-26950000D03*
X65600000Y-26250000D03*
X66400000Y-26250000D03*
X67050000Y-26950000D03*
X60275000Y-26250000D03*
X67725000Y-26250000D03*
D15*
X68500000Y-27750000D03*
X59500000Y-27750000D03*
X68500000Y-22150000D03*
X59500000Y-22150000D03*
G36*
G01*
X52250001Y-24100000D02*
X50949999Y-24100000D01*
G75*
G02*
X50700000Y-23850001I0J249999D01*
G01*
X50700000Y-23199999D01*
G75*
G02*
X50949999Y-22950000I249999J0D01*
G01*
X52250001Y-22950000D01*
G75*
G02*
X52500000Y-23199999I0J-249999D01*
G01*
X52500000Y-23850001D01*
G75*
G02*
X52250001Y-24100000I-249999J0D01*
G01*
G37*
G36*
G01*
X52250001Y-27050000D02*
X50949999Y-27050000D01*
G75*
G02*
X50700000Y-26800001I0J249999D01*
G01*
X50700000Y-26149999D01*
G75*
G02*
X50949999Y-25900000I249999J0D01*
G01*
X52250001Y-25900000D01*
G75*
G02*
X52500000Y-26149999I0J-249999D01*
G01*
X52500000Y-26800001D01*
G75*
G02*
X52250001Y-27050000I-249999J0D01*
G01*
G37*
G36*
G01*
X76650001Y-24100000D02*
X75349999Y-24100000D01*
G75*
G02*
X75100000Y-23850001I0J249999D01*
G01*
X75100000Y-23199999D01*
G75*
G02*
X75349999Y-22950000I249999J0D01*
G01*
X76650001Y-22950000D01*
G75*
G02*
X76900000Y-23199999I0J-249999D01*
G01*
X76900000Y-23850001D01*
G75*
G02*
X76650001Y-24100000I-249999J0D01*
G01*
G37*
G36*
G01*
X76650001Y-27050000D02*
X75349999Y-27050000D01*
G75*
G02*
X75100000Y-26800001I0J249999D01*
G01*
X75100000Y-26149999D01*
G75*
G02*
X75349999Y-25900000I249999J0D01*
G01*
X76650001Y-25900000D01*
G75*
G02*
X76900000Y-26149999I0J-249999D01*
G01*
X76900000Y-26800001D01*
G75*
G02*
X76650001Y-27050000I-249999J0D01*
G01*
G37*
G36*
G01*
X48250001Y-24100000D02*
X46949999Y-24100000D01*
G75*
G02*
X46700000Y-23850001I0J249999D01*
G01*
X46700000Y-23199999D01*
G75*
G02*
X46949999Y-22950000I249999J0D01*
G01*
X48250001Y-22950000D01*
G75*
G02*
X48500000Y-23199999I0J-249999D01*
G01*
X48500000Y-23850001D01*
G75*
G02*
X48250001Y-24100000I-249999J0D01*
G01*
G37*
G36*
G01*
X48250001Y-27050000D02*
X46949999Y-27050000D01*
G75*
G02*
X46700000Y-26800001I0J249999D01*
G01*
X46700000Y-26149999D01*
G75*
G02*
X46949999Y-25900000I249999J0D01*
G01*
X48250001Y-25900000D01*
G75*
G02*
X48500000Y-26149999I0J-249999D01*
G01*
X48500000Y-26800001D01*
G75*
G02*
X48250001Y-27050000I-249999J0D01*
G01*
G37*
G36*
G01*
X72650001Y-24100000D02*
X71349999Y-24100000D01*
G75*
G02*
X71100000Y-23850001I0J249999D01*
G01*
X71100000Y-23199999D01*
G75*
G02*
X71349999Y-22950000I249999J0D01*
G01*
X72650001Y-22950000D01*
G75*
G02*
X72900000Y-23199999I0J-249999D01*
G01*
X72900000Y-23850001D01*
G75*
G02*
X72650001Y-24100000I-249999J0D01*
G01*
G37*
G36*
G01*
X72650001Y-27050000D02*
X71349999Y-27050000D01*
G75*
G02*
X71100000Y-26800001I0J249999D01*
G01*
X71100000Y-26149999D01*
G75*
G02*
X71349999Y-25900000I249999J0D01*
G01*
X72650001Y-25900000D01*
G75*
G02*
X72900000Y-26149999I0J-249999D01*
G01*
X72900000Y-26800001D01*
G75*
G02*
X72650001Y-27050000I-249999J0D01*
G01*
G37*
G36*
G01*
X63005000Y-32865000D02*
X63005000Y-32315000D01*
G75*
G02*
X63205000Y-32115000I200000J0D01*
G01*
X63605000Y-32115000D01*
G75*
G02*
X63805000Y-32315000I0J-200000D01*
G01*
X63805000Y-32865000D01*
G75*
G02*
X63605000Y-33065000I-200000J0D01*
G01*
X63205000Y-33065000D01*
G75*
G02*
X63005000Y-32865000I0J200000D01*
G01*
G37*
G36*
G01*
X61355000Y-32865000D02*
X61355000Y-32315000D01*
G75*
G02*
X61555000Y-32115000I200000J0D01*
G01*
X61955000Y-32115000D01*
G75*
G02*
X62155000Y-32315000I0J-200000D01*
G01*
X62155000Y-32865000D01*
G75*
G02*
X61955000Y-33065000I-200000J0D01*
G01*
X61555000Y-33065000D01*
G75*
G02*
X61355000Y-32865000I0J200000D01*
G01*
G37*
G36*
G01*
X58845000Y-32845000D02*
X58845000Y-32295000D01*
G75*
G02*
X59045000Y-32095000I200000J0D01*
G01*
X59445000Y-32095000D01*
G75*
G02*
X59645000Y-32295000I0J-200000D01*
G01*
X59645000Y-32845000D01*
G75*
G02*
X59445000Y-33045000I-200000J0D01*
G01*
X59045000Y-33045000D01*
G75*
G02*
X58845000Y-32845000I0J200000D01*
G01*
G37*
G36*
G01*
X57195000Y-32845000D02*
X57195000Y-32295000D01*
G75*
G02*
X57395000Y-32095000I200000J0D01*
G01*
X57795000Y-32095000D01*
G75*
G02*
X57995000Y-32295000I0J-200000D01*
G01*
X57995000Y-32845000D01*
G75*
G02*
X57795000Y-33045000I-200000J0D01*
G01*
X57395000Y-33045000D01*
G75*
G02*
X57195000Y-32845000I0J200000D01*
G01*
G37*
M02*
