G04 #@! TF.GenerationSoftware,KiCad,Pcbnew,(5.1.9-0-10_14)*
G04 #@! TF.CreationDate,2022-05-10T10:51:03-07:00*
G04 #@! TF.ProjectId,LED_array,4c45445f-6172-4726-9179-2e6b69636164,rev?*
G04 #@! TF.SameCoordinates,Original*
G04 #@! TF.FileFunction,Copper,L3,Inr*
G04 #@! TF.FilePolarity,Positive*
%FSLAX46Y46*%
G04 Gerber Fmt 4.6, Leading zero omitted, Abs format (unit mm)*
G04 Created by KiCad (PCBNEW (5.1.9-0-10_14)) date 2022-05-10 10:51:03*
%MOMM*%
%LPD*%
G01*
G04 APERTURE LIST*
G04 #@! TA.AperFunction,ComponentPad*
%ADD10C,0.650000*%
G04 #@! TD*
G04 #@! TA.AperFunction,ComponentPad*
%ADD11O,1.000000X2.000000*%
G04 #@! TD*
G04 #@! TA.AperFunction,ViaPad*
%ADD12C,0.800000*%
G04 #@! TD*
G04 #@! TA.AperFunction,ViaPad*
%ADD13C,0.400000*%
G04 #@! TD*
G04 APERTURE END LIST*
D10*
X60950000Y-26950000D03*
X61600000Y-26250000D03*
X62400000Y-26250000D03*
X62800000Y-26950000D03*
X63200000Y-26250000D03*
X63600000Y-26950000D03*
X64400000Y-26950000D03*
X64800000Y-26250000D03*
X65200000Y-26950000D03*
X65600000Y-26250000D03*
X66400000Y-26250000D03*
X67050000Y-26950000D03*
D11*
X68500000Y-27750000D03*
X59500000Y-27750000D03*
X68500000Y-22150000D03*
X59500000Y-22150000D03*
D12*
X66750000Y-29250000D03*
X76000000Y-22400000D03*
X72000000Y-22400000D03*
X47600000Y-22400000D03*
X51600000Y-22400000D03*
X52000000Y-29000000D03*
X49000000Y-29000000D03*
X46000000Y-29000000D03*
D13*
X71700000Y-39600000D03*
X45700000Y-39600000D03*
X50900000Y-34400000D03*
X53500000Y-34400000D03*
X56100000Y-34400000D03*
X58700000Y-34400000D03*
X61300000Y-34400000D03*
X63900000Y-34400000D03*
X66500000Y-34400000D03*
X69100000Y-34400000D03*
X50900000Y-39600000D03*
X53500000Y-39600000D03*
X56100000Y-39600000D03*
X58700000Y-39600000D03*
X61300000Y-39600000D03*
X63900000Y-39600000D03*
X66500000Y-39600000D03*
X69100000Y-39600000D03*
X50900000Y-44800000D03*
X53500000Y-44800000D03*
X56100000Y-44800000D03*
X58700000Y-44800000D03*
X61300000Y-44800000D03*
X63900000Y-44800000D03*
X66500000Y-44800000D03*
X69100000Y-44800000D03*
X50900000Y-50000000D03*
X53500000Y-50000000D03*
X56100000Y-50000000D03*
X58700000Y-50000000D03*
X61300000Y-50000000D03*
X63900000Y-50000000D03*
X66500000Y-50000000D03*
X69100000Y-50000000D03*
X50900000Y-55200000D03*
X53500000Y-55200000D03*
X56100000Y-55200000D03*
X58700000Y-55200000D03*
X61300000Y-55200000D03*
X63900000Y-55200000D03*
X66500000Y-55200000D03*
X69100000Y-55200000D03*
X50900000Y-60400000D03*
X53500000Y-60400000D03*
X56100000Y-60400000D03*
X58700000Y-60400000D03*
X61300000Y-60400000D03*
X63900000Y-60400000D03*
X66500000Y-60400000D03*
X69100000Y-60400000D03*
X50900000Y-65600000D03*
X53500000Y-65600000D03*
X56100000Y-65600000D03*
X58700000Y-65600000D03*
X61300000Y-65600000D03*
X63900000Y-65600000D03*
X66500000Y-65600000D03*
X69100000Y-65600000D03*
X48300000Y-39600000D03*
X45700000Y-44800000D03*
X48300000Y-44800000D03*
X45700000Y-50000000D03*
X48300000Y-50000000D03*
X45700000Y-55200000D03*
X48300000Y-55200000D03*
X45700000Y-60400000D03*
X48300000Y-60400000D03*
X74300000Y-39600000D03*
X71700000Y-44800000D03*
X74300000Y-44800000D03*
X71700000Y-50000000D03*
X74300000Y-50000000D03*
X71700000Y-55200000D03*
X74300000Y-55200000D03*
X71700000Y-60400000D03*
X74300000Y-60400000D03*
D12*
X61250000Y-29250000D03*
X65250000Y-29250000D03*
X62750000Y-29250000D03*
X53500000Y-29000000D03*
D13*
X71700000Y-42200000D03*
X45700000Y-42200000D03*
X50900000Y-37010000D03*
X53500000Y-37010000D03*
X56100000Y-37010000D03*
X58700000Y-37010000D03*
X61300000Y-37010000D03*
X63900000Y-37010000D03*
X66500000Y-37010000D03*
X69100000Y-37010000D03*
X50900000Y-42210000D03*
X53500000Y-42210000D03*
X56100000Y-42210000D03*
X58700000Y-42210000D03*
X61300000Y-42210000D03*
X63900000Y-42210000D03*
X66500000Y-42210000D03*
X69100000Y-42210000D03*
X50900000Y-47410000D03*
X53500000Y-47410000D03*
X56100000Y-47410000D03*
X58700000Y-47410000D03*
X61300000Y-47410000D03*
X63900000Y-47410000D03*
X66500000Y-47410000D03*
X69100000Y-47410000D03*
X50900000Y-52610000D03*
X53500000Y-52610000D03*
X56100000Y-52610000D03*
X58700000Y-52610000D03*
X61300000Y-52610000D03*
X63900000Y-52610000D03*
X66500000Y-52610000D03*
X69100000Y-52610000D03*
X50900000Y-57810000D03*
X53500000Y-57810000D03*
X56100000Y-57810000D03*
X58700000Y-57810000D03*
X61300000Y-57810000D03*
X63900000Y-57810000D03*
X66500000Y-57810000D03*
X69100000Y-57810000D03*
X50900000Y-63010000D03*
X53500000Y-63010000D03*
X56100000Y-63010000D03*
X58700000Y-63010000D03*
X61300000Y-63010000D03*
X63900000Y-63010000D03*
X66500000Y-63010000D03*
X69100000Y-63010000D03*
X48300000Y-42200000D03*
X45700000Y-47400000D03*
X48300000Y-47400000D03*
X45700000Y-52600000D03*
X48300000Y-52600000D03*
X45700000Y-57800000D03*
X48300000Y-57800000D03*
X74300000Y-42200000D03*
X71700000Y-47400000D03*
X74300000Y-47400000D03*
X71700000Y-52600000D03*
X74300000Y-52600000D03*
X71700000Y-57800000D03*
X74300000Y-57800000D03*
D12*
X76000000Y-27600000D03*
X72000000Y-27600000D03*
X53000000Y-26000000D03*
X49000000Y-26000000D03*
X64250000Y-30750000D03*
X60250000Y-32570000D03*
X47500000Y-29500000D03*
M02*
